M48
; DRILL file {KiCad (5.1.4)-1} date 6/27/2021 2:54:55 PM
; FORMAT={-:-/ absolute / inch / decimal}
; #@! TF.CreationDate,2021-06-27T14:54:55-05:00
; #@! TF.GenerationSoftware,Kicad,Pcbnew,(5.1.4)-1
; #@! TF.FileFunction,Plated,1,2,PTH
FMAT,2
INCH
T1C0.0079
T2C0.0157
T3C0.0236
T4C0.0335
T5C0.0394
T6C0.0472
%
G90
G05
T1
X6.713Y-4.0173
X6.713Y-4.0579
X6.713Y-4.0984
T2
X4.25Y-3.42
X4.6Y-3.37
X4.6Y-3.45
X4.65Y-3.27
X4.66Y-3.37
X4.66Y-3.45
X4.94Y-3.37
X4.94Y-3.45
X5.0Y-3.37
X5.0Y-3.45
X5.05Y-3.28
X5.06Y-3.37
X5.06Y-3.45
X5.41Y-3.37
X5.41Y-3.45
X5.47Y-3.37
X5.47Y-3.45
X5.52Y-3.29
X5.53Y-3.37
X5.53Y-3.45
X5.89Y-3.19
X5.934Y-3.58
X5.934Y-3.625
X5.934Y-3.67
X6.28Y-3.03
X6.3298Y-3.5002
X6.3504Y-3.6575
X6.44Y-3.66
X6.51Y-3.5426
X6.525Y-3.935
X6.5416Y-3.7824
X6.545Y-4.2225
X6.5619Y-3.935
X6.5629Y-3.5371
X6.57Y-3.63
X6.6Y-3.935
X6.654Y-3.954
X6.6563Y-4.1811
X6.67Y-3.66
X6.68Y-3.51
X6.705Y-3.4146
X6.714Y-3.956
X6.7154Y-4.1811
X6.75Y-3.66
X6.7592Y-3.4285
X6.7744Y-4.1811
X6.786Y-3.956
X6.8926Y-3.5407
X6.92Y-4.3875
X7.09Y-3.68
X7.152Y-3.998
X7.16Y-3.68
X7.17Y-3.85
X7.18Y-3.37
X7.1946Y-3.8124
X7.215Y-3.6975
X7.2175Y-3.95
X7.2722Y-3.3591
X7.2807Y-3.2666
X7.3099Y-3.2374
X7.37Y-3.24
X7.4163Y-3.4606
X7.4577Y-3.4606
X7.5Y-3.39
X7.55Y-3.08
T4
X7.0568Y-3.1544
X7.2536Y-3.1544
T5
X6.49Y-3.29
X6.59Y-3.29
X6.69Y-3.29
X6.79Y-3.29
X6.89Y-3.29
T6
X4.36Y-3.3299
X4.4584Y-3.3299
T3
G00X7.0174Y-3.0619
M15
G01X7.0174Y-3.0343
M16
G05
G00X7.293Y-3.0343
M15
G01X7.293Y-3.0619
M16
G05
T0
M30
