M48
; DRILL file {KiCad (5.1.4)-1} date 6/26/2021 6:01:21 PM
; FORMAT={-:-/ absolute / inch / decimal}
; #@! TF.CreationDate,2021-06-26T18:01:21-05:00
; #@! TF.GenerationSoftware,Kicad,Pcbnew,(5.1.4)-1
; #@! TF.FileFunction,Plated,1,2,PTH
FMAT,2
INCH
T1C0.0157
T2C0.0236
T3C0.0335
T4C0.0394
T5C0.0472
%
G90
G05
T1
X4.25Y-3.42
X4.6Y-3.37
X4.6Y-3.45
X4.65Y-3.27
X4.66Y-3.37
X4.66Y-3.45
X4.94Y-3.37
X4.94Y-3.45
X5.0Y-3.37
X5.0Y-3.45
X5.05Y-3.28
X5.06Y-3.37
X5.06Y-3.45
X5.41Y-3.37
X5.41Y-3.45
X5.47Y-3.37
X5.47Y-3.45
X5.52Y-3.29
X5.53Y-3.37
X5.53Y-3.45
X5.89Y-3.19
X5.934Y-3.58
X5.934Y-3.625
X5.934Y-3.67
X6.28Y-3.03
X6.3298Y-3.5002
X6.43Y-3.73
X6.44Y-3.66
X6.51Y-3.5426
X6.5416Y-3.7824
X6.5629Y-3.5371
X6.57Y-3.63
X6.67Y-3.66
X6.68Y-3.51
X6.705Y-3.4146
X6.75Y-3.66
X6.7592Y-3.4285
X6.8926Y-3.5407
X7.09Y-3.68
X7.16Y-3.68
X7.17Y-3.85
X7.18Y-3.37
X7.2722Y-3.3591
X7.2807Y-3.2666
X7.3099Y-3.2374
X7.37Y-3.24
X7.4163Y-3.4606
X7.4577Y-3.4606
X7.5Y-3.39
X7.55Y-3.08
T3
X7.0568Y-3.1544
X7.2536Y-3.1544
T4
X6.49Y-3.29
X6.59Y-3.29
X6.69Y-3.29
X6.79Y-3.29
X6.89Y-3.29
T5
X4.36Y-3.3299
X4.4584Y-3.3299
T2
G00X7.0174Y-3.0619
M15
G01X7.0174Y-3.0343
M16
G05
G00X7.293Y-3.0343
M15
G01X7.293Y-3.0619
M16
G05
T0
M30
