G04 #@! TF.GenerationSoftware,KiCad,Pcbnew,(5.1.5)-3*
G04 #@! TF.CreationDate,2021-06-26T16:15:31-05:00*
G04 #@! TF.ProjectId,NevermoreController,4e657665-726d-46f7-9265-436f6e74726f,rev?*
G04 #@! TF.SameCoordinates,Original*
G04 #@! TF.FileFunction,Legend,Top*
G04 #@! TF.FilePolarity,Positive*
%FSLAX46Y46*%
G04 Gerber Fmt 4.6, Leading zero omitted, Abs format (unit mm)*
G04 Created by KiCad (PCBNEW (5.1.5)-3) date 2021-06-26 16:15:31*
%MOMM*%
%LPD*%
G04 APERTURE LIST*
%ADD10C,0.300000*%
%ADD11C,0.100000*%
%ADD12C,0.120000*%
%ADD13C,0.150000*%
G04 APERTURE END LIST*
D10*
X116282285Y-78112571D02*
X116282285Y-76612571D01*
X117139428Y-78112571D01*
X117139428Y-76612571D01*
X118425143Y-78041142D02*
X118282285Y-78112571D01*
X117996571Y-78112571D01*
X117853714Y-78041142D01*
X117782285Y-77898285D01*
X117782285Y-77326857D01*
X117853714Y-77184000D01*
X117996571Y-77112571D01*
X118282285Y-77112571D01*
X118425143Y-77184000D01*
X118496571Y-77326857D01*
X118496571Y-77469714D01*
X117782285Y-77612571D01*
X118996571Y-77112571D02*
X119353714Y-78112571D01*
X119710857Y-77112571D01*
X120853714Y-78041142D02*
X120710857Y-78112571D01*
X120425143Y-78112571D01*
X120282285Y-78041142D01*
X120210857Y-77898285D01*
X120210857Y-77326857D01*
X120282285Y-77184000D01*
X120425143Y-77112571D01*
X120710857Y-77112571D01*
X120853714Y-77184000D01*
X120925143Y-77326857D01*
X120925143Y-77469714D01*
X120210857Y-77612571D01*
X121568000Y-78112571D02*
X121568000Y-77112571D01*
X121568000Y-77398285D02*
X121639428Y-77255428D01*
X121710857Y-77184000D01*
X121853714Y-77112571D01*
X121996571Y-77112571D01*
X122496571Y-78112571D02*
X122496571Y-77112571D01*
X122496571Y-77255428D02*
X122568000Y-77184000D01*
X122710857Y-77112571D01*
X122925143Y-77112571D01*
X123068000Y-77184000D01*
X123139428Y-77326857D01*
X123139428Y-78112571D01*
X123139428Y-77326857D02*
X123210857Y-77184000D01*
X123353714Y-77112571D01*
X123568000Y-77112571D01*
X123710857Y-77184000D01*
X123782285Y-77326857D01*
X123782285Y-78112571D01*
X124710857Y-78112571D02*
X124568000Y-78041142D01*
X124496571Y-77969714D01*
X124425143Y-77826857D01*
X124425143Y-77398285D01*
X124496571Y-77255428D01*
X124568000Y-77184000D01*
X124710857Y-77112571D01*
X124925143Y-77112571D01*
X125068000Y-77184000D01*
X125139428Y-77255428D01*
X125210857Y-77398285D01*
X125210857Y-77826857D01*
X125139428Y-77969714D01*
X125068000Y-78041142D01*
X124925143Y-78112571D01*
X124710857Y-78112571D01*
X125853714Y-78112571D02*
X125853714Y-77112571D01*
X125853714Y-77398285D02*
X125925143Y-77255428D01*
X125996571Y-77184000D01*
X126139428Y-77112571D01*
X126282285Y-77112571D01*
X127353714Y-78041142D02*
X127210857Y-78112571D01*
X126925143Y-78112571D01*
X126782285Y-78041142D01*
X126710857Y-77898285D01*
X126710857Y-77326857D01*
X126782285Y-77184000D01*
X126925143Y-77112571D01*
X127210857Y-77112571D01*
X127353714Y-77184000D01*
X127425143Y-77326857D01*
X127425143Y-77469714D01*
X126710857Y-77612571D01*
X129210857Y-78112571D02*
X129210857Y-76612571D01*
X129710857Y-77684000D01*
X130210857Y-76612571D01*
X130210857Y-78112571D01*
X131568000Y-78112571D02*
X131568000Y-77326857D01*
X131496571Y-77184000D01*
X131353714Y-77112571D01*
X131068000Y-77112571D01*
X130925143Y-77184000D01*
X131568000Y-78041142D02*
X131425143Y-78112571D01*
X131068000Y-78112571D01*
X130925143Y-78041142D01*
X130853714Y-77898285D01*
X130853714Y-77755428D01*
X130925143Y-77612571D01*
X131068000Y-77541142D01*
X131425143Y-77541142D01*
X131568000Y-77469714D01*
X132139428Y-78112571D02*
X132925143Y-77112571D01*
X132139428Y-77112571D02*
X132925143Y-78112571D01*
X135496571Y-77969714D02*
X135425143Y-78041142D01*
X135210857Y-78112571D01*
X135068000Y-78112571D01*
X134853714Y-78041142D01*
X134710857Y-77898285D01*
X134639428Y-77755428D01*
X134568000Y-77469714D01*
X134568000Y-77255428D01*
X134639428Y-76969714D01*
X134710857Y-76826857D01*
X134853714Y-76684000D01*
X135068000Y-76612571D01*
X135210857Y-76612571D01*
X135425143Y-76684000D01*
X135496571Y-76755428D01*
X136353714Y-78112571D02*
X136210857Y-78041142D01*
X136139428Y-77969714D01*
X136068000Y-77826857D01*
X136068000Y-77398285D01*
X136139428Y-77255428D01*
X136210857Y-77184000D01*
X136353714Y-77112571D01*
X136568000Y-77112571D01*
X136710857Y-77184000D01*
X136782285Y-77255428D01*
X136853714Y-77398285D01*
X136853714Y-77826857D01*
X136782285Y-77969714D01*
X136710857Y-78041142D01*
X136568000Y-78112571D01*
X136353714Y-78112571D01*
X137496571Y-77112571D02*
X137496571Y-78112571D01*
X137496571Y-77255428D02*
X137568000Y-77184000D01*
X137710857Y-77112571D01*
X137925143Y-77112571D01*
X138068000Y-77184000D01*
X138139428Y-77326857D01*
X138139428Y-78112571D01*
X138639428Y-77112571D02*
X139210857Y-77112571D01*
X138853714Y-76612571D02*
X138853714Y-77898285D01*
X138925143Y-78041142D01*
X139068000Y-78112571D01*
X139210857Y-78112571D01*
X139710857Y-78112571D02*
X139710857Y-77112571D01*
X139710857Y-77398285D02*
X139782285Y-77255428D01*
X139853714Y-77184000D01*
X139996571Y-77112571D01*
X140139428Y-77112571D01*
X140853714Y-78112571D02*
X140710857Y-78041142D01*
X140639428Y-77969714D01*
X140568000Y-77826857D01*
X140568000Y-77398285D01*
X140639428Y-77255428D01*
X140710857Y-77184000D01*
X140853714Y-77112571D01*
X141068000Y-77112571D01*
X141210857Y-77184000D01*
X141282285Y-77255428D01*
X141353714Y-77398285D01*
X141353714Y-77826857D01*
X141282285Y-77969714D01*
X141210857Y-78041142D01*
X141068000Y-78112571D01*
X140853714Y-78112571D01*
X142210857Y-78112571D02*
X142068000Y-78041142D01*
X141996571Y-77898285D01*
X141996571Y-76612571D01*
X142996571Y-78112571D02*
X142853714Y-78041142D01*
X142782285Y-77898285D01*
X142782285Y-76612571D01*
X144139428Y-78041142D02*
X143996571Y-78112571D01*
X143710857Y-78112571D01*
X143568000Y-78041142D01*
X143496571Y-77898285D01*
X143496571Y-77326857D01*
X143568000Y-77184000D01*
X143710857Y-77112571D01*
X143996571Y-77112571D01*
X144139428Y-77184000D01*
X144210857Y-77326857D01*
X144210857Y-77469714D01*
X143496571Y-77612571D01*
X144853714Y-78112571D02*
X144853714Y-77112571D01*
X144853714Y-77398285D02*
X144925143Y-77255428D01*
X144996571Y-77184000D01*
X145139428Y-77112571D01*
X145282285Y-77112571D01*
X102800000Y-91954761D02*
X103466666Y-93954761D01*
X104133333Y-91954761D01*
X105085714Y-93954761D02*
X104895238Y-93859523D01*
X104800000Y-93764285D01*
X104704761Y-93573809D01*
X104704761Y-93002380D01*
X104800000Y-92811904D01*
X104895238Y-92716666D01*
X105085714Y-92621428D01*
X105371428Y-92621428D01*
X105561904Y-92716666D01*
X105657142Y-92811904D01*
X105752380Y-93002380D01*
X105752380Y-93573809D01*
X105657142Y-93764285D01*
X105561904Y-93859523D01*
X105371428Y-93954761D01*
X105085714Y-93954761D01*
X106609523Y-93954761D02*
X106609523Y-92621428D01*
X106609523Y-93002380D02*
X106704761Y-92811904D01*
X106800000Y-92716666D01*
X106990476Y-92621428D01*
X107180952Y-92621428D01*
X108133333Y-93954761D02*
X107942857Y-93859523D01*
X107847619Y-93764285D01*
X107752380Y-93573809D01*
X107752380Y-93002380D01*
X107847619Y-92811904D01*
X107942857Y-92716666D01*
X108133333Y-92621428D01*
X108419047Y-92621428D01*
X108609523Y-92716666D01*
X108704761Y-92811904D01*
X108800000Y-93002380D01*
X108800000Y-93573809D01*
X108704761Y-93764285D01*
X108609523Y-93859523D01*
X108419047Y-93954761D01*
X108133333Y-93954761D01*
X109657142Y-92621428D02*
X109657142Y-93954761D01*
X109657142Y-92811904D02*
X109752380Y-92716666D01*
X109942857Y-92621428D01*
X110228571Y-92621428D01*
X110419047Y-92716666D01*
X110514285Y-92907142D01*
X110514285Y-93954761D01*
X102323809Y-97254761D02*
X102323809Y-95254761D01*
X102800000Y-95254761D01*
X103085714Y-95350000D01*
X103276190Y-95540476D01*
X103371428Y-95730952D01*
X103466666Y-96111904D01*
X103466666Y-96397619D01*
X103371428Y-96778571D01*
X103276190Y-96969047D01*
X103085714Y-97159523D01*
X102800000Y-97254761D01*
X102323809Y-97254761D01*
X105085714Y-97159523D02*
X104895238Y-97254761D01*
X104514285Y-97254761D01*
X104323809Y-97159523D01*
X104228571Y-96969047D01*
X104228571Y-96207142D01*
X104323809Y-96016666D01*
X104514285Y-95921428D01*
X104895238Y-95921428D01*
X105085714Y-96016666D01*
X105180952Y-96207142D01*
X105180952Y-96397619D01*
X104228571Y-96588095D01*
X105942857Y-97159523D02*
X106133333Y-97254761D01*
X106514285Y-97254761D01*
X106704761Y-97159523D01*
X106800000Y-96969047D01*
X106800000Y-96873809D01*
X106704761Y-96683333D01*
X106514285Y-96588095D01*
X106228571Y-96588095D01*
X106038095Y-96492857D01*
X105942857Y-96302380D01*
X105942857Y-96207142D01*
X106038095Y-96016666D01*
X106228571Y-95921428D01*
X106514285Y-95921428D01*
X106704761Y-96016666D01*
X107657142Y-97254761D02*
X107657142Y-95921428D01*
X107657142Y-95254761D02*
X107561904Y-95350000D01*
X107657142Y-95445238D01*
X107752380Y-95350000D01*
X107657142Y-95254761D01*
X107657142Y-95445238D01*
X109466666Y-95921428D02*
X109466666Y-97540476D01*
X109371428Y-97730952D01*
X109276190Y-97826190D01*
X109085714Y-97921428D01*
X108800000Y-97921428D01*
X108609523Y-97826190D01*
X109466666Y-97159523D02*
X109276190Y-97254761D01*
X108895238Y-97254761D01*
X108704761Y-97159523D01*
X108609523Y-97064285D01*
X108514285Y-96873809D01*
X108514285Y-96302380D01*
X108609523Y-96111904D01*
X108704761Y-96016666D01*
X108895238Y-95921428D01*
X109276190Y-95921428D01*
X109466666Y-96016666D01*
X110419047Y-95921428D02*
X110419047Y-97254761D01*
X110419047Y-96111904D02*
X110514285Y-96016666D01*
X110704761Y-95921428D01*
X110990476Y-95921428D01*
X111180952Y-96016666D01*
X111276190Y-96207142D01*
X111276190Y-97254761D01*
D11*
X187807142Y-93219785D02*
X188271428Y-93219785D01*
X188021428Y-93505500D01*
X188128571Y-93505500D01*
X188200000Y-93541214D01*
X188235714Y-93576928D01*
X188271428Y-93648357D01*
X188271428Y-93826928D01*
X188235714Y-93898357D01*
X188200000Y-93934071D01*
X188128571Y-93969785D01*
X187914285Y-93969785D01*
X187842857Y-93934071D01*
X187807142Y-93898357D01*
X188521428Y-93469785D02*
X188700000Y-93969785D01*
X188878571Y-93469785D01*
X189092857Y-93219785D02*
X189557142Y-93219785D01*
X189307142Y-93505500D01*
X189414285Y-93505500D01*
X189485714Y-93541214D01*
X189521428Y-93576928D01*
X189557142Y-93648357D01*
X189557142Y-93826928D01*
X189521428Y-93898357D01*
X189485714Y-93934071D01*
X189414285Y-93969785D01*
X189200000Y-93969785D01*
X189128571Y-93934071D01*
X189092857Y-93898357D01*
X187789285Y-91934071D02*
X187896428Y-91969785D01*
X188075000Y-91969785D01*
X188146428Y-91934071D01*
X188182142Y-91898357D01*
X188217857Y-91826928D01*
X188217857Y-91755500D01*
X188182142Y-91684071D01*
X188146428Y-91648357D01*
X188075000Y-91612642D01*
X187932142Y-91576928D01*
X187860714Y-91541214D01*
X187825000Y-91505500D01*
X187789285Y-91434071D01*
X187789285Y-91362642D01*
X187825000Y-91291214D01*
X187860714Y-91255500D01*
X187932142Y-91219785D01*
X188110714Y-91219785D01*
X188217857Y-91255500D01*
X188539285Y-91969785D02*
X188539285Y-91219785D01*
X188717857Y-91219785D01*
X188825000Y-91255500D01*
X188896428Y-91326928D01*
X188932142Y-91398357D01*
X188967857Y-91541214D01*
X188967857Y-91648357D01*
X188932142Y-91791214D01*
X188896428Y-91862642D01*
X188825000Y-91934071D01*
X188717857Y-91969785D01*
X188539285Y-91969785D01*
X189253571Y-91755500D02*
X189610714Y-91755500D01*
X189182142Y-91969785D02*
X189432142Y-91219785D01*
X189682142Y-91969785D01*
X187807142Y-89934071D02*
X187914285Y-89969785D01*
X188092857Y-89969785D01*
X188164285Y-89934071D01*
X188200000Y-89898357D01*
X188235714Y-89826928D01*
X188235714Y-89755500D01*
X188200000Y-89684071D01*
X188164285Y-89648357D01*
X188092857Y-89612642D01*
X187950000Y-89576928D01*
X187878571Y-89541214D01*
X187842857Y-89505500D01*
X187807142Y-89434071D01*
X187807142Y-89362642D01*
X187842857Y-89291214D01*
X187878571Y-89255500D01*
X187950000Y-89219785D01*
X188128571Y-89219785D01*
X188235714Y-89255500D01*
X188985714Y-89898357D02*
X188950000Y-89934071D01*
X188842857Y-89969785D01*
X188771428Y-89969785D01*
X188664285Y-89934071D01*
X188592857Y-89862642D01*
X188557142Y-89791214D01*
X188521428Y-89648357D01*
X188521428Y-89541214D01*
X188557142Y-89398357D01*
X188592857Y-89326928D01*
X188664285Y-89255500D01*
X188771428Y-89219785D01*
X188842857Y-89219785D01*
X188950000Y-89255500D01*
X188985714Y-89291214D01*
X189664285Y-89969785D02*
X189307142Y-89969785D01*
X189307142Y-89219785D01*
X188128571Y-87255500D02*
X188057142Y-87219785D01*
X187950000Y-87219785D01*
X187842857Y-87255500D01*
X187771428Y-87326928D01*
X187735714Y-87398357D01*
X187700000Y-87541214D01*
X187700000Y-87648357D01*
X187735714Y-87791214D01*
X187771428Y-87862642D01*
X187842857Y-87934071D01*
X187950000Y-87969785D01*
X188021428Y-87969785D01*
X188128571Y-87934071D01*
X188164285Y-87898357D01*
X188164285Y-87648357D01*
X188021428Y-87648357D01*
X188485714Y-87969785D02*
X188485714Y-87219785D01*
X188914285Y-87969785D01*
X188914285Y-87219785D01*
X189271428Y-87969785D02*
X189271428Y-87219785D01*
X189450000Y-87219785D01*
X189557142Y-87255500D01*
X189628571Y-87326928D01*
X189664285Y-87398357D01*
X189700000Y-87541214D01*
X189700000Y-87648357D01*
X189664285Y-87791214D01*
X189628571Y-87862642D01*
X189557142Y-87934071D01*
X189450000Y-87969785D01*
X189271428Y-87969785D01*
X163801000Y-86339285D02*
X163801000Y-85589285D01*
X163979571Y-85589285D01*
X164086714Y-85625000D01*
X164158142Y-85696428D01*
X164193857Y-85767857D01*
X164229571Y-85910714D01*
X164229571Y-86017857D01*
X164193857Y-86160714D01*
X164158142Y-86232142D01*
X164086714Y-86303571D01*
X163979571Y-86339285D01*
X163801000Y-86339285D01*
X164551000Y-86339285D02*
X164551000Y-85589285D01*
X165051000Y-85589285D02*
X165193857Y-85589285D01*
X165265285Y-85625000D01*
X165336714Y-85696428D01*
X165372428Y-85839285D01*
X165372428Y-86089285D01*
X165336714Y-86232142D01*
X165265285Y-86303571D01*
X165193857Y-86339285D01*
X165051000Y-86339285D01*
X164979571Y-86303571D01*
X164908142Y-86232142D01*
X164872428Y-86089285D01*
X164872428Y-85839285D01*
X164908142Y-85696428D01*
X164979571Y-85625000D01*
X165051000Y-85589285D01*
X166693857Y-86267857D02*
X166658142Y-86303571D01*
X166551000Y-86339285D01*
X166479571Y-86339285D01*
X166372428Y-86303571D01*
X166301000Y-86232142D01*
X166265285Y-86160714D01*
X166229571Y-86017857D01*
X166229571Y-85910714D01*
X166265285Y-85767857D01*
X166301000Y-85696428D01*
X166372428Y-85625000D01*
X166479571Y-85589285D01*
X166551000Y-85589285D01*
X166658142Y-85625000D01*
X166693857Y-85660714D01*
X167372428Y-86339285D02*
X167015285Y-86339285D01*
X167015285Y-85589285D01*
X167622428Y-86339285D02*
X167622428Y-85589285D01*
X168051000Y-86339285D02*
X167729571Y-85910714D01*
X168051000Y-85589285D02*
X167622428Y-86017857D01*
X169372428Y-86339285D02*
X169122428Y-85982142D01*
X168943857Y-86339285D02*
X168943857Y-85589285D01*
X169229571Y-85589285D01*
X169301000Y-85625000D01*
X169336714Y-85660714D01*
X169372428Y-85732142D01*
X169372428Y-85839285D01*
X169336714Y-85910714D01*
X169301000Y-85946428D01*
X169229571Y-85982142D01*
X168943857Y-85982142D01*
X169658142Y-86303571D02*
X169765285Y-86339285D01*
X169943857Y-86339285D01*
X170015285Y-86303571D01*
X170051000Y-86267857D01*
X170086714Y-86196428D01*
X170086714Y-86125000D01*
X170051000Y-86053571D01*
X170015285Y-86017857D01*
X169943857Y-85982142D01*
X169801000Y-85946428D01*
X169729571Y-85910714D01*
X169693857Y-85875000D01*
X169658142Y-85803571D01*
X169658142Y-85732142D01*
X169693857Y-85660714D01*
X169729571Y-85625000D01*
X169801000Y-85589285D01*
X169979571Y-85589285D01*
X170086714Y-85625000D01*
X170301000Y-85589285D02*
X170729571Y-85589285D01*
X170515285Y-86339285D02*
X170515285Y-85589285D01*
X171479571Y-85589285D02*
X171943857Y-85589285D01*
X171693857Y-85875000D01*
X171801000Y-85875000D01*
X171872428Y-85910714D01*
X171908142Y-85946428D01*
X171943857Y-86017857D01*
X171943857Y-86196428D01*
X171908142Y-86267857D01*
X171872428Y-86303571D01*
X171801000Y-86339285D01*
X171586714Y-86339285D01*
X171515285Y-86303571D01*
X171479571Y-86267857D01*
X172193857Y-85839285D02*
X172372428Y-86339285D01*
X172551000Y-85839285D01*
X172765285Y-85589285D02*
X173229571Y-85589285D01*
X172979571Y-85875000D01*
X173086714Y-85875000D01*
X173158142Y-85910714D01*
X173193857Y-85946428D01*
X173229571Y-86017857D01*
X173229571Y-86196428D01*
X173193857Y-86267857D01*
X173158142Y-86303571D01*
X173086714Y-86339285D01*
X172872428Y-86339285D01*
X172801000Y-86303571D01*
X172765285Y-86267857D01*
X174515285Y-85625000D02*
X174443857Y-85589285D01*
X174336714Y-85589285D01*
X174229571Y-85625000D01*
X174158142Y-85696428D01*
X174122428Y-85767857D01*
X174086714Y-85910714D01*
X174086714Y-86017857D01*
X174122428Y-86160714D01*
X174158142Y-86232142D01*
X174229571Y-86303571D01*
X174336714Y-86339285D01*
X174408142Y-86339285D01*
X174515285Y-86303571D01*
X174551000Y-86267857D01*
X174551000Y-86017857D01*
X174408142Y-86017857D01*
X174872428Y-86339285D02*
X174872428Y-85589285D01*
X175301000Y-86339285D01*
X175301000Y-85589285D01*
X175658142Y-86339285D02*
X175658142Y-85589285D01*
X175836714Y-85589285D01*
X175943857Y-85625000D01*
X176015285Y-85696428D01*
X176051000Y-85767857D01*
X176086714Y-85910714D01*
X176086714Y-86017857D01*
X176051000Y-86160714D01*
X176015285Y-86232142D01*
X175943857Y-86303571D01*
X175836714Y-86339285D01*
X175658142Y-86339285D01*
D10*
X106260000Y-83832000D02*
X106117142Y-83760571D01*
X105902857Y-83760571D01*
X105688571Y-83832000D01*
X105545714Y-83974857D01*
X105474285Y-84117714D01*
X105402857Y-84403428D01*
X105402857Y-84617714D01*
X105474285Y-84903428D01*
X105545714Y-85046285D01*
X105688571Y-85189142D01*
X105902857Y-85260571D01*
X106045714Y-85260571D01*
X106260000Y-85189142D01*
X106331428Y-85117714D01*
X106331428Y-84617714D01*
X106045714Y-84617714D01*
X106974285Y-85260571D02*
X106974285Y-83760571D01*
X107831428Y-85260571D01*
X107831428Y-83760571D01*
X108545714Y-85260571D02*
X108545714Y-83760571D01*
X108902857Y-83760571D01*
X109117142Y-83832000D01*
X109260000Y-83974857D01*
X109331428Y-84117714D01*
X109402857Y-84403428D01*
X109402857Y-84617714D01*
X109331428Y-84903428D01*
X109260000Y-85046285D01*
X109117142Y-85189142D01*
X108902857Y-85260571D01*
X108545714Y-85260571D01*
X115402857Y-85260571D02*
X114545714Y-85260571D01*
X114974285Y-85260571D02*
X114974285Y-83760571D01*
X114831428Y-83974857D01*
X114688571Y-84117714D01*
X114545714Y-84189142D01*
X115974285Y-83903428D02*
X116045714Y-83832000D01*
X116188571Y-83760571D01*
X116545714Y-83760571D01*
X116688571Y-83832000D01*
X116760000Y-83903428D01*
X116831428Y-84046285D01*
X116831428Y-84189142D01*
X116760000Y-84403428D01*
X115902857Y-85260571D01*
X116831428Y-85260571D01*
X117260000Y-83760571D02*
X117760000Y-85260571D01*
X118260000Y-83760571D01*
D12*
X134000000Y-88577500D02*
X134000000Y-85427500D01*
X135700000Y-88577500D02*
X135700000Y-85427500D01*
X134000000Y-88577500D02*
X135700000Y-88577500D01*
X146150000Y-88567500D02*
X146150000Y-85417500D01*
X147850000Y-88567500D02*
X147850000Y-85417500D01*
X146150000Y-88567500D02*
X147850000Y-88567500D01*
X154550000Y-88847500D02*
X154550000Y-85697500D01*
X156250000Y-88847500D02*
X156250000Y-85697500D01*
X154550000Y-88847500D02*
X156250000Y-88847500D01*
X191119000Y-81139000D02*
X191119000Y-78689000D01*
X187899000Y-79339000D02*
X187899000Y-81139000D01*
X164841422Y-79110000D02*
X165358578Y-79110000D01*
X164841422Y-77690000D02*
X165358578Y-77690000D01*
X159859000Y-79360000D02*
X162544000Y-79360000D01*
X159859000Y-77440000D02*
X159859000Y-79360000D01*
X162544000Y-77440000D02*
X159859000Y-77440000D01*
X189767578Y-82390000D02*
X189250422Y-82390000D01*
X189767578Y-83810000D02*
X189250422Y-83810000D01*
X189250422Y-78010000D02*
X189767578Y-78010000D01*
X189250422Y-76590000D02*
X189767578Y-76590000D01*
X170692578Y-79808000D02*
X170175422Y-79808000D01*
X170692578Y-81228000D02*
X170175422Y-81228000D01*
X180796000Y-83824578D02*
X180796000Y-83307422D01*
X179376000Y-83824578D02*
X179376000Y-83307422D01*
X164841422Y-81228000D02*
X165358578Y-81228000D01*
X164841422Y-79808000D02*
X165358578Y-79808000D01*
X105171422Y-90118000D02*
X105688578Y-90118000D01*
X105171422Y-88698000D02*
X105688578Y-88698000D01*
X159859000Y-81478000D02*
X162544000Y-81478000D01*
X159859000Y-79558000D02*
X159859000Y-81478000D01*
X162544000Y-79558000D02*
X159859000Y-79558000D01*
X107095000Y-86416000D02*
X104410000Y-86416000D01*
X107095000Y-88336000D02*
X107095000Y-86416000D01*
X104410000Y-88336000D02*
X107095000Y-88336000D01*
X199582000Y-95018000D02*
X199582000Y-86338000D01*
X193362000Y-85638000D02*
X193362000Y-86918000D01*
X191762000Y-85638000D02*
X193362000Y-85638000D01*
X191762000Y-84618000D02*
X191762000Y-85638000D01*
X196012000Y-84618000D02*
X191762000Y-84618000D01*
X193362000Y-94438000D02*
X190472000Y-94438000D01*
X193362000Y-95718000D02*
X193362000Y-94438000D01*
X191762000Y-95718000D02*
X193362000Y-95718000D01*
X191762000Y-96738000D02*
X191762000Y-95718000D01*
X196012000Y-96738000D02*
X191762000Y-96738000D01*
X169112000Y-94483422D02*
X169112000Y-95000578D01*
X167692000Y-94483422D02*
X167692000Y-95000578D01*
X179319422Y-98246000D02*
X179836578Y-98246000D01*
X179319422Y-96826000D02*
X179836578Y-96826000D01*
X166114000Y-92512000D02*
X164654000Y-92512000D01*
X166114000Y-89352000D02*
X163954000Y-89352000D01*
X166114000Y-89352000D02*
X166114000Y-90282000D01*
X166114000Y-92512000D02*
X166114000Y-91582000D01*
X172210000Y-92512000D02*
X170750000Y-92512000D01*
X172210000Y-89352000D02*
X170050000Y-89352000D01*
X172210000Y-89352000D02*
X172210000Y-90282000D01*
X172210000Y-92512000D02*
X172210000Y-91582000D01*
X166114000Y-96322000D02*
X166114000Y-95392000D01*
X166114000Y-93162000D02*
X166114000Y-94092000D01*
X166114000Y-93162000D02*
X163954000Y-93162000D01*
X166114000Y-96322000D02*
X164654000Y-96322000D01*
X172210000Y-96322000D02*
X172210000Y-95392000D01*
X172210000Y-93162000D02*
X172210000Y-94092000D01*
X172210000Y-93162000D02*
X170050000Y-93162000D01*
X172210000Y-96322000D02*
X170750000Y-96322000D01*
X167692000Y-90673422D02*
X167692000Y-91190578D01*
X169112000Y-90673422D02*
X169112000Y-91190578D01*
X163016000Y-94483422D02*
X163016000Y-95000578D01*
X161596000Y-94483422D02*
X161596000Y-95000578D01*
X129290000Y-82545422D02*
X129290000Y-83062578D01*
X130710000Y-82545422D02*
X130710000Y-83062578D01*
X133298000Y-83062578D02*
X133298000Y-82545422D01*
X131878000Y-83062578D02*
X131878000Y-82545422D01*
X141276000Y-82545422D02*
X141276000Y-83062578D01*
X142696000Y-82545422D02*
X142696000Y-83062578D01*
X145236000Y-83062578D02*
X145236000Y-82545422D01*
X143816000Y-83062578D02*
X143816000Y-82545422D01*
X160349000Y-87206078D02*
X160349000Y-86688922D01*
X158929000Y-87206078D02*
X158929000Y-86688922D01*
X119178000Y-82545422D02*
X119178000Y-83062578D01*
X120598000Y-82545422D02*
X120598000Y-83062578D01*
X123138000Y-83062578D02*
X123138000Y-82545422D01*
X121718000Y-83062578D02*
X121718000Y-82545422D01*
X156844750Y-86688922D02*
X156844750Y-87206078D01*
X158264750Y-86688922D02*
X158264750Y-87206078D01*
D11*
X122085500Y-85027500D02*
X122085500Y-85327500D01*
X121710500Y-85027500D02*
X122085500Y-85027500D01*
X122085500Y-88327500D02*
X121635500Y-88327500D01*
X122085500Y-88027500D02*
X122085500Y-88327500D01*
X122085500Y-88102500D02*
X122085500Y-87977500D01*
X120435500Y-88327500D02*
X120435500Y-87977500D01*
X120910500Y-88327500D02*
X120435500Y-88327500D01*
X120435500Y-85352500D02*
X119660500Y-85352500D01*
X120435500Y-85302500D02*
X120435500Y-85352500D01*
X120810500Y-85027500D02*
X120435500Y-85302500D01*
X121085500Y-85027500D02*
X120810500Y-85027500D01*
X132155700Y-85027500D02*
X132155700Y-85327500D01*
X131780700Y-85027500D02*
X132155700Y-85027500D01*
X132155700Y-88327500D02*
X131705700Y-88327500D01*
X132155700Y-88027500D02*
X132155700Y-88327500D01*
X132155700Y-88102500D02*
X132155700Y-87977500D01*
X130505700Y-88327500D02*
X130505700Y-87977500D01*
X130980700Y-88327500D02*
X130505700Y-88327500D01*
X130505700Y-85352500D02*
X129730700Y-85352500D01*
X130505700Y-85302500D02*
X130505700Y-85352500D01*
X130880700Y-85027500D02*
X130505700Y-85302500D01*
X131155700Y-85027500D02*
X130880700Y-85027500D01*
X144210700Y-85017500D02*
X144210700Y-85317500D01*
X143835700Y-85017500D02*
X144210700Y-85017500D01*
X144210700Y-88317500D02*
X143760700Y-88317500D01*
X144210700Y-88017500D02*
X144210700Y-88317500D01*
X144210700Y-88092500D02*
X144210700Y-87967500D01*
X142560700Y-88317500D02*
X142560700Y-87967500D01*
X143035700Y-88317500D02*
X142560700Y-88317500D01*
X142560700Y-85342500D02*
X141785700Y-85342500D01*
X142560700Y-85292500D02*
X142560700Y-85342500D01*
X142935700Y-85017500D02*
X142560700Y-85292500D01*
X143210700Y-85017500D02*
X142935700Y-85017500D01*
D12*
X182828000Y-83824578D02*
X182828000Y-83307422D01*
X181408000Y-83824578D02*
X181408000Y-83307422D01*
X115198500Y-99410000D02*
X119878500Y-99410000D01*
X120578500Y-93190000D02*
X119298500Y-93190000D01*
X120578500Y-91590000D02*
X120578500Y-93190000D01*
X121598500Y-91590000D02*
X120578500Y-91590000D01*
X121598500Y-95840000D02*
X121598500Y-91590000D01*
X115778500Y-93190000D02*
X115778500Y-90300000D01*
X114498500Y-93190000D02*
X115778500Y-93190000D01*
X114498500Y-91590000D02*
X114498500Y-93190000D01*
X113478500Y-91590000D02*
X114498500Y-91590000D01*
X113478500Y-95840000D02*
X113478500Y-91590000D01*
D13*
X178239000Y-87786000D02*
X176814000Y-87786000D01*
X185489000Y-87561000D02*
X185164000Y-87561000D01*
X185489000Y-94811000D02*
X185164000Y-94811000D01*
X178239000Y-94811000D02*
X178564000Y-94811000D01*
X178239000Y-87561000D02*
X178564000Y-87561000D01*
X178239000Y-94811000D02*
X178239000Y-94486000D01*
X185489000Y-94811000D02*
X185489000Y-94486000D01*
X185489000Y-87561000D02*
X185489000Y-87886000D01*
X178239000Y-87561000D02*
X178239000Y-87786000D01*
D12*
X176336000Y-82236000D02*
X176336000Y-83566000D01*
X175006000Y-82236000D02*
X176336000Y-82236000D01*
X173736000Y-82236000D02*
X173736000Y-84896000D01*
X173736000Y-84896000D02*
X163516000Y-84896000D01*
X173736000Y-82236000D02*
X163516000Y-82236000D01*
X163516000Y-82236000D02*
X163516000Y-84896000D01*
X151025000Y-80082000D02*
X151950000Y-80082000D01*
X147150000Y-77957000D02*
X147150000Y-78507000D01*
X152050000Y-77957000D02*
X152050000Y-78507000D01*
X147250000Y-76382000D02*
X151950000Y-76382000D01*
X147250000Y-80082000D02*
X148175000Y-80082000D01*
X149384600Y-99410000D02*
X158064600Y-99410000D01*
X158764600Y-93190000D02*
X157484600Y-93190000D01*
X158764600Y-91590000D02*
X158764600Y-93190000D01*
X159784600Y-91590000D02*
X158764600Y-91590000D01*
X159784600Y-95840000D02*
X159784600Y-91590000D01*
X149964600Y-93190000D02*
X149964600Y-90300000D01*
X148684600Y-93190000D02*
X149964600Y-93190000D01*
X148684600Y-91590000D02*
X148684600Y-93190000D01*
X147664600Y-91590000D02*
X148684600Y-91590000D01*
X147664600Y-95840000D02*
X147664600Y-91590000D01*
X125260533Y-99410000D02*
X131940533Y-99410000D01*
X132640533Y-93190000D02*
X131360533Y-93190000D01*
X132640533Y-91590000D02*
X132640533Y-93190000D01*
X133660533Y-91590000D02*
X132640533Y-91590000D01*
X133660533Y-95840000D02*
X133660533Y-91590000D01*
X125840533Y-93190000D02*
X125840533Y-90300000D01*
X124560533Y-93190000D02*
X125840533Y-93190000D01*
X124560533Y-91590000D02*
X124560533Y-93190000D01*
X123540533Y-91590000D02*
X124560533Y-91590000D01*
X123540533Y-95840000D02*
X123540533Y-91590000D01*
X137322566Y-99410000D02*
X144002566Y-99410000D01*
X144702566Y-93190000D02*
X143422566Y-93190000D01*
X144702566Y-91590000D02*
X144702566Y-93190000D01*
X145722566Y-91590000D02*
X144702566Y-91590000D01*
X145722566Y-95840000D02*
X145722566Y-91590000D01*
X137902566Y-93190000D02*
X137902566Y-90300000D01*
X136622566Y-93190000D02*
X137902566Y-93190000D01*
X136622566Y-91590000D02*
X136622566Y-93190000D01*
X135602566Y-91590000D02*
X136622566Y-91590000D01*
X135602566Y-95840000D02*
X135602566Y-91590000D01*
X111708000Y-89342752D02*
X111708000Y-88820248D01*
X110288000Y-89342752D02*
X110288000Y-88820248D01*
X183442000Y-80971500D02*
X183442000Y-80521500D01*
X183442000Y-80971500D02*
X182992000Y-80971500D01*
X177842000Y-80421500D02*
X178292000Y-80421500D01*
X177842000Y-78571500D02*
X177842000Y-80421500D01*
X185642000Y-76021500D02*
X185642000Y-76271500D01*
X177842000Y-76021500D02*
X177842000Y-76271500D01*
X185642000Y-78571500D02*
X185642000Y-80421500D01*
X185642000Y-80421500D02*
X185192000Y-80421500D01*
X109209736Y-84880000D02*
X109634000Y-84580000D01*
X109209736Y-84280000D02*
X109209736Y-84880000D01*
X109634000Y-84580000D02*
X109209736Y-84280000D01*
X113394000Y-83220000D02*
X113394000Y-82770000D01*
X113094000Y-83220000D02*
X113394000Y-83220000D01*
X113094000Y-82770000D02*
X113094000Y-83220000D01*
X113394000Y-82770000D02*
X113094000Y-82770000D01*
X110894000Y-83220000D02*
X110894000Y-82770000D01*
X110594000Y-83220000D02*
X110894000Y-83220000D01*
X110594000Y-82770000D02*
X110594000Y-83220000D01*
X110894000Y-82770000D02*
X110594000Y-82770000D01*
X108914000Y-74090000D02*
X108914000Y-82770000D01*
X115074000Y-74090000D02*
X108914000Y-74090000D01*
X115074000Y-82770000D02*
X115074000Y-74090000D01*
X108914000Y-82770000D02*
X115074000Y-82770000D01*
D13*
X135234880Y-84314285D02*
X134234880Y-84314285D01*
X134234880Y-84076190D01*
X134282500Y-83933333D01*
X134377738Y-83838095D01*
X134472976Y-83790476D01*
X134663452Y-83742857D01*
X134806309Y-83742857D01*
X134996785Y-83790476D01*
X135092023Y-83838095D01*
X135187261Y-83933333D01*
X135234880Y-84076190D01*
X135234880Y-84314285D01*
X135234880Y-82790476D02*
X135234880Y-83361904D01*
X135234880Y-83076190D02*
X134234880Y-83076190D01*
X134377738Y-83171428D01*
X134472976Y-83266666D01*
X134520595Y-83361904D01*
X134234880Y-82171428D02*
X134234880Y-82076190D01*
X134282500Y-81980952D01*
X134330119Y-81933333D01*
X134425357Y-81885714D01*
X134615833Y-81838095D01*
X134853928Y-81838095D01*
X135044404Y-81885714D01*
X135139642Y-81933333D01*
X135187261Y-81980952D01*
X135234880Y-82076190D01*
X135234880Y-82171428D01*
X135187261Y-82266666D01*
X135139642Y-82314285D01*
X135044404Y-82361904D01*
X134853928Y-82409523D01*
X134615833Y-82409523D01*
X134425357Y-82361904D01*
X134330119Y-82314285D01*
X134282500Y-82266666D01*
X134234880Y-82171428D01*
X147384880Y-84438096D02*
X146384880Y-84438096D01*
X146384880Y-84200001D01*
X146432500Y-84057143D01*
X146527738Y-83961905D01*
X146622976Y-83914286D01*
X146813452Y-83866667D01*
X146956309Y-83866667D01*
X147146785Y-83914286D01*
X147242023Y-83961905D01*
X147337261Y-84057143D01*
X147384880Y-84200001D01*
X147384880Y-84438096D01*
X147384880Y-83390477D02*
X147384880Y-83200001D01*
X147337261Y-83104762D01*
X147289642Y-83057143D01*
X147146785Y-82961905D01*
X146956309Y-82914286D01*
X146575357Y-82914286D01*
X146480119Y-82961905D01*
X146432500Y-83009524D01*
X146384880Y-83104762D01*
X146384880Y-83295239D01*
X146432500Y-83390477D01*
X146480119Y-83438096D01*
X146575357Y-83485715D01*
X146813452Y-83485715D01*
X146908690Y-83438096D01*
X146956309Y-83390477D01*
X147003928Y-83295239D01*
X147003928Y-83104762D01*
X146956309Y-83009524D01*
X146908690Y-82961905D01*
X146813452Y-82914286D01*
X155784880Y-84438096D02*
X154784880Y-84438096D01*
X154784880Y-84200001D01*
X154832500Y-84057143D01*
X154927738Y-83961905D01*
X155022976Y-83914286D01*
X155213452Y-83866667D01*
X155356309Y-83866667D01*
X155546785Y-83914286D01*
X155642023Y-83961905D01*
X155737261Y-84057143D01*
X155784880Y-84200001D01*
X155784880Y-84438096D01*
X155213452Y-83295239D02*
X155165833Y-83390477D01*
X155118214Y-83438096D01*
X155022976Y-83485715D01*
X154975357Y-83485715D01*
X154880119Y-83438096D01*
X154832500Y-83390477D01*
X154784880Y-83295239D01*
X154784880Y-83104762D01*
X154832500Y-83009524D01*
X154880119Y-82961905D01*
X154975357Y-82914286D01*
X155022976Y-82914286D01*
X155118214Y-82961905D01*
X155165833Y-83009524D01*
X155213452Y-83104762D01*
X155213452Y-83295239D01*
X155261071Y-83390477D01*
X155308690Y-83438096D01*
X155403928Y-83485715D01*
X155594404Y-83485715D01*
X155689642Y-83438096D01*
X155737261Y-83390477D01*
X155784880Y-83295239D01*
X155784880Y-83104762D01*
X155737261Y-83009524D01*
X155689642Y-82961905D01*
X155594404Y-82914286D01*
X155403928Y-82914286D01*
X155308690Y-82961905D01*
X155261071Y-83009524D01*
X155213452Y-83104762D01*
X191861380Y-81000904D02*
X192670904Y-81000904D01*
X192766142Y-80953285D01*
X192813761Y-80905666D01*
X192861380Y-80810428D01*
X192861380Y-80619952D01*
X192813761Y-80524714D01*
X192766142Y-80477095D01*
X192670904Y-80429476D01*
X191861380Y-80429476D01*
X192861380Y-79429476D02*
X192861380Y-80000904D01*
X192861380Y-79715190D02*
X191861380Y-79715190D01*
X192004238Y-79810428D01*
X192099476Y-79905666D01*
X192147095Y-80000904D01*
X168052380Y-78566667D02*
X167576190Y-78900001D01*
X168052380Y-79138096D02*
X167052380Y-79138096D01*
X167052380Y-78757143D01*
X167100000Y-78661905D01*
X167147619Y-78614286D01*
X167242857Y-78566667D01*
X167385714Y-78566667D01*
X167480952Y-78614286D01*
X167528571Y-78661905D01*
X167576190Y-78757143D01*
X167576190Y-79138096D01*
X167147619Y-78185715D02*
X167100000Y-78138096D01*
X167052380Y-78042858D01*
X167052380Y-77804762D01*
X167100000Y-77709524D01*
X167147619Y-77661905D01*
X167242857Y-77614286D01*
X167338095Y-77614286D01*
X167480952Y-77661905D01*
X168052380Y-78233334D01*
X168052380Y-77614286D01*
X157109523Y-77784880D02*
X157728571Y-77784880D01*
X157395238Y-78165833D01*
X157538095Y-78165833D01*
X157633333Y-78213452D01*
X157680952Y-78261071D01*
X157728571Y-78356309D01*
X157728571Y-78594404D01*
X157680952Y-78689642D01*
X157633333Y-78737261D01*
X157538095Y-78784880D01*
X157252380Y-78784880D01*
X157157142Y-78737261D01*
X157109523Y-78689642D01*
X158061904Y-78118214D02*
X158300000Y-78784880D01*
X158538095Y-78118214D01*
X158823809Y-77784880D02*
X159442857Y-77784880D01*
X159109523Y-78165833D01*
X159252380Y-78165833D01*
X159347619Y-78213452D01*
X159395238Y-78261071D01*
X159442857Y-78356309D01*
X159442857Y-78594404D01*
X159395238Y-78689642D01*
X159347619Y-78737261D01*
X159252380Y-78784880D01*
X158966666Y-78784880D01*
X158871428Y-78737261D01*
X158823809Y-78689642D01*
X191933333Y-83499142D02*
X191885714Y-83546761D01*
X191742857Y-83594380D01*
X191647619Y-83594380D01*
X191504761Y-83546761D01*
X191409523Y-83451523D01*
X191361904Y-83356285D01*
X191314285Y-83165809D01*
X191314285Y-83022952D01*
X191361904Y-82832476D01*
X191409523Y-82737238D01*
X191504761Y-82642000D01*
X191647619Y-82594380D01*
X191742857Y-82594380D01*
X191885714Y-82642000D01*
X191933333Y-82689619D01*
X192314285Y-82689619D02*
X192361904Y-82642000D01*
X192457142Y-82594380D01*
X192695238Y-82594380D01*
X192790476Y-82642000D01*
X192838095Y-82689619D01*
X192885714Y-82784857D01*
X192885714Y-82880095D01*
X192838095Y-83022952D01*
X192266666Y-83594380D01*
X192885714Y-83594380D01*
X191933333Y-77657142D02*
X191885714Y-77704761D01*
X191742857Y-77752380D01*
X191647619Y-77752380D01*
X191504761Y-77704761D01*
X191409523Y-77609523D01*
X191361904Y-77514285D01*
X191314285Y-77323809D01*
X191314285Y-77180952D01*
X191361904Y-76990476D01*
X191409523Y-76895238D01*
X191504761Y-76800000D01*
X191647619Y-76752380D01*
X191742857Y-76752380D01*
X191885714Y-76800000D01*
X191933333Y-76847619D01*
X192885714Y-77752380D02*
X192314285Y-77752380D01*
X192600000Y-77752380D02*
X192600000Y-76752380D01*
X192504761Y-76895238D01*
X192409523Y-76990476D01*
X192314285Y-77038095D01*
X173347880Y-80684666D02*
X172871690Y-81018000D01*
X173347880Y-81256095D02*
X172347880Y-81256095D01*
X172347880Y-80875142D01*
X172395500Y-80779904D01*
X172443119Y-80732285D01*
X172538357Y-80684666D01*
X172681214Y-80684666D01*
X172776452Y-80732285D01*
X172824071Y-80779904D01*
X172871690Y-80875142D01*
X172871690Y-81256095D01*
X172681214Y-79827523D02*
X173347880Y-79827523D01*
X172300261Y-80065619D02*
X173014547Y-80303714D01*
X173014547Y-79684666D01*
X178919142Y-83732666D02*
X178966761Y-83780285D01*
X179014380Y-83923142D01*
X179014380Y-84018380D01*
X178966761Y-84161238D01*
X178871523Y-84256476D01*
X178776285Y-84304095D01*
X178585809Y-84351714D01*
X178442952Y-84351714D01*
X178252476Y-84304095D01*
X178157238Y-84256476D01*
X178062000Y-84161238D01*
X178014380Y-84018380D01*
X178014380Y-83923142D01*
X178062000Y-83780285D01*
X178109619Y-83732666D01*
X178014380Y-83399333D02*
X178014380Y-82780285D01*
X178395333Y-83113619D01*
X178395333Y-82970761D01*
X178442952Y-82875523D01*
X178490571Y-82827904D01*
X178585809Y-82780285D01*
X178823904Y-82780285D01*
X178919142Y-82827904D01*
X178966761Y-82875523D01*
X179014380Y-82970761D01*
X179014380Y-83256476D01*
X178966761Y-83351714D01*
X178919142Y-83399333D01*
X168052380Y-80684667D02*
X167576190Y-81018001D01*
X168052380Y-81256096D02*
X167052380Y-81256096D01*
X167052380Y-80875143D01*
X167100000Y-80779905D01*
X167147619Y-80732286D01*
X167242857Y-80684667D01*
X167385714Y-80684667D01*
X167480952Y-80732286D01*
X167528571Y-80779905D01*
X167576190Y-80875143D01*
X167576190Y-81256096D01*
X167052380Y-80351334D02*
X167052380Y-79732286D01*
X167433333Y-80065620D01*
X167433333Y-79922762D01*
X167480952Y-79827524D01*
X167528571Y-79779905D01*
X167623809Y-79732286D01*
X167861904Y-79732286D01*
X167957142Y-79779905D01*
X168004761Y-79827524D01*
X168052380Y-79922762D01*
X168052380Y-80208477D01*
X168004761Y-80303715D01*
X167957142Y-80351334D01*
X102001333Y-89913380D02*
X101668000Y-89437190D01*
X101429904Y-89913380D02*
X101429904Y-88913380D01*
X101810857Y-88913380D01*
X101906095Y-88961000D01*
X101953714Y-89008619D01*
X102001333Y-89103857D01*
X102001333Y-89246714D01*
X101953714Y-89341952D01*
X101906095Y-89389571D01*
X101810857Y-89437190D01*
X101429904Y-89437190D01*
X102953714Y-89913380D02*
X102382285Y-89913380D01*
X102668000Y-89913380D02*
X102668000Y-88913380D01*
X102572761Y-89056238D01*
X102477523Y-89151476D01*
X102382285Y-89199095D01*
X154523809Y-80855261D02*
X154666666Y-80902880D01*
X154904761Y-80902880D01*
X155000000Y-80855261D01*
X155047619Y-80807642D01*
X155095238Y-80712404D01*
X155095238Y-80617166D01*
X155047619Y-80521928D01*
X155000000Y-80474309D01*
X154904761Y-80426690D01*
X154714285Y-80379071D01*
X154619047Y-80331452D01*
X154571428Y-80283833D01*
X154523809Y-80188595D01*
X154523809Y-80093357D01*
X154571428Y-79998119D01*
X154619047Y-79950500D01*
X154714285Y-79902880D01*
X154952380Y-79902880D01*
X155095238Y-79950500D01*
X155380952Y-79902880D02*
X155952380Y-79902880D01*
X155666666Y-80902880D02*
X155666666Y-79902880D01*
X156238095Y-80617166D02*
X156714285Y-80617166D01*
X156142857Y-80902880D02*
X156476190Y-79902880D01*
X156809523Y-80902880D01*
X157000000Y-79902880D02*
X157571428Y-79902880D01*
X157285714Y-80902880D02*
X157285714Y-79902880D01*
X157904761Y-79902880D02*
X157904761Y-80712404D01*
X157952380Y-80807642D01*
X158000000Y-80855261D01*
X158095238Y-80902880D01*
X158285714Y-80902880D01*
X158380952Y-80855261D01*
X158428571Y-80807642D01*
X158476190Y-80712404D01*
X158476190Y-79902880D01*
X158904761Y-80855261D02*
X159047619Y-80902880D01*
X159285714Y-80902880D01*
X159380952Y-80855261D01*
X159428571Y-80807642D01*
X159476190Y-80712404D01*
X159476190Y-80617166D01*
X159428571Y-80521928D01*
X159380952Y-80474309D01*
X159285714Y-80426690D01*
X159095238Y-80379071D01*
X159000000Y-80331452D01*
X158952380Y-80283833D01*
X158904761Y-80188595D01*
X158904761Y-80093357D01*
X158952380Y-79998119D01*
X159000000Y-79950500D01*
X159095238Y-79902880D01*
X159333333Y-79902880D01*
X159476190Y-79950500D01*
X101266761Y-86828380D02*
X101600095Y-87828380D01*
X101933428Y-86828380D01*
X102266761Y-87828380D02*
X102266761Y-86828380D01*
X102742952Y-87828380D02*
X102742952Y-86828380D01*
X103314380Y-87828380D01*
X103314380Y-86828380D01*
X197223809Y-98552380D02*
X197223809Y-97552380D01*
X197652380Y-97647619D02*
X197700000Y-97600000D01*
X197795238Y-97552380D01*
X198033333Y-97552380D01*
X198128571Y-97600000D01*
X198176190Y-97647619D01*
X198223809Y-97742857D01*
X198223809Y-97838095D01*
X198176190Y-97980952D01*
X197604761Y-98552380D01*
X198223809Y-98552380D01*
X199223809Y-98457142D02*
X199176190Y-98504761D01*
X199033333Y-98552380D01*
X198938095Y-98552380D01*
X198795238Y-98504761D01*
X198700000Y-98409523D01*
X198652380Y-98314285D01*
X198604761Y-98123809D01*
X198604761Y-97980952D01*
X198652380Y-97790476D01*
X198700000Y-97695238D01*
X198795238Y-97600000D01*
X198938095Y-97552380D01*
X199033333Y-97552380D01*
X199176190Y-97600000D01*
X199223809Y-97647619D01*
X167757142Y-97752380D02*
X167423809Y-97276190D01*
X167185714Y-97752380D02*
X167185714Y-96752380D01*
X167566666Y-96752380D01*
X167661904Y-96800000D01*
X167709523Y-96847619D01*
X167757142Y-96942857D01*
X167757142Y-97085714D01*
X167709523Y-97180952D01*
X167661904Y-97228571D01*
X167566666Y-97276190D01*
X167185714Y-97276190D01*
X168709523Y-97752380D02*
X168138095Y-97752380D01*
X168423809Y-97752380D02*
X168423809Y-96752380D01*
X168328571Y-96895238D01*
X168233333Y-96990476D01*
X168138095Y-97038095D01*
X169042857Y-96752380D02*
X169661904Y-96752380D01*
X169328571Y-97133333D01*
X169471428Y-97133333D01*
X169566666Y-97180952D01*
X169614285Y-97228571D01*
X169661904Y-97323809D01*
X169661904Y-97561904D01*
X169614285Y-97657142D01*
X169566666Y-97704761D01*
X169471428Y-97752380D01*
X169185714Y-97752380D01*
X169090476Y-97704761D01*
X169042857Y-97657142D01*
X176617333Y-97893142D02*
X176569714Y-97940761D01*
X176426857Y-97988380D01*
X176331619Y-97988380D01*
X176188761Y-97940761D01*
X176093523Y-97845523D01*
X176045904Y-97750285D01*
X175998285Y-97559809D01*
X175998285Y-97416952D01*
X176045904Y-97226476D01*
X176093523Y-97131238D01*
X176188761Y-97036000D01*
X176331619Y-96988380D01*
X176426857Y-96988380D01*
X176569714Y-97036000D01*
X176617333Y-97083619D01*
X177522095Y-96988380D02*
X177045904Y-96988380D01*
X176998285Y-97464571D01*
X177045904Y-97416952D01*
X177141142Y-97369333D01*
X177379238Y-97369333D01*
X177474476Y-97416952D01*
X177522095Y-97464571D01*
X177569714Y-97559809D01*
X177569714Y-97797904D01*
X177522095Y-97893142D01*
X177474476Y-97940761D01*
X177379238Y-97988380D01*
X177141142Y-97988380D01*
X177045904Y-97940761D01*
X176998285Y-97893142D01*
X164615904Y-88884380D02*
X164615904Y-87884380D01*
X164854000Y-87884380D01*
X164996857Y-87932000D01*
X165092095Y-88027238D01*
X165139714Y-88122476D01*
X165187333Y-88312952D01*
X165187333Y-88455809D01*
X165139714Y-88646285D01*
X165092095Y-88741523D01*
X164996857Y-88836761D01*
X164854000Y-88884380D01*
X164615904Y-88884380D01*
X166092095Y-87884380D02*
X165615904Y-87884380D01*
X165568285Y-88360571D01*
X165615904Y-88312952D01*
X165711142Y-88265333D01*
X165949238Y-88265333D01*
X166044476Y-88312952D01*
X166092095Y-88360571D01*
X166139714Y-88455809D01*
X166139714Y-88693904D01*
X166092095Y-88789142D01*
X166044476Y-88836761D01*
X165949238Y-88884380D01*
X165711142Y-88884380D01*
X165615904Y-88836761D01*
X165568285Y-88789142D01*
X170711904Y-88884380D02*
X170711904Y-87884380D01*
X170950000Y-87884380D01*
X171092857Y-87932000D01*
X171188095Y-88027238D01*
X171235714Y-88122476D01*
X171283333Y-88312952D01*
X171283333Y-88455809D01*
X171235714Y-88646285D01*
X171188095Y-88741523D01*
X171092857Y-88836761D01*
X170950000Y-88884380D01*
X170711904Y-88884380D01*
X171616666Y-87884380D02*
X172283333Y-87884380D01*
X171854761Y-88884380D01*
X164615904Y-97752380D02*
X164615904Y-96752380D01*
X164854000Y-96752380D01*
X164996857Y-96800000D01*
X165092095Y-96895238D01*
X165139714Y-96990476D01*
X165187333Y-97180952D01*
X165187333Y-97323809D01*
X165139714Y-97514285D01*
X165092095Y-97609523D01*
X164996857Y-97704761D01*
X164854000Y-97752380D01*
X164615904Y-97752380D01*
X166044476Y-97085714D02*
X166044476Y-97752380D01*
X165806380Y-96704761D02*
X165568285Y-97419047D01*
X166187333Y-97419047D01*
X170711904Y-97752380D02*
X170711904Y-96752380D01*
X170950000Y-96752380D01*
X171092857Y-96800000D01*
X171188095Y-96895238D01*
X171235714Y-96990476D01*
X171283333Y-97180952D01*
X171283333Y-97323809D01*
X171235714Y-97514285D01*
X171188095Y-97609523D01*
X171092857Y-97704761D01*
X170950000Y-97752380D01*
X170711904Y-97752380D01*
X172140476Y-96752380D02*
X171950000Y-96752380D01*
X171854761Y-96800000D01*
X171807142Y-96847619D01*
X171711904Y-96990476D01*
X171664285Y-97180952D01*
X171664285Y-97561904D01*
X171711904Y-97657142D01*
X171759523Y-97704761D01*
X171854761Y-97752380D01*
X172045238Y-97752380D01*
X172140476Y-97704761D01*
X172188095Y-97657142D01*
X172235714Y-97561904D01*
X172235714Y-97323809D01*
X172188095Y-97228571D01*
X172140476Y-97180952D01*
X172045238Y-97133333D01*
X171854761Y-97133333D01*
X171759523Y-97180952D01*
X171711904Y-97228571D01*
X171664285Y-97323809D01*
X167757142Y-88884380D02*
X167423809Y-88408190D01*
X167185714Y-88884380D02*
X167185714Y-87884380D01*
X167566666Y-87884380D01*
X167661904Y-87932000D01*
X167709523Y-87979619D01*
X167757142Y-88074857D01*
X167757142Y-88217714D01*
X167709523Y-88312952D01*
X167661904Y-88360571D01*
X167566666Y-88408190D01*
X167185714Y-88408190D01*
X168709523Y-88884380D02*
X168138095Y-88884380D01*
X168423809Y-88884380D02*
X168423809Y-87884380D01*
X168328571Y-88027238D01*
X168233333Y-88122476D01*
X168138095Y-88170095D01*
X169566666Y-88217714D02*
X169566666Y-88884380D01*
X169328571Y-87836761D02*
X169090476Y-88551047D01*
X169709523Y-88551047D01*
X161663142Y-97988380D02*
X161329809Y-97512190D01*
X161091714Y-97988380D02*
X161091714Y-96988380D01*
X161472666Y-96988380D01*
X161567904Y-97036000D01*
X161615523Y-97083619D01*
X161663142Y-97178857D01*
X161663142Y-97321714D01*
X161615523Y-97416952D01*
X161567904Y-97464571D01*
X161472666Y-97512190D01*
X161091714Y-97512190D01*
X162615523Y-97988380D02*
X162044095Y-97988380D01*
X162329809Y-97988380D02*
X162329809Y-96988380D01*
X162234571Y-97131238D01*
X162139333Y-97226476D01*
X162044095Y-97274095D01*
X163567904Y-97988380D02*
X162996476Y-97988380D01*
X163282190Y-97988380D02*
X163282190Y-96988380D01*
X163186952Y-97131238D01*
X163091714Y-97226476D01*
X162996476Y-97274095D01*
X130500380Y-79668666D02*
X130024190Y-80002000D01*
X130500380Y-80240095D02*
X129500380Y-80240095D01*
X129500380Y-79859142D01*
X129548000Y-79763904D01*
X129595619Y-79716285D01*
X129690857Y-79668666D01*
X129833714Y-79668666D01*
X129928952Y-79716285D01*
X129976571Y-79763904D01*
X130024190Y-79859142D01*
X130024190Y-80240095D01*
X130500380Y-79192476D02*
X130500380Y-79002000D01*
X130452761Y-78906761D01*
X130405142Y-78859142D01*
X130262285Y-78763904D01*
X130071809Y-78716285D01*
X129690857Y-78716285D01*
X129595619Y-78763904D01*
X129548000Y-78811523D01*
X129500380Y-78906761D01*
X129500380Y-79097238D01*
X129548000Y-79192476D01*
X129595619Y-79240095D01*
X129690857Y-79287714D01*
X129928952Y-79287714D01*
X130024190Y-79240095D01*
X130071809Y-79192476D01*
X130119428Y-79097238D01*
X130119428Y-78906761D01*
X130071809Y-78811523D01*
X130024190Y-78763904D01*
X129928952Y-78716285D01*
X133040380Y-79668666D02*
X132564190Y-80002000D01*
X133040380Y-80240095D02*
X132040380Y-80240095D01*
X132040380Y-79859142D01*
X132088000Y-79763904D01*
X132135619Y-79716285D01*
X132230857Y-79668666D01*
X132373714Y-79668666D01*
X132468952Y-79716285D01*
X132516571Y-79763904D01*
X132564190Y-79859142D01*
X132564190Y-80240095D01*
X132040380Y-78811523D02*
X132040380Y-79002000D01*
X132088000Y-79097238D01*
X132135619Y-79144857D01*
X132278476Y-79240095D01*
X132468952Y-79287714D01*
X132849904Y-79287714D01*
X132945142Y-79240095D01*
X132992761Y-79192476D01*
X133040380Y-79097238D01*
X133040380Y-78906761D01*
X132992761Y-78811523D01*
X132945142Y-78763904D01*
X132849904Y-78716285D01*
X132611809Y-78716285D01*
X132516571Y-78763904D01*
X132468952Y-78811523D01*
X132421333Y-78906761D01*
X132421333Y-79097238D01*
X132468952Y-79192476D01*
X132516571Y-79240095D01*
X132611809Y-79287714D01*
X142438380Y-79668666D02*
X141962190Y-80002000D01*
X142438380Y-80240095D02*
X141438380Y-80240095D01*
X141438380Y-79859142D01*
X141486000Y-79763904D01*
X141533619Y-79716285D01*
X141628857Y-79668666D01*
X141771714Y-79668666D01*
X141866952Y-79716285D01*
X141914571Y-79763904D01*
X141962190Y-79859142D01*
X141962190Y-80240095D01*
X141866952Y-79097238D02*
X141819333Y-79192476D01*
X141771714Y-79240095D01*
X141676476Y-79287714D01*
X141628857Y-79287714D01*
X141533619Y-79240095D01*
X141486000Y-79192476D01*
X141438380Y-79097238D01*
X141438380Y-78906761D01*
X141486000Y-78811523D01*
X141533619Y-78763904D01*
X141628857Y-78716285D01*
X141676476Y-78716285D01*
X141771714Y-78763904D01*
X141819333Y-78811523D01*
X141866952Y-78906761D01*
X141866952Y-79097238D01*
X141914571Y-79192476D01*
X141962190Y-79240095D01*
X142057428Y-79287714D01*
X142247904Y-79287714D01*
X142343142Y-79240095D01*
X142390761Y-79192476D01*
X142438380Y-79097238D01*
X142438380Y-78906761D01*
X142390761Y-78811523D01*
X142343142Y-78763904D01*
X142247904Y-78716285D01*
X142057428Y-78716285D01*
X141962190Y-78763904D01*
X141914571Y-78811523D01*
X141866952Y-78906761D01*
X144978380Y-79668666D02*
X144502190Y-80002000D01*
X144978380Y-80240095D02*
X143978380Y-80240095D01*
X143978380Y-79859142D01*
X144026000Y-79763904D01*
X144073619Y-79716285D01*
X144168857Y-79668666D01*
X144311714Y-79668666D01*
X144406952Y-79716285D01*
X144454571Y-79763904D01*
X144502190Y-79859142D01*
X144502190Y-80240095D01*
X143978380Y-78763904D02*
X143978380Y-79240095D01*
X144454571Y-79287714D01*
X144406952Y-79240095D01*
X144359333Y-79144857D01*
X144359333Y-78906761D01*
X144406952Y-78811523D01*
X144454571Y-78763904D01*
X144549809Y-78716285D01*
X144787904Y-78716285D01*
X144883142Y-78763904D01*
X144930761Y-78811523D01*
X144978380Y-78906761D01*
X144978380Y-79144857D01*
X144930761Y-79240095D01*
X144883142Y-79287714D01*
X160023880Y-84342857D02*
X159547690Y-84676190D01*
X160023880Y-84914285D02*
X159023880Y-84914285D01*
X159023880Y-84533333D01*
X159071500Y-84438095D01*
X159119119Y-84390476D01*
X159214357Y-84342857D01*
X159357214Y-84342857D01*
X159452452Y-84390476D01*
X159500071Y-84438095D01*
X159547690Y-84533333D01*
X159547690Y-84914285D01*
X160023880Y-83390476D02*
X160023880Y-83961904D01*
X160023880Y-83676190D02*
X159023880Y-83676190D01*
X159166738Y-83771428D01*
X159261976Y-83866666D01*
X159309595Y-83961904D01*
X159119119Y-83009523D02*
X159071500Y-82961904D01*
X159023880Y-82866666D01*
X159023880Y-82628571D01*
X159071500Y-82533333D01*
X159119119Y-82485714D01*
X159214357Y-82438095D01*
X159309595Y-82438095D01*
X159452452Y-82485714D01*
X160023880Y-83057142D01*
X160023880Y-82438095D01*
X120452380Y-80242857D02*
X119976190Y-80576190D01*
X120452380Y-80814285D02*
X119452380Y-80814285D01*
X119452380Y-80433333D01*
X119500000Y-80338095D01*
X119547619Y-80290476D01*
X119642857Y-80242857D01*
X119785714Y-80242857D01*
X119880952Y-80290476D01*
X119928571Y-80338095D01*
X119976190Y-80433333D01*
X119976190Y-80814285D01*
X120452380Y-79290476D02*
X120452380Y-79861904D01*
X120452380Y-79576190D02*
X119452380Y-79576190D01*
X119595238Y-79671428D01*
X119690476Y-79766666D01*
X119738095Y-79861904D01*
X119452380Y-78671428D02*
X119452380Y-78576190D01*
X119500000Y-78480952D01*
X119547619Y-78433333D01*
X119642857Y-78385714D01*
X119833333Y-78338095D01*
X120071428Y-78338095D01*
X120261904Y-78385714D01*
X120357142Y-78433333D01*
X120404761Y-78480952D01*
X120452380Y-78576190D01*
X120452380Y-78671428D01*
X120404761Y-78766666D01*
X120357142Y-78814285D01*
X120261904Y-78861904D01*
X120071428Y-78909523D01*
X119833333Y-78909523D01*
X119642857Y-78861904D01*
X119547619Y-78814285D01*
X119500000Y-78766666D01*
X119452380Y-78671428D01*
X122880380Y-80176666D02*
X122404190Y-80510000D01*
X122880380Y-80748095D02*
X121880380Y-80748095D01*
X121880380Y-80367142D01*
X121928000Y-80271904D01*
X121975619Y-80224285D01*
X122070857Y-80176666D01*
X122213714Y-80176666D01*
X122308952Y-80224285D01*
X122356571Y-80271904D01*
X122404190Y-80367142D01*
X122404190Y-80748095D01*
X121880380Y-79843333D02*
X121880380Y-79176666D01*
X122880380Y-79605238D01*
X157939630Y-84342857D02*
X157463440Y-84676190D01*
X157939630Y-84914285D02*
X156939630Y-84914285D01*
X156939630Y-84533333D01*
X156987250Y-84438095D01*
X157034869Y-84390476D01*
X157130107Y-84342857D01*
X157272964Y-84342857D01*
X157368202Y-84390476D01*
X157415821Y-84438095D01*
X157463440Y-84533333D01*
X157463440Y-84914285D01*
X157939630Y-83390476D02*
X157939630Y-83961904D01*
X157939630Y-83676190D02*
X156939630Y-83676190D01*
X157082488Y-83771428D01*
X157177726Y-83866666D01*
X157225345Y-83961904D01*
X156939630Y-82533333D02*
X156939630Y-82723809D01*
X156987250Y-82819047D01*
X157034869Y-82866666D01*
X157177726Y-82961904D01*
X157368202Y-83009523D01*
X157749154Y-83009523D01*
X157844392Y-82961904D01*
X157892011Y-82914285D01*
X157939630Y-82819047D01*
X157939630Y-82628571D01*
X157892011Y-82533333D01*
X157844392Y-82485714D01*
X157749154Y-82438095D01*
X157511059Y-82438095D01*
X157415821Y-82485714D01*
X157368202Y-82533333D01*
X157320583Y-82628571D01*
X157320583Y-82819047D01*
X157368202Y-82914285D01*
X157415821Y-82961904D01*
X157511059Y-83009523D01*
X118268761Y-87161619D02*
X118173523Y-87114000D01*
X118078285Y-87018761D01*
X117935428Y-86875904D01*
X117840190Y-86828285D01*
X117744952Y-86828285D01*
X117792571Y-87066380D02*
X117697333Y-87018761D01*
X117602095Y-86923523D01*
X117554476Y-86733047D01*
X117554476Y-86399714D01*
X117602095Y-86209238D01*
X117697333Y-86114000D01*
X117792571Y-86066380D01*
X117983047Y-86066380D01*
X118078285Y-86114000D01*
X118173523Y-86209238D01*
X118221142Y-86399714D01*
X118221142Y-86733047D01*
X118173523Y-86923523D01*
X118078285Y-87018761D01*
X117983047Y-87066380D01*
X117792571Y-87066380D01*
X118554476Y-86066380D02*
X119173523Y-86066380D01*
X118840190Y-86447333D01*
X118983047Y-86447333D01*
X119078285Y-86494952D01*
X119125904Y-86542571D01*
X119173523Y-86637809D01*
X119173523Y-86875904D01*
X119125904Y-86971142D01*
X119078285Y-87018761D01*
X118983047Y-87066380D01*
X118697333Y-87066380D01*
X118602095Y-87018761D01*
X118554476Y-86971142D01*
X128174761Y-87161619D02*
X128079523Y-87114000D01*
X127984285Y-87018761D01*
X127841428Y-86875904D01*
X127746190Y-86828285D01*
X127650952Y-86828285D01*
X127698571Y-87066380D02*
X127603333Y-87018761D01*
X127508095Y-86923523D01*
X127460476Y-86733047D01*
X127460476Y-86399714D01*
X127508095Y-86209238D01*
X127603333Y-86114000D01*
X127698571Y-86066380D01*
X127889047Y-86066380D01*
X127984285Y-86114000D01*
X128079523Y-86209238D01*
X128127142Y-86399714D01*
X128127142Y-86733047D01*
X128079523Y-86923523D01*
X127984285Y-87018761D01*
X127889047Y-87066380D01*
X127698571Y-87066380D01*
X128508095Y-86161619D02*
X128555714Y-86114000D01*
X128650952Y-86066380D01*
X128889047Y-86066380D01*
X128984285Y-86114000D01*
X129031904Y-86161619D01*
X129079523Y-86256857D01*
X129079523Y-86352095D01*
X129031904Y-86494952D01*
X128460476Y-87066380D01*
X129079523Y-87066380D01*
X140366761Y-87161619D02*
X140271523Y-87114000D01*
X140176285Y-87018761D01*
X140033428Y-86875904D01*
X139938190Y-86828285D01*
X139842952Y-86828285D01*
X139890571Y-87066380D02*
X139795333Y-87018761D01*
X139700095Y-86923523D01*
X139652476Y-86733047D01*
X139652476Y-86399714D01*
X139700095Y-86209238D01*
X139795333Y-86114000D01*
X139890571Y-86066380D01*
X140081047Y-86066380D01*
X140176285Y-86114000D01*
X140271523Y-86209238D01*
X140319142Y-86399714D01*
X140319142Y-86733047D01*
X140271523Y-86923523D01*
X140176285Y-87018761D01*
X140081047Y-87066380D01*
X139890571Y-87066380D01*
X141271523Y-87066380D02*
X140700095Y-87066380D01*
X140985809Y-87066380D02*
X140985809Y-86066380D01*
X140890571Y-86209238D01*
X140795333Y-86304476D01*
X140700095Y-86352095D01*
X184253142Y-83732666D02*
X184300761Y-83780285D01*
X184348380Y-83923142D01*
X184348380Y-84018380D01*
X184300761Y-84161238D01*
X184205523Y-84256476D01*
X184110285Y-84304095D01*
X183919809Y-84351714D01*
X183776952Y-84351714D01*
X183586476Y-84304095D01*
X183491238Y-84256476D01*
X183396000Y-84161238D01*
X183348380Y-84018380D01*
X183348380Y-83923142D01*
X183396000Y-83780285D01*
X183443619Y-83732666D01*
X183681714Y-82875523D02*
X184348380Y-82875523D01*
X183300761Y-83113619D02*
X184015047Y-83351714D01*
X184015047Y-82732666D01*
X116252785Y-89082571D02*
X115919452Y-89082571D01*
X115919452Y-89606380D02*
X115919452Y-88606380D01*
X116395642Y-88606380D01*
X116728976Y-89320666D02*
X117205166Y-89320666D01*
X116633738Y-89606380D02*
X116967071Y-88606380D01*
X117300404Y-89606380D01*
X117633738Y-89606380D02*
X117633738Y-88606380D01*
X118205166Y-89606380D01*
X118205166Y-88606380D01*
X119109928Y-88939714D02*
X119109928Y-89606380D01*
X118871833Y-88558761D02*
X118633738Y-89273047D01*
X119252785Y-89273047D01*
X185638095Y-84652380D02*
X185638095Y-85461904D01*
X185685714Y-85557142D01*
X185733333Y-85604761D01*
X185828571Y-85652380D01*
X186019047Y-85652380D01*
X186114285Y-85604761D01*
X186161904Y-85557142D01*
X186209523Y-85461904D01*
X186209523Y-84652380D01*
X186638095Y-84747619D02*
X186685714Y-84700000D01*
X186780952Y-84652380D01*
X187019047Y-84652380D01*
X187114285Y-84700000D01*
X187161904Y-84747619D01*
X187209523Y-84842857D01*
X187209523Y-84938095D01*
X187161904Y-85080952D01*
X186590476Y-85652380D01*
X187209523Y-85652380D01*
X148147619Y-82852380D02*
X147814285Y-82376190D01*
X147576190Y-82852380D02*
X147576190Y-81852380D01*
X147957142Y-81852380D01*
X148052380Y-81900000D01*
X148100000Y-81947619D01*
X148147619Y-82042857D01*
X148147619Y-82185714D01*
X148100000Y-82280952D01*
X148052380Y-82328571D01*
X147957142Y-82376190D01*
X147576190Y-82376190D01*
X148576190Y-82328571D02*
X148909523Y-82328571D01*
X149052380Y-82852380D02*
X148576190Y-82852380D01*
X148576190Y-81852380D01*
X149052380Y-81852380D01*
X149433333Y-82804761D02*
X149576190Y-82852380D01*
X149814285Y-82852380D01*
X149909523Y-82804761D01*
X149957142Y-82757142D01*
X150004761Y-82661904D01*
X150004761Y-82566666D01*
X149957142Y-82471428D01*
X149909523Y-82423809D01*
X149814285Y-82376190D01*
X149623809Y-82328571D01*
X149528571Y-82280952D01*
X149480952Y-82233333D01*
X149433333Y-82138095D01*
X149433333Y-82042857D01*
X149480952Y-81947619D01*
X149528571Y-81900000D01*
X149623809Y-81852380D01*
X149861904Y-81852380D01*
X150004761Y-81900000D01*
X150433333Y-82328571D02*
X150766666Y-82328571D01*
X150909523Y-82852380D02*
X150433333Y-82852380D01*
X150433333Y-81852380D01*
X150909523Y-81852380D01*
X151195238Y-81852380D02*
X151766666Y-81852380D01*
X151480952Y-82852380D02*
X151480952Y-81852380D01*
X151314285Y-89082571D02*
X150980952Y-89082571D01*
X150980952Y-89606380D02*
X150980952Y-88606380D01*
X151457142Y-88606380D01*
X151790476Y-89320666D02*
X152266666Y-89320666D01*
X151695238Y-89606380D02*
X152028571Y-88606380D01*
X152361904Y-89606380D01*
X152695238Y-89606380D02*
X152695238Y-88606380D01*
X153266666Y-89606380D01*
X153266666Y-88606380D01*
X154266666Y-89606380D02*
X153695238Y-89606380D01*
X153980952Y-89606380D02*
X153980952Y-88606380D01*
X153885714Y-88749238D01*
X153790476Y-88844476D01*
X153695238Y-88892095D01*
X126314285Y-89082571D02*
X125980952Y-89082571D01*
X125980952Y-89606380D02*
X125980952Y-88606380D01*
X126457142Y-88606380D01*
X126790476Y-89320666D02*
X127266666Y-89320666D01*
X126695238Y-89606380D02*
X127028571Y-88606380D01*
X127361904Y-89606380D01*
X127695238Y-89606380D02*
X127695238Y-88606380D01*
X128266666Y-89606380D01*
X128266666Y-88606380D01*
X128647619Y-88606380D02*
X129266666Y-88606380D01*
X128933333Y-88987333D01*
X129076190Y-88987333D01*
X129171428Y-89034952D01*
X129219047Y-89082571D01*
X129266666Y-89177809D01*
X129266666Y-89415904D01*
X129219047Y-89511142D01*
X129171428Y-89558761D01*
X129076190Y-89606380D01*
X128790476Y-89606380D01*
X128695238Y-89558761D01*
X128647619Y-89511142D01*
X138214285Y-88828571D02*
X137880952Y-88828571D01*
X137880952Y-89352380D02*
X137880952Y-88352380D01*
X138357142Y-88352380D01*
X138690476Y-89066666D02*
X139166666Y-89066666D01*
X138595238Y-89352380D02*
X138928571Y-88352380D01*
X139261904Y-89352380D01*
X139595238Y-89352380D02*
X139595238Y-88352380D01*
X140166666Y-89352380D01*
X140166666Y-88352380D01*
X140595238Y-88447619D02*
X140642857Y-88400000D01*
X140738095Y-88352380D01*
X140976190Y-88352380D01*
X141071428Y-88400000D01*
X141119047Y-88447619D01*
X141166666Y-88542857D01*
X141166666Y-88638095D01*
X141119047Y-88780952D01*
X140547619Y-89352380D01*
X141166666Y-89352380D01*
X109276571Y-89414833D02*
X109276571Y-89748166D01*
X109800380Y-89748166D02*
X108800380Y-89748166D01*
X108800380Y-89271976D01*
X109800380Y-88367214D02*
X109800380Y-88938642D01*
X109800380Y-88652928D02*
X108800380Y-88652928D01*
X108943238Y-88748166D01*
X109038476Y-88843404D01*
X109086095Y-88938642D01*
X185166666Y-81223880D02*
X185166666Y-81938166D01*
X185119047Y-82081023D01*
X185023809Y-82176261D01*
X184880952Y-82223880D01*
X184785714Y-82223880D01*
X185595238Y-81319119D02*
X185642857Y-81271500D01*
X185738095Y-81223880D01*
X185976190Y-81223880D01*
X186071428Y-81271500D01*
X186119047Y-81319119D01*
X186166666Y-81414357D01*
X186166666Y-81509595D01*
X186119047Y-81652452D01*
X185547619Y-82223880D01*
X186166666Y-82223880D01*
X115672380Y-82680133D02*
X116386666Y-82680133D01*
X116529523Y-82727752D01*
X116624761Y-82822990D01*
X116672380Y-82965847D01*
X116672380Y-83061085D01*
X116672380Y-81680133D02*
X116672380Y-82251561D01*
X116672380Y-81965847D02*
X115672380Y-81965847D01*
X115815238Y-82061085D01*
X115910476Y-82156323D01*
X115958095Y-82251561D01*
M02*
