G04 #@! TF.GenerationSoftware,KiCad,Pcbnew,(5.1.4)-1*
G04 #@! TF.CreationDate,2021-06-27T14:54:53-05:00*
G04 #@! TF.ProjectId,NevermoreController,4e657665-726d-46f7-9265-436f6e74726f,rev?*
G04 #@! TF.SameCoordinates,Original*
G04 #@! TF.FileFunction,Copper,L2,Bot*
G04 #@! TF.FilePolarity,Positive*
%FSLAX46Y46*%
G04 Gerber Fmt 4.6, Leading zero omitted, Abs format (unit mm)*
G04 Created by KiCad (PCBNEW (5.1.4)-1) date 2021-06-27 14:54:53*
%MOMM*%
%LPD*%
G04 APERTURE LIST*
%ADD10C,0.500000*%
%ADD11C,0.100000*%
%ADD12O,1.700000X1.700000*%
%ADD13R,1.700000X1.700000*%
%ADD14O,1.200000X1.900000*%
%ADD15C,1.450000*%
%ADD16O,1.700000X2.200000*%
%ADD17C,1.700000*%
%ADD18C,0.800000*%
%ADD19C,0.200000*%
%ADD20C,0.250000*%
%ADD21C,0.300000*%
%ADD22C,0.254000*%
G04 APERTURE END LIST*
D10*
X170511000Y-102040000D03*
X170511000Y-103070000D03*
X170511000Y-104100000D03*
D11*
G36*
X170648252Y-101790602D02*
G01*
X170660386Y-101792402D01*
X170672286Y-101795382D01*
X170683835Y-101799515D01*
X170694925Y-101804760D01*
X170705446Y-101811066D01*
X170715299Y-101818374D01*
X170724388Y-101826612D01*
X170732626Y-101835701D01*
X170739934Y-101845554D01*
X170746240Y-101856075D01*
X170751485Y-101867165D01*
X170755618Y-101878714D01*
X170758598Y-101890614D01*
X170760398Y-101902748D01*
X170761000Y-101915000D01*
X170761000Y-104225000D01*
X170760398Y-104237252D01*
X170758598Y-104249386D01*
X170755618Y-104261286D01*
X170751485Y-104272835D01*
X170746240Y-104283925D01*
X170739934Y-104294446D01*
X170732626Y-104304299D01*
X170724388Y-104313388D01*
X170715299Y-104321626D01*
X170705446Y-104328934D01*
X170694925Y-104335240D01*
X170683835Y-104340485D01*
X170672286Y-104344618D01*
X170660386Y-104347598D01*
X170648252Y-104349398D01*
X170636000Y-104350000D01*
X170386000Y-104350000D01*
X170373748Y-104349398D01*
X170361614Y-104347598D01*
X170349714Y-104344618D01*
X170338165Y-104340485D01*
X170327075Y-104335240D01*
X170316554Y-104328934D01*
X170306701Y-104321626D01*
X170297612Y-104313388D01*
X170289374Y-104304299D01*
X170282066Y-104294446D01*
X170275760Y-104283925D01*
X170270515Y-104272835D01*
X170266382Y-104261286D01*
X170263402Y-104249386D01*
X170261602Y-104237252D01*
X170261000Y-104225000D01*
X170261000Y-101915000D01*
X170261602Y-101902748D01*
X170263402Y-101890614D01*
X170266382Y-101878714D01*
X170270515Y-101867165D01*
X170275760Y-101856075D01*
X170282066Y-101845554D01*
X170289374Y-101835701D01*
X170297612Y-101826612D01*
X170306701Y-101818374D01*
X170316554Y-101811066D01*
X170327075Y-101804760D01*
X170338165Y-101799515D01*
X170349714Y-101795382D01*
X170361614Y-101792402D01*
X170373748Y-101790602D01*
X170386000Y-101790000D01*
X170636000Y-101790000D01*
X170648252Y-101790602D01*
X170648252Y-101790602D01*
G37*
D10*
X170511000Y-103070000D03*
D12*
X164846000Y-83566000D03*
X167386000Y-83566000D03*
X169926000Y-83566000D03*
X172466000Y-83566000D03*
D13*
X175006000Y-83566000D03*
D14*
X178242000Y-77421500D03*
X185242000Y-77421500D03*
D15*
X179242000Y-80121500D03*
X184242000Y-80121500D03*
D16*
X113244000Y-84580000D03*
D11*
G36*
X111368504Y-83481204D02*
G01*
X111392773Y-83484804D01*
X111416571Y-83490765D01*
X111439671Y-83499030D01*
X111461849Y-83509520D01*
X111482893Y-83522133D01*
X111502598Y-83536747D01*
X111520777Y-83553223D01*
X111537253Y-83571402D01*
X111551867Y-83591107D01*
X111564480Y-83612151D01*
X111574970Y-83634329D01*
X111583235Y-83657429D01*
X111589196Y-83681227D01*
X111592796Y-83705496D01*
X111594000Y-83730000D01*
X111594000Y-85430000D01*
X111592796Y-85454504D01*
X111589196Y-85478773D01*
X111583235Y-85502571D01*
X111574970Y-85525671D01*
X111564480Y-85547849D01*
X111551867Y-85568893D01*
X111537253Y-85588598D01*
X111520777Y-85606777D01*
X111502598Y-85623253D01*
X111482893Y-85637867D01*
X111461849Y-85650480D01*
X111439671Y-85660970D01*
X111416571Y-85669235D01*
X111392773Y-85675196D01*
X111368504Y-85678796D01*
X111344000Y-85680000D01*
X110144000Y-85680000D01*
X110119496Y-85678796D01*
X110095227Y-85675196D01*
X110071429Y-85669235D01*
X110048329Y-85660970D01*
X110026151Y-85650480D01*
X110005107Y-85637867D01*
X109985402Y-85623253D01*
X109967223Y-85606777D01*
X109950747Y-85588598D01*
X109936133Y-85568893D01*
X109923520Y-85547849D01*
X109913030Y-85525671D01*
X109904765Y-85502571D01*
X109898804Y-85478773D01*
X109895204Y-85454504D01*
X109894000Y-85430000D01*
X109894000Y-83730000D01*
X109895204Y-83705496D01*
X109898804Y-83681227D01*
X109904765Y-83657429D01*
X109913030Y-83634329D01*
X109923520Y-83612151D01*
X109936133Y-83591107D01*
X109950747Y-83571402D01*
X109967223Y-83553223D01*
X109985402Y-83536747D01*
X110005107Y-83522133D01*
X110026151Y-83509520D01*
X110048329Y-83499030D01*
X110071429Y-83490765D01*
X110095227Y-83484804D01*
X110119496Y-83481204D01*
X110144000Y-83480000D01*
X111344000Y-83480000D01*
X111368504Y-83481204D01*
X111368504Y-83481204D01*
G37*
D17*
X110744000Y-84580000D03*
D18*
X150724600Y-93218000D03*
X150724600Y-92075000D03*
X150724600Y-90932000D03*
X138938000Y-85598000D03*
X137414000Y-87630000D03*
X140462000Y-85598000D03*
X138938000Y-87630000D03*
X137414000Y-85598000D03*
X140462000Y-87630000D03*
X127000000Y-85598000D03*
X127000000Y-87630000D03*
X128524000Y-87630000D03*
X125476000Y-87630000D03*
X125476000Y-85598000D03*
X128524000Y-85598000D03*
X116840000Y-85598000D03*
X118364000Y-85598000D03*
X118364000Y-87630000D03*
X116840000Y-87630000D03*
X182372000Y-85598000D03*
X140208000Y-83566000D03*
X107950000Y-86868000D03*
X118110000Y-83058000D03*
X128270000Y-83312000D03*
X149606000Y-81026000D03*
X159512000Y-76962000D03*
X191770000Y-78232000D03*
X187198000Y-82296000D03*
X190500000Y-86106000D03*
X182118000Y-97790000D03*
X171450000Y-92964000D03*
X163576000Y-92964000D03*
X165354000Y-89981999D03*
X160777347Y-88904653D03*
X169672000Y-89154000D03*
X171684278Y-87083931D03*
X169071000Y-106200000D03*
X170571000Y-106200000D03*
X172071000Y-106200000D03*
X175768000Y-111442500D03*
X172364400Y-100482400D03*
X170535600Y-100482400D03*
X169011600Y-100431600D03*
X181660800Y-101549200D03*
X165735000Y-99949000D03*
X167640000Y-99949000D03*
X166671000Y-99949000D03*
X184928768Y-82971232D03*
X188375000Y-87900000D03*
X185671232Y-82228768D03*
X189425000Y-87900000D03*
X166878000Y-92202000D03*
X180086000Y-93472000D03*
X166155546Y-96072706D03*
X181864000Y-93472000D03*
X161300000Y-92900000D03*
X169418000Y-92964000D03*
X166698501Y-89841499D03*
X184713049Y-85320042D03*
X170307000Y-86731959D03*
X175072131Y-89934000D03*
X183324500Y-100330000D03*
X183261000Y-93916500D03*
X166243000Y-107251500D03*
X182743609Y-96834283D03*
D19*
X188675000Y-87600000D02*
X188375000Y-87900000D01*
X184928768Y-82971232D02*
X185353033Y-82971232D01*
X188675000Y-86293199D02*
X188675000Y-87600000D01*
X185353033Y-82971232D02*
X188675000Y-86293199D01*
X185671232Y-82653033D02*
X189125000Y-86106801D01*
X185671232Y-82228768D02*
X185671232Y-82653033D01*
X189125000Y-86106801D02*
X189125000Y-87600000D01*
X189125000Y-87600000D02*
X189425000Y-87900000D01*
D20*
X166878000Y-92202000D02*
X168402000Y-93726000D01*
X168402000Y-93726000D02*
X179832000Y-93726000D01*
X179832000Y-93726000D02*
X180086000Y-93472000D01*
X166155546Y-96072706D02*
X167325294Y-96072706D01*
X167325294Y-96072706D02*
X169164000Y-94234000D01*
X180397002Y-94234000D02*
X181159002Y-93472000D01*
X169164000Y-94234000D02*
X180397002Y-94234000D01*
X181159002Y-93472000D02*
X181864000Y-93472000D01*
D21*
X164472706Y-96072706D02*
X166155546Y-96072706D01*
X161300000Y-92900000D02*
X164472706Y-96072706D01*
D20*
X167447001Y-89841499D02*
X166698501Y-89841499D01*
X169418000Y-91812498D02*
X167447001Y-89841499D01*
X169418000Y-92964000D02*
X169418000Y-91812498D01*
X184713049Y-85320042D02*
X184713049Y-84072047D01*
X184713049Y-84072047D02*
X184207002Y-83566000D01*
X184207002Y-83566000D02*
X178816000Y-83566000D01*
X177640999Y-84741001D02*
X178816000Y-83566000D01*
X171101001Y-84741001D02*
X177640999Y-84741001D01*
X169926000Y-83566000D02*
X171101001Y-84741001D01*
X170307000Y-86731959D02*
X173509041Y-89934000D01*
X173509041Y-89934000D02*
X175072131Y-89934000D01*
X183724499Y-99930001D02*
X183324500Y-100330000D01*
X183724499Y-94379999D02*
X183724499Y-99930001D01*
X183261000Y-93916500D02*
X183724499Y-94379999D01*
X166243000Y-107251500D02*
X166687500Y-107696000D01*
X173412319Y-105931683D02*
X173412319Y-104717681D01*
X166687500Y-107696000D02*
X171648002Y-107696000D01*
X171648002Y-107696000D02*
X173412319Y-105931683D01*
X182843001Y-96933675D02*
X182743609Y-96834283D01*
X173412319Y-104717681D02*
X179414001Y-98715999D01*
X182843001Y-98715999D02*
X182843001Y-96933675D01*
X179414001Y-98715999D02*
X182843001Y-98715999D01*
D22*
G36*
X109428010Y-76696589D02*
G01*
X109316068Y-76966842D01*
X109259000Y-77253740D01*
X109259000Y-77546260D01*
X109316068Y-77833158D01*
X109428010Y-78103411D01*
X109590525Y-78346632D01*
X109797368Y-78553475D01*
X110040589Y-78715990D01*
X110310842Y-78827932D01*
X110597740Y-78885000D01*
X110890260Y-78885000D01*
X111177158Y-78827932D01*
X111447411Y-78715990D01*
X111690632Y-78553475D01*
X111897475Y-78346632D01*
X111994000Y-78202172D01*
X112090525Y-78346632D01*
X112297368Y-78553475D01*
X112540589Y-78715990D01*
X112810842Y-78827932D01*
X113097740Y-78885000D01*
X113390260Y-78885000D01*
X113677158Y-78827932D01*
X113947411Y-78715990D01*
X114190632Y-78553475D01*
X114397475Y-78346632D01*
X114559990Y-78103411D01*
X114671932Y-77833158D01*
X114729000Y-77546260D01*
X114729000Y-77253740D01*
X114671932Y-76966842D01*
X114559990Y-76696589D01*
X114535542Y-76660000D01*
X148609399Y-76660000D01*
X148590000Y-76757524D01*
X148590000Y-76956476D01*
X148628814Y-77151606D01*
X148704950Y-77335414D01*
X148815482Y-77500837D01*
X148956163Y-77641518D01*
X149121586Y-77752050D01*
X149305394Y-77828186D01*
X149500524Y-77867000D01*
X149699476Y-77867000D01*
X149894606Y-77828186D01*
X150078414Y-77752050D01*
X150243837Y-77641518D01*
X150336855Y-77548500D01*
X177007000Y-77548500D01*
X177007000Y-77898500D01*
X177055507Y-78136996D01*
X177149610Y-78361446D01*
X177285693Y-78563225D01*
X177458526Y-78734578D01*
X177661467Y-78868921D01*
X177886718Y-78961091D01*
X177924391Y-78964962D01*
X178115000Y-78840231D01*
X178115000Y-77548500D01*
X178369000Y-77548500D01*
X178369000Y-78840231D01*
X178542862Y-78954003D01*
X178482472Y-79182367D01*
X179242000Y-79941895D01*
X180001528Y-79182367D01*
X183482472Y-79182367D01*
X184242000Y-79941895D01*
X185001528Y-79182367D01*
X184941138Y-78954003D01*
X185115000Y-78840231D01*
X185115000Y-77548500D01*
X185369000Y-77548500D01*
X185369000Y-78840231D01*
X185559609Y-78964962D01*
X185597282Y-78961091D01*
X185822533Y-78868921D01*
X186025474Y-78734578D01*
X186198307Y-78563225D01*
X186334390Y-78361446D01*
X186428493Y-78136996D01*
X186477000Y-77898500D01*
X186477000Y-77548500D01*
X185369000Y-77548500D01*
X185115000Y-77548500D01*
X184007000Y-77548500D01*
X184007000Y-77898500D01*
X184055507Y-78136996D01*
X184149610Y-78361446D01*
X184285693Y-78563225D01*
X184458526Y-78734578D01*
X184553836Y-78797671D01*
X184436151Y-78768781D01*
X184168518Y-78756896D01*
X183903709Y-78797452D01*
X183651900Y-78888891D01*
X183544965Y-78946050D01*
X183482472Y-79182367D01*
X180001528Y-79182367D01*
X179939035Y-78946050D01*
X179696322Y-78832650D01*
X179436151Y-78768781D01*
X179168518Y-78756896D01*
X178938558Y-78792115D01*
X179025474Y-78734578D01*
X179198307Y-78563225D01*
X179334390Y-78361446D01*
X179428493Y-78136996D01*
X179477000Y-77898500D01*
X179477000Y-77548500D01*
X178369000Y-77548500D01*
X178115000Y-77548500D01*
X177007000Y-77548500D01*
X150336855Y-77548500D01*
X150384518Y-77500837D01*
X150495050Y-77335414D01*
X150571186Y-77151606D01*
X150610000Y-76956476D01*
X150610000Y-76757524D01*
X150590601Y-76660000D01*
X177074795Y-76660000D01*
X177055507Y-76706004D01*
X177007000Y-76944500D01*
X177007000Y-77294500D01*
X178115000Y-77294500D01*
X178115000Y-77274500D01*
X178369000Y-77274500D01*
X178369000Y-77294500D01*
X179477000Y-77294500D01*
X179477000Y-76944500D01*
X179428493Y-76706004D01*
X179409205Y-76660000D01*
X184074795Y-76660000D01*
X184055507Y-76706004D01*
X184007000Y-76944500D01*
X184007000Y-77294500D01*
X185115000Y-77294500D01*
X185115000Y-77274500D01*
X185369000Y-77274500D01*
X185369000Y-77294500D01*
X186477000Y-77294500D01*
X186477000Y-76944500D01*
X186428493Y-76706004D01*
X186409205Y-76660000D01*
X194396020Y-76660000D01*
X193943204Y-76886408D01*
X193929443Y-76894403D01*
X193910197Y-76910197D01*
X192910197Y-77910197D01*
X192899671Y-77922134D01*
X192886408Y-77943204D01*
X192386408Y-78943204D01*
X192375440Y-78975224D01*
X192373000Y-79000000D01*
X192373000Y-81000000D01*
X192377510Y-81033544D01*
X192386408Y-81056796D01*
X192886408Y-82056796D01*
X192894403Y-82070557D01*
X192910197Y-82089803D01*
X193910197Y-83089803D01*
X193922134Y-83100329D01*
X193943204Y-83113592D01*
X194943204Y-83613592D01*
X194975224Y-83624560D01*
X195000000Y-83627000D01*
X197000000Y-83627000D01*
X197033544Y-83622490D01*
X197056796Y-83613592D01*
X198056796Y-83113592D01*
X198070557Y-83105597D01*
X198089803Y-83089803D01*
X199089803Y-82089803D01*
X199100329Y-82077866D01*
X199113592Y-82056796D01*
X199340001Y-81603978D01*
X199340000Y-112396020D01*
X199113592Y-111943204D01*
X199105597Y-111929443D01*
X199089803Y-111910197D01*
X198089803Y-110910197D01*
X198077866Y-110899671D01*
X198056796Y-110886408D01*
X197056796Y-110386408D01*
X197024776Y-110375440D01*
X197000000Y-110373000D01*
X195000000Y-110373000D01*
X194966456Y-110377510D01*
X194943204Y-110386408D01*
X193943204Y-110886408D01*
X193929443Y-110894403D01*
X193910197Y-110910197D01*
X192910197Y-111910197D01*
X192899671Y-111922134D01*
X192886408Y-111943204D01*
X192386408Y-112943204D01*
X192375440Y-112975224D01*
X192373000Y-113000000D01*
X192373000Y-115000000D01*
X192377510Y-115033544D01*
X192386408Y-115056796D01*
X192886408Y-116056796D01*
X192894403Y-116070557D01*
X192910197Y-116089803D01*
X193910197Y-117089803D01*
X193922134Y-117100329D01*
X193943204Y-117113592D01*
X194391012Y-117337496D01*
X162585000Y-117323295D01*
X162585000Y-101796340D01*
X169622960Y-101796340D01*
X169626000Y-102784250D01*
X169658856Y-102817106D01*
X169625887Y-102983998D01*
X169626116Y-103158328D01*
X169659039Y-103322711D01*
X169626000Y-103355750D01*
X169622960Y-104343660D01*
X169633982Y-104468257D01*
X169669101Y-104588310D01*
X169726966Y-104699204D01*
X169805354Y-104796679D01*
X169901252Y-104876989D01*
X170010975Y-104937046D01*
X170130306Y-104974544D01*
X170229250Y-104985000D01*
X170261446Y-104952804D01*
X170424998Y-104985113D01*
X170599328Y-104984884D01*
X170760379Y-104952629D01*
X170792750Y-104985000D01*
X170891694Y-104974544D01*
X171011025Y-104937046D01*
X171120748Y-104876989D01*
X171216646Y-104796679D01*
X171295034Y-104699204D01*
X171352899Y-104588310D01*
X171388018Y-104468257D01*
X171399040Y-104343660D01*
X171396000Y-103355750D01*
X171363144Y-103322894D01*
X171396113Y-103156002D01*
X171395884Y-102981672D01*
X171362961Y-102817289D01*
X171396000Y-102784250D01*
X171399040Y-101796340D01*
X171388018Y-101671743D01*
X171352899Y-101551690D01*
X171295034Y-101440796D01*
X171216646Y-101343321D01*
X171120748Y-101263011D01*
X171011025Y-101202954D01*
X170891694Y-101165456D01*
X170792750Y-101155000D01*
X170760554Y-101187196D01*
X170597002Y-101154887D01*
X170422672Y-101155116D01*
X170261621Y-101187371D01*
X170229250Y-101155000D01*
X170130306Y-101165456D01*
X170010975Y-101202954D01*
X169901252Y-101263011D01*
X169805354Y-101343321D01*
X169726966Y-101440796D01*
X169669101Y-101551690D01*
X169633982Y-101671743D01*
X169622960Y-101796340D01*
X162585000Y-101796340D01*
X162585000Y-100015320D01*
X162588192Y-99982818D01*
X162582073Y-99920859D01*
X162575450Y-99853617D01*
X162575423Y-99853527D01*
X162575414Y-99853439D01*
X162557540Y-99794576D01*
X162537710Y-99729207D01*
X162537664Y-99729120D01*
X162537639Y-99729039D01*
X162508887Y-99675283D01*
X162476425Y-99614550D01*
X162476364Y-99614476D01*
X162476323Y-99614399D01*
X162437737Y-99567408D01*
X162393948Y-99514052D01*
X162393872Y-99513989D01*
X162393818Y-99513924D01*
X162346272Y-99474925D01*
X162293450Y-99431575D01*
X162293367Y-99431531D01*
X162293298Y-99431474D01*
X162238161Y-99402023D01*
X162178793Y-99370290D01*
X162178701Y-99370262D01*
X162178624Y-99370221D01*
X162119045Y-99352165D01*
X162054383Y-99332550D01*
X162054289Y-99332541D01*
X162054204Y-99332515D01*
X161992577Y-99326463D01*
X161925000Y-99319807D01*
X161892482Y-99323010D01*
X100660000Y-99339819D01*
X100660000Y-92798061D01*
X160265000Y-92798061D01*
X160265000Y-93001939D01*
X160304774Y-93201898D01*
X160382795Y-93390256D01*
X160496063Y-93559774D01*
X160640226Y-93703937D01*
X160809744Y-93817205D01*
X160998102Y-93895226D01*
X161198061Y-93935000D01*
X161224843Y-93935000D01*
X163890359Y-96600516D01*
X163914942Y-96630470D01*
X164034473Y-96728568D01*
X164170846Y-96801460D01*
X164318819Y-96846348D01*
X164393732Y-96853726D01*
X164434145Y-96857706D01*
X164434150Y-96857706D01*
X164472706Y-96861503D01*
X164511262Y-96857706D01*
X165476835Y-96857706D01*
X165495772Y-96876643D01*
X165665290Y-96989911D01*
X165853648Y-97067932D01*
X166053607Y-97107706D01*
X166257485Y-97107706D01*
X166457444Y-97067932D01*
X166645802Y-96989911D01*
X166815320Y-96876643D01*
X166859257Y-96832706D01*
X167287972Y-96832706D01*
X167325294Y-96836382D01*
X167362616Y-96832706D01*
X167362627Y-96832706D01*
X167474280Y-96821709D01*
X167617541Y-96778252D01*
X167749570Y-96707680D01*
X167865295Y-96612707D01*
X167889098Y-96583703D01*
X169478802Y-94994000D01*
X180359680Y-94994000D01*
X180397002Y-94997676D01*
X180434324Y-94994000D01*
X180434335Y-94994000D01*
X180545988Y-94983003D01*
X180689249Y-94939546D01*
X180821278Y-94868974D01*
X180937003Y-94774001D01*
X180960805Y-94744998D01*
X181339488Y-94366316D01*
X181373744Y-94389205D01*
X181562102Y-94467226D01*
X181762061Y-94507000D01*
X181965939Y-94507000D01*
X182165898Y-94467226D01*
X182339122Y-94395474D01*
X182343795Y-94406756D01*
X182457063Y-94576274D01*
X182601226Y-94720437D01*
X182770744Y-94833705D01*
X182959102Y-94911726D01*
X182964499Y-94912800D01*
X182964499Y-95822944D01*
X182845548Y-95799283D01*
X182641670Y-95799283D01*
X182441711Y-95839057D01*
X182253353Y-95917078D01*
X182083835Y-96030346D01*
X181939672Y-96174509D01*
X181826404Y-96344027D01*
X181748383Y-96532385D01*
X181708609Y-96732344D01*
X181708609Y-96936222D01*
X181748383Y-97136181D01*
X181826404Y-97324539D01*
X181939672Y-97494057D01*
X182083002Y-97637387D01*
X182083001Y-97955999D01*
X179451323Y-97955999D01*
X179414000Y-97952323D01*
X179376677Y-97955999D01*
X179376668Y-97955999D01*
X179265015Y-97966996D01*
X179121754Y-98010453D01*
X178989724Y-98081025D01*
X178906084Y-98149667D01*
X178874000Y-98175998D01*
X178850202Y-98204996D01*
X172901317Y-104153882D01*
X172872319Y-104177680D01*
X172848521Y-104206678D01*
X172848520Y-104206679D01*
X172777345Y-104293405D01*
X172706773Y-104425435D01*
X172663317Y-104568696D01*
X172648643Y-104717681D01*
X172652320Y-104755013D01*
X172652319Y-105616881D01*
X171333201Y-106936000D01*
X167232592Y-106936000D01*
X167160205Y-106761244D01*
X167046937Y-106591726D01*
X166902774Y-106447563D01*
X166733256Y-106334295D01*
X166544898Y-106256274D01*
X166344939Y-106216500D01*
X166141061Y-106216500D01*
X165941102Y-106256274D01*
X165752744Y-106334295D01*
X165583226Y-106447563D01*
X165439063Y-106591726D01*
X165325795Y-106761244D01*
X165247774Y-106949602D01*
X165208000Y-107149561D01*
X165208000Y-107353439D01*
X165247774Y-107553398D01*
X165325795Y-107741756D01*
X165439063Y-107911274D01*
X165583226Y-108055437D01*
X165752744Y-108168705D01*
X165941102Y-108246726D01*
X166141061Y-108286500D01*
X166209032Y-108286500D01*
X166220646Y-108296031D01*
X166263223Y-108330974D01*
X166395253Y-108401546D01*
X166538514Y-108445003D01*
X166650167Y-108456000D01*
X166650177Y-108456000D01*
X166687500Y-108459676D01*
X166724823Y-108456000D01*
X171610680Y-108456000D01*
X171648002Y-108459676D01*
X171685324Y-108456000D01*
X171685335Y-108456000D01*
X171796988Y-108445003D01*
X171940249Y-108401546D01*
X172072278Y-108330974D01*
X172188003Y-108236001D01*
X172211806Y-108206997D01*
X173923323Y-106495481D01*
X173952320Y-106471684D01*
X173978651Y-106439600D01*
X174047293Y-106355960D01*
X174117865Y-106223930D01*
X174120119Y-106216500D01*
X174161322Y-106080669D01*
X174172319Y-105969016D01*
X174172319Y-105969007D01*
X174175995Y-105931684D01*
X174172319Y-105894361D01*
X174172319Y-105032482D01*
X179728803Y-99475999D01*
X182739652Y-99475999D01*
X182664726Y-99526063D01*
X182520563Y-99670226D01*
X182407295Y-99839744D01*
X182329274Y-100028102D01*
X182289500Y-100228061D01*
X182289500Y-100431939D01*
X182329274Y-100631898D01*
X182407295Y-100820256D01*
X182520563Y-100989774D01*
X182664726Y-101133937D01*
X182834244Y-101247205D01*
X183022602Y-101325226D01*
X183222561Y-101365000D01*
X183426439Y-101365000D01*
X183626398Y-101325226D01*
X183814756Y-101247205D01*
X183984274Y-101133937D01*
X184128437Y-100989774D01*
X184241705Y-100820256D01*
X184319726Y-100631898D01*
X184359500Y-100431939D01*
X184359500Y-100354226D01*
X184430045Y-100222248D01*
X184473502Y-100078987D01*
X184484499Y-99967334D01*
X184484499Y-99967324D01*
X184488175Y-99930002D01*
X184484499Y-99892679D01*
X184484499Y-94417332D01*
X184488176Y-94379999D01*
X184473502Y-94231013D01*
X184430045Y-94087752D01*
X184359473Y-93955723D01*
X184342466Y-93935000D01*
X184296000Y-93878381D01*
X184296000Y-93814561D01*
X184256226Y-93614602D01*
X184178205Y-93426244D01*
X184064937Y-93256726D01*
X183920774Y-93112563D01*
X183751256Y-92999295D01*
X183562898Y-92921274D01*
X183362939Y-92881500D01*
X183159061Y-92881500D01*
X182959102Y-92921274D01*
X182785878Y-92993026D01*
X182781205Y-92981744D01*
X182667937Y-92812226D01*
X182523774Y-92668063D01*
X182354256Y-92554795D01*
X182165898Y-92476774D01*
X181965939Y-92437000D01*
X181762061Y-92437000D01*
X181562102Y-92476774D01*
X181373744Y-92554795D01*
X181204226Y-92668063D01*
X181163520Y-92708769D01*
X181159002Y-92708324D01*
X181121677Y-92712000D01*
X181121669Y-92712000D01*
X181010016Y-92722997D01*
X180866755Y-92766454D01*
X180852034Y-92774323D01*
X180745774Y-92668063D01*
X180576256Y-92554795D01*
X180387898Y-92476774D01*
X180187939Y-92437000D01*
X179984061Y-92437000D01*
X179784102Y-92476774D01*
X179595744Y-92554795D01*
X179426226Y-92668063D01*
X179282063Y-92812226D01*
X179179315Y-92966000D01*
X170453000Y-92966000D01*
X170453000Y-92862061D01*
X170413226Y-92662102D01*
X170335205Y-92473744D01*
X170221937Y-92304226D01*
X170178000Y-92260289D01*
X170178000Y-91849831D01*
X170181677Y-91812498D01*
X170167003Y-91663512D01*
X170123546Y-91520251D01*
X170052974Y-91388222D01*
X169981799Y-91301495D01*
X169958001Y-91272497D01*
X169929003Y-91248699D01*
X168010805Y-89330502D01*
X167987002Y-89301498D01*
X167871277Y-89206525D01*
X167739248Y-89135953D01*
X167595987Y-89092496D01*
X167484334Y-89081499D01*
X167484323Y-89081499D01*
X167447001Y-89077823D01*
X167409679Y-89081499D01*
X167402212Y-89081499D01*
X167358275Y-89037562D01*
X167188757Y-88924294D01*
X167000399Y-88846273D01*
X166800440Y-88806499D01*
X166596562Y-88806499D01*
X166396603Y-88846273D01*
X166208245Y-88924294D01*
X166038727Y-89037562D01*
X165894564Y-89181725D01*
X165781296Y-89351243D01*
X165703275Y-89539601D01*
X165663501Y-89739560D01*
X165663501Y-89943438D01*
X165703275Y-90143397D01*
X165781296Y-90331755D01*
X165894564Y-90501273D01*
X166038727Y-90645436D01*
X166208245Y-90758704D01*
X166396603Y-90836725D01*
X166596562Y-90876499D01*
X166800440Y-90876499D01*
X167000399Y-90836725D01*
X167188757Y-90758704D01*
X167249091Y-90718390D01*
X168658001Y-92127301D01*
X168658001Y-92260288D01*
X168614063Y-92304226D01*
X168500795Y-92473744D01*
X168422774Y-92662102D01*
X168421137Y-92670334D01*
X167913000Y-92162198D01*
X167913000Y-92100061D01*
X167873226Y-91900102D01*
X167795205Y-91711744D01*
X167681937Y-91542226D01*
X167537774Y-91398063D01*
X167368256Y-91284795D01*
X167179898Y-91206774D01*
X166979939Y-91167000D01*
X166776061Y-91167000D01*
X166576102Y-91206774D01*
X166387744Y-91284795D01*
X166218226Y-91398063D01*
X166074063Y-91542226D01*
X165960795Y-91711744D01*
X165882774Y-91900102D01*
X165843000Y-92100061D01*
X165843000Y-92303939D01*
X165882774Y-92503898D01*
X165960795Y-92692256D01*
X166074063Y-92861774D01*
X166218226Y-93005937D01*
X166387744Y-93119205D01*
X166576102Y-93197226D01*
X166776061Y-93237000D01*
X166838198Y-93237000D01*
X167838205Y-94237008D01*
X167861999Y-94266001D01*
X167890992Y-94289795D01*
X167890996Y-94289799D01*
X167953113Y-94340776D01*
X167969211Y-94353987D01*
X167010493Y-95312706D01*
X166859257Y-95312706D01*
X166815320Y-95268769D01*
X166645802Y-95155501D01*
X166457444Y-95077480D01*
X166257485Y-95037706D01*
X166053607Y-95037706D01*
X165853648Y-95077480D01*
X165665290Y-95155501D01*
X165495772Y-95268769D01*
X165476835Y-95287706D01*
X164797863Y-95287706D01*
X162335000Y-92824843D01*
X162335000Y-92798061D01*
X162295226Y-92598102D01*
X162217205Y-92409744D01*
X162103937Y-92240226D01*
X161959774Y-92096063D01*
X161790256Y-91982795D01*
X161601898Y-91904774D01*
X161401939Y-91865000D01*
X161198061Y-91865000D01*
X160998102Y-91904774D01*
X160809744Y-91982795D01*
X160640226Y-92096063D01*
X160496063Y-92240226D01*
X160382795Y-92409744D01*
X160304774Y-92598102D01*
X160265000Y-92798061D01*
X100660000Y-92798061D01*
X100660000Y-86630020D01*
X169272000Y-86630020D01*
X169272000Y-86833898D01*
X169311774Y-87033857D01*
X169389795Y-87222215D01*
X169503063Y-87391733D01*
X169647226Y-87535896D01*
X169816744Y-87649164D01*
X170005102Y-87727185D01*
X170205061Y-87766959D01*
X170267199Y-87766959D01*
X172945242Y-90445003D01*
X172969040Y-90474001D01*
X173084765Y-90568974D01*
X173216794Y-90639546D01*
X173360055Y-90683003D01*
X173471708Y-90694000D01*
X173471718Y-90694000D01*
X173509041Y-90697676D01*
X173546364Y-90694000D01*
X174368420Y-90694000D01*
X174412357Y-90737937D01*
X174581875Y-90851205D01*
X174770233Y-90929226D01*
X174970192Y-90969000D01*
X175174070Y-90969000D01*
X175374029Y-90929226D01*
X175562387Y-90851205D01*
X175731905Y-90737937D01*
X175876068Y-90593774D01*
X175989336Y-90424256D01*
X176067357Y-90235898D01*
X176107131Y-90035939D01*
X176107131Y-89832061D01*
X176067357Y-89632102D01*
X175989336Y-89443744D01*
X175876068Y-89274226D01*
X175731905Y-89130063D01*
X175562387Y-89016795D01*
X175374029Y-88938774D01*
X175174070Y-88899000D01*
X174970192Y-88899000D01*
X174770233Y-88938774D01*
X174581875Y-89016795D01*
X174412357Y-89130063D01*
X174368420Y-89174000D01*
X173823843Y-89174000D01*
X171342000Y-86692158D01*
X171342000Y-86630020D01*
X171302226Y-86430061D01*
X171224205Y-86241703D01*
X171110937Y-86072185D01*
X170966774Y-85928022D01*
X170797256Y-85814754D01*
X170608898Y-85736733D01*
X170408939Y-85696959D01*
X170205061Y-85696959D01*
X170005102Y-85736733D01*
X169816744Y-85814754D01*
X169647226Y-85928022D01*
X169503063Y-86072185D01*
X169389795Y-86241703D01*
X169311774Y-86430061D01*
X169272000Y-86630020D01*
X100660000Y-86630020D01*
X100660000Y-85680000D01*
X109255928Y-85680000D01*
X109268188Y-85804482D01*
X109304498Y-85924180D01*
X109363463Y-86034494D01*
X109442815Y-86131185D01*
X109539506Y-86210537D01*
X109649820Y-86269502D01*
X109769518Y-86305812D01*
X109894000Y-86318072D01*
X110458250Y-86315000D01*
X110617000Y-86156250D01*
X110617000Y-84707000D01*
X109417750Y-84707000D01*
X109259000Y-84865750D01*
X109255928Y-85680000D01*
X100660000Y-85680000D01*
X100660000Y-81603980D01*
X100886408Y-82056796D01*
X100894403Y-82070557D01*
X100910197Y-82089803D01*
X101910197Y-83089803D01*
X101922134Y-83100329D01*
X101943204Y-83113592D01*
X102943204Y-83613592D01*
X102975224Y-83624560D01*
X103000000Y-83627000D01*
X105000000Y-83627000D01*
X105033544Y-83622490D01*
X105056796Y-83613592D01*
X105323980Y-83480000D01*
X109255928Y-83480000D01*
X109259000Y-84294250D01*
X109417750Y-84453000D01*
X110617000Y-84453000D01*
X110617000Y-83003750D01*
X110871000Y-83003750D01*
X110871000Y-84453000D01*
X110891000Y-84453000D01*
X110891000Y-84707000D01*
X110871000Y-84707000D01*
X110871000Y-86156250D01*
X111029750Y-86315000D01*
X111594000Y-86318072D01*
X111718482Y-86305812D01*
X111838180Y-86269502D01*
X111948494Y-86210537D01*
X112045185Y-86131185D01*
X112124537Y-86034494D01*
X112183502Y-85924180D01*
X112194055Y-85889392D01*
X112414987Y-86070706D01*
X112672967Y-86208599D01*
X112952890Y-86293513D01*
X113244000Y-86322185D01*
X113535111Y-86293513D01*
X113815034Y-86208599D01*
X114073014Y-86070706D01*
X114299134Y-85885134D01*
X114484706Y-85659014D01*
X114622599Y-85401034D01*
X114707513Y-85121110D01*
X114729000Y-84902949D01*
X114729000Y-84257050D01*
X114707513Y-84038889D01*
X114622599Y-83758966D01*
X114519457Y-83566000D01*
X163353815Y-83566000D01*
X163382487Y-83857111D01*
X163467401Y-84137034D01*
X163605294Y-84395014D01*
X163790866Y-84621134D01*
X164016986Y-84806706D01*
X164274966Y-84944599D01*
X164554889Y-85029513D01*
X164773050Y-85051000D01*
X164918950Y-85051000D01*
X165137111Y-85029513D01*
X165417034Y-84944599D01*
X165675014Y-84806706D01*
X165901134Y-84621134D01*
X166086706Y-84395014D01*
X166116000Y-84340209D01*
X166145294Y-84395014D01*
X166330866Y-84621134D01*
X166556986Y-84806706D01*
X166814966Y-84944599D01*
X167094889Y-85029513D01*
X167313050Y-85051000D01*
X167458950Y-85051000D01*
X167677111Y-85029513D01*
X167957034Y-84944599D01*
X168215014Y-84806706D01*
X168441134Y-84621134D01*
X168626706Y-84395014D01*
X168656000Y-84340209D01*
X168685294Y-84395014D01*
X168870866Y-84621134D01*
X169096986Y-84806706D01*
X169354966Y-84944599D01*
X169634889Y-85029513D01*
X169853050Y-85051000D01*
X169998950Y-85051000D01*
X170217111Y-85029513D01*
X170291995Y-85006797D01*
X170537202Y-85252004D01*
X170561000Y-85281002D01*
X170676725Y-85375975D01*
X170808754Y-85446547D01*
X170952015Y-85490004D01*
X171063668Y-85501001D01*
X171063677Y-85501001D01*
X171101000Y-85504677D01*
X171138323Y-85501001D01*
X177603677Y-85501001D01*
X177640999Y-85504677D01*
X177678321Y-85501001D01*
X177678332Y-85501001D01*
X177789985Y-85490004D01*
X177933246Y-85446547D01*
X178065275Y-85375975D01*
X178181000Y-85281002D01*
X178204803Y-85251998D01*
X179130802Y-84326000D01*
X183892201Y-84326000D01*
X183953050Y-84386849D01*
X183953050Y-84616330D01*
X183909112Y-84660268D01*
X183795844Y-84829786D01*
X183717823Y-85018144D01*
X183678049Y-85218103D01*
X183678049Y-85421981D01*
X183717823Y-85621940D01*
X183795844Y-85810298D01*
X183909112Y-85979816D01*
X184053275Y-86123979D01*
X184222793Y-86237247D01*
X184411151Y-86315268D01*
X184611110Y-86355042D01*
X184814988Y-86355042D01*
X185014947Y-86315268D01*
X185203305Y-86237247D01*
X185372823Y-86123979D01*
X185516986Y-85979816D01*
X185630254Y-85810298D01*
X185708275Y-85621940D01*
X185748049Y-85421981D01*
X185748049Y-85218103D01*
X185708275Y-85018144D01*
X185630254Y-84829786D01*
X185516986Y-84660268D01*
X185473049Y-84616331D01*
X185473049Y-84130694D01*
X187940000Y-86597646D01*
X187940001Y-86959907D01*
X187884744Y-86982795D01*
X187715226Y-87096063D01*
X187571063Y-87240226D01*
X187457795Y-87409744D01*
X187379774Y-87598102D01*
X187340000Y-87798061D01*
X187340000Y-88001939D01*
X187379774Y-88201898D01*
X187457795Y-88390256D01*
X187571063Y-88559774D01*
X187715226Y-88703937D01*
X187884744Y-88817205D01*
X188073102Y-88895226D01*
X188273061Y-88935000D01*
X188476939Y-88935000D01*
X188676898Y-88895226D01*
X188865256Y-88817205D01*
X188900000Y-88793990D01*
X188934744Y-88817205D01*
X189123102Y-88895226D01*
X189323061Y-88935000D01*
X189526939Y-88935000D01*
X189726898Y-88895226D01*
X189915256Y-88817205D01*
X190084774Y-88703937D01*
X190228937Y-88559774D01*
X190342205Y-88390256D01*
X190420226Y-88201898D01*
X190460000Y-88001939D01*
X190460000Y-87798061D01*
X190420226Y-87598102D01*
X190342205Y-87409744D01*
X190228937Y-87240226D01*
X190084774Y-87096063D01*
X189915256Y-86982795D01*
X189860000Y-86959907D01*
X189860000Y-86142906D01*
X189863556Y-86106801D01*
X189849365Y-85962716D01*
X189807337Y-85824167D01*
X189739087Y-85696481D01*
X189670253Y-85612607D01*
X189670250Y-85612604D01*
X189647237Y-85584563D01*
X189619197Y-85561551D01*
X186643569Y-82585924D01*
X186666458Y-82530666D01*
X186706232Y-82330707D01*
X186706232Y-82126829D01*
X186666458Y-81926870D01*
X186588437Y-81738512D01*
X186475169Y-81568994D01*
X186331006Y-81424831D01*
X186161488Y-81311563D01*
X185973130Y-81233542D01*
X185773171Y-81193768D01*
X185569293Y-81193768D01*
X185369334Y-81233542D01*
X185180976Y-81311563D01*
X185011458Y-81424831D01*
X184867295Y-81568994D01*
X184754027Y-81738512D01*
X184676006Y-81926870D01*
X184667854Y-81967854D01*
X184626870Y-81976006D01*
X184438512Y-82054027D01*
X184268994Y-82167295D01*
X184124831Y-82311458D01*
X184011563Y-82480976D01*
X183933542Y-82669334D01*
X183906358Y-82806000D01*
X178853322Y-82806000D01*
X178815999Y-82802324D01*
X178778676Y-82806000D01*
X178778667Y-82806000D01*
X178667014Y-82816997D01*
X178523753Y-82860454D01*
X178391724Y-82931026D01*
X178275999Y-83025999D01*
X178252201Y-83054997D01*
X177326198Y-83981001D01*
X176491704Y-83981001D01*
X176491000Y-83851750D01*
X176332250Y-83693000D01*
X175133000Y-83693000D01*
X175133000Y-83713000D01*
X174879000Y-83713000D01*
X174879000Y-83693000D01*
X174859000Y-83693000D01*
X174859000Y-83439000D01*
X174879000Y-83439000D01*
X174879000Y-82239750D01*
X175133000Y-82239750D01*
X175133000Y-83439000D01*
X176332250Y-83439000D01*
X176491000Y-83280250D01*
X176494072Y-82716000D01*
X176481812Y-82591518D01*
X176445502Y-82471820D01*
X176386537Y-82361506D01*
X176307185Y-82264815D01*
X176210494Y-82185463D01*
X176100180Y-82126498D01*
X175980482Y-82090188D01*
X175856000Y-82077928D01*
X175291750Y-82081000D01*
X175133000Y-82239750D01*
X174879000Y-82239750D01*
X174720250Y-82081000D01*
X174156000Y-82077928D01*
X174031518Y-82090188D01*
X173911820Y-82126498D01*
X173801506Y-82185463D01*
X173704815Y-82264815D01*
X173625463Y-82361506D01*
X173566498Y-82471820D01*
X173545607Y-82540687D01*
X173521134Y-82510866D01*
X173295014Y-82325294D01*
X173037034Y-82187401D01*
X172757111Y-82102487D01*
X172538950Y-82081000D01*
X172393050Y-82081000D01*
X172174889Y-82102487D01*
X171894966Y-82187401D01*
X171636986Y-82325294D01*
X171410866Y-82510866D01*
X171225294Y-82736986D01*
X171196000Y-82791791D01*
X171166706Y-82736986D01*
X170981134Y-82510866D01*
X170755014Y-82325294D01*
X170497034Y-82187401D01*
X170217111Y-82102487D01*
X169998950Y-82081000D01*
X169853050Y-82081000D01*
X169634889Y-82102487D01*
X169354966Y-82187401D01*
X169096986Y-82325294D01*
X168870866Y-82510866D01*
X168685294Y-82736986D01*
X168656000Y-82791791D01*
X168626706Y-82736986D01*
X168441134Y-82510866D01*
X168215014Y-82325294D01*
X167957034Y-82187401D01*
X167677111Y-82102487D01*
X167458950Y-82081000D01*
X167313050Y-82081000D01*
X167094889Y-82102487D01*
X166814966Y-82187401D01*
X166556986Y-82325294D01*
X166330866Y-82510866D01*
X166145294Y-82736986D01*
X166116000Y-82791791D01*
X166086706Y-82736986D01*
X165901134Y-82510866D01*
X165675014Y-82325294D01*
X165417034Y-82187401D01*
X165137111Y-82102487D01*
X164918950Y-82081000D01*
X164773050Y-82081000D01*
X164554889Y-82102487D01*
X164274966Y-82187401D01*
X164016986Y-82325294D01*
X163790866Y-82510866D01*
X163605294Y-82736986D01*
X163467401Y-82994966D01*
X163382487Y-83274889D01*
X163353815Y-83566000D01*
X114519457Y-83566000D01*
X114484706Y-83500986D01*
X114299134Y-83274866D01*
X114073013Y-83089294D01*
X113815033Y-82951401D01*
X113535110Y-82866487D01*
X113244000Y-82837815D01*
X112952889Y-82866487D01*
X112672966Y-82951401D01*
X112414986Y-83089294D01*
X112194055Y-83270608D01*
X112183502Y-83235820D01*
X112124537Y-83125506D01*
X112045185Y-83028815D01*
X111948494Y-82949463D01*
X111838180Y-82890498D01*
X111718482Y-82854188D01*
X111594000Y-82841928D01*
X111029750Y-82845000D01*
X110871000Y-83003750D01*
X110617000Y-83003750D01*
X110458250Y-82845000D01*
X109894000Y-82841928D01*
X109769518Y-82854188D01*
X109649820Y-82890498D01*
X109539506Y-82949463D01*
X109442815Y-83028815D01*
X109363463Y-83125506D01*
X109304498Y-83235820D01*
X109268188Y-83355518D01*
X109255928Y-83480000D01*
X105323980Y-83480000D01*
X106056796Y-83113592D01*
X106070557Y-83105597D01*
X106089803Y-83089803D01*
X107089803Y-82089803D01*
X107100329Y-82077866D01*
X107113592Y-82056796D01*
X107611673Y-81060633D01*
X178482472Y-81060633D01*
X178544965Y-81296950D01*
X178787678Y-81410350D01*
X179047849Y-81474219D01*
X179315482Y-81486104D01*
X179580291Y-81445548D01*
X179832100Y-81354109D01*
X179939035Y-81296950D01*
X180001528Y-81060633D01*
X183482472Y-81060633D01*
X183544965Y-81296950D01*
X183787678Y-81410350D01*
X184047849Y-81474219D01*
X184315482Y-81486104D01*
X184580291Y-81445548D01*
X184832100Y-81354109D01*
X184939035Y-81296950D01*
X185001528Y-81060633D01*
X184242000Y-80301105D01*
X183482472Y-81060633D01*
X180001528Y-81060633D01*
X179242000Y-80301105D01*
X178482472Y-81060633D01*
X107611673Y-81060633D01*
X107613592Y-81056796D01*
X107624560Y-81024776D01*
X107627000Y-81000000D01*
X107627000Y-79507524D01*
X148590000Y-79507524D01*
X148590000Y-79706476D01*
X148628814Y-79901606D01*
X148704950Y-80085414D01*
X148815482Y-80250837D01*
X148956163Y-80391518D01*
X149121586Y-80502050D01*
X149305394Y-80578186D01*
X149500524Y-80617000D01*
X149699476Y-80617000D01*
X149894606Y-80578186D01*
X150078414Y-80502050D01*
X150243837Y-80391518D01*
X150384518Y-80250837D01*
X150421839Y-80194982D01*
X177877396Y-80194982D01*
X177917952Y-80459791D01*
X178009391Y-80711600D01*
X178066550Y-80818535D01*
X178302867Y-80881028D01*
X179062395Y-80121500D01*
X179421605Y-80121500D01*
X180181133Y-80881028D01*
X180417450Y-80818535D01*
X180530850Y-80575822D01*
X180594719Y-80315651D01*
X180600077Y-80194982D01*
X182877396Y-80194982D01*
X182917952Y-80459791D01*
X183009391Y-80711600D01*
X183066550Y-80818535D01*
X183302867Y-80881028D01*
X184062395Y-80121500D01*
X184421605Y-80121500D01*
X185181133Y-80881028D01*
X185417450Y-80818535D01*
X185530850Y-80575822D01*
X185594719Y-80315651D01*
X185606604Y-80048018D01*
X185566048Y-79783209D01*
X185474609Y-79531400D01*
X185417450Y-79424465D01*
X185181133Y-79361972D01*
X184421605Y-80121500D01*
X184062395Y-80121500D01*
X183302867Y-79361972D01*
X183066550Y-79424465D01*
X182953150Y-79667178D01*
X182889281Y-79927349D01*
X182877396Y-80194982D01*
X180600077Y-80194982D01*
X180606604Y-80048018D01*
X180566048Y-79783209D01*
X180474609Y-79531400D01*
X180417450Y-79424465D01*
X180181133Y-79361972D01*
X179421605Y-80121500D01*
X179062395Y-80121500D01*
X178302867Y-79361972D01*
X178066550Y-79424465D01*
X177953150Y-79667178D01*
X177889281Y-79927349D01*
X177877396Y-80194982D01*
X150421839Y-80194982D01*
X150495050Y-80085414D01*
X150571186Y-79901606D01*
X150610000Y-79706476D01*
X150610000Y-79507524D01*
X150571186Y-79312394D01*
X150495050Y-79128586D01*
X150384518Y-78963163D01*
X150243837Y-78822482D01*
X150078414Y-78711950D01*
X149894606Y-78635814D01*
X149699476Y-78597000D01*
X149500524Y-78597000D01*
X149305394Y-78635814D01*
X149121586Y-78711950D01*
X148956163Y-78822482D01*
X148815482Y-78963163D01*
X148704950Y-79128586D01*
X148628814Y-79312394D01*
X148590000Y-79507524D01*
X107627000Y-79507524D01*
X107627000Y-79000000D01*
X107622490Y-78966456D01*
X107613592Y-78943204D01*
X107113592Y-77943204D01*
X107105597Y-77929443D01*
X107089803Y-77910197D01*
X106089803Y-76910197D01*
X106077866Y-76899671D01*
X106056796Y-76886408D01*
X105603980Y-76660000D01*
X109452458Y-76660000D01*
X109428010Y-76696589D01*
X109428010Y-76696589D01*
G37*
X109428010Y-76696589D02*
X109316068Y-76966842D01*
X109259000Y-77253740D01*
X109259000Y-77546260D01*
X109316068Y-77833158D01*
X109428010Y-78103411D01*
X109590525Y-78346632D01*
X109797368Y-78553475D01*
X110040589Y-78715990D01*
X110310842Y-78827932D01*
X110597740Y-78885000D01*
X110890260Y-78885000D01*
X111177158Y-78827932D01*
X111447411Y-78715990D01*
X111690632Y-78553475D01*
X111897475Y-78346632D01*
X111994000Y-78202172D01*
X112090525Y-78346632D01*
X112297368Y-78553475D01*
X112540589Y-78715990D01*
X112810842Y-78827932D01*
X113097740Y-78885000D01*
X113390260Y-78885000D01*
X113677158Y-78827932D01*
X113947411Y-78715990D01*
X114190632Y-78553475D01*
X114397475Y-78346632D01*
X114559990Y-78103411D01*
X114671932Y-77833158D01*
X114729000Y-77546260D01*
X114729000Y-77253740D01*
X114671932Y-76966842D01*
X114559990Y-76696589D01*
X114535542Y-76660000D01*
X148609399Y-76660000D01*
X148590000Y-76757524D01*
X148590000Y-76956476D01*
X148628814Y-77151606D01*
X148704950Y-77335414D01*
X148815482Y-77500837D01*
X148956163Y-77641518D01*
X149121586Y-77752050D01*
X149305394Y-77828186D01*
X149500524Y-77867000D01*
X149699476Y-77867000D01*
X149894606Y-77828186D01*
X150078414Y-77752050D01*
X150243837Y-77641518D01*
X150336855Y-77548500D01*
X177007000Y-77548500D01*
X177007000Y-77898500D01*
X177055507Y-78136996D01*
X177149610Y-78361446D01*
X177285693Y-78563225D01*
X177458526Y-78734578D01*
X177661467Y-78868921D01*
X177886718Y-78961091D01*
X177924391Y-78964962D01*
X178115000Y-78840231D01*
X178115000Y-77548500D01*
X178369000Y-77548500D01*
X178369000Y-78840231D01*
X178542862Y-78954003D01*
X178482472Y-79182367D01*
X179242000Y-79941895D01*
X180001528Y-79182367D01*
X183482472Y-79182367D01*
X184242000Y-79941895D01*
X185001528Y-79182367D01*
X184941138Y-78954003D01*
X185115000Y-78840231D01*
X185115000Y-77548500D01*
X185369000Y-77548500D01*
X185369000Y-78840231D01*
X185559609Y-78964962D01*
X185597282Y-78961091D01*
X185822533Y-78868921D01*
X186025474Y-78734578D01*
X186198307Y-78563225D01*
X186334390Y-78361446D01*
X186428493Y-78136996D01*
X186477000Y-77898500D01*
X186477000Y-77548500D01*
X185369000Y-77548500D01*
X185115000Y-77548500D01*
X184007000Y-77548500D01*
X184007000Y-77898500D01*
X184055507Y-78136996D01*
X184149610Y-78361446D01*
X184285693Y-78563225D01*
X184458526Y-78734578D01*
X184553836Y-78797671D01*
X184436151Y-78768781D01*
X184168518Y-78756896D01*
X183903709Y-78797452D01*
X183651900Y-78888891D01*
X183544965Y-78946050D01*
X183482472Y-79182367D01*
X180001528Y-79182367D01*
X179939035Y-78946050D01*
X179696322Y-78832650D01*
X179436151Y-78768781D01*
X179168518Y-78756896D01*
X178938558Y-78792115D01*
X179025474Y-78734578D01*
X179198307Y-78563225D01*
X179334390Y-78361446D01*
X179428493Y-78136996D01*
X179477000Y-77898500D01*
X179477000Y-77548500D01*
X178369000Y-77548500D01*
X178115000Y-77548500D01*
X177007000Y-77548500D01*
X150336855Y-77548500D01*
X150384518Y-77500837D01*
X150495050Y-77335414D01*
X150571186Y-77151606D01*
X150610000Y-76956476D01*
X150610000Y-76757524D01*
X150590601Y-76660000D01*
X177074795Y-76660000D01*
X177055507Y-76706004D01*
X177007000Y-76944500D01*
X177007000Y-77294500D01*
X178115000Y-77294500D01*
X178115000Y-77274500D01*
X178369000Y-77274500D01*
X178369000Y-77294500D01*
X179477000Y-77294500D01*
X179477000Y-76944500D01*
X179428493Y-76706004D01*
X179409205Y-76660000D01*
X184074795Y-76660000D01*
X184055507Y-76706004D01*
X184007000Y-76944500D01*
X184007000Y-77294500D01*
X185115000Y-77294500D01*
X185115000Y-77274500D01*
X185369000Y-77274500D01*
X185369000Y-77294500D01*
X186477000Y-77294500D01*
X186477000Y-76944500D01*
X186428493Y-76706004D01*
X186409205Y-76660000D01*
X194396020Y-76660000D01*
X193943204Y-76886408D01*
X193929443Y-76894403D01*
X193910197Y-76910197D01*
X192910197Y-77910197D01*
X192899671Y-77922134D01*
X192886408Y-77943204D01*
X192386408Y-78943204D01*
X192375440Y-78975224D01*
X192373000Y-79000000D01*
X192373000Y-81000000D01*
X192377510Y-81033544D01*
X192386408Y-81056796D01*
X192886408Y-82056796D01*
X192894403Y-82070557D01*
X192910197Y-82089803D01*
X193910197Y-83089803D01*
X193922134Y-83100329D01*
X193943204Y-83113592D01*
X194943204Y-83613592D01*
X194975224Y-83624560D01*
X195000000Y-83627000D01*
X197000000Y-83627000D01*
X197033544Y-83622490D01*
X197056796Y-83613592D01*
X198056796Y-83113592D01*
X198070557Y-83105597D01*
X198089803Y-83089803D01*
X199089803Y-82089803D01*
X199100329Y-82077866D01*
X199113592Y-82056796D01*
X199340001Y-81603978D01*
X199340000Y-112396020D01*
X199113592Y-111943204D01*
X199105597Y-111929443D01*
X199089803Y-111910197D01*
X198089803Y-110910197D01*
X198077866Y-110899671D01*
X198056796Y-110886408D01*
X197056796Y-110386408D01*
X197024776Y-110375440D01*
X197000000Y-110373000D01*
X195000000Y-110373000D01*
X194966456Y-110377510D01*
X194943204Y-110386408D01*
X193943204Y-110886408D01*
X193929443Y-110894403D01*
X193910197Y-110910197D01*
X192910197Y-111910197D01*
X192899671Y-111922134D01*
X192886408Y-111943204D01*
X192386408Y-112943204D01*
X192375440Y-112975224D01*
X192373000Y-113000000D01*
X192373000Y-115000000D01*
X192377510Y-115033544D01*
X192386408Y-115056796D01*
X192886408Y-116056796D01*
X192894403Y-116070557D01*
X192910197Y-116089803D01*
X193910197Y-117089803D01*
X193922134Y-117100329D01*
X193943204Y-117113592D01*
X194391012Y-117337496D01*
X162585000Y-117323295D01*
X162585000Y-101796340D01*
X169622960Y-101796340D01*
X169626000Y-102784250D01*
X169658856Y-102817106D01*
X169625887Y-102983998D01*
X169626116Y-103158328D01*
X169659039Y-103322711D01*
X169626000Y-103355750D01*
X169622960Y-104343660D01*
X169633982Y-104468257D01*
X169669101Y-104588310D01*
X169726966Y-104699204D01*
X169805354Y-104796679D01*
X169901252Y-104876989D01*
X170010975Y-104937046D01*
X170130306Y-104974544D01*
X170229250Y-104985000D01*
X170261446Y-104952804D01*
X170424998Y-104985113D01*
X170599328Y-104984884D01*
X170760379Y-104952629D01*
X170792750Y-104985000D01*
X170891694Y-104974544D01*
X171011025Y-104937046D01*
X171120748Y-104876989D01*
X171216646Y-104796679D01*
X171295034Y-104699204D01*
X171352899Y-104588310D01*
X171388018Y-104468257D01*
X171399040Y-104343660D01*
X171396000Y-103355750D01*
X171363144Y-103322894D01*
X171396113Y-103156002D01*
X171395884Y-102981672D01*
X171362961Y-102817289D01*
X171396000Y-102784250D01*
X171399040Y-101796340D01*
X171388018Y-101671743D01*
X171352899Y-101551690D01*
X171295034Y-101440796D01*
X171216646Y-101343321D01*
X171120748Y-101263011D01*
X171011025Y-101202954D01*
X170891694Y-101165456D01*
X170792750Y-101155000D01*
X170760554Y-101187196D01*
X170597002Y-101154887D01*
X170422672Y-101155116D01*
X170261621Y-101187371D01*
X170229250Y-101155000D01*
X170130306Y-101165456D01*
X170010975Y-101202954D01*
X169901252Y-101263011D01*
X169805354Y-101343321D01*
X169726966Y-101440796D01*
X169669101Y-101551690D01*
X169633982Y-101671743D01*
X169622960Y-101796340D01*
X162585000Y-101796340D01*
X162585000Y-100015320D01*
X162588192Y-99982818D01*
X162582073Y-99920859D01*
X162575450Y-99853617D01*
X162575423Y-99853527D01*
X162575414Y-99853439D01*
X162557540Y-99794576D01*
X162537710Y-99729207D01*
X162537664Y-99729120D01*
X162537639Y-99729039D01*
X162508887Y-99675283D01*
X162476425Y-99614550D01*
X162476364Y-99614476D01*
X162476323Y-99614399D01*
X162437737Y-99567408D01*
X162393948Y-99514052D01*
X162393872Y-99513989D01*
X162393818Y-99513924D01*
X162346272Y-99474925D01*
X162293450Y-99431575D01*
X162293367Y-99431531D01*
X162293298Y-99431474D01*
X162238161Y-99402023D01*
X162178793Y-99370290D01*
X162178701Y-99370262D01*
X162178624Y-99370221D01*
X162119045Y-99352165D01*
X162054383Y-99332550D01*
X162054289Y-99332541D01*
X162054204Y-99332515D01*
X161992577Y-99326463D01*
X161925000Y-99319807D01*
X161892482Y-99323010D01*
X100660000Y-99339819D01*
X100660000Y-92798061D01*
X160265000Y-92798061D01*
X160265000Y-93001939D01*
X160304774Y-93201898D01*
X160382795Y-93390256D01*
X160496063Y-93559774D01*
X160640226Y-93703937D01*
X160809744Y-93817205D01*
X160998102Y-93895226D01*
X161198061Y-93935000D01*
X161224843Y-93935000D01*
X163890359Y-96600516D01*
X163914942Y-96630470D01*
X164034473Y-96728568D01*
X164170846Y-96801460D01*
X164318819Y-96846348D01*
X164393732Y-96853726D01*
X164434145Y-96857706D01*
X164434150Y-96857706D01*
X164472706Y-96861503D01*
X164511262Y-96857706D01*
X165476835Y-96857706D01*
X165495772Y-96876643D01*
X165665290Y-96989911D01*
X165853648Y-97067932D01*
X166053607Y-97107706D01*
X166257485Y-97107706D01*
X166457444Y-97067932D01*
X166645802Y-96989911D01*
X166815320Y-96876643D01*
X166859257Y-96832706D01*
X167287972Y-96832706D01*
X167325294Y-96836382D01*
X167362616Y-96832706D01*
X167362627Y-96832706D01*
X167474280Y-96821709D01*
X167617541Y-96778252D01*
X167749570Y-96707680D01*
X167865295Y-96612707D01*
X167889098Y-96583703D01*
X169478802Y-94994000D01*
X180359680Y-94994000D01*
X180397002Y-94997676D01*
X180434324Y-94994000D01*
X180434335Y-94994000D01*
X180545988Y-94983003D01*
X180689249Y-94939546D01*
X180821278Y-94868974D01*
X180937003Y-94774001D01*
X180960805Y-94744998D01*
X181339488Y-94366316D01*
X181373744Y-94389205D01*
X181562102Y-94467226D01*
X181762061Y-94507000D01*
X181965939Y-94507000D01*
X182165898Y-94467226D01*
X182339122Y-94395474D01*
X182343795Y-94406756D01*
X182457063Y-94576274D01*
X182601226Y-94720437D01*
X182770744Y-94833705D01*
X182959102Y-94911726D01*
X182964499Y-94912800D01*
X182964499Y-95822944D01*
X182845548Y-95799283D01*
X182641670Y-95799283D01*
X182441711Y-95839057D01*
X182253353Y-95917078D01*
X182083835Y-96030346D01*
X181939672Y-96174509D01*
X181826404Y-96344027D01*
X181748383Y-96532385D01*
X181708609Y-96732344D01*
X181708609Y-96936222D01*
X181748383Y-97136181D01*
X181826404Y-97324539D01*
X181939672Y-97494057D01*
X182083002Y-97637387D01*
X182083001Y-97955999D01*
X179451323Y-97955999D01*
X179414000Y-97952323D01*
X179376677Y-97955999D01*
X179376668Y-97955999D01*
X179265015Y-97966996D01*
X179121754Y-98010453D01*
X178989724Y-98081025D01*
X178906084Y-98149667D01*
X178874000Y-98175998D01*
X178850202Y-98204996D01*
X172901317Y-104153882D01*
X172872319Y-104177680D01*
X172848521Y-104206678D01*
X172848520Y-104206679D01*
X172777345Y-104293405D01*
X172706773Y-104425435D01*
X172663317Y-104568696D01*
X172648643Y-104717681D01*
X172652320Y-104755013D01*
X172652319Y-105616881D01*
X171333201Y-106936000D01*
X167232592Y-106936000D01*
X167160205Y-106761244D01*
X167046937Y-106591726D01*
X166902774Y-106447563D01*
X166733256Y-106334295D01*
X166544898Y-106256274D01*
X166344939Y-106216500D01*
X166141061Y-106216500D01*
X165941102Y-106256274D01*
X165752744Y-106334295D01*
X165583226Y-106447563D01*
X165439063Y-106591726D01*
X165325795Y-106761244D01*
X165247774Y-106949602D01*
X165208000Y-107149561D01*
X165208000Y-107353439D01*
X165247774Y-107553398D01*
X165325795Y-107741756D01*
X165439063Y-107911274D01*
X165583226Y-108055437D01*
X165752744Y-108168705D01*
X165941102Y-108246726D01*
X166141061Y-108286500D01*
X166209032Y-108286500D01*
X166220646Y-108296031D01*
X166263223Y-108330974D01*
X166395253Y-108401546D01*
X166538514Y-108445003D01*
X166650167Y-108456000D01*
X166650177Y-108456000D01*
X166687500Y-108459676D01*
X166724823Y-108456000D01*
X171610680Y-108456000D01*
X171648002Y-108459676D01*
X171685324Y-108456000D01*
X171685335Y-108456000D01*
X171796988Y-108445003D01*
X171940249Y-108401546D01*
X172072278Y-108330974D01*
X172188003Y-108236001D01*
X172211806Y-108206997D01*
X173923323Y-106495481D01*
X173952320Y-106471684D01*
X173978651Y-106439600D01*
X174047293Y-106355960D01*
X174117865Y-106223930D01*
X174120119Y-106216500D01*
X174161322Y-106080669D01*
X174172319Y-105969016D01*
X174172319Y-105969007D01*
X174175995Y-105931684D01*
X174172319Y-105894361D01*
X174172319Y-105032482D01*
X179728803Y-99475999D01*
X182739652Y-99475999D01*
X182664726Y-99526063D01*
X182520563Y-99670226D01*
X182407295Y-99839744D01*
X182329274Y-100028102D01*
X182289500Y-100228061D01*
X182289500Y-100431939D01*
X182329274Y-100631898D01*
X182407295Y-100820256D01*
X182520563Y-100989774D01*
X182664726Y-101133937D01*
X182834244Y-101247205D01*
X183022602Y-101325226D01*
X183222561Y-101365000D01*
X183426439Y-101365000D01*
X183626398Y-101325226D01*
X183814756Y-101247205D01*
X183984274Y-101133937D01*
X184128437Y-100989774D01*
X184241705Y-100820256D01*
X184319726Y-100631898D01*
X184359500Y-100431939D01*
X184359500Y-100354226D01*
X184430045Y-100222248D01*
X184473502Y-100078987D01*
X184484499Y-99967334D01*
X184484499Y-99967324D01*
X184488175Y-99930002D01*
X184484499Y-99892679D01*
X184484499Y-94417332D01*
X184488176Y-94379999D01*
X184473502Y-94231013D01*
X184430045Y-94087752D01*
X184359473Y-93955723D01*
X184342466Y-93935000D01*
X184296000Y-93878381D01*
X184296000Y-93814561D01*
X184256226Y-93614602D01*
X184178205Y-93426244D01*
X184064937Y-93256726D01*
X183920774Y-93112563D01*
X183751256Y-92999295D01*
X183562898Y-92921274D01*
X183362939Y-92881500D01*
X183159061Y-92881500D01*
X182959102Y-92921274D01*
X182785878Y-92993026D01*
X182781205Y-92981744D01*
X182667937Y-92812226D01*
X182523774Y-92668063D01*
X182354256Y-92554795D01*
X182165898Y-92476774D01*
X181965939Y-92437000D01*
X181762061Y-92437000D01*
X181562102Y-92476774D01*
X181373744Y-92554795D01*
X181204226Y-92668063D01*
X181163520Y-92708769D01*
X181159002Y-92708324D01*
X181121677Y-92712000D01*
X181121669Y-92712000D01*
X181010016Y-92722997D01*
X180866755Y-92766454D01*
X180852034Y-92774323D01*
X180745774Y-92668063D01*
X180576256Y-92554795D01*
X180387898Y-92476774D01*
X180187939Y-92437000D01*
X179984061Y-92437000D01*
X179784102Y-92476774D01*
X179595744Y-92554795D01*
X179426226Y-92668063D01*
X179282063Y-92812226D01*
X179179315Y-92966000D01*
X170453000Y-92966000D01*
X170453000Y-92862061D01*
X170413226Y-92662102D01*
X170335205Y-92473744D01*
X170221937Y-92304226D01*
X170178000Y-92260289D01*
X170178000Y-91849831D01*
X170181677Y-91812498D01*
X170167003Y-91663512D01*
X170123546Y-91520251D01*
X170052974Y-91388222D01*
X169981799Y-91301495D01*
X169958001Y-91272497D01*
X169929003Y-91248699D01*
X168010805Y-89330502D01*
X167987002Y-89301498D01*
X167871277Y-89206525D01*
X167739248Y-89135953D01*
X167595987Y-89092496D01*
X167484334Y-89081499D01*
X167484323Y-89081499D01*
X167447001Y-89077823D01*
X167409679Y-89081499D01*
X167402212Y-89081499D01*
X167358275Y-89037562D01*
X167188757Y-88924294D01*
X167000399Y-88846273D01*
X166800440Y-88806499D01*
X166596562Y-88806499D01*
X166396603Y-88846273D01*
X166208245Y-88924294D01*
X166038727Y-89037562D01*
X165894564Y-89181725D01*
X165781296Y-89351243D01*
X165703275Y-89539601D01*
X165663501Y-89739560D01*
X165663501Y-89943438D01*
X165703275Y-90143397D01*
X165781296Y-90331755D01*
X165894564Y-90501273D01*
X166038727Y-90645436D01*
X166208245Y-90758704D01*
X166396603Y-90836725D01*
X166596562Y-90876499D01*
X166800440Y-90876499D01*
X167000399Y-90836725D01*
X167188757Y-90758704D01*
X167249091Y-90718390D01*
X168658001Y-92127301D01*
X168658001Y-92260288D01*
X168614063Y-92304226D01*
X168500795Y-92473744D01*
X168422774Y-92662102D01*
X168421137Y-92670334D01*
X167913000Y-92162198D01*
X167913000Y-92100061D01*
X167873226Y-91900102D01*
X167795205Y-91711744D01*
X167681937Y-91542226D01*
X167537774Y-91398063D01*
X167368256Y-91284795D01*
X167179898Y-91206774D01*
X166979939Y-91167000D01*
X166776061Y-91167000D01*
X166576102Y-91206774D01*
X166387744Y-91284795D01*
X166218226Y-91398063D01*
X166074063Y-91542226D01*
X165960795Y-91711744D01*
X165882774Y-91900102D01*
X165843000Y-92100061D01*
X165843000Y-92303939D01*
X165882774Y-92503898D01*
X165960795Y-92692256D01*
X166074063Y-92861774D01*
X166218226Y-93005937D01*
X166387744Y-93119205D01*
X166576102Y-93197226D01*
X166776061Y-93237000D01*
X166838198Y-93237000D01*
X167838205Y-94237008D01*
X167861999Y-94266001D01*
X167890992Y-94289795D01*
X167890996Y-94289799D01*
X167953113Y-94340776D01*
X167969211Y-94353987D01*
X167010493Y-95312706D01*
X166859257Y-95312706D01*
X166815320Y-95268769D01*
X166645802Y-95155501D01*
X166457444Y-95077480D01*
X166257485Y-95037706D01*
X166053607Y-95037706D01*
X165853648Y-95077480D01*
X165665290Y-95155501D01*
X165495772Y-95268769D01*
X165476835Y-95287706D01*
X164797863Y-95287706D01*
X162335000Y-92824843D01*
X162335000Y-92798061D01*
X162295226Y-92598102D01*
X162217205Y-92409744D01*
X162103937Y-92240226D01*
X161959774Y-92096063D01*
X161790256Y-91982795D01*
X161601898Y-91904774D01*
X161401939Y-91865000D01*
X161198061Y-91865000D01*
X160998102Y-91904774D01*
X160809744Y-91982795D01*
X160640226Y-92096063D01*
X160496063Y-92240226D01*
X160382795Y-92409744D01*
X160304774Y-92598102D01*
X160265000Y-92798061D01*
X100660000Y-92798061D01*
X100660000Y-86630020D01*
X169272000Y-86630020D01*
X169272000Y-86833898D01*
X169311774Y-87033857D01*
X169389795Y-87222215D01*
X169503063Y-87391733D01*
X169647226Y-87535896D01*
X169816744Y-87649164D01*
X170005102Y-87727185D01*
X170205061Y-87766959D01*
X170267199Y-87766959D01*
X172945242Y-90445003D01*
X172969040Y-90474001D01*
X173084765Y-90568974D01*
X173216794Y-90639546D01*
X173360055Y-90683003D01*
X173471708Y-90694000D01*
X173471718Y-90694000D01*
X173509041Y-90697676D01*
X173546364Y-90694000D01*
X174368420Y-90694000D01*
X174412357Y-90737937D01*
X174581875Y-90851205D01*
X174770233Y-90929226D01*
X174970192Y-90969000D01*
X175174070Y-90969000D01*
X175374029Y-90929226D01*
X175562387Y-90851205D01*
X175731905Y-90737937D01*
X175876068Y-90593774D01*
X175989336Y-90424256D01*
X176067357Y-90235898D01*
X176107131Y-90035939D01*
X176107131Y-89832061D01*
X176067357Y-89632102D01*
X175989336Y-89443744D01*
X175876068Y-89274226D01*
X175731905Y-89130063D01*
X175562387Y-89016795D01*
X175374029Y-88938774D01*
X175174070Y-88899000D01*
X174970192Y-88899000D01*
X174770233Y-88938774D01*
X174581875Y-89016795D01*
X174412357Y-89130063D01*
X174368420Y-89174000D01*
X173823843Y-89174000D01*
X171342000Y-86692158D01*
X171342000Y-86630020D01*
X171302226Y-86430061D01*
X171224205Y-86241703D01*
X171110937Y-86072185D01*
X170966774Y-85928022D01*
X170797256Y-85814754D01*
X170608898Y-85736733D01*
X170408939Y-85696959D01*
X170205061Y-85696959D01*
X170005102Y-85736733D01*
X169816744Y-85814754D01*
X169647226Y-85928022D01*
X169503063Y-86072185D01*
X169389795Y-86241703D01*
X169311774Y-86430061D01*
X169272000Y-86630020D01*
X100660000Y-86630020D01*
X100660000Y-85680000D01*
X109255928Y-85680000D01*
X109268188Y-85804482D01*
X109304498Y-85924180D01*
X109363463Y-86034494D01*
X109442815Y-86131185D01*
X109539506Y-86210537D01*
X109649820Y-86269502D01*
X109769518Y-86305812D01*
X109894000Y-86318072D01*
X110458250Y-86315000D01*
X110617000Y-86156250D01*
X110617000Y-84707000D01*
X109417750Y-84707000D01*
X109259000Y-84865750D01*
X109255928Y-85680000D01*
X100660000Y-85680000D01*
X100660000Y-81603980D01*
X100886408Y-82056796D01*
X100894403Y-82070557D01*
X100910197Y-82089803D01*
X101910197Y-83089803D01*
X101922134Y-83100329D01*
X101943204Y-83113592D01*
X102943204Y-83613592D01*
X102975224Y-83624560D01*
X103000000Y-83627000D01*
X105000000Y-83627000D01*
X105033544Y-83622490D01*
X105056796Y-83613592D01*
X105323980Y-83480000D01*
X109255928Y-83480000D01*
X109259000Y-84294250D01*
X109417750Y-84453000D01*
X110617000Y-84453000D01*
X110617000Y-83003750D01*
X110871000Y-83003750D01*
X110871000Y-84453000D01*
X110891000Y-84453000D01*
X110891000Y-84707000D01*
X110871000Y-84707000D01*
X110871000Y-86156250D01*
X111029750Y-86315000D01*
X111594000Y-86318072D01*
X111718482Y-86305812D01*
X111838180Y-86269502D01*
X111948494Y-86210537D01*
X112045185Y-86131185D01*
X112124537Y-86034494D01*
X112183502Y-85924180D01*
X112194055Y-85889392D01*
X112414987Y-86070706D01*
X112672967Y-86208599D01*
X112952890Y-86293513D01*
X113244000Y-86322185D01*
X113535111Y-86293513D01*
X113815034Y-86208599D01*
X114073014Y-86070706D01*
X114299134Y-85885134D01*
X114484706Y-85659014D01*
X114622599Y-85401034D01*
X114707513Y-85121110D01*
X114729000Y-84902949D01*
X114729000Y-84257050D01*
X114707513Y-84038889D01*
X114622599Y-83758966D01*
X114519457Y-83566000D01*
X163353815Y-83566000D01*
X163382487Y-83857111D01*
X163467401Y-84137034D01*
X163605294Y-84395014D01*
X163790866Y-84621134D01*
X164016986Y-84806706D01*
X164274966Y-84944599D01*
X164554889Y-85029513D01*
X164773050Y-85051000D01*
X164918950Y-85051000D01*
X165137111Y-85029513D01*
X165417034Y-84944599D01*
X165675014Y-84806706D01*
X165901134Y-84621134D01*
X166086706Y-84395014D01*
X166116000Y-84340209D01*
X166145294Y-84395014D01*
X166330866Y-84621134D01*
X166556986Y-84806706D01*
X166814966Y-84944599D01*
X167094889Y-85029513D01*
X167313050Y-85051000D01*
X167458950Y-85051000D01*
X167677111Y-85029513D01*
X167957034Y-84944599D01*
X168215014Y-84806706D01*
X168441134Y-84621134D01*
X168626706Y-84395014D01*
X168656000Y-84340209D01*
X168685294Y-84395014D01*
X168870866Y-84621134D01*
X169096986Y-84806706D01*
X169354966Y-84944599D01*
X169634889Y-85029513D01*
X169853050Y-85051000D01*
X169998950Y-85051000D01*
X170217111Y-85029513D01*
X170291995Y-85006797D01*
X170537202Y-85252004D01*
X170561000Y-85281002D01*
X170676725Y-85375975D01*
X170808754Y-85446547D01*
X170952015Y-85490004D01*
X171063668Y-85501001D01*
X171063677Y-85501001D01*
X171101000Y-85504677D01*
X171138323Y-85501001D01*
X177603677Y-85501001D01*
X177640999Y-85504677D01*
X177678321Y-85501001D01*
X177678332Y-85501001D01*
X177789985Y-85490004D01*
X177933246Y-85446547D01*
X178065275Y-85375975D01*
X178181000Y-85281002D01*
X178204803Y-85251998D01*
X179130802Y-84326000D01*
X183892201Y-84326000D01*
X183953050Y-84386849D01*
X183953050Y-84616330D01*
X183909112Y-84660268D01*
X183795844Y-84829786D01*
X183717823Y-85018144D01*
X183678049Y-85218103D01*
X183678049Y-85421981D01*
X183717823Y-85621940D01*
X183795844Y-85810298D01*
X183909112Y-85979816D01*
X184053275Y-86123979D01*
X184222793Y-86237247D01*
X184411151Y-86315268D01*
X184611110Y-86355042D01*
X184814988Y-86355042D01*
X185014947Y-86315268D01*
X185203305Y-86237247D01*
X185372823Y-86123979D01*
X185516986Y-85979816D01*
X185630254Y-85810298D01*
X185708275Y-85621940D01*
X185748049Y-85421981D01*
X185748049Y-85218103D01*
X185708275Y-85018144D01*
X185630254Y-84829786D01*
X185516986Y-84660268D01*
X185473049Y-84616331D01*
X185473049Y-84130694D01*
X187940000Y-86597646D01*
X187940001Y-86959907D01*
X187884744Y-86982795D01*
X187715226Y-87096063D01*
X187571063Y-87240226D01*
X187457795Y-87409744D01*
X187379774Y-87598102D01*
X187340000Y-87798061D01*
X187340000Y-88001939D01*
X187379774Y-88201898D01*
X187457795Y-88390256D01*
X187571063Y-88559774D01*
X187715226Y-88703937D01*
X187884744Y-88817205D01*
X188073102Y-88895226D01*
X188273061Y-88935000D01*
X188476939Y-88935000D01*
X188676898Y-88895226D01*
X188865256Y-88817205D01*
X188900000Y-88793990D01*
X188934744Y-88817205D01*
X189123102Y-88895226D01*
X189323061Y-88935000D01*
X189526939Y-88935000D01*
X189726898Y-88895226D01*
X189915256Y-88817205D01*
X190084774Y-88703937D01*
X190228937Y-88559774D01*
X190342205Y-88390256D01*
X190420226Y-88201898D01*
X190460000Y-88001939D01*
X190460000Y-87798061D01*
X190420226Y-87598102D01*
X190342205Y-87409744D01*
X190228937Y-87240226D01*
X190084774Y-87096063D01*
X189915256Y-86982795D01*
X189860000Y-86959907D01*
X189860000Y-86142906D01*
X189863556Y-86106801D01*
X189849365Y-85962716D01*
X189807337Y-85824167D01*
X189739087Y-85696481D01*
X189670253Y-85612607D01*
X189670250Y-85612604D01*
X189647237Y-85584563D01*
X189619197Y-85561551D01*
X186643569Y-82585924D01*
X186666458Y-82530666D01*
X186706232Y-82330707D01*
X186706232Y-82126829D01*
X186666458Y-81926870D01*
X186588437Y-81738512D01*
X186475169Y-81568994D01*
X186331006Y-81424831D01*
X186161488Y-81311563D01*
X185973130Y-81233542D01*
X185773171Y-81193768D01*
X185569293Y-81193768D01*
X185369334Y-81233542D01*
X185180976Y-81311563D01*
X185011458Y-81424831D01*
X184867295Y-81568994D01*
X184754027Y-81738512D01*
X184676006Y-81926870D01*
X184667854Y-81967854D01*
X184626870Y-81976006D01*
X184438512Y-82054027D01*
X184268994Y-82167295D01*
X184124831Y-82311458D01*
X184011563Y-82480976D01*
X183933542Y-82669334D01*
X183906358Y-82806000D01*
X178853322Y-82806000D01*
X178815999Y-82802324D01*
X178778676Y-82806000D01*
X178778667Y-82806000D01*
X178667014Y-82816997D01*
X178523753Y-82860454D01*
X178391724Y-82931026D01*
X178275999Y-83025999D01*
X178252201Y-83054997D01*
X177326198Y-83981001D01*
X176491704Y-83981001D01*
X176491000Y-83851750D01*
X176332250Y-83693000D01*
X175133000Y-83693000D01*
X175133000Y-83713000D01*
X174879000Y-83713000D01*
X174879000Y-83693000D01*
X174859000Y-83693000D01*
X174859000Y-83439000D01*
X174879000Y-83439000D01*
X174879000Y-82239750D01*
X175133000Y-82239750D01*
X175133000Y-83439000D01*
X176332250Y-83439000D01*
X176491000Y-83280250D01*
X176494072Y-82716000D01*
X176481812Y-82591518D01*
X176445502Y-82471820D01*
X176386537Y-82361506D01*
X176307185Y-82264815D01*
X176210494Y-82185463D01*
X176100180Y-82126498D01*
X175980482Y-82090188D01*
X175856000Y-82077928D01*
X175291750Y-82081000D01*
X175133000Y-82239750D01*
X174879000Y-82239750D01*
X174720250Y-82081000D01*
X174156000Y-82077928D01*
X174031518Y-82090188D01*
X173911820Y-82126498D01*
X173801506Y-82185463D01*
X173704815Y-82264815D01*
X173625463Y-82361506D01*
X173566498Y-82471820D01*
X173545607Y-82540687D01*
X173521134Y-82510866D01*
X173295014Y-82325294D01*
X173037034Y-82187401D01*
X172757111Y-82102487D01*
X172538950Y-82081000D01*
X172393050Y-82081000D01*
X172174889Y-82102487D01*
X171894966Y-82187401D01*
X171636986Y-82325294D01*
X171410866Y-82510866D01*
X171225294Y-82736986D01*
X171196000Y-82791791D01*
X171166706Y-82736986D01*
X170981134Y-82510866D01*
X170755014Y-82325294D01*
X170497034Y-82187401D01*
X170217111Y-82102487D01*
X169998950Y-82081000D01*
X169853050Y-82081000D01*
X169634889Y-82102487D01*
X169354966Y-82187401D01*
X169096986Y-82325294D01*
X168870866Y-82510866D01*
X168685294Y-82736986D01*
X168656000Y-82791791D01*
X168626706Y-82736986D01*
X168441134Y-82510866D01*
X168215014Y-82325294D01*
X167957034Y-82187401D01*
X167677111Y-82102487D01*
X167458950Y-82081000D01*
X167313050Y-82081000D01*
X167094889Y-82102487D01*
X166814966Y-82187401D01*
X166556986Y-82325294D01*
X166330866Y-82510866D01*
X166145294Y-82736986D01*
X166116000Y-82791791D01*
X166086706Y-82736986D01*
X165901134Y-82510866D01*
X165675014Y-82325294D01*
X165417034Y-82187401D01*
X165137111Y-82102487D01*
X164918950Y-82081000D01*
X164773050Y-82081000D01*
X164554889Y-82102487D01*
X164274966Y-82187401D01*
X164016986Y-82325294D01*
X163790866Y-82510866D01*
X163605294Y-82736986D01*
X163467401Y-82994966D01*
X163382487Y-83274889D01*
X163353815Y-83566000D01*
X114519457Y-83566000D01*
X114484706Y-83500986D01*
X114299134Y-83274866D01*
X114073013Y-83089294D01*
X113815033Y-82951401D01*
X113535110Y-82866487D01*
X113244000Y-82837815D01*
X112952889Y-82866487D01*
X112672966Y-82951401D01*
X112414986Y-83089294D01*
X112194055Y-83270608D01*
X112183502Y-83235820D01*
X112124537Y-83125506D01*
X112045185Y-83028815D01*
X111948494Y-82949463D01*
X111838180Y-82890498D01*
X111718482Y-82854188D01*
X111594000Y-82841928D01*
X111029750Y-82845000D01*
X110871000Y-83003750D01*
X110617000Y-83003750D01*
X110458250Y-82845000D01*
X109894000Y-82841928D01*
X109769518Y-82854188D01*
X109649820Y-82890498D01*
X109539506Y-82949463D01*
X109442815Y-83028815D01*
X109363463Y-83125506D01*
X109304498Y-83235820D01*
X109268188Y-83355518D01*
X109255928Y-83480000D01*
X105323980Y-83480000D01*
X106056796Y-83113592D01*
X106070557Y-83105597D01*
X106089803Y-83089803D01*
X107089803Y-82089803D01*
X107100329Y-82077866D01*
X107113592Y-82056796D01*
X107611673Y-81060633D01*
X178482472Y-81060633D01*
X178544965Y-81296950D01*
X178787678Y-81410350D01*
X179047849Y-81474219D01*
X179315482Y-81486104D01*
X179580291Y-81445548D01*
X179832100Y-81354109D01*
X179939035Y-81296950D01*
X180001528Y-81060633D01*
X183482472Y-81060633D01*
X183544965Y-81296950D01*
X183787678Y-81410350D01*
X184047849Y-81474219D01*
X184315482Y-81486104D01*
X184580291Y-81445548D01*
X184832100Y-81354109D01*
X184939035Y-81296950D01*
X185001528Y-81060633D01*
X184242000Y-80301105D01*
X183482472Y-81060633D01*
X180001528Y-81060633D01*
X179242000Y-80301105D01*
X178482472Y-81060633D01*
X107611673Y-81060633D01*
X107613592Y-81056796D01*
X107624560Y-81024776D01*
X107627000Y-81000000D01*
X107627000Y-79507524D01*
X148590000Y-79507524D01*
X148590000Y-79706476D01*
X148628814Y-79901606D01*
X148704950Y-80085414D01*
X148815482Y-80250837D01*
X148956163Y-80391518D01*
X149121586Y-80502050D01*
X149305394Y-80578186D01*
X149500524Y-80617000D01*
X149699476Y-80617000D01*
X149894606Y-80578186D01*
X150078414Y-80502050D01*
X150243837Y-80391518D01*
X150384518Y-80250837D01*
X150421839Y-80194982D01*
X177877396Y-80194982D01*
X177917952Y-80459791D01*
X178009391Y-80711600D01*
X178066550Y-80818535D01*
X178302867Y-80881028D01*
X179062395Y-80121500D01*
X179421605Y-80121500D01*
X180181133Y-80881028D01*
X180417450Y-80818535D01*
X180530850Y-80575822D01*
X180594719Y-80315651D01*
X180600077Y-80194982D01*
X182877396Y-80194982D01*
X182917952Y-80459791D01*
X183009391Y-80711600D01*
X183066550Y-80818535D01*
X183302867Y-80881028D01*
X184062395Y-80121500D01*
X184421605Y-80121500D01*
X185181133Y-80881028D01*
X185417450Y-80818535D01*
X185530850Y-80575822D01*
X185594719Y-80315651D01*
X185606604Y-80048018D01*
X185566048Y-79783209D01*
X185474609Y-79531400D01*
X185417450Y-79424465D01*
X185181133Y-79361972D01*
X184421605Y-80121500D01*
X184062395Y-80121500D01*
X183302867Y-79361972D01*
X183066550Y-79424465D01*
X182953150Y-79667178D01*
X182889281Y-79927349D01*
X182877396Y-80194982D01*
X180600077Y-80194982D01*
X180606604Y-80048018D01*
X180566048Y-79783209D01*
X180474609Y-79531400D01*
X180417450Y-79424465D01*
X180181133Y-79361972D01*
X179421605Y-80121500D01*
X179062395Y-80121500D01*
X178302867Y-79361972D01*
X178066550Y-79424465D01*
X177953150Y-79667178D01*
X177889281Y-79927349D01*
X177877396Y-80194982D01*
X150421839Y-80194982D01*
X150495050Y-80085414D01*
X150571186Y-79901606D01*
X150610000Y-79706476D01*
X150610000Y-79507524D01*
X150571186Y-79312394D01*
X150495050Y-79128586D01*
X150384518Y-78963163D01*
X150243837Y-78822482D01*
X150078414Y-78711950D01*
X149894606Y-78635814D01*
X149699476Y-78597000D01*
X149500524Y-78597000D01*
X149305394Y-78635814D01*
X149121586Y-78711950D01*
X148956163Y-78822482D01*
X148815482Y-78963163D01*
X148704950Y-79128586D01*
X148628814Y-79312394D01*
X148590000Y-79507524D01*
X107627000Y-79507524D01*
X107627000Y-79000000D01*
X107622490Y-78966456D01*
X107613592Y-78943204D01*
X107113592Y-77943204D01*
X107105597Y-77929443D01*
X107089803Y-77910197D01*
X106089803Y-76910197D01*
X106077866Y-76899671D01*
X106056796Y-76886408D01*
X105603980Y-76660000D01*
X109452458Y-76660000D01*
X109428010Y-76696589D01*
G36*
X170634000Y-104015110D02*
G01*
X170634000Y-104184890D01*
X170527971Y-104290919D01*
X170511000Y-104273948D01*
X170494029Y-104290919D01*
X170388000Y-104184890D01*
X170388000Y-104015110D01*
X170448027Y-103955083D01*
X170573808Y-103954918D01*
X170634000Y-104015110D01*
X170634000Y-104015110D01*
G37*
X170634000Y-104015110D02*
X170634000Y-104184890D01*
X170527971Y-104290919D01*
X170511000Y-104273948D01*
X170494029Y-104290919D01*
X170388000Y-104184890D01*
X170388000Y-104015110D01*
X170448027Y-103955083D01*
X170573808Y-103954918D01*
X170634000Y-104015110D01*
G36*
X170701919Y-103053029D02*
G01*
X170684948Y-103070000D01*
X170701919Y-103086971D01*
X170573973Y-103214917D01*
X170448192Y-103215082D01*
X170320081Y-103086971D01*
X170337052Y-103070000D01*
X170320081Y-103053029D01*
X170448027Y-102925083D01*
X170573808Y-102924918D01*
X170701919Y-103053029D01*
X170701919Y-103053029D01*
G37*
X170701919Y-103053029D02*
X170684948Y-103070000D01*
X170701919Y-103086971D01*
X170573973Y-103214917D01*
X170448192Y-103215082D01*
X170320081Y-103086971D01*
X170337052Y-103070000D01*
X170320081Y-103053029D01*
X170448027Y-102925083D01*
X170573808Y-102924918D01*
X170701919Y-103053029D01*
G36*
X170634000Y-101955110D02*
G01*
X170634000Y-102124890D01*
X170573973Y-102184917D01*
X170448192Y-102185082D01*
X170388000Y-102124890D01*
X170388000Y-101955110D01*
X170494029Y-101849081D01*
X170511000Y-101866052D01*
X170527971Y-101849081D01*
X170634000Y-101955110D01*
X170634000Y-101955110D01*
G37*
X170634000Y-101955110D02*
X170634000Y-102124890D01*
X170573973Y-102184917D01*
X170448192Y-102185082D01*
X170388000Y-102124890D01*
X170388000Y-101955110D01*
X170494029Y-101849081D01*
X170511000Y-101866052D01*
X170527971Y-101849081D01*
X170634000Y-101955110D01*
M02*
