G04 #@! TF.GenerationSoftware,KiCad,Pcbnew,(5.1.5)-3*
G04 #@! TF.CreationDate,2021-06-26T16:15:31-05:00*
G04 #@! TF.ProjectId,NevermoreController,4e657665-726d-46f7-9265-436f6e74726f,rev?*
G04 #@! TF.SameCoordinates,Original*
G04 #@! TF.FileFunction,Paste,Top*
G04 #@! TF.FilePolarity,Positive*
%FSLAX46Y46*%
G04 Gerber Fmt 4.6, Leading zero omitted, Abs format (unit mm)*
G04 Created by KiCad (PCBNEW (5.1.5)-3) date 2021-06-26 16:15:31*
%MOMM*%
%LPD*%
G04 APERTURE LIST*
%ADD10R,1.000000X1.000000*%
%ADD11R,0.650000X1.060000*%
%ADD12C,0.100000*%
%ADD13R,0.900000X0.800000*%
%ADD14R,1.300000X0.600000*%
%ADD15R,0.550000X1.600000*%
%ADD16R,1.600000X0.550000*%
%ADD17R,1.550000X1.000000*%
%ADD18R,1.500000X1.900000*%
%ADD19R,0.400000X1.350000*%
G04 APERTURE END LIST*
D10*
X134850000Y-85427500D03*
X134850000Y-87927500D03*
X147000000Y-85417500D03*
X147000000Y-87917500D03*
X155400000Y-85697500D03*
X155400000Y-88197500D03*
D11*
X190459000Y-81339000D03*
X188559000Y-81339000D03*
X188559000Y-79139000D03*
X189509000Y-79139000D03*
X190459000Y-79139000D03*
D12*
G36*
X166305142Y-77701174D02*
G01*
X166328803Y-77704684D01*
X166352007Y-77710496D01*
X166374529Y-77718554D01*
X166396153Y-77728782D01*
X166416670Y-77741079D01*
X166435883Y-77755329D01*
X166453607Y-77771393D01*
X166469671Y-77789117D01*
X166483921Y-77808330D01*
X166496218Y-77828847D01*
X166506446Y-77850471D01*
X166514504Y-77872993D01*
X166520316Y-77896197D01*
X166523826Y-77919858D01*
X166525000Y-77943750D01*
X166525000Y-78856250D01*
X166523826Y-78880142D01*
X166520316Y-78903803D01*
X166514504Y-78927007D01*
X166506446Y-78949529D01*
X166496218Y-78971153D01*
X166483921Y-78991670D01*
X166469671Y-79010883D01*
X166453607Y-79028607D01*
X166435883Y-79044671D01*
X166416670Y-79058921D01*
X166396153Y-79071218D01*
X166374529Y-79081446D01*
X166352007Y-79089504D01*
X166328803Y-79095316D01*
X166305142Y-79098826D01*
X166281250Y-79100000D01*
X165793750Y-79100000D01*
X165769858Y-79098826D01*
X165746197Y-79095316D01*
X165722993Y-79089504D01*
X165700471Y-79081446D01*
X165678847Y-79071218D01*
X165658330Y-79058921D01*
X165639117Y-79044671D01*
X165621393Y-79028607D01*
X165605329Y-79010883D01*
X165591079Y-78991670D01*
X165578782Y-78971153D01*
X165568554Y-78949529D01*
X165560496Y-78927007D01*
X165554684Y-78903803D01*
X165551174Y-78880142D01*
X165550000Y-78856250D01*
X165550000Y-77943750D01*
X165551174Y-77919858D01*
X165554684Y-77896197D01*
X165560496Y-77872993D01*
X165568554Y-77850471D01*
X165578782Y-77828847D01*
X165591079Y-77808330D01*
X165605329Y-77789117D01*
X165621393Y-77771393D01*
X165639117Y-77755329D01*
X165658330Y-77741079D01*
X165678847Y-77728782D01*
X165700471Y-77718554D01*
X165722993Y-77710496D01*
X165746197Y-77704684D01*
X165769858Y-77701174D01*
X165793750Y-77700000D01*
X166281250Y-77700000D01*
X166305142Y-77701174D01*
G37*
G36*
X164430142Y-77701174D02*
G01*
X164453803Y-77704684D01*
X164477007Y-77710496D01*
X164499529Y-77718554D01*
X164521153Y-77728782D01*
X164541670Y-77741079D01*
X164560883Y-77755329D01*
X164578607Y-77771393D01*
X164594671Y-77789117D01*
X164608921Y-77808330D01*
X164621218Y-77828847D01*
X164631446Y-77850471D01*
X164639504Y-77872993D01*
X164645316Y-77896197D01*
X164648826Y-77919858D01*
X164650000Y-77943750D01*
X164650000Y-78856250D01*
X164648826Y-78880142D01*
X164645316Y-78903803D01*
X164639504Y-78927007D01*
X164631446Y-78949529D01*
X164621218Y-78971153D01*
X164608921Y-78991670D01*
X164594671Y-79010883D01*
X164578607Y-79028607D01*
X164560883Y-79044671D01*
X164541670Y-79058921D01*
X164521153Y-79071218D01*
X164499529Y-79081446D01*
X164477007Y-79089504D01*
X164453803Y-79095316D01*
X164430142Y-79098826D01*
X164406250Y-79100000D01*
X163918750Y-79100000D01*
X163894858Y-79098826D01*
X163871197Y-79095316D01*
X163847993Y-79089504D01*
X163825471Y-79081446D01*
X163803847Y-79071218D01*
X163783330Y-79058921D01*
X163764117Y-79044671D01*
X163746393Y-79028607D01*
X163730329Y-79010883D01*
X163716079Y-78991670D01*
X163703782Y-78971153D01*
X163693554Y-78949529D01*
X163685496Y-78927007D01*
X163679684Y-78903803D01*
X163676174Y-78880142D01*
X163675000Y-78856250D01*
X163675000Y-77943750D01*
X163676174Y-77919858D01*
X163679684Y-77896197D01*
X163685496Y-77872993D01*
X163693554Y-77850471D01*
X163703782Y-77828847D01*
X163716079Y-77808330D01*
X163730329Y-77789117D01*
X163746393Y-77771393D01*
X163764117Y-77755329D01*
X163783330Y-77741079D01*
X163803847Y-77728782D01*
X163825471Y-77718554D01*
X163847993Y-77710496D01*
X163871197Y-77704684D01*
X163894858Y-77701174D01*
X163918750Y-77700000D01*
X164406250Y-77700000D01*
X164430142Y-77701174D01*
G37*
G36*
X162749142Y-77701174D02*
G01*
X162772803Y-77704684D01*
X162796007Y-77710496D01*
X162818529Y-77718554D01*
X162840153Y-77728782D01*
X162860670Y-77741079D01*
X162879883Y-77755329D01*
X162897607Y-77771393D01*
X162913671Y-77789117D01*
X162927921Y-77808330D01*
X162940218Y-77828847D01*
X162950446Y-77850471D01*
X162958504Y-77872993D01*
X162964316Y-77896197D01*
X162967826Y-77919858D01*
X162969000Y-77943750D01*
X162969000Y-78856250D01*
X162967826Y-78880142D01*
X162964316Y-78903803D01*
X162958504Y-78927007D01*
X162950446Y-78949529D01*
X162940218Y-78971153D01*
X162927921Y-78991670D01*
X162913671Y-79010883D01*
X162897607Y-79028607D01*
X162879883Y-79044671D01*
X162860670Y-79058921D01*
X162840153Y-79071218D01*
X162818529Y-79081446D01*
X162796007Y-79089504D01*
X162772803Y-79095316D01*
X162749142Y-79098826D01*
X162725250Y-79100000D01*
X162237750Y-79100000D01*
X162213858Y-79098826D01*
X162190197Y-79095316D01*
X162166993Y-79089504D01*
X162144471Y-79081446D01*
X162122847Y-79071218D01*
X162102330Y-79058921D01*
X162083117Y-79044671D01*
X162065393Y-79028607D01*
X162049329Y-79010883D01*
X162035079Y-78991670D01*
X162022782Y-78971153D01*
X162012554Y-78949529D01*
X162004496Y-78927007D01*
X161998684Y-78903803D01*
X161995174Y-78880142D01*
X161994000Y-78856250D01*
X161994000Y-77943750D01*
X161995174Y-77919858D01*
X161998684Y-77896197D01*
X162004496Y-77872993D01*
X162012554Y-77850471D01*
X162022782Y-77828847D01*
X162035079Y-77808330D01*
X162049329Y-77789117D01*
X162065393Y-77771393D01*
X162083117Y-77755329D01*
X162102330Y-77741079D01*
X162122847Y-77728782D01*
X162144471Y-77718554D01*
X162166993Y-77710496D01*
X162190197Y-77704684D01*
X162213858Y-77701174D01*
X162237750Y-77700000D01*
X162725250Y-77700000D01*
X162749142Y-77701174D01*
G37*
G36*
X160874142Y-77701174D02*
G01*
X160897803Y-77704684D01*
X160921007Y-77710496D01*
X160943529Y-77718554D01*
X160965153Y-77728782D01*
X160985670Y-77741079D01*
X161004883Y-77755329D01*
X161022607Y-77771393D01*
X161038671Y-77789117D01*
X161052921Y-77808330D01*
X161065218Y-77828847D01*
X161075446Y-77850471D01*
X161083504Y-77872993D01*
X161089316Y-77896197D01*
X161092826Y-77919858D01*
X161094000Y-77943750D01*
X161094000Y-78856250D01*
X161092826Y-78880142D01*
X161089316Y-78903803D01*
X161083504Y-78927007D01*
X161075446Y-78949529D01*
X161065218Y-78971153D01*
X161052921Y-78991670D01*
X161038671Y-79010883D01*
X161022607Y-79028607D01*
X161004883Y-79044671D01*
X160985670Y-79058921D01*
X160965153Y-79071218D01*
X160943529Y-79081446D01*
X160921007Y-79089504D01*
X160897803Y-79095316D01*
X160874142Y-79098826D01*
X160850250Y-79100000D01*
X160362750Y-79100000D01*
X160338858Y-79098826D01*
X160315197Y-79095316D01*
X160291993Y-79089504D01*
X160269471Y-79081446D01*
X160247847Y-79071218D01*
X160227330Y-79058921D01*
X160208117Y-79044671D01*
X160190393Y-79028607D01*
X160174329Y-79010883D01*
X160160079Y-78991670D01*
X160147782Y-78971153D01*
X160137554Y-78949529D01*
X160129496Y-78927007D01*
X160123684Y-78903803D01*
X160120174Y-78880142D01*
X160119000Y-78856250D01*
X160119000Y-77943750D01*
X160120174Y-77919858D01*
X160123684Y-77896197D01*
X160129496Y-77872993D01*
X160137554Y-77850471D01*
X160147782Y-77828847D01*
X160160079Y-77808330D01*
X160174329Y-77789117D01*
X160190393Y-77771393D01*
X160208117Y-77755329D01*
X160227330Y-77741079D01*
X160247847Y-77728782D01*
X160269471Y-77718554D01*
X160291993Y-77710496D01*
X160315197Y-77704684D01*
X160338858Y-77701174D01*
X160362750Y-77700000D01*
X160850250Y-77700000D01*
X160874142Y-77701174D01*
G37*
G36*
X188839142Y-82401174D02*
G01*
X188862803Y-82404684D01*
X188886007Y-82410496D01*
X188908529Y-82418554D01*
X188930153Y-82428782D01*
X188950670Y-82441079D01*
X188969883Y-82455329D01*
X188987607Y-82471393D01*
X189003671Y-82489117D01*
X189017921Y-82508330D01*
X189030218Y-82528847D01*
X189040446Y-82550471D01*
X189048504Y-82572993D01*
X189054316Y-82596197D01*
X189057826Y-82619858D01*
X189059000Y-82643750D01*
X189059000Y-83556250D01*
X189057826Y-83580142D01*
X189054316Y-83603803D01*
X189048504Y-83627007D01*
X189040446Y-83649529D01*
X189030218Y-83671153D01*
X189017921Y-83691670D01*
X189003671Y-83710883D01*
X188987607Y-83728607D01*
X188969883Y-83744671D01*
X188950670Y-83758921D01*
X188930153Y-83771218D01*
X188908529Y-83781446D01*
X188886007Y-83789504D01*
X188862803Y-83795316D01*
X188839142Y-83798826D01*
X188815250Y-83800000D01*
X188327750Y-83800000D01*
X188303858Y-83798826D01*
X188280197Y-83795316D01*
X188256993Y-83789504D01*
X188234471Y-83781446D01*
X188212847Y-83771218D01*
X188192330Y-83758921D01*
X188173117Y-83744671D01*
X188155393Y-83728607D01*
X188139329Y-83710883D01*
X188125079Y-83691670D01*
X188112782Y-83671153D01*
X188102554Y-83649529D01*
X188094496Y-83627007D01*
X188088684Y-83603803D01*
X188085174Y-83580142D01*
X188084000Y-83556250D01*
X188084000Y-82643750D01*
X188085174Y-82619858D01*
X188088684Y-82596197D01*
X188094496Y-82572993D01*
X188102554Y-82550471D01*
X188112782Y-82528847D01*
X188125079Y-82508330D01*
X188139329Y-82489117D01*
X188155393Y-82471393D01*
X188173117Y-82455329D01*
X188192330Y-82441079D01*
X188212847Y-82428782D01*
X188234471Y-82418554D01*
X188256993Y-82410496D01*
X188280197Y-82404684D01*
X188303858Y-82401174D01*
X188327750Y-82400000D01*
X188815250Y-82400000D01*
X188839142Y-82401174D01*
G37*
G36*
X190714142Y-82401174D02*
G01*
X190737803Y-82404684D01*
X190761007Y-82410496D01*
X190783529Y-82418554D01*
X190805153Y-82428782D01*
X190825670Y-82441079D01*
X190844883Y-82455329D01*
X190862607Y-82471393D01*
X190878671Y-82489117D01*
X190892921Y-82508330D01*
X190905218Y-82528847D01*
X190915446Y-82550471D01*
X190923504Y-82572993D01*
X190929316Y-82596197D01*
X190932826Y-82619858D01*
X190934000Y-82643750D01*
X190934000Y-83556250D01*
X190932826Y-83580142D01*
X190929316Y-83603803D01*
X190923504Y-83627007D01*
X190915446Y-83649529D01*
X190905218Y-83671153D01*
X190892921Y-83691670D01*
X190878671Y-83710883D01*
X190862607Y-83728607D01*
X190844883Y-83744671D01*
X190825670Y-83758921D01*
X190805153Y-83771218D01*
X190783529Y-83781446D01*
X190761007Y-83789504D01*
X190737803Y-83795316D01*
X190714142Y-83798826D01*
X190690250Y-83800000D01*
X190202750Y-83800000D01*
X190178858Y-83798826D01*
X190155197Y-83795316D01*
X190131993Y-83789504D01*
X190109471Y-83781446D01*
X190087847Y-83771218D01*
X190067330Y-83758921D01*
X190048117Y-83744671D01*
X190030393Y-83728607D01*
X190014329Y-83710883D01*
X190000079Y-83691670D01*
X189987782Y-83671153D01*
X189977554Y-83649529D01*
X189969496Y-83627007D01*
X189963684Y-83603803D01*
X189960174Y-83580142D01*
X189959000Y-83556250D01*
X189959000Y-82643750D01*
X189960174Y-82619858D01*
X189963684Y-82596197D01*
X189969496Y-82572993D01*
X189977554Y-82550471D01*
X189987782Y-82528847D01*
X190000079Y-82508330D01*
X190014329Y-82489117D01*
X190030393Y-82471393D01*
X190048117Y-82455329D01*
X190067330Y-82441079D01*
X190087847Y-82428782D01*
X190109471Y-82418554D01*
X190131993Y-82410496D01*
X190155197Y-82404684D01*
X190178858Y-82401174D01*
X190202750Y-82400000D01*
X190690250Y-82400000D01*
X190714142Y-82401174D01*
G37*
G36*
X190714142Y-76601174D02*
G01*
X190737803Y-76604684D01*
X190761007Y-76610496D01*
X190783529Y-76618554D01*
X190805153Y-76628782D01*
X190825670Y-76641079D01*
X190844883Y-76655329D01*
X190862607Y-76671393D01*
X190878671Y-76689117D01*
X190892921Y-76708330D01*
X190905218Y-76728847D01*
X190915446Y-76750471D01*
X190923504Y-76772993D01*
X190929316Y-76796197D01*
X190932826Y-76819858D01*
X190934000Y-76843750D01*
X190934000Y-77756250D01*
X190932826Y-77780142D01*
X190929316Y-77803803D01*
X190923504Y-77827007D01*
X190915446Y-77849529D01*
X190905218Y-77871153D01*
X190892921Y-77891670D01*
X190878671Y-77910883D01*
X190862607Y-77928607D01*
X190844883Y-77944671D01*
X190825670Y-77958921D01*
X190805153Y-77971218D01*
X190783529Y-77981446D01*
X190761007Y-77989504D01*
X190737803Y-77995316D01*
X190714142Y-77998826D01*
X190690250Y-78000000D01*
X190202750Y-78000000D01*
X190178858Y-77998826D01*
X190155197Y-77995316D01*
X190131993Y-77989504D01*
X190109471Y-77981446D01*
X190087847Y-77971218D01*
X190067330Y-77958921D01*
X190048117Y-77944671D01*
X190030393Y-77928607D01*
X190014329Y-77910883D01*
X190000079Y-77891670D01*
X189987782Y-77871153D01*
X189977554Y-77849529D01*
X189969496Y-77827007D01*
X189963684Y-77803803D01*
X189960174Y-77780142D01*
X189959000Y-77756250D01*
X189959000Y-76843750D01*
X189960174Y-76819858D01*
X189963684Y-76796197D01*
X189969496Y-76772993D01*
X189977554Y-76750471D01*
X189987782Y-76728847D01*
X190000079Y-76708330D01*
X190014329Y-76689117D01*
X190030393Y-76671393D01*
X190048117Y-76655329D01*
X190067330Y-76641079D01*
X190087847Y-76628782D01*
X190109471Y-76618554D01*
X190131993Y-76610496D01*
X190155197Y-76604684D01*
X190178858Y-76601174D01*
X190202750Y-76600000D01*
X190690250Y-76600000D01*
X190714142Y-76601174D01*
G37*
G36*
X188839142Y-76601174D02*
G01*
X188862803Y-76604684D01*
X188886007Y-76610496D01*
X188908529Y-76618554D01*
X188930153Y-76628782D01*
X188950670Y-76641079D01*
X188969883Y-76655329D01*
X188987607Y-76671393D01*
X189003671Y-76689117D01*
X189017921Y-76708330D01*
X189030218Y-76728847D01*
X189040446Y-76750471D01*
X189048504Y-76772993D01*
X189054316Y-76796197D01*
X189057826Y-76819858D01*
X189059000Y-76843750D01*
X189059000Y-77756250D01*
X189057826Y-77780142D01*
X189054316Y-77803803D01*
X189048504Y-77827007D01*
X189040446Y-77849529D01*
X189030218Y-77871153D01*
X189017921Y-77891670D01*
X189003671Y-77910883D01*
X188987607Y-77928607D01*
X188969883Y-77944671D01*
X188950670Y-77958921D01*
X188930153Y-77971218D01*
X188908529Y-77981446D01*
X188886007Y-77989504D01*
X188862803Y-77995316D01*
X188839142Y-77998826D01*
X188815250Y-78000000D01*
X188327750Y-78000000D01*
X188303858Y-77998826D01*
X188280197Y-77995316D01*
X188256993Y-77989504D01*
X188234471Y-77981446D01*
X188212847Y-77971218D01*
X188192330Y-77958921D01*
X188173117Y-77944671D01*
X188155393Y-77928607D01*
X188139329Y-77910883D01*
X188125079Y-77891670D01*
X188112782Y-77871153D01*
X188102554Y-77849529D01*
X188094496Y-77827007D01*
X188088684Y-77803803D01*
X188085174Y-77780142D01*
X188084000Y-77756250D01*
X188084000Y-76843750D01*
X188085174Y-76819858D01*
X188088684Y-76796197D01*
X188094496Y-76772993D01*
X188102554Y-76750471D01*
X188112782Y-76728847D01*
X188125079Y-76708330D01*
X188139329Y-76689117D01*
X188155393Y-76671393D01*
X188173117Y-76655329D01*
X188192330Y-76641079D01*
X188212847Y-76628782D01*
X188234471Y-76618554D01*
X188256993Y-76610496D01*
X188280197Y-76604684D01*
X188303858Y-76601174D01*
X188327750Y-76600000D01*
X188815250Y-76600000D01*
X188839142Y-76601174D01*
G37*
G36*
X169764142Y-79819174D02*
G01*
X169787803Y-79822684D01*
X169811007Y-79828496D01*
X169833529Y-79836554D01*
X169855153Y-79846782D01*
X169875670Y-79859079D01*
X169894883Y-79873329D01*
X169912607Y-79889393D01*
X169928671Y-79907117D01*
X169942921Y-79926330D01*
X169955218Y-79946847D01*
X169965446Y-79968471D01*
X169973504Y-79990993D01*
X169979316Y-80014197D01*
X169982826Y-80037858D01*
X169984000Y-80061750D01*
X169984000Y-80974250D01*
X169982826Y-80998142D01*
X169979316Y-81021803D01*
X169973504Y-81045007D01*
X169965446Y-81067529D01*
X169955218Y-81089153D01*
X169942921Y-81109670D01*
X169928671Y-81128883D01*
X169912607Y-81146607D01*
X169894883Y-81162671D01*
X169875670Y-81176921D01*
X169855153Y-81189218D01*
X169833529Y-81199446D01*
X169811007Y-81207504D01*
X169787803Y-81213316D01*
X169764142Y-81216826D01*
X169740250Y-81218000D01*
X169252750Y-81218000D01*
X169228858Y-81216826D01*
X169205197Y-81213316D01*
X169181993Y-81207504D01*
X169159471Y-81199446D01*
X169137847Y-81189218D01*
X169117330Y-81176921D01*
X169098117Y-81162671D01*
X169080393Y-81146607D01*
X169064329Y-81128883D01*
X169050079Y-81109670D01*
X169037782Y-81089153D01*
X169027554Y-81067529D01*
X169019496Y-81045007D01*
X169013684Y-81021803D01*
X169010174Y-80998142D01*
X169009000Y-80974250D01*
X169009000Y-80061750D01*
X169010174Y-80037858D01*
X169013684Y-80014197D01*
X169019496Y-79990993D01*
X169027554Y-79968471D01*
X169037782Y-79946847D01*
X169050079Y-79926330D01*
X169064329Y-79907117D01*
X169080393Y-79889393D01*
X169098117Y-79873329D01*
X169117330Y-79859079D01*
X169137847Y-79846782D01*
X169159471Y-79836554D01*
X169181993Y-79828496D01*
X169205197Y-79822684D01*
X169228858Y-79819174D01*
X169252750Y-79818000D01*
X169740250Y-79818000D01*
X169764142Y-79819174D01*
G37*
G36*
X171639142Y-79819174D02*
G01*
X171662803Y-79822684D01*
X171686007Y-79828496D01*
X171708529Y-79836554D01*
X171730153Y-79846782D01*
X171750670Y-79859079D01*
X171769883Y-79873329D01*
X171787607Y-79889393D01*
X171803671Y-79907117D01*
X171817921Y-79926330D01*
X171830218Y-79946847D01*
X171840446Y-79968471D01*
X171848504Y-79990993D01*
X171854316Y-80014197D01*
X171857826Y-80037858D01*
X171859000Y-80061750D01*
X171859000Y-80974250D01*
X171857826Y-80998142D01*
X171854316Y-81021803D01*
X171848504Y-81045007D01*
X171840446Y-81067529D01*
X171830218Y-81089153D01*
X171817921Y-81109670D01*
X171803671Y-81128883D01*
X171787607Y-81146607D01*
X171769883Y-81162671D01*
X171750670Y-81176921D01*
X171730153Y-81189218D01*
X171708529Y-81199446D01*
X171686007Y-81207504D01*
X171662803Y-81213316D01*
X171639142Y-81216826D01*
X171615250Y-81218000D01*
X171127750Y-81218000D01*
X171103858Y-81216826D01*
X171080197Y-81213316D01*
X171056993Y-81207504D01*
X171034471Y-81199446D01*
X171012847Y-81189218D01*
X170992330Y-81176921D01*
X170973117Y-81162671D01*
X170955393Y-81146607D01*
X170939329Y-81128883D01*
X170925079Y-81109670D01*
X170912782Y-81089153D01*
X170902554Y-81067529D01*
X170894496Y-81045007D01*
X170888684Y-81021803D01*
X170885174Y-80998142D01*
X170884000Y-80974250D01*
X170884000Y-80061750D01*
X170885174Y-80037858D01*
X170888684Y-80014197D01*
X170894496Y-79990993D01*
X170902554Y-79968471D01*
X170912782Y-79946847D01*
X170925079Y-79926330D01*
X170939329Y-79907117D01*
X170955393Y-79889393D01*
X170973117Y-79873329D01*
X170992330Y-79859079D01*
X171012847Y-79846782D01*
X171034471Y-79836554D01*
X171056993Y-79828496D01*
X171080197Y-79822684D01*
X171103858Y-79819174D01*
X171127750Y-79818000D01*
X171615250Y-79818000D01*
X171639142Y-79819174D01*
G37*
G36*
X180566142Y-82142174D02*
G01*
X180589803Y-82145684D01*
X180613007Y-82151496D01*
X180635529Y-82159554D01*
X180657153Y-82169782D01*
X180677670Y-82182079D01*
X180696883Y-82196329D01*
X180714607Y-82212393D01*
X180730671Y-82230117D01*
X180744921Y-82249330D01*
X180757218Y-82269847D01*
X180767446Y-82291471D01*
X180775504Y-82313993D01*
X180781316Y-82337197D01*
X180784826Y-82360858D01*
X180786000Y-82384750D01*
X180786000Y-82872250D01*
X180784826Y-82896142D01*
X180781316Y-82919803D01*
X180775504Y-82943007D01*
X180767446Y-82965529D01*
X180757218Y-82987153D01*
X180744921Y-83007670D01*
X180730671Y-83026883D01*
X180714607Y-83044607D01*
X180696883Y-83060671D01*
X180677670Y-83074921D01*
X180657153Y-83087218D01*
X180635529Y-83097446D01*
X180613007Y-83105504D01*
X180589803Y-83111316D01*
X180566142Y-83114826D01*
X180542250Y-83116000D01*
X179629750Y-83116000D01*
X179605858Y-83114826D01*
X179582197Y-83111316D01*
X179558993Y-83105504D01*
X179536471Y-83097446D01*
X179514847Y-83087218D01*
X179494330Y-83074921D01*
X179475117Y-83060671D01*
X179457393Y-83044607D01*
X179441329Y-83026883D01*
X179427079Y-83007670D01*
X179414782Y-82987153D01*
X179404554Y-82965529D01*
X179396496Y-82943007D01*
X179390684Y-82919803D01*
X179387174Y-82896142D01*
X179386000Y-82872250D01*
X179386000Y-82384750D01*
X179387174Y-82360858D01*
X179390684Y-82337197D01*
X179396496Y-82313993D01*
X179404554Y-82291471D01*
X179414782Y-82269847D01*
X179427079Y-82249330D01*
X179441329Y-82230117D01*
X179457393Y-82212393D01*
X179475117Y-82196329D01*
X179494330Y-82182079D01*
X179514847Y-82169782D01*
X179536471Y-82159554D01*
X179558993Y-82151496D01*
X179582197Y-82145684D01*
X179605858Y-82142174D01*
X179629750Y-82141000D01*
X180542250Y-82141000D01*
X180566142Y-82142174D01*
G37*
G36*
X180566142Y-84017174D02*
G01*
X180589803Y-84020684D01*
X180613007Y-84026496D01*
X180635529Y-84034554D01*
X180657153Y-84044782D01*
X180677670Y-84057079D01*
X180696883Y-84071329D01*
X180714607Y-84087393D01*
X180730671Y-84105117D01*
X180744921Y-84124330D01*
X180757218Y-84144847D01*
X180767446Y-84166471D01*
X180775504Y-84188993D01*
X180781316Y-84212197D01*
X180784826Y-84235858D01*
X180786000Y-84259750D01*
X180786000Y-84747250D01*
X180784826Y-84771142D01*
X180781316Y-84794803D01*
X180775504Y-84818007D01*
X180767446Y-84840529D01*
X180757218Y-84862153D01*
X180744921Y-84882670D01*
X180730671Y-84901883D01*
X180714607Y-84919607D01*
X180696883Y-84935671D01*
X180677670Y-84949921D01*
X180657153Y-84962218D01*
X180635529Y-84972446D01*
X180613007Y-84980504D01*
X180589803Y-84986316D01*
X180566142Y-84989826D01*
X180542250Y-84991000D01*
X179629750Y-84991000D01*
X179605858Y-84989826D01*
X179582197Y-84986316D01*
X179558993Y-84980504D01*
X179536471Y-84972446D01*
X179514847Y-84962218D01*
X179494330Y-84949921D01*
X179475117Y-84935671D01*
X179457393Y-84919607D01*
X179441329Y-84901883D01*
X179427079Y-84882670D01*
X179414782Y-84862153D01*
X179404554Y-84840529D01*
X179396496Y-84818007D01*
X179390684Y-84794803D01*
X179387174Y-84771142D01*
X179386000Y-84747250D01*
X179386000Y-84259750D01*
X179387174Y-84235858D01*
X179390684Y-84212197D01*
X179396496Y-84188993D01*
X179404554Y-84166471D01*
X179414782Y-84144847D01*
X179427079Y-84124330D01*
X179441329Y-84105117D01*
X179457393Y-84087393D01*
X179475117Y-84071329D01*
X179494330Y-84057079D01*
X179514847Y-84044782D01*
X179536471Y-84034554D01*
X179558993Y-84026496D01*
X179582197Y-84020684D01*
X179605858Y-84017174D01*
X179629750Y-84016000D01*
X180542250Y-84016000D01*
X180566142Y-84017174D01*
G37*
G36*
X166305142Y-79819174D02*
G01*
X166328803Y-79822684D01*
X166352007Y-79828496D01*
X166374529Y-79836554D01*
X166396153Y-79846782D01*
X166416670Y-79859079D01*
X166435883Y-79873329D01*
X166453607Y-79889393D01*
X166469671Y-79907117D01*
X166483921Y-79926330D01*
X166496218Y-79946847D01*
X166506446Y-79968471D01*
X166514504Y-79990993D01*
X166520316Y-80014197D01*
X166523826Y-80037858D01*
X166525000Y-80061750D01*
X166525000Y-80974250D01*
X166523826Y-80998142D01*
X166520316Y-81021803D01*
X166514504Y-81045007D01*
X166506446Y-81067529D01*
X166496218Y-81089153D01*
X166483921Y-81109670D01*
X166469671Y-81128883D01*
X166453607Y-81146607D01*
X166435883Y-81162671D01*
X166416670Y-81176921D01*
X166396153Y-81189218D01*
X166374529Y-81199446D01*
X166352007Y-81207504D01*
X166328803Y-81213316D01*
X166305142Y-81216826D01*
X166281250Y-81218000D01*
X165793750Y-81218000D01*
X165769858Y-81216826D01*
X165746197Y-81213316D01*
X165722993Y-81207504D01*
X165700471Y-81199446D01*
X165678847Y-81189218D01*
X165658330Y-81176921D01*
X165639117Y-81162671D01*
X165621393Y-81146607D01*
X165605329Y-81128883D01*
X165591079Y-81109670D01*
X165578782Y-81089153D01*
X165568554Y-81067529D01*
X165560496Y-81045007D01*
X165554684Y-81021803D01*
X165551174Y-80998142D01*
X165550000Y-80974250D01*
X165550000Y-80061750D01*
X165551174Y-80037858D01*
X165554684Y-80014197D01*
X165560496Y-79990993D01*
X165568554Y-79968471D01*
X165578782Y-79946847D01*
X165591079Y-79926330D01*
X165605329Y-79907117D01*
X165621393Y-79889393D01*
X165639117Y-79873329D01*
X165658330Y-79859079D01*
X165678847Y-79846782D01*
X165700471Y-79836554D01*
X165722993Y-79828496D01*
X165746197Y-79822684D01*
X165769858Y-79819174D01*
X165793750Y-79818000D01*
X166281250Y-79818000D01*
X166305142Y-79819174D01*
G37*
G36*
X164430142Y-79819174D02*
G01*
X164453803Y-79822684D01*
X164477007Y-79828496D01*
X164499529Y-79836554D01*
X164521153Y-79846782D01*
X164541670Y-79859079D01*
X164560883Y-79873329D01*
X164578607Y-79889393D01*
X164594671Y-79907117D01*
X164608921Y-79926330D01*
X164621218Y-79946847D01*
X164631446Y-79968471D01*
X164639504Y-79990993D01*
X164645316Y-80014197D01*
X164648826Y-80037858D01*
X164650000Y-80061750D01*
X164650000Y-80974250D01*
X164648826Y-80998142D01*
X164645316Y-81021803D01*
X164639504Y-81045007D01*
X164631446Y-81067529D01*
X164621218Y-81089153D01*
X164608921Y-81109670D01*
X164594671Y-81128883D01*
X164578607Y-81146607D01*
X164560883Y-81162671D01*
X164541670Y-81176921D01*
X164521153Y-81189218D01*
X164499529Y-81199446D01*
X164477007Y-81207504D01*
X164453803Y-81213316D01*
X164430142Y-81216826D01*
X164406250Y-81218000D01*
X163918750Y-81218000D01*
X163894858Y-81216826D01*
X163871197Y-81213316D01*
X163847993Y-81207504D01*
X163825471Y-81199446D01*
X163803847Y-81189218D01*
X163783330Y-81176921D01*
X163764117Y-81162671D01*
X163746393Y-81146607D01*
X163730329Y-81128883D01*
X163716079Y-81109670D01*
X163703782Y-81089153D01*
X163693554Y-81067529D01*
X163685496Y-81045007D01*
X163679684Y-81021803D01*
X163676174Y-80998142D01*
X163675000Y-80974250D01*
X163675000Y-80061750D01*
X163676174Y-80037858D01*
X163679684Y-80014197D01*
X163685496Y-79990993D01*
X163693554Y-79968471D01*
X163703782Y-79946847D01*
X163716079Y-79926330D01*
X163730329Y-79907117D01*
X163746393Y-79889393D01*
X163764117Y-79873329D01*
X163783330Y-79859079D01*
X163803847Y-79846782D01*
X163825471Y-79836554D01*
X163847993Y-79828496D01*
X163871197Y-79822684D01*
X163894858Y-79819174D01*
X163918750Y-79818000D01*
X164406250Y-79818000D01*
X164430142Y-79819174D01*
G37*
G36*
X106635142Y-88709174D02*
G01*
X106658803Y-88712684D01*
X106682007Y-88718496D01*
X106704529Y-88726554D01*
X106726153Y-88736782D01*
X106746670Y-88749079D01*
X106765883Y-88763329D01*
X106783607Y-88779393D01*
X106799671Y-88797117D01*
X106813921Y-88816330D01*
X106826218Y-88836847D01*
X106836446Y-88858471D01*
X106844504Y-88880993D01*
X106850316Y-88904197D01*
X106853826Y-88927858D01*
X106855000Y-88951750D01*
X106855000Y-89864250D01*
X106853826Y-89888142D01*
X106850316Y-89911803D01*
X106844504Y-89935007D01*
X106836446Y-89957529D01*
X106826218Y-89979153D01*
X106813921Y-89999670D01*
X106799671Y-90018883D01*
X106783607Y-90036607D01*
X106765883Y-90052671D01*
X106746670Y-90066921D01*
X106726153Y-90079218D01*
X106704529Y-90089446D01*
X106682007Y-90097504D01*
X106658803Y-90103316D01*
X106635142Y-90106826D01*
X106611250Y-90108000D01*
X106123750Y-90108000D01*
X106099858Y-90106826D01*
X106076197Y-90103316D01*
X106052993Y-90097504D01*
X106030471Y-90089446D01*
X106008847Y-90079218D01*
X105988330Y-90066921D01*
X105969117Y-90052671D01*
X105951393Y-90036607D01*
X105935329Y-90018883D01*
X105921079Y-89999670D01*
X105908782Y-89979153D01*
X105898554Y-89957529D01*
X105890496Y-89935007D01*
X105884684Y-89911803D01*
X105881174Y-89888142D01*
X105880000Y-89864250D01*
X105880000Y-88951750D01*
X105881174Y-88927858D01*
X105884684Y-88904197D01*
X105890496Y-88880993D01*
X105898554Y-88858471D01*
X105908782Y-88836847D01*
X105921079Y-88816330D01*
X105935329Y-88797117D01*
X105951393Y-88779393D01*
X105969117Y-88763329D01*
X105988330Y-88749079D01*
X106008847Y-88736782D01*
X106030471Y-88726554D01*
X106052993Y-88718496D01*
X106076197Y-88712684D01*
X106099858Y-88709174D01*
X106123750Y-88708000D01*
X106611250Y-88708000D01*
X106635142Y-88709174D01*
G37*
G36*
X104760142Y-88709174D02*
G01*
X104783803Y-88712684D01*
X104807007Y-88718496D01*
X104829529Y-88726554D01*
X104851153Y-88736782D01*
X104871670Y-88749079D01*
X104890883Y-88763329D01*
X104908607Y-88779393D01*
X104924671Y-88797117D01*
X104938921Y-88816330D01*
X104951218Y-88836847D01*
X104961446Y-88858471D01*
X104969504Y-88880993D01*
X104975316Y-88904197D01*
X104978826Y-88927858D01*
X104980000Y-88951750D01*
X104980000Y-89864250D01*
X104978826Y-89888142D01*
X104975316Y-89911803D01*
X104969504Y-89935007D01*
X104961446Y-89957529D01*
X104951218Y-89979153D01*
X104938921Y-89999670D01*
X104924671Y-90018883D01*
X104908607Y-90036607D01*
X104890883Y-90052671D01*
X104871670Y-90066921D01*
X104851153Y-90079218D01*
X104829529Y-90089446D01*
X104807007Y-90097504D01*
X104783803Y-90103316D01*
X104760142Y-90106826D01*
X104736250Y-90108000D01*
X104248750Y-90108000D01*
X104224858Y-90106826D01*
X104201197Y-90103316D01*
X104177993Y-90097504D01*
X104155471Y-90089446D01*
X104133847Y-90079218D01*
X104113330Y-90066921D01*
X104094117Y-90052671D01*
X104076393Y-90036607D01*
X104060329Y-90018883D01*
X104046079Y-89999670D01*
X104033782Y-89979153D01*
X104023554Y-89957529D01*
X104015496Y-89935007D01*
X104009684Y-89911803D01*
X104006174Y-89888142D01*
X104005000Y-89864250D01*
X104005000Y-88951750D01*
X104006174Y-88927858D01*
X104009684Y-88904197D01*
X104015496Y-88880993D01*
X104023554Y-88858471D01*
X104033782Y-88836847D01*
X104046079Y-88816330D01*
X104060329Y-88797117D01*
X104076393Y-88779393D01*
X104094117Y-88763329D01*
X104113330Y-88749079D01*
X104133847Y-88736782D01*
X104155471Y-88726554D01*
X104177993Y-88718496D01*
X104201197Y-88712684D01*
X104224858Y-88709174D01*
X104248750Y-88708000D01*
X104736250Y-88708000D01*
X104760142Y-88709174D01*
G37*
G36*
X162749142Y-79819174D02*
G01*
X162772803Y-79822684D01*
X162796007Y-79828496D01*
X162818529Y-79836554D01*
X162840153Y-79846782D01*
X162860670Y-79859079D01*
X162879883Y-79873329D01*
X162897607Y-79889393D01*
X162913671Y-79907117D01*
X162927921Y-79926330D01*
X162940218Y-79946847D01*
X162950446Y-79968471D01*
X162958504Y-79990993D01*
X162964316Y-80014197D01*
X162967826Y-80037858D01*
X162969000Y-80061750D01*
X162969000Y-80974250D01*
X162967826Y-80998142D01*
X162964316Y-81021803D01*
X162958504Y-81045007D01*
X162950446Y-81067529D01*
X162940218Y-81089153D01*
X162927921Y-81109670D01*
X162913671Y-81128883D01*
X162897607Y-81146607D01*
X162879883Y-81162671D01*
X162860670Y-81176921D01*
X162840153Y-81189218D01*
X162818529Y-81199446D01*
X162796007Y-81207504D01*
X162772803Y-81213316D01*
X162749142Y-81216826D01*
X162725250Y-81218000D01*
X162237750Y-81218000D01*
X162213858Y-81216826D01*
X162190197Y-81213316D01*
X162166993Y-81207504D01*
X162144471Y-81199446D01*
X162122847Y-81189218D01*
X162102330Y-81176921D01*
X162083117Y-81162671D01*
X162065393Y-81146607D01*
X162049329Y-81128883D01*
X162035079Y-81109670D01*
X162022782Y-81089153D01*
X162012554Y-81067529D01*
X162004496Y-81045007D01*
X161998684Y-81021803D01*
X161995174Y-80998142D01*
X161994000Y-80974250D01*
X161994000Y-80061750D01*
X161995174Y-80037858D01*
X161998684Y-80014197D01*
X162004496Y-79990993D01*
X162012554Y-79968471D01*
X162022782Y-79946847D01*
X162035079Y-79926330D01*
X162049329Y-79907117D01*
X162065393Y-79889393D01*
X162083117Y-79873329D01*
X162102330Y-79859079D01*
X162122847Y-79846782D01*
X162144471Y-79836554D01*
X162166993Y-79828496D01*
X162190197Y-79822684D01*
X162213858Y-79819174D01*
X162237750Y-79818000D01*
X162725250Y-79818000D01*
X162749142Y-79819174D01*
G37*
G36*
X160874142Y-79819174D02*
G01*
X160897803Y-79822684D01*
X160921007Y-79828496D01*
X160943529Y-79836554D01*
X160965153Y-79846782D01*
X160985670Y-79859079D01*
X161004883Y-79873329D01*
X161022607Y-79889393D01*
X161038671Y-79907117D01*
X161052921Y-79926330D01*
X161065218Y-79946847D01*
X161075446Y-79968471D01*
X161083504Y-79990993D01*
X161089316Y-80014197D01*
X161092826Y-80037858D01*
X161094000Y-80061750D01*
X161094000Y-80974250D01*
X161092826Y-80998142D01*
X161089316Y-81021803D01*
X161083504Y-81045007D01*
X161075446Y-81067529D01*
X161065218Y-81089153D01*
X161052921Y-81109670D01*
X161038671Y-81128883D01*
X161022607Y-81146607D01*
X161004883Y-81162671D01*
X160985670Y-81176921D01*
X160965153Y-81189218D01*
X160943529Y-81199446D01*
X160921007Y-81207504D01*
X160897803Y-81213316D01*
X160874142Y-81216826D01*
X160850250Y-81218000D01*
X160362750Y-81218000D01*
X160338858Y-81216826D01*
X160315197Y-81213316D01*
X160291993Y-81207504D01*
X160269471Y-81199446D01*
X160247847Y-81189218D01*
X160227330Y-81176921D01*
X160208117Y-81162671D01*
X160190393Y-81146607D01*
X160174329Y-81128883D01*
X160160079Y-81109670D01*
X160147782Y-81089153D01*
X160137554Y-81067529D01*
X160129496Y-81045007D01*
X160123684Y-81021803D01*
X160120174Y-80998142D01*
X160119000Y-80974250D01*
X160119000Y-80061750D01*
X160120174Y-80037858D01*
X160123684Y-80014197D01*
X160129496Y-79990993D01*
X160137554Y-79968471D01*
X160147782Y-79946847D01*
X160160079Y-79926330D01*
X160174329Y-79907117D01*
X160190393Y-79889393D01*
X160208117Y-79873329D01*
X160227330Y-79859079D01*
X160247847Y-79846782D01*
X160269471Y-79836554D01*
X160291993Y-79828496D01*
X160315197Y-79822684D01*
X160338858Y-79819174D01*
X160362750Y-79818000D01*
X160850250Y-79818000D01*
X160874142Y-79819174D01*
G37*
G36*
X104740142Y-86677174D02*
G01*
X104763803Y-86680684D01*
X104787007Y-86686496D01*
X104809529Y-86694554D01*
X104831153Y-86704782D01*
X104851670Y-86717079D01*
X104870883Y-86731329D01*
X104888607Y-86747393D01*
X104904671Y-86765117D01*
X104918921Y-86784330D01*
X104931218Y-86804847D01*
X104941446Y-86826471D01*
X104949504Y-86848993D01*
X104955316Y-86872197D01*
X104958826Y-86895858D01*
X104960000Y-86919750D01*
X104960000Y-87832250D01*
X104958826Y-87856142D01*
X104955316Y-87879803D01*
X104949504Y-87903007D01*
X104941446Y-87925529D01*
X104931218Y-87947153D01*
X104918921Y-87967670D01*
X104904671Y-87986883D01*
X104888607Y-88004607D01*
X104870883Y-88020671D01*
X104851670Y-88034921D01*
X104831153Y-88047218D01*
X104809529Y-88057446D01*
X104787007Y-88065504D01*
X104763803Y-88071316D01*
X104740142Y-88074826D01*
X104716250Y-88076000D01*
X104228750Y-88076000D01*
X104204858Y-88074826D01*
X104181197Y-88071316D01*
X104157993Y-88065504D01*
X104135471Y-88057446D01*
X104113847Y-88047218D01*
X104093330Y-88034921D01*
X104074117Y-88020671D01*
X104056393Y-88004607D01*
X104040329Y-87986883D01*
X104026079Y-87967670D01*
X104013782Y-87947153D01*
X104003554Y-87925529D01*
X103995496Y-87903007D01*
X103989684Y-87879803D01*
X103986174Y-87856142D01*
X103985000Y-87832250D01*
X103985000Y-86919750D01*
X103986174Y-86895858D01*
X103989684Y-86872197D01*
X103995496Y-86848993D01*
X104003554Y-86826471D01*
X104013782Y-86804847D01*
X104026079Y-86784330D01*
X104040329Y-86765117D01*
X104056393Y-86747393D01*
X104074117Y-86731329D01*
X104093330Y-86717079D01*
X104113847Y-86704782D01*
X104135471Y-86694554D01*
X104157993Y-86686496D01*
X104181197Y-86680684D01*
X104204858Y-86677174D01*
X104228750Y-86676000D01*
X104716250Y-86676000D01*
X104740142Y-86677174D01*
G37*
G36*
X106615142Y-86677174D02*
G01*
X106638803Y-86680684D01*
X106662007Y-86686496D01*
X106684529Y-86694554D01*
X106706153Y-86704782D01*
X106726670Y-86717079D01*
X106745883Y-86731329D01*
X106763607Y-86747393D01*
X106779671Y-86765117D01*
X106793921Y-86784330D01*
X106806218Y-86804847D01*
X106816446Y-86826471D01*
X106824504Y-86848993D01*
X106830316Y-86872197D01*
X106833826Y-86895858D01*
X106835000Y-86919750D01*
X106835000Y-87832250D01*
X106833826Y-87856142D01*
X106830316Y-87879803D01*
X106824504Y-87903007D01*
X106816446Y-87925529D01*
X106806218Y-87947153D01*
X106793921Y-87967670D01*
X106779671Y-87986883D01*
X106763607Y-88004607D01*
X106745883Y-88020671D01*
X106726670Y-88034921D01*
X106706153Y-88047218D01*
X106684529Y-88057446D01*
X106662007Y-88065504D01*
X106638803Y-88071316D01*
X106615142Y-88074826D01*
X106591250Y-88076000D01*
X106103750Y-88076000D01*
X106079858Y-88074826D01*
X106056197Y-88071316D01*
X106032993Y-88065504D01*
X106010471Y-88057446D01*
X105988847Y-88047218D01*
X105968330Y-88034921D01*
X105949117Y-88020671D01*
X105931393Y-88004607D01*
X105915329Y-87986883D01*
X105901079Y-87967670D01*
X105888782Y-87947153D01*
X105878554Y-87925529D01*
X105870496Y-87903007D01*
X105864684Y-87879803D01*
X105861174Y-87856142D01*
X105860000Y-87832250D01*
X105860000Y-86919750D01*
X105861174Y-86895858D01*
X105864684Y-86872197D01*
X105870496Y-86848993D01*
X105878554Y-86826471D01*
X105888782Y-86804847D01*
X105901079Y-86784330D01*
X105915329Y-86765117D01*
X105931393Y-86747393D01*
X105949117Y-86731329D01*
X105968330Y-86717079D01*
X105988847Y-86704782D01*
X106010471Y-86694554D01*
X106032993Y-86686496D01*
X106056197Y-86680684D01*
X106079858Y-86677174D01*
X106103750Y-86676000D01*
X106591250Y-86676000D01*
X106615142Y-86677174D01*
G37*
G36*
X199446504Y-84579204D02*
G01*
X199470773Y-84582804D01*
X199494571Y-84588765D01*
X199517671Y-84597030D01*
X199539849Y-84607520D01*
X199560893Y-84620133D01*
X199580598Y-84634747D01*
X199598777Y-84651223D01*
X199615253Y-84669402D01*
X199629867Y-84689107D01*
X199642480Y-84710151D01*
X199652970Y-84732329D01*
X199661235Y-84755429D01*
X199667196Y-84779227D01*
X199670796Y-84803496D01*
X199672000Y-84828000D01*
X199672000Y-85828000D01*
X199670796Y-85852504D01*
X199667196Y-85876773D01*
X199661235Y-85900571D01*
X199652970Y-85923671D01*
X199642480Y-85945849D01*
X199629867Y-85966893D01*
X199615253Y-85986598D01*
X199598777Y-86004777D01*
X199580598Y-86021253D01*
X199560893Y-86035867D01*
X199539849Y-86048480D01*
X199517671Y-86058970D01*
X199494571Y-86067235D01*
X199470773Y-86073196D01*
X199446504Y-86076796D01*
X199422000Y-86078000D01*
X196522000Y-86078000D01*
X196497496Y-86076796D01*
X196473227Y-86073196D01*
X196449429Y-86067235D01*
X196426329Y-86058970D01*
X196404151Y-86048480D01*
X196383107Y-86035867D01*
X196363402Y-86021253D01*
X196345223Y-86004777D01*
X196328747Y-85986598D01*
X196314133Y-85966893D01*
X196301520Y-85945849D01*
X196291030Y-85923671D01*
X196282765Y-85900571D01*
X196276804Y-85876773D01*
X196273204Y-85852504D01*
X196272000Y-85828000D01*
X196272000Y-84828000D01*
X196273204Y-84803496D01*
X196276804Y-84779227D01*
X196282765Y-84755429D01*
X196291030Y-84732329D01*
X196301520Y-84710151D01*
X196314133Y-84689107D01*
X196328747Y-84669402D01*
X196345223Y-84651223D01*
X196363402Y-84634747D01*
X196383107Y-84620133D01*
X196404151Y-84607520D01*
X196426329Y-84597030D01*
X196449429Y-84588765D01*
X196473227Y-84582804D01*
X196497496Y-84579204D01*
X196522000Y-84578000D01*
X199422000Y-84578000D01*
X199446504Y-84579204D01*
G37*
G36*
X199446504Y-95279204D02*
G01*
X199470773Y-95282804D01*
X199494571Y-95288765D01*
X199517671Y-95297030D01*
X199539849Y-95307520D01*
X199560893Y-95320133D01*
X199580598Y-95334747D01*
X199598777Y-95351223D01*
X199615253Y-95369402D01*
X199629867Y-95389107D01*
X199642480Y-95410151D01*
X199652970Y-95432329D01*
X199661235Y-95455429D01*
X199667196Y-95479227D01*
X199670796Y-95503496D01*
X199672000Y-95528000D01*
X199672000Y-96528000D01*
X199670796Y-96552504D01*
X199667196Y-96576773D01*
X199661235Y-96600571D01*
X199652970Y-96623671D01*
X199642480Y-96645849D01*
X199629867Y-96666893D01*
X199615253Y-96686598D01*
X199598777Y-96704777D01*
X199580598Y-96721253D01*
X199560893Y-96735867D01*
X199539849Y-96748480D01*
X199517671Y-96758970D01*
X199494571Y-96767235D01*
X199470773Y-96773196D01*
X199446504Y-96776796D01*
X199422000Y-96778000D01*
X196522000Y-96778000D01*
X196497496Y-96776796D01*
X196473227Y-96773196D01*
X196449429Y-96767235D01*
X196426329Y-96758970D01*
X196404151Y-96748480D01*
X196383107Y-96735867D01*
X196363402Y-96721253D01*
X196345223Y-96704777D01*
X196328747Y-96686598D01*
X196314133Y-96666893D01*
X196301520Y-96645849D01*
X196291030Y-96623671D01*
X196282765Y-96600571D01*
X196276804Y-96576773D01*
X196273204Y-96552504D01*
X196272000Y-96528000D01*
X196272000Y-95528000D01*
X196273204Y-95503496D01*
X196276804Y-95479227D01*
X196282765Y-95455429D01*
X196291030Y-95432329D01*
X196301520Y-95410151D01*
X196314133Y-95389107D01*
X196328747Y-95369402D01*
X196345223Y-95351223D01*
X196363402Y-95334747D01*
X196383107Y-95320133D01*
X196404151Y-95307520D01*
X196426329Y-95297030D01*
X196449429Y-95288765D01*
X196473227Y-95282804D01*
X196497496Y-95279204D01*
X196522000Y-95278000D01*
X199422000Y-95278000D01*
X199446504Y-95279204D01*
G37*
G36*
X193746504Y-87179204D02*
G01*
X193770773Y-87182804D01*
X193794571Y-87188765D01*
X193817671Y-87197030D01*
X193839849Y-87207520D01*
X193860893Y-87220133D01*
X193880598Y-87234747D01*
X193898777Y-87251223D01*
X193915253Y-87269402D01*
X193929867Y-87289107D01*
X193942480Y-87310151D01*
X193952970Y-87332329D01*
X193961235Y-87355429D01*
X193967196Y-87379227D01*
X193970796Y-87403496D01*
X193972000Y-87428000D01*
X193972000Y-87928000D01*
X193970796Y-87952504D01*
X193967196Y-87976773D01*
X193961235Y-88000571D01*
X193952970Y-88023671D01*
X193942480Y-88045849D01*
X193929867Y-88066893D01*
X193915253Y-88086598D01*
X193898777Y-88104777D01*
X193880598Y-88121253D01*
X193860893Y-88135867D01*
X193839849Y-88148480D01*
X193817671Y-88158970D01*
X193794571Y-88167235D01*
X193770773Y-88173196D01*
X193746504Y-88176796D01*
X193722000Y-88178000D01*
X190722000Y-88178000D01*
X190697496Y-88176796D01*
X190673227Y-88173196D01*
X190649429Y-88167235D01*
X190626329Y-88158970D01*
X190604151Y-88148480D01*
X190583107Y-88135867D01*
X190563402Y-88121253D01*
X190545223Y-88104777D01*
X190528747Y-88086598D01*
X190514133Y-88066893D01*
X190501520Y-88045849D01*
X190491030Y-88023671D01*
X190482765Y-88000571D01*
X190476804Y-87976773D01*
X190473204Y-87952504D01*
X190472000Y-87928000D01*
X190472000Y-87428000D01*
X190473204Y-87403496D01*
X190476804Y-87379227D01*
X190482765Y-87355429D01*
X190491030Y-87332329D01*
X190501520Y-87310151D01*
X190514133Y-87289107D01*
X190528747Y-87269402D01*
X190545223Y-87251223D01*
X190563402Y-87234747D01*
X190583107Y-87220133D01*
X190604151Y-87207520D01*
X190626329Y-87197030D01*
X190649429Y-87188765D01*
X190673227Y-87182804D01*
X190697496Y-87179204D01*
X190722000Y-87178000D01*
X193722000Y-87178000D01*
X193746504Y-87179204D01*
G37*
G36*
X193746504Y-89179204D02*
G01*
X193770773Y-89182804D01*
X193794571Y-89188765D01*
X193817671Y-89197030D01*
X193839849Y-89207520D01*
X193860893Y-89220133D01*
X193880598Y-89234747D01*
X193898777Y-89251223D01*
X193915253Y-89269402D01*
X193929867Y-89289107D01*
X193942480Y-89310151D01*
X193952970Y-89332329D01*
X193961235Y-89355429D01*
X193967196Y-89379227D01*
X193970796Y-89403496D01*
X193972000Y-89428000D01*
X193972000Y-89928000D01*
X193970796Y-89952504D01*
X193967196Y-89976773D01*
X193961235Y-90000571D01*
X193952970Y-90023671D01*
X193942480Y-90045849D01*
X193929867Y-90066893D01*
X193915253Y-90086598D01*
X193898777Y-90104777D01*
X193880598Y-90121253D01*
X193860893Y-90135867D01*
X193839849Y-90148480D01*
X193817671Y-90158970D01*
X193794571Y-90167235D01*
X193770773Y-90173196D01*
X193746504Y-90176796D01*
X193722000Y-90178000D01*
X190722000Y-90178000D01*
X190697496Y-90176796D01*
X190673227Y-90173196D01*
X190649429Y-90167235D01*
X190626329Y-90158970D01*
X190604151Y-90148480D01*
X190583107Y-90135867D01*
X190563402Y-90121253D01*
X190545223Y-90104777D01*
X190528747Y-90086598D01*
X190514133Y-90066893D01*
X190501520Y-90045849D01*
X190491030Y-90023671D01*
X190482765Y-90000571D01*
X190476804Y-89976773D01*
X190473204Y-89952504D01*
X190472000Y-89928000D01*
X190472000Y-89428000D01*
X190473204Y-89403496D01*
X190476804Y-89379227D01*
X190482765Y-89355429D01*
X190491030Y-89332329D01*
X190501520Y-89310151D01*
X190514133Y-89289107D01*
X190528747Y-89269402D01*
X190545223Y-89251223D01*
X190563402Y-89234747D01*
X190583107Y-89220133D01*
X190604151Y-89207520D01*
X190626329Y-89197030D01*
X190649429Y-89188765D01*
X190673227Y-89182804D01*
X190697496Y-89179204D01*
X190722000Y-89178000D01*
X193722000Y-89178000D01*
X193746504Y-89179204D01*
G37*
G36*
X193746504Y-91179204D02*
G01*
X193770773Y-91182804D01*
X193794571Y-91188765D01*
X193817671Y-91197030D01*
X193839849Y-91207520D01*
X193860893Y-91220133D01*
X193880598Y-91234747D01*
X193898777Y-91251223D01*
X193915253Y-91269402D01*
X193929867Y-91289107D01*
X193942480Y-91310151D01*
X193952970Y-91332329D01*
X193961235Y-91355429D01*
X193967196Y-91379227D01*
X193970796Y-91403496D01*
X193972000Y-91428000D01*
X193972000Y-91928000D01*
X193970796Y-91952504D01*
X193967196Y-91976773D01*
X193961235Y-92000571D01*
X193952970Y-92023671D01*
X193942480Y-92045849D01*
X193929867Y-92066893D01*
X193915253Y-92086598D01*
X193898777Y-92104777D01*
X193880598Y-92121253D01*
X193860893Y-92135867D01*
X193839849Y-92148480D01*
X193817671Y-92158970D01*
X193794571Y-92167235D01*
X193770773Y-92173196D01*
X193746504Y-92176796D01*
X193722000Y-92178000D01*
X190722000Y-92178000D01*
X190697496Y-92176796D01*
X190673227Y-92173196D01*
X190649429Y-92167235D01*
X190626329Y-92158970D01*
X190604151Y-92148480D01*
X190583107Y-92135867D01*
X190563402Y-92121253D01*
X190545223Y-92104777D01*
X190528747Y-92086598D01*
X190514133Y-92066893D01*
X190501520Y-92045849D01*
X190491030Y-92023671D01*
X190482765Y-92000571D01*
X190476804Y-91976773D01*
X190473204Y-91952504D01*
X190472000Y-91928000D01*
X190472000Y-91428000D01*
X190473204Y-91403496D01*
X190476804Y-91379227D01*
X190482765Y-91355429D01*
X190491030Y-91332329D01*
X190501520Y-91310151D01*
X190514133Y-91289107D01*
X190528747Y-91269402D01*
X190545223Y-91251223D01*
X190563402Y-91234747D01*
X190583107Y-91220133D01*
X190604151Y-91207520D01*
X190626329Y-91197030D01*
X190649429Y-91188765D01*
X190673227Y-91182804D01*
X190697496Y-91179204D01*
X190722000Y-91178000D01*
X193722000Y-91178000D01*
X193746504Y-91179204D01*
G37*
G36*
X193746504Y-93179204D02*
G01*
X193770773Y-93182804D01*
X193794571Y-93188765D01*
X193817671Y-93197030D01*
X193839849Y-93207520D01*
X193860893Y-93220133D01*
X193880598Y-93234747D01*
X193898777Y-93251223D01*
X193915253Y-93269402D01*
X193929867Y-93289107D01*
X193942480Y-93310151D01*
X193952970Y-93332329D01*
X193961235Y-93355429D01*
X193967196Y-93379227D01*
X193970796Y-93403496D01*
X193972000Y-93428000D01*
X193972000Y-93928000D01*
X193970796Y-93952504D01*
X193967196Y-93976773D01*
X193961235Y-94000571D01*
X193952970Y-94023671D01*
X193942480Y-94045849D01*
X193929867Y-94066893D01*
X193915253Y-94086598D01*
X193898777Y-94104777D01*
X193880598Y-94121253D01*
X193860893Y-94135867D01*
X193839849Y-94148480D01*
X193817671Y-94158970D01*
X193794571Y-94167235D01*
X193770773Y-94173196D01*
X193746504Y-94176796D01*
X193722000Y-94178000D01*
X190722000Y-94178000D01*
X190697496Y-94176796D01*
X190673227Y-94173196D01*
X190649429Y-94167235D01*
X190626329Y-94158970D01*
X190604151Y-94148480D01*
X190583107Y-94135867D01*
X190563402Y-94121253D01*
X190545223Y-94104777D01*
X190528747Y-94086598D01*
X190514133Y-94066893D01*
X190501520Y-94045849D01*
X190491030Y-94023671D01*
X190482765Y-94000571D01*
X190476804Y-93976773D01*
X190473204Y-93952504D01*
X190472000Y-93928000D01*
X190472000Y-93428000D01*
X190473204Y-93403496D01*
X190476804Y-93379227D01*
X190482765Y-93355429D01*
X190491030Y-93332329D01*
X190501520Y-93310151D01*
X190514133Y-93289107D01*
X190528747Y-93269402D01*
X190545223Y-93251223D01*
X190563402Y-93234747D01*
X190583107Y-93220133D01*
X190604151Y-93207520D01*
X190626329Y-93197030D01*
X190649429Y-93188765D01*
X190673227Y-93182804D01*
X190697496Y-93179204D01*
X190722000Y-93178000D01*
X193722000Y-93178000D01*
X193746504Y-93179204D01*
G37*
G36*
X168882142Y-93318174D02*
G01*
X168905803Y-93321684D01*
X168929007Y-93327496D01*
X168951529Y-93335554D01*
X168973153Y-93345782D01*
X168993670Y-93358079D01*
X169012883Y-93372329D01*
X169030607Y-93388393D01*
X169046671Y-93406117D01*
X169060921Y-93425330D01*
X169073218Y-93445847D01*
X169083446Y-93467471D01*
X169091504Y-93489993D01*
X169097316Y-93513197D01*
X169100826Y-93536858D01*
X169102000Y-93560750D01*
X169102000Y-94048250D01*
X169100826Y-94072142D01*
X169097316Y-94095803D01*
X169091504Y-94119007D01*
X169083446Y-94141529D01*
X169073218Y-94163153D01*
X169060921Y-94183670D01*
X169046671Y-94202883D01*
X169030607Y-94220607D01*
X169012883Y-94236671D01*
X168993670Y-94250921D01*
X168973153Y-94263218D01*
X168951529Y-94273446D01*
X168929007Y-94281504D01*
X168905803Y-94287316D01*
X168882142Y-94290826D01*
X168858250Y-94292000D01*
X167945750Y-94292000D01*
X167921858Y-94290826D01*
X167898197Y-94287316D01*
X167874993Y-94281504D01*
X167852471Y-94273446D01*
X167830847Y-94263218D01*
X167810330Y-94250921D01*
X167791117Y-94236671D01*
X167773393Y-94220607D01*
X167757329Y-94202883D01*
X167743079Y-94183670D01*
X167730782Y-94163153D01*
X167720554Y-94141529D01*
X167712496Y-94119007D01*
X167706684Y-94095803D01*
X167703174Y-94072142D01*
X167702000Y-94048250D01*
X167702000Y-93560750D01*
X167703174Y-93536858D01*
X167706684Y-93513197D01*
X167712496Y-93489993D01*
X167720554Y-93467471D01*
X167730782Y-93445847D01*
X167743079Y-93425330D01*
X167757329Y-93406117D01*
X167773393Y-93388393D01*
X167791117Y-93372329D01*
X167810330Y-93358079D01*
X167830847Y-93345782D01*
X167852471Y-93335554D01*
X167874993Y-93327496D01*
X167898197Y-93321684D01*
X167921858Y-93318174D01*
X167945750Y-93317000D01*
X168858250Y-93317000D01*
X168882142Y-93318174D01*
G37*
G36*
X168882142Y-95193174D02*
G01*
X168905803Y-95196684D01*
X168929007Y-95202496D01*
X168951529Y-95210554D01*
X168973153Y-95220782D01*
X168993670Y-95233079D01*
X169012883Y-95247329D01*
X169030607Y-95263393D01*
X169046671Y-95281117D01*
X169060921Y-95300330D01*
X169073218Y-95320847D01*
X169083446Y-95342471D01*
X169091504Y-95364993D01*
X169097316Y-95388197D01*
X169100826Y-95411858D01*
X169102000Y-95435750D01*
X169102000Y-95923250D01*
X169100826Y-95947142D01*
X169097316Y-95970803D01*
X169091504Y-95994007D01*
X169083446Y-96016529D01*
X169073218Y-96038153D01*
X169060921Y-96058670D01*
X169046671Y-96077883D01*
X169030607Y-96095607D01*
X169012883Y-96111671D01*
X168993670Y-96125921D01*
X168973153Y-96138218D01*
X168951529Y-96148446D01*
X168929007Y-96156504D01*
X168905803Y-96162316D01*
X168882142Y-96165826D01*
X168858250Y-96167000D01*
X167945750Y-96167000D01*
X167921858Y-96165826D01*
X167898197Y-96162316D01*
X167874993Y-96156504D01*
X167852471Y-96148446D01*
X167830847Y-96138218D01*
X167810330Y-96125921D01*
X167791117Y-96111671D01*
X167773393Y-96095607D01*
X167757329Y-96077883D01*
X167743079Y-96058670D01*
X167730782Y-96038153D01*
X167720554Y-96016529D01*
X167712496Y-95994007D01*
X167706684Y-95970803D01*
X167703174Y-95947142D01*
X167702000Y-95923250D01*
X167702000Y-95435750D01*
X167703174Y-95411858D01*
X167706684Y-95388197D01*
X167712496Y-95364993D01*
X167720554Y-95342471D01*
X167730782Y-95320847D01*
X167743079Y-95300330D01*
X167757329Y-95281117D01*
X167773393Y-95263393D01*
X167791117Y-95247329D01*
X167810330Y-95233079D01*
X167830847Y-95220782D01*
X167852471Y-95210554D01*
X167874993Y-95202496D01*
X167898197Y-95196684D01*
X167921858Y-95193174D01*
X167945750Y-95192000D01*
X168858250Y-95192000D01*
X168882142Y-95193174D01*
G37*
G36*
X180783142Y-96837174D02*
G01*
X180806803Y-96840684D01*
X180830007Y-96846496D01*
X180852529Y-96854554D01*
X180874153Y-96864782D01*
X180894670Y-96877079D01*
X180913883Y-96891329D01*
X180931607Y-96907393D01*
X180947671Y-96925117D01*
X180961921Y-96944330D01*
X180974218Y-96964847D01*
X180984446Y-96986471D01*
X180992504Y-97008993D01*
X180998316Y-97032197D01*
X181001826Y-97055858D01*
X181003000Y-97079750D01*
X181003000Y-97992250D01*
X181001826Y-98016142D01*
X180998316Y-98039803D01*
X180992504Y-98063007D01*
X180984446Y-98085529D01*
X180974218Y-98107153D01*
X180961921Y-98127670D01*
X180947671Y-98146883D01*
X180931607Y-98164607D01*
X180913883Y-98180671D01*
X180894670Y-98194921D01*
X180874153Y-98207218D01*
X180852529Y-98217446D01*
X180830007Y-98225504D01*
X180806803Y-98231316D01*
X180783142Y-98234826D01*
X180759250Y-98236000D01*
X180271750Y-98236000D01*
X180247858Y-98234826D01*
X180224197Y-98231316D01*
X180200993Y-98225504D01*
X180178471Y-98217446D01*
X180156847Y-98207218D01*
X180136330Y-98194921D01*
X180117117Y-98180671D01*
X180099393Y-98164607D01*
X180083329Y-98146883D01*
X180069079Y-98127670D01*
X180056782Y-98107153D01*
X180046554Y-98085529D01*
X180038496Y-98063007D01*
X180032684Y-98039803D01*
X180029174Y-98016142D01*
X180028000Y-97992250D01*
X180028000Y-97079750D01*
X180029174Y-97055858D01*
X180032684Y-97032197D01*
X180038496Y-97008993D01*
X180046554Y-96986471D01*
X180056782Y-96964847D01*
X180069079Y-96944330D01*
X180083329Y-96925117D01*
X180099393Y-96907393D01*
X180117117Y-96891329D01*
X180136330Y-96877079D01*
X180156847Y-96864782D01*
X180178471Y-96854554D01*
X180200993Y-96846496D01*
X180224197Y-96840684D01*
X180247858Y-96837174D01*
X180271750Y-96836000D01*
X180759250Y-96836000D01*
X180783142Y-96837174D01*
G37*
G36*
X178908142Y-96837174D02*
G01*
X178931803Y-96840684D01*
X178955007Y-96846496D01*
X178977529Y-96854554D01*
X178999153Y-96864782D01*
X179019670Y-96877079D01*
X179038883Y-96891329D01*
X179056607Y-96907393D01*
X179072671Y-96925117D01*
X179086921Y-96944330D01*
X179099218Y-96964847D01*
X179109446Y-96986471D01*
X179117504Y-97008993D01*
X179123316Y-97032197D01*
X179126826Y-97055858D01*
X179128000Y-97079750D01*
X179128000Y-97992250D01*
X179126826Y-98016142D01*
X179123316Y-98039803D01*
X179117504Y-98063007D01*
X179109446Y-98085529D01*
X179099218Y-98107153D01*
X179086921Y-98127670D01*
X179072671Y-98146883D01*
X179056607Y-98164607D01*
X179038883Y-98180671D01*
X179019670Y-98194921D01*
X178999153Y-98207218D01*
X178977529Y-98217446D01*
X178955007Y-98225504D01*
X178931803Y-98231316D01*
X178908142Y-98234826D01*
X178884250Y-98236000D01*
X178396750Y-98236000D01*
X178372858Y-98234826D01*
X178349197Y-98231316D01*
X178325993Y-98225504D01*
X178303471Y-98217446D01*
X178281847Y-98207218D01*
X178261330Y-98194921D01*
X178242117Y-98180671D01*
X178224393Y-98164607D01*
X178208329Y-98146883D01*
X178194079Y-98127670D01*
X178181782Y-98107153D01*
X178171554Y-98085529D01*
X178163496Y-98063007D01*
X178157684Y-98039803D01*
X178154174Y-98016142D01*
X178153000Y-97992250D01*
X178153000Y-97079750D01*
X178154174Y-97055858D01*
X178157684Y-97032197D01*
X178163496Y-97008993D01*
X178171554Y-96986471D01*
X178181782Y-96964847D01*
X178194079Y-96944330D01*
X178208329Y-96925117D01*
X178224393Y-96907393D01*
X178242117Y-96891329D01*
X178261330Y-96877079D01*
X178281847Y-96864782D01*
X178303471Y-96854554D01*
X178325993Y-96846496D01*
X178349197Y-96840684D01*
X178372858Y-96837174D01*
X178396750Y-96836000D01*
X178884250Y-96836000D01*
X178908142Y-96837174D01*
G37*
D13*
X166354000Y-90932000D03*
X164354000Y-91882000D03*
X164354000Y-89982000D03*
X172450000Y-90932000D03*
X170450000Y-91882000D03*
X170450000Y-89982000D03*
X164354000Y-93792000D03*
X164354000Y-95692000D03*
X166354000Y-94742000D03*
X170450000Y-93792000D03*
X170450000Y-95692000D03*
X172450000Y-94742000D03*
D12*
G36*
X168882142Y-91383174D02*
G01*
X168905803Y-91386684D01*
X168929007Y-91392496D01*
X168951529Y-91400554D01*
X168973153Y-91410782D01*
X168993670Y-91423079D01*
X169012883Y-91437329D01*
X169030607Y-91453393D01*
X169046671Y-91471117D01*
X169060921Y-91490330D01*
X169073218Y-91510847D01*
X169083446Y-91532471D01*
X169091504Y-91554993D01*
X169097316Y-91578197D01*
X169100826Y-91601858D01*
X169102000Y-91625750D01*
X169102000Y-92113250D01*
X169100826Y-92137142D01*
X169097316Y-92160803D01*
X169091504Y-92184007D01*
X169083446Y-92206529D01*
X169073218Y-92228153D01*
X169060921Y-92248670D01*
X169046671Y-92267883D01*
X169030607Y-92285607D01*
X169012883Y-92301671D01*
X168993670Y-92315921D01*
X168973153Y-92328218D01*
X168951529Y-92338446D01*
X168929007Y-92346504D01*
X168905803Y-92352316D01*
X168882142Y-92355826D01*
X168858250Y-92357000D01*
X167945750Y-92357000D01*
X167921858Y-92355826D01*
X167898197Y-92352316D01*
X167874993Y-92346504D01*
X167852471Y-92338446D01*
X167830847Y-92328218D01*
X167810330Y-92315921D01*
X167791117Y-92301671D01*
X167773393Y-92285607D01*
X167757329Y-92267883D01*
X167743079Y-92248670D01*
X167730782Y-92228153D01*
X167720554Y-92206529D01*
X167712496Y-92184007D01*
X167706684Y-92160803D01*
X167703174Y-92137142D01*
X167702000Y-92113250D01*
X167702000Y-91625750D01*
X167703174Y-91601858D01*
X167706684Y-91578197D01*
X167712496Y-91554993D01*
X167720554Y-91532471D01*
X167730782Y-91510847D01*
X167743079Y-91490330D01*
X167757329Y-91471117D01*
X167773393Y-91453393D01*
X167791117Y-91437329D01*
X167810330Y-91423079D01*
X167830847Y-91410782D01*
X167852471Y-91400554D01*
X167874993Y-91392496D01*
X167898197Y-91386684D01*
X167921858Y-91383174D01*
X167945750Y-91382000D01*
X168858250Y-91382000D01*
X168882142Y-91383174D01*
G37*
G36*
X168882142Y-89508174D02*
G01*
X168905803Y-89511684D01*
X168929007Y-89517496D01*
X168951529Y-89525554D01*
X168973153Y-89535782D01*
X168993670Y-89548079D01*
X169012883Y-89562329D01*
X169030607Y-89578393D01*
X169046671Y-89596117D01*
X169060921Y-89615330D01*
X169073218Y-89635847D01*
X169083446Y-89657471D01*
X169091504Y-89679993D01*
X169097316Y-89703197D01*
X169100826Y-89726858D01*
X169102000Y-89750750D01*
X169102000Y-90238250D01*
X169100826Y-90262142D01*
X169097316Y-90285803D01*
X169091504Y-90309007D01*
X169083446Y-90331529D01*
X169073218Y-90353153D01*
X169060921Y-90373670D01*
X169046671Y-90392883D01*
X169030607Y-90410607D01*
X169012883Y-90426671D01*
X168993670Y-90440921D01*
X168973153Y-90453218D01*
X168951529Y-90463446D01*
X168929007Y-90471504D01*
X168905803Y-90477316D01*
X168882142Y-90480826D01*
X168858250Y-90482000D01*
X167945750Y-90482000D01*
X167921858Y-90480826D01*
X167898197Y-90477316D01*
X167874993Y-90471504D01*
X167852471Y-90463446D01*
X167830847Y-90453218D01*
X167810330Y-90440921D01*
X167791117Y-90426671D01*
X167773393Y-90410607D01*
X167757329Y-90392883D01*
X167743079Y-90373670D01*
X167730782Y-90353153D01*
X167720554Y-90331529D01*
X167712496Y-90309007D01*
X167706684Y-90285803D01*
X167703174Y-90262142D01*
X167702000Y-90238250D01*
X167702000Y-89750750D01*
X167703174Y-89726858D01*
X167706684Y-89703197D01*
X167712496Y-89679993D01*
X167720554Y-89657471D01*
X167730782Y-89635847D01*
X167743079Y-89615330D01*
X167757329Y-89596117D01*
X167773393Y-89578393D01*
X167791117Y-89562329D01*
X167810330Y-89548079D01*
X167830847Y-89535782D01*
X167852471Y-89525554D01*
X167874993Y-89517496D01*
X167898197Y-89511684D01*
X167921858Y-89508174D01*
X167945750Y-89507000D01*
X168858250Y-89507000D01*
X168882142Y-89508174D01*
G37*
G36*
X162786142Y-93318174D02*
G01*
X162809803Y-93321684D01*
X162833007Y-93327496D01*
X162855529Y-93335554D01*
X162877153Y-93345782D01*
X162897670Y-93358079D01*
X162916883Y-93372329D01*
X162934607Y-93388393D01*
X162950671Y-93406117D01*
X162964921Y-93425330D01*
X162977218Y-93445847D01*
X162987446Y-93467471D01*
X162995504Y-93489993D01*
X163001316Y-93513197D01*
X163004826Y-93536858D01*
X163006000Y-93560750D01*
X163006000Y-94048250D01*
X163004826Y-94072142D01*
X163001316Y-94095803D01*
X162995504Y-94119007D01*
X162987446Y-94141529D01*
X162977218Y-94163153D01*
X162964921Y-94183670D01*
X162950671Y-94202883D01*
X162934607Y-94220607D01*
X162916883Y-94236671D01*
X162897670Y-94250921D01*
X162877153Y-94263218D01*
X162855529Y-94273446D01*
X162833007Y-94281504D01*
X162809803Y-94287316D01*
X162786142Y-94290826D01*
X162762250Y-94292000D01*
X161849750Y-94292000D01*
X161825858Y-94290826D01*
X161802197Y-94287316D01*
X161778993Y-94281504D01*
X161756471Y-94273446D01*
X161734847Y-94263218D01*
X161714330Y-94250921D01*
X161695117Y-94236671D01*
X161677393Y-94220607D01*
X161661329Y-94202883D01*
X161647079Y-94183670D01*
X161634782Y-94163153D01*
X161624554Y-94141529D01*
X161616496Y-94119007D01*
X161610684Y-94095803D01*
X161607174Y-94072142D01*
X161606000Y-94048250D01*
X161606000Y-93560750D01*
X161607174Y-93536858D01*
X161610684Y-93513197D01*
X161616496Y-93489993D01*
X161624554Y-93467471D01*
X161634782Y-93445847D01*
X161647079Y-93425330D01*
X161661329Y-93406117D01*
X161677393Y-93388393D01*
X161695117Y-93372329D01*
X161714330Y-93358079D01*
X161734847Y-93345782D01*
X161756471Y-93335554D01*
X161778993Y-93327496D01*
X161802197Y-93321684D01*
X161825858Y-93318174D01*
X161849750Y-93317000D01*
X162762250Y-93317000D01*
X162786142Y-93318174D01*
G37*
G36*
X162786142Y-95193174D02*
G01*
X162809803Y-95196684D01*
X162833007Y-95202496D01*
X162855529Y-95210554D01*
X162877153Y-95220782D01*
X162897670Y-95233079D01*
X162916883Y-95247329D01*
X162934607Y-95263393D01*
X162950671Y-95281117D01*
X162964921Y-95300330D01*
X162977218Y-95320847D01*
X162987446Y-95342471D01*
X162995504Y-95364993D01*
X163001316Y-95388197D01*
X163004826Y-95411858D01*
X163006000Y-95435750D01*
X163006000Y-95923250D01*
X163004826Y-95947142D01*
X163001316Y-95970803D01*
X162995504Y-95994007D01*
X162987446Y-96016529D01*
X162977218Y-96038153D01*
X162964921Y-96058670D01*
X162950671Y-96077883D01*
X162934607Y-96095607D01*
X162916883Y-96111671D01*
X162897670Y-96125921D01*
X162877153Y-96138218D01*
X162855529Y-96148446D01*
X162833007Y-96156504D01*
X162809803Y-96162316D01*
X162786142Y-96165826D01*
X162762250Y-96167000D01*
X161849750Y-96167000D01*
X161825858Y-96165826D01*
X161802197Y-96162316D01*
X161778993Y-96156504D01*
X161756471Y-96148446D01*
X161734847Y-96138218D01*
X161714330Y-96125921D01*
X161695117Y-96111671D01*
X161677393Y-96095607D01*
X161661329Y-96077883D01*
X161647079Y-96058670D01*
X161634782Y-96038153D01*
X161624554Y-96016529D01*
X161616496Y-95994007D01*
X161610684Y-95970803D01*
X161607174Y-95947142D01*
X161606000Y-95923250D01*
X161606000Y-95435750D01*
X161607174Y-95411858D01*
X161610684Y-95388197D01*
X161616496Y-95364993D01*
X161624554Y-95342471D01*
X161634782Y-95320847D01*
X161647079Y-95300330D01*
X161661329Y-95281117D01*
X161677393Y-95263393D01*
X161695117Y-95247329D01*
X161714330Y-95233079D01*
X161734847Y-95220782D01*
X161756471Y-95210554D01*
X161778993Y-95202496D01*
X161802197Y-95196684D01*
X161825858Y-95193174D01*
X161849750Y-95192000D01*
X162762250Y-95192000D01*
X162786142Y-95193174D01*
G37*
G36*
X130480142Y-83255174D02*
G01*
X130503803Y-83258684D01*
X130527007Y-83264496D01*
X130549529Y-83272554D01*
X130571153Y-83282782D01*
X130591670Y-83295079D01*
X130610883Y-83309329D01*
X130628607Y-83325393D01*
X130644671Y-83343117D01*
X130658921Y-83362330D01*
X130671218Y-83382847D01*
X130681446Y-83404471D01*
X130689504Y-83426993D01*
X130695316Y-83450197D01*
X130698826Y-83473858D01*
X130700000Y-83497750D01*
X130700000Y-83985250D01*
X130698826Y-84009142D01*
X130695316Y-84032803D01*
X130689504Y-84056007D01*
X130681446Y-84078529D01*
X130671218Y-84100153D01*
X130658921Y-84120670D01*
X130644671Y-84139883D01*
X130628607Y-84157607D01*
X130610883Y-84173671D01*
X130591670Y-84187921D01*
X130571153Y-84200218D01*
X130549529Y-84210446D01*
X130527007Y-84218504D01*
X130503803Y-84224316D01*
X130480142Y-84227826D01*
X130456250Y-84229000D01*
X129543750Y-84229000D01*
X129519858Y-84227826D01*
X129496197Y-84224316D01*
X129472993Y-84218504D01*
X129450471Y-84210446D01*
X129428847Y-84200218D01*
X129408330Y-84187921D01*
X129389117Y-84173671D01*
X129371393Y-84157607D01*
X129355329Y-84139883D01*
X129341079Y-84120670D01*
X129328782Y-84100153D01*
X129318554Y-84078529D01*
X129310496Y-84056007D01*
X129304684Y-84032803D01*
X129301174Y-84009142D01*
X129300000Y-83985250D01*
X129300000Y-83497750D01*
X129301174Y-83473858D01*
X129304684Y-83450197D01*
X129310496Y-83426993D01*
X129318554Y-83404471D01*
X129328782Y-83382847D01*
X129341079Y-83362330D01*
X129355329Y-83343117D01*
X129371393Y-83325393D01*
X129389117Y-83309329D01*
X129408330Y-83295079D01*
X129428847Y-83282782D01*
X129450471Y-83272554D01*
X129472993Y-83264496D01*
X129496197Y-83258684D01*
X129519858Y-83255174D01*
X129543750Y-83254000D01*
X130456250Y-83254000D01*
X130480142Y-83255174D01*
G37*
G36*
X130480142Y-81380174D02*
G01*
X130503803Y-81383684D01*
X130527007Y-81389496D01*
X130549529Y-81397554D01*
X130571153Y-81407782D01*
X130591670Y-81420079D01*
X130610883Y-81434329D01*
X130628607Y-81450393D01*
X130644671Y-81468117D01*
X130658921Y-81487330D01*
X130671218Y-81507847D01*
X130681446Y-81529471D01*
X130689504Y-81551993D01*
X130695316Y-81575197D01*
X130698826Y-81598858D01*
X130700000Y-81622750D01*
X130700000Y-82110250D01*
X130698826Y-82134142D01*
X130695316Y-82157803D01*
X130689504Y-82181007D01*
X130681446Y-82203529D01*
X130671218Y-82225153D01*
X130658921Y-82245670D01*
X130644671Y-82264883D01*
X130628607Y-82282607D01*
X130610883Y-82298671D01*
X130591670Y-82312921D01*
X130571153Y-82325218D01*
X130549529Y-82335446D01*
X130527007Y-82343504D01*
X130503803Y-82349316D01*
X130480142Y-82352826D01*
X130456250Y-82354000D01*
X129543750Y-82354000D01*
X129519858Y-82352826D01*
X129496197Y-82349316D01*
X129472993Y-82343504D01*
X129450471Y-82335446D01*
X129428847Y-82325218D01*
X129408330Y-82312921D01*
X129389117Y-82298671D01*
X129371393Y-82282607D01*
X129355329Y-82264883D01*
X129341079Y-82245670D01*
X129328782Y-82225153D01*
X129318554Y-82203529D01*
X129310496Y-82181007D01*
X129304684Y-82157803D01*
X129301174Y-82134142D01*
X129300000Y-82110250D01*
X129300000Y-81622750D01*
X129301174Y-81598858D01*
X129304684Y-81575197D01*
X129310496Y-81551993D01*
X129318554Y-81529471D01*
X129328782Y-81507847D01*
X129341079Y-81487330D01*
X129355329Y-81468117D01*
X129371393Y-81450393D01*
X129389117Y-81434329D01*
X129408330Y-81420079D01*
X129428847Y-81407782D01*
X129450471Y-81397554D01*
X129472993Y-81389496D01*
X129496197Y-81383684D01*
X129519858Y-81380174D01*
X129543750Y-81379000D01*
X130456250Y-81379000D01*
X130480142Y-81380174D01*
G37*
G36*
X133068142Y-81380174D02*
G01*
X133091803Y-81383684D01*
X133115007Y-81389496D01*
X133137529Y-81397554D01*
X133159153Y-81407782D01*
X133179670Y-81420079D01*
X133198883Y-81434329D01*
X133216607Y-81450393D01*
X133232671Y-81468117D01*
X133246921Y-81487330D01*
X133259218Y-81507847D01*
X133269446Y-81529471D01*
X133277504Y-81551993D01*
X133283316Y-81575197D01*
X133286826Y-81598858D01*
X133288000Y-81622750D01*
X133288000Y-82110250D01*
X133286826Y-82134142D01*
X133283316Y-82157803D01*
X133277504Y-82181007D01*
X133269446Y-82203529D01*
X133259218Y-82225153D01*
X133246921Y-82245670D01*
X133232671Y-82264883D01*
X133216607Y-82282607D01*
X133198883Y-82298671D01*
X133179670Y-82312921D01*
X133159153Y-82325218D01*
X133137529Y-82335446D01*
X133115007Y-82343504D01*
X133091803Y-82349316D01*
X133068142Y-82352826D01*
X133044250Y-82354000D01*
X132131750Y-82354000D01*
X132107858Y-82352826D01*
X132084197Y-82349316D01*
X132060993Y-82343504D01*
X132038471Y-82335446D01*
X132016847Y-82325218D01*
X131996330Y-82312921D01*
X131977117Y-82298671D01*
X131959393Y-82282607D01*
X131943329Y-82264883D01*
X131929079Y-82245670D01*
X131916782Y-82225153D01*
X131906554Y-82203529D01*
X131898496Y-82181007D01*
X131892684Y-82157803D01*
X131889174Y-82134142D01*
X131888000Y-82110250D01*
X131888000Y-81622750D01*
X131889174Y-81598858D01*
X131892684Y-81575197D01*
X131898496Y-81551993D01*
X131906554Y-81529471D01*
X131916782Y-81507847D01*
X131929079Y-81487330D01*
X131943329Y-81468117D01*
X131959393Y-81450393D01*
X131977117Y-81434329D01*
X131996330Y-81420079D01*
X132016847Y-81407782D01*
X132038471Y-81397554D01*
X132060993Y-81389496D01*
X132084197Y-81383684D01*
X132107858Y-81380174D01*
X132131750Y-81379000D01*
X133044250Y-81379000D01*
X133068142Y-81380174D01*
G37*
G36*
X133068142Y-83255174D02*
G01*
X133091803Y-83258684D01*
X133115007Y-83264496D01*
X133137529Y-83272554D01*
X133159153Y-83282782D01*
X133179670Y-83295079D01*
X133198883Y-83309329D01*
X133216607Y-83325393D01*
X133232671Y-83343117D01*
X133246921Y-83362330D01*
X133259218Y-83382847D01*
X133269446Y-83404471D01*
X133277504Y-83426993D01*
X133283316Y-83450197D01*
X133286826Y-83473858D01*
X133288000Y-83497750D01*
X133288000Y-83985250D01*
X133286826Y-84009142D01*
X133283316Y-84032803D01*
X133277504Y-84056007D01*
X133269446Y-84078529D01*
X133259218Y-84100153D01*
X133246921Y-84120670D01*
X133232671Y-84139883D01*
X133216607Y-84157607D01*
X133198883Y-84173671D01*
X133179670Y-84187921D01*
X133159153Y-84200218D01*
X133137529Y-84210446D01*
X133115007Y-84218504D01*
X133091803Y-84224316D01*
X133068142Y-84227826D01*
X133044250Y-84229000D01*
X132131750Y-84229000D01*
X132107858Y-84227826D01*
X132084197Y-84224316D01*
X132060993Y-84218504D01*
X132038471Y-84210446D01*
X132016847Y-84200218D01*
X131996330Y-84187921D01*
X131977117Y-84173671D01*
X131959393Y-84157607D01*
X131943329Y-84139883D01*
X131929079Y-84120670D01*
X131916782Y-84100153D01*
X131906554Y-84078529D01*
X131898496Y-84056007D01*
X131892684Y-84032803D01*
X131889174Y-84009142D01*
X131888000Y-83985250D01*
X131888000Y-83497750D01*
X131889174Y-83473858D01*
X131892684Y-83450197D01*
X131898496Y-83426993D01*
X131906554Y-83404471D01*
X131916782Y-83382847D01*
X131929079Y-83362330D01*
X131943329Y-83343117D01*
X131959393Y-83325393D01*
X131977117Y-83309329D01*
X131996330Y-83295079D01*
X132016847Y-83282782D01*
X132038471Y-83272554D01*
X132060993Y-83264496D01*
X132084197Y-83258684D01*
X132107858Y-83255174D01*
X132131750Y-83254000D01*
X133044250Y-83254000D01*
X133068142Y-83255174D01*
G37*
G36*
X142466142Y-83255174D02*
G01*
X142489803Y-83258684D01*
X142513007Y-83264496D01*
X142535529Y-83272554D01*
X142557153Y-83282782D01*
X142577670Y-83295079D01*
X142596883Y-83309329D01*
X142614607Y-83325393D01*
X142630671Y-83343117D01*
X142644921Y-83362330D01*
X142657218Y-83382847D01*
X142667446Y-83404471D01*
X142675504Y-83426993D01*
X142681316Y-83450197D01*
X142684826Y-83473858D01*
X142686000Y-83497750D01*
X142686000Y-83985250D01*
X142684826Y-84009142D01*
X142681316Y-84032803D01*
X142675504Y-84056007D01*
X142667446Y-84078529D01*
X142657218Y-84100153D01*
X142644921Y-84120670D01*
X142630671Y-84139883D01*
X142614607Y-84157607D01*
X142596883Y-84173671D01*
X142577670Y-84187921D01*
X142557153Y-84200218D01*
X142535529Y-84210446D01*
X142513007Y-84218504D01*
X142489803Y-84224316D01*
X142466142Y-84227826D01*
X142442250Y-84229000D01*
X141529750Y-84229000D01*
X141505858Y-84227826D01*
X141482197Y-84224316D01*
X141458993Y-84218504D01*
X141436471Y-84210446D01*
X141414847Y-84200218D01*
X141394330Y-84187921D01*
X141375117Y-84173671D01*
X141357393Y-84157607D01*
X141341329Y-84139883D01*
X141327079Y-84120670D01*
X141314782Y-84100153D01*
X141304554Y-84078529D01*
X141296496Y-84056007D01*
X141290684Y-84032803D01*
X141287174Y-84009142D01*
X141286000Y-83985250D01*
X141286000Y-83497750D01*
X141287174Y-83473858D01*
X141290684Y-83450197D01*
X141296496Y-83426993D01*
X141304554Y-83404471D01*
X141314782Y-83382847D01*
X141327079Y-83362330D01*
X141341329Y-83343117D01*
X141357393Y-83325393D01*
X141375117Y-83309329D01*
X141394330Y-83295079D01*
X141414847Y-83282782D01*
X141436471Y-83272554D01*
X141458993Y-83264496D01*
X141482197Y-83258684D01*
X141505858Y-83255174D01*
X141529750Y-83254000D01*
X142442250Y-83254000D01*
X142466142Y-83255174D01*
G37*
G36*
X142466142Y-81380174D02*
G01*
X142489803Y-81383684D01*
X142513007Y-81389496D01*
X142535529Y-81397554D01*
X142557153Y-81407782D01*
X142577670Y-81420079D01*
X142596883Y-81434329D01*
X142614607Y-81450393D01*
X142630671Y-81468117D01*
X142644921Y-81487330D01*
X142657218Y-81507847D01*
X142667446Y-81529471D01*
X142675504Y-81551993D01*
X142681316Y-81575197D01*
X142684826Y-81598858D01*
X142686000Y-81622750D01*
X142686000Y-82110250D01*
X142684826Y-82134142D01*
X142681316Y-82157803D01*
X142675504Y-82181007D01*
X142667446Y-82203529D01*
X142657218Y-82225153D01*
X142644921Y-82245670D01*
X142630671Y-82264883D01*
X142614607Y-82282607D01*
X142596883Y-82298671D01*
X142577670Y-82312921D01*
X142557153Y-82325218D01*
X142535529Y-82335446D01*
X142513007Y-82343504D01*
X142489803Y-82349316D01*
X142466142Y-82352826D01*
X142442250Y-82354000D01*
X141529750Y-82354000D01*
X141505858Y-82352826D01*
X141482197Y-82349316D01*
X141458993Y-82343504D01*
X141436471Y-82335446D01*
X141414847Y-82325218D01*
X141394330Y-82312921D01*
X141375117Y-82298671D01*
X141357393Y-82282607D01*
X141341329Y-82264883D01*
X141327079Y-82245670D01*
X141314782Y-82225153D01*
X141304554Y-82203529D01*
X141296496Y-82181007D01*
X141290684Y-82157803D01*
X141287174Y-82134142D01*
X141286000Y-82110250D01*
X141286000Y-81622750D01*
X141287174Y-81598858D01*
X141290684Y-81575197D01*
X141296496Y-81551993D01*
X141304554Y-81529471D01*
X141314782Y-81507847D01*
X141327079Y-81487330D01*
X141341329Y-81468117D01*
X141357393Y-81450393D01*
X141375117Y-81434329D01*
X141394330Y-81420079D01*
X141414847Y-81407782D01*
X141436471Y-81397554D01*
X141458993Y-81389496D01*
X141482197Y-81383684D01*
X141505858Y-81380174D01*
X141529750Y-81379000D01*
X142442250Y-81379000D01*
X142466142Y-81380174D01*
G37*
G36*
X145006142Y-81380174D02*
G01*
X145029803Y-81383684D01*
X145053007Y-81389496D01*
X145075529Y-81397554D01*
X145097153Y-81407782D01*
X145117670Y-81420079D01*
X145136883Y-81434329D01*
X145154607Y-81450393D01*
X145170671Y-81468117D01*
X145184921Y-81487330D01*
X145197218Y-81507847D01*
X145207446Y-81529471D01*
X145215504Y-81551993D01*
X145221316Y-81575197D01*
X145224826Y-81598858D01*
X145226000Y-81622750D01*
X145226000Y-82110250D01*
X145224826Y-82134142D01*
X145221316Y-82157803D01*
X145215504Y-82181007D01*
X145207446Y-82203529D01*
X145197218Y-82225153D01*
X145184921Y-82245670D01*
X145170671Y-82264883D01*
X145154607Y-82282607D01*
X145136883Y-82298671D01*
X145117670Y-82312921D01*
X145097153Y-82325218D01*
X145075529Y-82335446D01*
X145053007Y-82343504D01*
X145029803Y-82349316D01*
X145006142Y-82352826D01*
X144982250Y-82354000D01*
X144069750Y-82354000D01*
X144045858Y-82352826D01*
X144022197Y-82349316D01*
X143998993Y-82343504D01*
X143976471Y-82335446D01*
X143954847Y-82325218D01*
X143934330Y-82312921D01*
X143915117Y-82298671D01*
X143897393Y-82282607D01*
X143881329Y-82264883D01*
X143867079Y-82245670D01*
X143854782Y-82225153D01*
X143844554Y-82203529D01*
X143836496Y-82181007D01*
X143830684Y-82157803D01*
X143827174Y-82134142D01*
X143826000Y-82110250D01*
X143826000Y-81622750D01*
X143827174Y-81598858D01*
X143830684Y-81575197D01*
X143836496Y-81551993D01*
X143844554Y-81529471D01*
X143854782Y-81507847D01*
X143867079Y-81487330D01*
X143881329Y-81468117D01*
X143897393Y-81450393D01*
X143915117Y-81434329D01*
X143934330Y-81420079D01*
X143954847Y-81407782D01*
X143976471Y-81397554D01*
X143998993Y-81389496D01*
X144022197Y-81383684D01*
X144045858Y-81380174D01*
X144069750Y-81379000D01*
X144982250Y-81379000D01*
X145006142Y-81380174D01*
G37*
G36*
X145006142Y-83255174D02*
G01*
X145029803Y-83258684D01*
X145053007Y-83264496D01*
X145075529Y-83272554D01*
X145097153Y-83282782D01*
X145117670Y-83295079D01*
X145136883Y-83309329D01*
X145154607Y-83325393D01*
X145170671Y-83343117D01*
X145184921Y-83362330D01*
X145197218Y-83382847D01*
X145207446Y-83404471D01*
X145215504Y-83426993D01*
X145221316Y-83450197D01*
X145224826Y-83473858D01*
X145226000Y-83497750D01*
X145226000Y-83985250D01*
X145224826Y-84009142D01*
X145221316Y-84032803D01*
X145215504Y-84056007D01*
X145207446Y-84078529D01*
X145197218Y-84100153D01*
X145184921Y-84120670D01*
X145170671Y-84139883D01*
X145154607Y-84157607D01*
X145136883Y-84173671D01*
X145117670Y-84187921D01*
X145097153Y-84200218D01*
X145075529Y-84210446D01*
X145053007Y-84218504D01*
X145029803Y-84224316D01*
X145006142Y-84227826D01*
X144982250Y-84229000D01*
X144069750Y-84229000D01*
X144045858Y-84227826D01*
X144022197Y-84224316D01*
X143998993Y-84218504D01*
X143976471Y-84210446D01*
X143954847Y-84200218D01*
X143934330Y-84187921D01*
X143915117Y-84173671D01*
X143897393Y-84157607D01*
X143881329Y-84139883D01*
X143867079Y-84120670D01*
X143854782Y-84100153D01*
X143844554Y-84078529D01*
X143836496Y-84056007D01*
X143830684Y-84032803D01*
X143827174Y-84009142D01*
X143826000Y-83985250D01*
X143826000Y-83497750D01*
X143827174Y-83473858D01*
X143830684Y-83450197D01*
X143836496Y-83426993D01*
X143844554Y-83404471D01*
X143854782Y-83382847D01*
X143867079Y-83362330D01*
X143881329Y-83343117D01*
X143897393Y-83325393D01*
X143915117Y-83309329D01*
X143934330Y-83295079D01*
X143954847Y-83282782D01*
X143976471Y-83272554D01*
X143998993Y-83264496D01*
X144022197Y-83258684D01*
X144045858Y-83255174D01*
X144069750Y-83254000D01*
X144982250Y-83254000D01*
X145006142Y-83255174D01*
G37*
G36*
X160119142Y-85523674D02*
G01*
X160142803Y-85527184D01*
X160166007Y-85532996D01*
X160188529Y-85541054D01*
X160210153Y-85551282D01*
X160230670Y-85563579D01*
X160249883Y-85577829D01*
X160267607Y-85593893D01*
X160283671Y-85611617D01*
X160297921Y-85630830D01*
X160310218Y-85651347D01*
X160320446Y-85672971D01*
X160328504Y-85695493D01*
X160334316Y-85718697D01*
X160337826Y-85742358D01*
X160339000Y-85766250D01*
X160339000Y-86253750D01*
X160337826Y-86277642D01*
X160334316Y-86301303D01*
X160328504Y-86324507D01*
X160320446Y-86347029D01*
X160310218Y-86368653D01*
X160297921Y-86389170D01*
X160283671Y-86408383D01*
X160267607Y-86426107D01*
X160249883Y-86442171D01*
X160230670Y-86456421D01*
X160210153Y-86468718D01*
X160188529Y-86478946D01*
X160166007Y-86487004D01*
X160142803Y-86492816D01*
X160119142Y-86496326D01*
X160095250Y-86497500D01*
X159182750Y-86497500D01*
X159158858Y-86496326D01*
X159135197Y-86492816D01*
X159111993Y-86487004D01*
X159089471Y-86478946D01*
X159067847Y-86468718D01*
X159047330Y-86456421D01*
X159028117Y-86442171D01*
X159010393Y-86426107D01*
X158994329Y-86408383D01*
X158980079Y-86389170D01*
X158967782Y-86368653D01*
X158957554Y-86347029D01*
X158949496Y-86324507D01*
X158943684Y-86301303D01*
X158940174Y-86277642D01*
X158939000Y-86253750D01*
X158939000Y-85766250D01*
X158940174Y-85742358D01*
X158943684Y-85718697D01*
X158949496Y-85695493D01*
X158957554Y-85672971D01*
X158967782Y-85651347D01*
X158980079Y-85630830D01*
X158994329Y-85611617D01*
X159010393Y-85593893D01*
X159028117Y-85577829D01*
X159047330Y-85563579D01*
X159067847Y-85551282D01*
X159089471Y-85541054D01*
X159111993Y-85532996D01*
X159135197Y-85527184D01*
X159158858Y-85523674D01*
X159182750Y-85522500D01*
X160095250Y-85522500D01*
X160119142Y-85523674D01*
G37*
G36*
X160119142Y-87398674D02*
G01*
X160142803Y-87402184D01*
X160166007Y-87407996D01*
X160188529Y-87416054D01*
X160210153Y-87426282D01*
X160230670Y-87438579D01*
X160249883Y-87452829D01*
X160267607Y-87468893D01*
X160283671Y-87486617D01*
X160297921Y-87505830D01*
X160310218Y-87526347D01*
X160320446Y-87547971D01*
X160328504Y-87570493D01*
X160334316Y-87593697D01*
X160337826Y-87617358D01*
X160339000Y-87641250D01*
X160339000Y-88128750D01*
X160337826Y-88152642D01*
X160334316Y-88176303D01*
X160328504Y-88199507D01*
X160320446Y-88222029D01*
X160310218Y-88243653D01*
X160297921Y-88264170D01*
X160283671Y-88283383D01*
X160267607Y-88301107D01*
X160249883Y-88317171D01*
X160230670Y-88331421D01*
X160210153Y-88343718D01*
X160188529Y-88353946D01*
X160166007Y-88362004D01*
X160142803Y-88367816D01*
X160119142Y-88371326D01*
X160095250Y-88372500D01*
X159182750Y-88372500D01*
X159158858Y-88371326D01*
X159135197Y-88367816D01*
X159111993Y-88362004D01*
X159089471Y-88353946D01*
X159067847Y-88343718D01*
X159047330Y-88331421D01*
X159028117Y-88317171D01*
X159010393Y-88301107D01*
X158994329Y-88283383D01*
X158980079Y-88264170D01*
X158967782Y-88243653D01*
X158957554Y-88222029D01*
X158949496Y-88199507D01*
X158943684Y-88176303D01*
X158940174Y-88152642D01*
X158939000Y-88128750D01*
X158939000Y-87641250D01*
X158940174Y-87617358D01*
X158943684Y-87593697D01*
X158949496Y-87570493D01*
X158957554Y-87547971D01*
X158967782Y-87526347D01*
X158980079Y-87505830D01*
X158994329Y-87486617D01*
X159010393Y-87468893D01*
X159028117Y-87452829D01*
X159047330Y-87438579D01*
X159067847Y-87426282D01*
X159089471Y-87416054D01*
X159111993Y-87407996D01*
X159135197Y-87402184D01*
X159158858Y-87398674D01*
X159182750Y-87397500D01*
X160095250Y-87397500D01*
X160119142Y-87398674D01*
G37*
G36*
X120368142Y-83255174D02*
G01*
X120391803Y-83258684D01*
X120415007Y-83264496D01*
X120437529Y-83272554D01*
X120459153Y-83282782D01*
X120479670Y-83295079D01*
X120498883Y-83309329D01*
X120516607Y-83325393D01*
X120532671Y-83343117D01*
X120546921Y-83362330D01*
X120559218Y-83382847D01*
X120569446Y-83404471D01*
X120577504Y-83426993D01*
X120583316Y-83450197D01*
X120586826Y-83473858D01*
X120588000Y-83497750D01*
X120588000Y-83985250D01*
X120586826Y-84009142D01*
X120583316Y-84032803D01*
X120577504Y-84056007D01*
X120569446Y-84078529D01*
X120559218Y-84100153D01*
X120546921Y-84120670D01*
X120532671Y-84139883D01*
X120516607Y-84157607D01*
X120498883Y-84173671D01*
X120479670Y-84187921D01*
X120459153Y-84200218D01*
X120437529Y-84210446D01*
X120415007Y-84218504D01*
X120391803Y-84224316D01*
X120368142Y-84227826D01*
X120344250Y-84229000D01*
X119431750Y-84229000D01*
X119407858Y-84227826D01*
X119384197Y-84224316D01*
X119360993Y-84218504D01*
X119338471Y-84210446D01*
X119316847Y-84200218D01*
X119296330Y-84187921D01*
X119277117Y-84173671D01*
X119259393Y-84157607D01*
X119243329Y-84139883D01*
X119229079Y-84120670D01*
X119216782Y-84100153D01*
X119206554Y-84078529D01*
X119198496Y-84056007D01*
X119192684Y-84032803D01*
X119189174Y-84009142D01*
X119188000Y-83985250D01*
X119188000Y-83497750D01*
X119189174Y-83473858D01*
X119192684Y-83450197D01*
X119198496Y-83426993D01*
X119206554Y-83404471D01*
X119216782Y-83382847D01*
X119229079Y-83362330D01*
X119243329Y-83343117D01*
X119259393Y-83325393D01*
X119277117Y-83309329D01*
X119296330Y-83295079D01*
X119316847Y-83282782D01*
X119338471Y-83272554D01*
X119360993Y-83264496D01*
X119384197Y-83258684D01*
X119407858Y-83255174D01*
X119431750Y-83254000D01*
X120344250Y-83254000D01*
X120368142Y-83255174D01*
G37*
G36*
X120368142Y-81380174D02*
G01*
X120391803Y-81383684D01*
X120415007Y-81389496D01*
X120437529Y-81397554D01*
X120459153Y-81407782D01*
X120479670Y-81420079D01*
X120498883Y-81434329D01*
X120516607Y-81450393D01*
X120532671Y-81468117D01*
X120546921Y-81487330D01*
X120559218Y-81507847D01*
X120569446Y-81529471D01*
X120577504Y-81551993D01*
X120583316Y-81575197D01*
X120586826Y-81598858D01*
X120588000Y-81622750D01*
X120588000Y-82110250D01*
X120586826Y-82134142D01*
X120583316Y-82157803D01*
X120577504Y-82181007D01*
X120569446Y-82203529D01*
X120559218Y-82225153D01*
X120546921Y-82245670D01*
X120532671Y-82264883D01*
X120516607Y-82282607D01*
X120498883Y-82298671D01*
X120479670Y-82312921D01*
X120459153Y-82325218D01*
X120437529Y-82335446D01*
X120415007Y-82343504D01*
X120391803Y-82349316D01*
X120368142Y-82352826D01*
X120344250Y-82354000D01*
X119431750Y-82354000D01*
X119407858Y-82352826D01*
X119384197Y-82349316D01*
X119360993Y-82343504D01*
X119338471Y-82335446D01*
X119316847Y-82325218D01*
X119296330Y-82312921D01*
X119277117Y-82298671D01*
X119259393Y-82282607D01*
X119243329Y-82264883D01*
X119229079Y-82245670D01*
X119216782Y-82225153D01*
X119206554Y-82203529D01*
X119198496Y-82181007D01*
X119192684Y-82157803D01*
X119189174Y-82134142D01*
X119188000Y-82110250D01*
X119188000Y-81622750D01*
X119189174Y-81598858D01*
X119192684Y-81575197D01*
X119198496Y-81551993D01*
X119206554Y-81529471D01*
X119216782Y-81507847D01*
X119229079Y-81487330D01*
X119243329Y-81468117D01*
X119259393Y-81450393D01*
X119277117Y-81434329D01*
X119296330Y-81420079D01*
X119316847Y-81407782D01*
X119338471Y-81397554D01*
X119360993Y-81389496D01*
X119384197Y-81383684D01*
X119407858Y-81380174D01*
X119431750Y-81379000D01*
X120344250Y-81379000D01*
X120368142Y-81380174D01*
G37*
G36*
X122908142Y-81380174D02*
G01*
X122931803Y-81383684D01*
X122955007Y-81389496D01*
X122977529Y-81397554D01*
X122999153Y-81407782D01*
X123019670Y-81420079D01*
X123038883Y-81434329D01*
X123056607Y-81450393D01*
X123072671Y-81468117D01*
X123086921Y-81487330D01*
X123099218Y-81507847D01*
X123109446Y-81529471D01*
X123117504Y-81551993D01*
X123123316Y-81575197D01*
X123126826Y-81598858D01*
X123128000Y-81622750D01*
X123128000Y-82110250D01*
X123126826Y-82134142D01*
X123123316Y-82157803D01*
X123117504Y-82181007D01*
X123109446Y-82203529D01*
X123099218Y-82225153D01*
X123086921Y-82245670D01*
X123072671Y-82264883D01*
X123056607Y-82282607D01*
X123038883Y-82298671D01*
X123019670Y-82312921D01*
X122999153Y-82325218D01*
X122977529Y-82335446D01*
X122955007Y-82343504D01*
X122931803Y-82349316D01*
X122908142Y-82352826D01*
X122884250Y-82354000D01*
X121971750Y-82354000D01*
X121947858Y-82352826D01*
X121924197Y-82349316D01*
X121900993Y-82343504D01*
X121878471Y-82335446D01*
X121856847Y-82325218D01*
X121836330Y-82312921D01*
X121817117Y-82298671D01*
X121799393Y-82282607D01*
X121783329Y-82264883D01*
X121769079Y-82245670D01*
X121756782Y-82225153D01*
X121746554Y-82203529D01*
X121738496Y-82181007D01*
X121732684Y-82157803D01*
X121729174Y-82134142D01*
X121728000Y-82110250D01*
X121728000Y-81622750D01*
X121729174Y-81598858D01*
X121732684Y-81575197D01*
X121738496Y-81551993D01*
X121746554Y-81529471D01*
X121756782Y-81507847D01*
X121769079Y-81487330D01*
X121783329Y-81468117D01*
X121799393Y-81450393D01*
X121817117Y-81434329D01*
X121836330Y-81420079D01*
X121856847Y-81407782D01*
X121878471Y-81397554D01*
X121900993Y-81389496D01*
X121924197Y-81383684D01*
X121947858Y-81380174D01*
X121971750Y-81379000D01*
X122884250Y-81379000D01*
X122908142Y-81380174D01*
G37*
G36*
X122908142Y-83255174D02*
G01*
X122931803Y-83258684D01*
X122955007Y-83264496D01*
X122977529Y-83272554D01*
X122999153Y-83282782D01*
X123019670Y-83295079D01*
X123038883Y-83309329D01*
X123056607Y-83325393D01*
X123072671Y-83343117D01*
X123086921Y-83362330D01*
X123099218Y-83382847D01*
X123109446Y-83404471D01*
X123117504Y-83426993D01*
X123123316Y-83450197D01*
X123126826Y-83473858D01*
X123128000Y-83497750D01*
X123128000Y-83985250D01*
X123126826Y-84009142D01*
X123123316Y-84032803D01*
X123117504Y-84056007D01*
X123109446Y-84078529D01*
X123099218Y-84100153D01*
X123086921Y-84120670D01*
X123072671Y-84139883D01*
X123056607Y-84157607D01*
X123038883Y-84173671D01*
X123019670Y-84187921D01*
X122999153Y-84200218D01*
X122977529Y-84210446D01*
X122955007Y-84218504D01*
X122931803Y-84224316D01*
X122908142Y-84227826D01*
X122884250Y-84229000D01*
X121971750Y-84229000D01*
X121947858Y-84227826D01*
X121924197Y-84224316D01*
X121900993Y-84218504D01*
X121878471Y-84210446D01*
X121856847Y-84200218D01*
X121836330Y-84187921D01*
X121817117Y-84173671D01*
X121799393Y-84157607D01*
X121783329Y-84139883D01*
X121769079Y-84120670D01*
X121756782Y-84100153D01*
X121746554Y-84078529D01*
X121738496Y-84056007D01*
X121732684Y-84032803D01*
X121729174Y-84009142D01*
X121728000Y-83985250D01*
X121728000Y-83497750D01*
X121729174Y-83473858D01*
X121732684Y-83450197D01*
X121738496Y-83426993D01*
X121746554Y-83404471D01*
X121756782Y-83382847D01*
X121769079Y-83362330D01*
X121783329Y-83343117D01*
X121799393Y-83325393D01*
X121817117Y-83309329D01*
X121836330Y-83295079D01*
X121856847Y-83282782D01*
X121878471Y-83272554D01*
X121900993Y-83264496D01*
X121924197Y-83258684D01*
X121947858Y-83255174D01*
X121971750Y-83254000D01*
X122884250Y-83254000D01*
X122908142Y-83255174D01*
G37*
G36*
X158034892Y-87398674D02*
G01*
X158058553Y-87402184D01*
X158081757Y-87407996D01*
X158104279Y-87416054D01*
X158125903Y-87426282D01*
X158146420Y-87438579D01*
X158165633Y-87452829D01*
X158183357Y-87468893D01*
X158199421Y-87486617D01*
X158213671Y-87505830D01*
X158225968Y-87526347D01*
X158236196Y-87547971D01*
X158244254Y-87570493D01*
X158250066Y-87593697D01*
X158253576Y-87617358D01*
X158254750Y-87641250D01*
X158254750Y-88128750D01*
X158253576Y-88152642D01*
X158250066Y-88176303D01*
X158244254Y-88199507D01*
X158236196Y-88222029D01*
X158225968Y-88243653D01*
X158213671Y-88264170D01*
X158199421Y-88283383D01*
X158183357Y-88301107D01*
X158165633Y-88317171D01*
X158146420Y-88331421D01*
X158125903Y-88343718D01*
X158104279Y-88353946D01*
X158081757Y-88362004D01*
X158058553Y-88367816D01*
X158034892Y-88371326D01*
X158011000Y-88372500D01*
X157098500Y-88372500D01*
X157074608Y-88371326D01*
X157050947Y-88367816D01*
X157027743Y-88362004D01*
X157005221Y-88353946D01*
X156983597Y-88343718D01*
X156963080Y-88331421D01*
X156943867Y-88317171D01*
X156926143Y-88301107D01*
X156910079Y-88283383D01*
X156895829Y-88264170D01*
X156883532Y-88243653D01*
X156873304Y-88222029D01*
X156865246Y-88199507D01*
X156859434Y-88176303D01*
X156855924Y-88152642D01*
X156854750Y-88128750D01*
X156854750Y-87641250D01*
X156855924Y-87617358D01*
X156859434Y-87593697D01*
X156865246Y-87570493D01*
X156873304Y-87547971D01*
X156883532Y-87526347D01*
X156895829Y-87505830D01*
X156910079Y-87486617D01*
X156926143Y-87468893D01*
X156943867Y-87452829D01*
X156963080Y-87438579D01*
X156983597Y-87426282D01*
X157005221Y-87416054D01*
X157027743Y-87407996D01*
X157050947Y-87402184D01*
X157074608Y-87398674D01*
X157098500Y-87397500D01*
X158011000Y-87397500D01*
X158034892Y-87398674D01*
G37*
G36*
X158034892Y-85523674D02*
G01*
X158058553Y-85527184D01*
X158081757Y-85532996D01*
X158104279Y-85541054D01*
X158125903Y-85551282D01*
X158146420Y-85563579D01*
X158165633Y-85577829D01*
X158183357Y-85593893D01*
X158199421Y-85611617D01*
X158213671Y-85630830D01*
X158225968Y-85651347D01*
X158236196Y-85672971D01*
X158244254Y-85695493D01*
X158250066Y-85718697D01*
X158253576Y-85742358D01*
X158254750Y-85766250D01*
X158254750Y-86253750D01*
X158253576Y-86277642D01*
X158250066Y-86301303D01*
X158244254Y-86324507D01*
X158236196Y-86347029D01*
X158225968Y-86368653D01*
X158213671Y-86389170D01*
X158199421Y-86408383D01*
X158183357Y-86426107D01*
X158165633Y-86442171D01*
X158146420Y-86456421D01*
X158125903Y-86468718D01*
X158104279Y-86478946D01*
X158081757Y-86487004D01*
X158058553Y-86492816D01*
X158034892Y-86496326D01*
X158011000Y-86497500D01*
X157098500Y-86497500D01*
X157074608Y-86496326D01*
X157050947Y-86492816D01*
X157027743Y-86487004D01*
X157005221Y-86478946D01*
X156983597Y-86468718D01*
X156963080Y-86456421D01*
X156943867Y-86442171D01*
X156926143Y-86426107D01*
X156910079Y-86408383D01*
X156895829Y-86389170D01*
X156883532Y-86368653D01*
X156873304Y-86347029D01*
X156865246Y-86324507D01*
X156859434Y-86301303D01*
X156855924Y-86277642D01*
X156854750Y-86253750D01*
X156854750Y-85766250D01*
X156855924Y-85742358D01*
X156859434Y-85718697D01*
X156865246Y-85695493D01*
X156873304Y-85672971D01*
X156883532Y-85651347D01*
X156895829Y-85630830D01*
X156910079Y-85611617D01*
X156926143Y-85593893D01*
X156943867Y-85577829D01*
X156963080Y-85563579D01*
X156983597Y-85551282D01*
X157005221Y-85541054D01*
X157027743Y-85532996D01*
X157050947Y-85527184D01*
X157074608Y-85523674D01*
X157098500Y-85522500D01*
X158011000Y-85522500D01*
X158034892Y-85523674D01*
G37*
D14*
X120210500Y-85727500D03*
X120210500Y-87627500D03*
X122310500Y-86677500D03*
X130280700Y-85727500D03*
X130280700Y-87627500D03*
X132380700Y-86677500D03*
X142335700Y-85717500D03*
X142335700Y-87617500D03*
X144435700Y-86667500D03*
D12*
G36*
X182598142Y-82142174D02*
G01*
X182621803Y-82145684D01*
X182645007Y-82151496D01*
X182667529Y-82159554D01*
X182689153Y-82169782D01*
X182709670Y-82182079D01*
X182728883Y-82196329D01*
X182746607Y-82212393D01*
X182762671Y-82230117D01*
X182776921Y-82249330D01*
X182789218Y-82269847D01*
X182799446Y-82291471D01*
X182807504Y-82313993D01*
X182813316Y-82337197D01*
X182816826Y-82360858D01*
X182818000Y-82384750D01*
X182818000Y-82872250D01*
X182816826Y-82896142D01*
X182813316Y-82919803D01*
X182807504Y-82943007D01*
X182799446Y-82965529D01*
X182789218Y-82987153D01*
X182776921Y-83007670D01*
X182762671Y-83026883D01*
X182746607Y-83044607D01*
X182728883Y-83060671D01*
X182709670Y-83074921D01*
X182689153Y-83087218D01*
X182667529Y-83097446D01*
X182645007Y-83105504D01*
X182621803Y-83111316D01*
X182598142Y-83114826D01*
X182574250Y-83116000D01*
X181661750Y-83116000D01*
X181637858Y-83114826D01*
X181614197Y-83111316D01*
X181590993Y-83105504D01*
X181568471Y-83097446D01*
X181546847Y-83087218D01*
X181526330Y-83074921D01*
X181507117Y-83060671D01*
X181489393Y-83044607D01*
X181473329Y-83026883D01*
X181459079Y-83007670D01*
X181446782Y-82987153D01*
X181436554Y-82965529D01*
X181428496Y-82943007D01*
X181422684Y-82919803D01*
X181419174Y-82896142D01*
X181418000Y-82872250D01*
X181418000Y-82384750D01*
X181419174Y-82360858D01*
X181422684Y-82337197D01*
X181428496Y-82313993D01*
X181436554Y-82291471D01*
X181446782Y-82269847D01*
X181459079Y-82249330D01*
X181473329Y-82230117D01*
X181489393Y-82212393D01*
X181507117Y-82196329D01*
X181526330Y-82182079D01*
X181546847Y-82169782D01*
X181568471Y-82159554D01*
X181590993Y-82151496D01*
X181614197Y-82145684D01*
X181637858Y-82142174D01*
X181661750Y-82141000D01*
X182574250Y-82141000D01*
X182598142Y-82142174D01*
G37*
G36*
X182598142Y-84017174D02*
G01*
X182621803Y-84020684D01*
X182645007Y-84026496D01*
X182667529Y-84034554D01*
X182689153Y-84044782D01*
X182709670Y-84057079D01*
X182728883Y-84071329D01*
X182746607Y-84087393D01*
X182762671Y-84105117D01*
X182776921Y-84124330D01*
X182789218Y-84144847D01*
X182799446Y-84166471D01*
X182807504Y-84188993D01*
X182813316Y-84212197D01*
X182816826Y-84235858D01*
X182818000Y-84259750D01*
X182818000Y-84747250D01*
X182816826Y-84771142D01*
X182813316Y-84794803D01*
X182807504Y-84818007D01*
X182799446Y-84840529D01*
X182789218Y-84862153D01*
X182776921Y-84882670D01*
X182762671Y-84901883D01*
X182746607Y-84919607D01*
X182728883Y-84935671D01*
X182709670Y-84949921D01*
X182689153Y-84962218D01*
X182667529Y-84972446D01*
X182645007Y-84980504D01*
X182621803Y-84986316D01*
X182598142Y-84989826D01*
X182574250Y-84991000D01*
X181661750Y-84991000D01*
X181637858Y-84989826D01*
X181614197Y-84986316D01*
X181590993Y-84980504D01*
X181568471Y-84972446D01*
X181546847Y-84962218D01*
X181526330Y-84949921D01*
X181507117Y-84935671D01*
X181489393Y-84919607D01*
X181473329Y-84901883D01*
X181459079Y-84882670D01*
X181446782Y-84862153D01*
X181436554Y-84840529D01*
X181428496Y-84818007D01*
X181422684Y-84794803D01*
X181419174Y-84771142D01*
X181418000Y-84747250D01*
X181418000Y-84259750D01*
X181419174Y-84235858D01*
X181422684Y-84212197D01*
X181428496Y-84188993D01*
X181436554Y-84166471D01*
X181446782Y-84144847D01*
X181459079Y-84124330D01*
X181473329Y-84105117D01*
X181489393Y-84087393D01*
X181507117Y-84071329D01*
X181526330Y-84057079D01*
X181546847Y-84044782D01*
X181568471Y-84034554D01*
X181590993Y-84026496D01*
X181614197Y-84020684D01*
X181637858Y-84017174D01*
X181661750Y-84016000D01*
X182574250Y-84016000D01*
X182598142Y-84017174D01*
G37*
G36*
X121413004Y-96101204D02*
G01*
X121437273Y-96104804D01*
X121461071Y-96110765D01*
X121484171Y-96119030D01*
X121506349Y-96129520D01*
X121527393Y-96142133D01*
X121547098Y-96156747D01*
X121565277Y-96173223D01*
X121581753Y-96191402D01*
X121596367Y-96211107D01*
X121608980Y-96232151D01*
X121619470Y-96254329D01*
X121627735Y-96277429D01*
X121633696Y-96301227D01*
X121637296Y-96325496D01*
X121638500Y-96350000D01*
X121638500Y-99250000D01*
X121637296Y-99274504D01*
X121633696Y-99298773D01*
X121627735Y-99322571D01*
X121619470Y-99345671D01*
X121608980Y-99367849D01*
X121596367Y-99388893D01*
X121581753Y-99408598D01*
X121565277Y-99426777D01*
X121547098Y-99443253D01*
X121527393Y-99457867D01*
X121506349Y-99470480D01*
X121484171Y-99480970D01*
X121461071Y-99489235D01*
X121437273Y-99495196D01*
X121413004Y-99498796D01*
X121388500Y-99500000D01*
X120388500Y-99500000D01*
X120363996Y-99498796D01*
X120339727Y-99495196D01*
X120315929Y-99489235D01*
X120292829Y-99480970D01*
X120270651Y-99470480D01*
X120249607Y-99457867D01*
X120229902Y-99443253D01*
X120211723Y-99426777D01*
X120195247Y-99408598D01*
X120180633Y-99388893D01*
X120168020Y-99367849D01*
X120157530Y-99345671D01*
X120149265Y-99322571D01*
X120143304Y-99298773D01*
X120139704Y-99274504D01*
X120138500Y-99250000D01*
X120138500Y-96350000D01*
X120139704Y-96325496D01*
X120143304Y-96301227D01*
X120149265Y-96277429D01*
X120157530Y-96254329D01*
X120168020Y-96232151D01*
X120180633Y-96211107D01*
X120195247Y-96191402D01*
X120211723Y-96173223D01*
X120229902Y-96156747D01*
X120249607Y-96142133D01*
X120270651Y-96129520D01*
X120292829Y-96119030D01*
X120315929Y-96110765D01*
X120339727Y-96104804D01*
X120363996Y-96101204D01*
X120388500Y-96100000D01*
X121388500Y-96100000D01*
X121413004Y-96101204D01*
G37*
G36*
X114713004Y-96101204D02*
G01*
X114737273Y-96104804D01*
X114761071Y-96110765D01*
X114784171Y-96119030D01*
X114806349Y-96129520D01*
X114827393Y-96142133D01*
X114847098Y-96156747D01*
X114865277Y-96173223D01*
X114881753Y-96191402D01*
X114896367Y-96211107D01*
X114908980Y-96232151D01*
X114919470Y-96254329D01*
X114927735Y-96277429D01*
X114933696Y-96301227D01*
X114937296Y-96325496D01*
X114938500Y-96350000D01*
X114938500Y-99250000D01*
X114937296Y-99274504D01*
X114933696Y-99298773D01*
X114927735Y-99322571D01*
X114919470Y-99345671D01*
X114908980Y-99367849D01*
X114896367Y-99388893D01*
X114881753Y-99408598D01*
X114865277Y-99426777D01*
X114847098Y-99443253D01*
X114827393Y-99457867D01*
X114806349Y-99470480D01*
X114784171Y-99480970D01*
X114761071Y-99489235D01*
X114737273Y-99495196D01*
X114713004Y-99498796D01*
X114688500Y-99500000D01*
X113688500Y-99500000D01*
X113663996Y-99498796D01*
X113639727Y-99495196D01*
X113615929Y-99489235D01*
X113592829Y-99480970D01*
X113570651Y-99470480D01*
X113549607Y-99457867D01*
X113529902Y-99443253D01*
X113511723Y-99426777D01*
X113495247Y-99408598D01*
X113480633Y-99388893D01*
X113468020Y-99367849D01*
X113457530Y-99345671D01*
X113449265Y-99322571D01*
X113443304Y-99298773D01*
X113439704Y-99274504D01*
X113438500Y-99250000D01*
X113438500Y-96350000D01*
X113439704Y-96325496D01*
X113443304Y-96301227D01*
X113449265Y-96277429D01*
X113457530Y-96254329D01*
X113468020Y-96232151D01*
X113480633Y-96211107D01*
X113495247Y-96191402D01*
X113511723Y-96173223D01*
X113529902Y-96156747D01*
X113549607Y-96142133D01*
X113570651Y-96129520D01*
X113592829Y-96119030D01*
X113615929Y-96110765D01*
X113639727Y-96104804D01*
X113663996Y-96101204D01*
X113688500Y-96100000D01*
X114688500Y-96100000D01*
X114713004Y-96101204D01*
G37*
G36*
X118813004Y-90301204D02*
G01*
X118837273Y-90304804D01*
X118861071Y-90310765D01*
X118884171Y-90319030D01*
X118906349Y-90329520D01*
X118927393Y-90342133D01*
X118947098Y-90356747D01*
X118965277Y-90373223D01*
X118981753Y-90391402D01*
X118996367Y-90411107D01*
X119008980Y-90432151D01*
X119019470Y-90454329D01*
X119027735Y-90477429D01*
X119033696Y-90501227D01*
X119037296Y-90525496D01*
X119038500Y-90550000D01*
X119038500Y-93550000D01*
X119037296Y-93574504D01*
X119033696Y-93598773D01*
X119027735Y-93622571D01*
X119019470Y-93645671D01*
X119008980Y-93667849D01*
X118996367Y-93688893D01*
X118981753Y-93708598D01*
X118965277Y-93726777D01*
X118947098Y-93743253D01*
X118927393Y-93757867D01*
X118906349Y-93770480D01*
X118884171Y-93780970D01*
X118861071Y-93789235D01*
X118837273Y-93795196D01*
X118813004Y-93798796D01*
X118788500Y-93800000D01*
X118288500Y-93800000D01*
X118263996Y-93798796D01*
X118239727Y-93795196D01*
X118215929Y-93789235D01*
X118192829Y-93780970D01*
X118170651Y-93770480D01*
X118149607Y-93757867D01*
X118129902Y-93743253D01*
X118111723Y-93726777D01*
X118095247Y-93708598D01*
X118080633Y-93688893D01*
X118068020Y-93667849D01*
X118057530Y-93645671D01*
X118049265Y-93622571D01*
X118043304Y-93598773D01*
X118039704Y-93574504D01*
X118038500Y-93550000D01*
X118038500Y-90550000D01*
X118039704Y-90525496D01*
X118043304Y-90501227D01*
X118049265Y-90477429D01*
X118057530Y-90454329D01*
X118068020Y-90432151D01*
X118080633Y-90411107D01*
X118095247Y-90391402D01*
X118111723Y-90373223D01*
X118129902Y-90356747D01*
X118149607Y-90342133D01*
X118170651Y-90329520D01*
X118192829Y-90319030D01*
X118215929Y-90310765D01*
X118239727Y-90304804D01*
X118263996Y-90301204D01*
X118288500Y-90300000D01*
X118788500Y-90300000D01*
X118813004Y-90301204D01*
G37*
G36*
X116813004Y-90301204D02*
G01*
X116837273Y-90304804D01*
X116861071Y-90310765D01*
X116884171Y-90319030D01*
X116906349Y-90329520D01*
X116927393Y-90342133D01*
X116947098Y-90356747D01*
X116965277Y-90373223D01*
X116981753Y-90391402D01*
X116996367Y-90411107D01*
X117008980Y-90432151D01*
X117019470Y-90454329D01*
X117027735Y-90477429D01*
X117033696Y-90501227D01*
X117037296Y-90525496D01*
X117038500Y-90550000D01*
X117038500Y-93550000D01*
X117037296Y-93574504D01*
X117033696Y-93598773D01*
X117027735Y-93622571D01*
X117019470Y-93645671D01*
X117008980Y-93667849D01*
X116996367Y-93688893D01*
X116981753Y-93708598D01*
X116965277Y-93726777D01*
X116947098Y-93743253D01*
X116927393Y-93757867D01*
X116906349Y-93770480D01*
X116884171Y-93780970D01*
X116861071Y-93789235D01*
X116837273Y-93795196D01*
X116813004Y-93798796D01*
X116788500Y-93800000D01*
X116288500Y-93800000D01*
X116263996Y-93798796D01*
X116239727Y-93795196D01*
X116215929Y-93789235D01*
X116192829Y-93780970D01*
X116170651Y-93770480D01*
X116149607Y-93757867D01*
X116129902Y-93743253D01*
X116111723Y-93726777D01*
X116095247Y-93708598D01*
X116080633Y-93688893D01*
X116068020Y-93667849D01*
X116057530Y-93645671D01*
X116049265Y-93622571D01*
X116043304Y-93598773D01*
X116039704Y-93574504D01*
X116038500Y-93550000D01*
X116038500Y-90550000D01*
X116039704Y-90525496D01*
X116043304Y-90501227D01*
X116049265Y-90477429D01*
X116057530Y-90454329D01*
X116068020Y-90432151D01*
X116080633Y-90411107D01*
X116095247Y-90391402D01*
X116111723Y-90373223D01*
X116129902Y-90356747D01*
X116149607Y-90342133D01*
X116170651Y-90329520D01*
X116192829Y-90319030D01*
X116215929Y-90310765D01*
X116239727Y-90304804D01*
X116263996Y-90301204D01*
X116288500Y-90300000D01*
X116788500Y-90300000D01*
X116813004Y-90301204D01*
G37*
D15*
X179064000Y-86936000D03*
X179864000Y-86936000D03*
X180664000Y-86936000D03*
X181464000Y-86936000D03*
X182264000Y-86936000D03*
X183064000Y-86936000D03*
X183864000Y-86936000D03*
X184664000Y-86936000D03*
D16*
X186114000Y-88386000D03*
X186114000Y-89186000D03*
X186114000Y-89986000D03*
X186114000Y-90786000D03*
X186114000Y-91586000D03*
X186114000Y-92386000D03*
X186114000Y-93186000D03*
X186114000Y-93986000D03*
D15*
X184664000Y-95436000D03*
X183864000Y-95436000D03*
X183064000Y-95436000D03*
X182264000Y-95436000D03*
X181464000Y-95436000D03*
X180664000Y-95436000D03*
X179864000Y-95436000D03*
X179064000Y-95436000D03*
D16*
X177614000Y-93986000D03*
X177614000Y-93186000D03*
X177614000Y-92386000D03*
X177614000Y-91586000D03*
X177614000Y-90786000D03*
X177614000Y-89986000D03*
X177614000Y-89186000D03*
X177614000Y-88386000D03*
D17*
X146975000Y-79082000D03*
X152225000Y-79082000D03*
X152225000Y-77382000D03*
X146975000Y-77382000D03*
D12*
G36*
X159599104Y-96101204D02*
G01*
X159623373Y-96104804D01*
X159647171Y-96110765D01*
X159670271Y-96119030D01*
X159692449Y-96129520D01*
X159713493Y-96142133D01*
X159733198Y-96156747D01*
X159751377Y-96173223D01*
X159767853Y-96191402D01*
X159782467Y-96211107D01*
X159795080Y-96232151D01*
X159805570Y-96254329D01*
X159813835Y-96277429D01*
X159819796Y-96301227D01*
X159823396Y-96325496D01*
X159824600Y-96350000D01*
X159824600Y-99250000D01*
X159823396Y-99274504D01*
X159819796Y-99298773D01*
X159813835Y-99322571D01*
X159805570Y-99345671D01*
X159795080Y-99367849D01*
X159782467Y-99388893D01*
X159767853Y-99408598D01*
X159751377Y-99426777D01*
X159733198Y-99443253D01*
X159713493Y-99457867D01*
X159692449Y-99470480D01*
X159670271Y-99480970D01*
X159647171Y-99489235D01*
X159623373Y-99495196D01*
X159599104Y-99498796D01*
X159574600Y-99500000D01*
X158574600Y-99500000D01*
X158550096Y-99498796D01*
X158525827Y-99495196D01*
X158502029Y-99489235D01*
X158478929Y-99480970D01*
X158456751Y-99470480D01*
X158435707Y-99457867D01*
X158416002Y-99443253D01*
X158397823Y-99426777D01*
X158381347Y-99408598D01*
X158366733Y-99388893D01*
X158354120Y-99367849D01*
X158343630Y-99345671D01*
X158335365Y-99322571D01*
X158329404Y-99298773D01*
X158325804Y-99274504D01*
X158324600Y-99250000D01*
X158324600Y-96350000D01*
X158325804Y-96325496D01*
X158329404Y-96301227D01*
X158335365Y-96277429D01*
X158343630Y-96254329D01*
X158354120Y-96232151D01*
X158366733Y-96211107D01*
X158381347Y-96191402D01*
X158397823Y-96173223D01*
X158416002Y-96156747D01*
X158435707Y-96142133D01*
X158456751Y-96129520D01*
X158478929Y-96119030D01*
X158502029Y-96110765D01*
X158525827Y-96104804D01*
X158550096Y-96101204D01*
X158574600Y-96100000D01*
X159574600Y-96100000D01*
X159599104Y-96101204D01*
G37*
G36*
X148899104Y-96101204D02*
G01*
X148923373Y-96104804D01*
X148947171Y-96110765D01*
X148970271Y-96119030D01*
X148992449Y-96129520D01*
X149013493Y-96142133D01*
X149033198Y-96156747D01*
X149051377Y-96173223D01*
X149067853Y-96191402D01*
X149082467Y-96211107D01*
X149095080Y-96232151D01*
X149105570Y-96254329D01*
X149113835Y-96277429D01*
X149119796Y-96301227D01*
X149123396Y-96325496D01*
X149124600Y-96350000D01*
X149124600Y-99250000D01*
X149123396Y-99274504D01*
X149119796Y-99298773D01*
X149113835Y-99322571D01*
X149105570Y-99345671D01*
X149095080Y-99367849D01*
X149082467Y-99388893D01*
X149067853Y-99408598D01*
X149051377Y-99426777D01*
X149033198Y-99443253D01*
X149013493Y-99457867D01*
X148992449Y-99470480D01*
X148970271Y-99480970D01*
X148947171Y-99489235D01*
X148923373Y-99495196D01*
X148899104Y-99498796D01*
X148874600Y-99500000D01*
X147874600Y-99500000D01*
X147850096Y-99498796D01*
X147825827Y-99495196D01*
X147802029Y-99489235D01*
X147778929Y-99480970D01*
X147756751Y-99470480D01*
X147735707Y-99457867D01*
X147716002Y-99443253D01*
X147697823Y-99426777D01*
X147681347Y-99408598D01*
X147666733Y-99388893D01*
X147654120Y-99367849D01*
X147643630Y-99345671D01*
X147635365Y-99322571D01*
X147629404Y-99298773D01*
X147625804Y-99274504D01*
X147624600Y-99250000D01*
X147624600Y-96350000D01*
X147625804Y-96325496D01*
X147629404Y-96301227D01*
X147635365Y-96277429D01*
X147643630Y-96254329D01*
X147654120Y-96232151D01*
X147666733Y-96211107D01*
X147681347Y-96191402D01*
X147697823Y-96173223D01*
X147716002Y-96156747D01*
X147735707Y-96142133D01*
X147756751Y-96129520D01*
X147778929Y-96119030D01*
X147802029Y-96110765D01*
X147825827Y-96104804D01*
X147850096Y-96101204D01*
X147874600Y-96100000D01*
X148874600Y-96100000D01*
X148899104Y-96101204D01*
G37*
G36*
X156999104Y-90301204D02*
G01*
X157023373Y-90304804D01*
X157047171Y-90310765D01*
X157070271Y-90319030D01*
X157092449Y-90329520D01*
X157113493Y-90342133D01*
X157133198Y-90356747D01*
X157151377Y-90373223D01*
X157167853Y-90391402D01*
X157182467Y-90411107D01*
X157195080Y-90432151D01*
X157205570Y-90454329D01*
X157213835Y-90477429D01*
X157219796Y-90501227D01*
X157223396Y-90525496D01*
X157224600Y-90550000D01*
X157224600Y-93550000D01*
X157223396Y-93574504D01*
X157219796Y-93598773D01*
X157213835Y-93622571D01*
X157205570Y-93645671D01*
X157195080Y-93667849D01*
X157182467Y-93688893D01*
X157167853Y-93708598D01*
X157151377Y-93726777D01*
X157133198Y-93743253D01*
X157113493Y-93757867D01*
X157092449Y-93770480D01*
X157070271Y-93780970D01*
X157047171Y-93789235D01*
X157023373Y-93795196D01*
X156999104Y-93798796D01*
X156974600Y-93800000D01*
X156474600Y-93800000D01*
X156450096Y-93798796D01*
X156425827Y-93795196D01*
X156402029Y-93789235D01*
X156378929Y-93780970D01*
X156356751Y-93770480D01*
X156335707Y-93757867D01*
X156316002Y-93743253D01*
X156297823Y-93726777D01*
X156281347Y-93708598D01*
X156266733Y-93688893D01*
X156254120Y-93667849D01*
X156243630Y-93645671D01*
X156235365Y-93622571D01*
X156229404Y-93598773D01*
X156225804Y-93574504D01*
X156224600Y-93550000D01*
X156224600Y-90550000D01*
X156225804Y-90525496D01*
X156229404Y-90501227D01*
X156235365Y-90477429D01*
X156243630Y-90454329D01*
X156254120Y-90432151D01*
X156266733Y-90411107D01*
X156281347Y-90391402D01*
X156297823Y-90373223D01*
X156316002Y-90356747D01*
X156335707Y-90342133D01*
X156356751Y-90329520D01*
X156378929Y-90319030D01*
X156402029Y-90310765D01*
X156425827Y-90304804D01*
X156450096Y-90301204D01*
X156474600Y-90300000D01*
X156974600Y-90300000D01*
X156999104Y-90301204D01*
G37*
G36*
X154999104Y-90301204D02*
G01*
X155023373Y-90304804D01*
X155047171Y-90310765D01*
X155070271Y-90319030D01*
X155092449Y-90329520D01*
X155113493Y-90342133D01*
X155133198Y-90356747D01*
X155151377Y-90373223D01*
X155167853Y-90391402D01*
X155182467Y-90411107D01*
X155195080Y-90432151D01*
X155205570Y-90454329D01*
X155213835Y-90477429D01*
X155219796Y-90501227D01*
X155223396Y-90525496D01*
X155224600Y-90550000D01*
X155224600Y-93550000D01*
X155223396Y-93574504D01*
X155219796Y-93598773D01*
X155213835Y-93622571D01*
X155205570Y-93645671D01*
X155195080Y-93667849D01*
X155182467Y-93688893D01*
X155167853Y-93708598D01*
X155151377Y-93726777D01*
X155133198Y-93743253D01*
X155113493Y-93757867D01*
X155092449Y-93770480D01*
X155070271Y-93780970D01*
X155047171Y-93789235D01*
X155023373Y-93795196D01*
X154999104Y-93798796D01*
X154974600Y-93800000D01*
X154474600Y-93800000D01*
X154450096Y-93798796D01*
X154425827Y-93795196D01*
X154402029Y-93789235D01*
X154378929Y-93780970D01*
X154356751Y-93770480D01*
X154335707Y-93757867D01*
X154316002Y-93743253D01*
X154297823Y-93726777D01*
X154281347Y-93708598D01*
X154266733Y-93688893D01*
X154254120Y-93667849D01*
X154243630Y-93645671D01*
X154235365Y-93622571D01*
X154229404Y-93598773D01*
X154225804Y-93574504D01*
X154224600Y-93550000D01*
X154224600Y-90550000D01*
X154225804Y-90525496D01*
X154229404Y-90501227D01*
X154235365Y-90477429D01*
X154243630Y-90454329D01*
X154254120Y-90432151D01*
X154266733Y-90411107D01*
X154281347Y-90391402D01*
X154297823Y-90373223D01*
X154316002Y-90356747D01*
X154335707Y-90342133D01*
X154356751Y-90329520D01*
X154378929Y-90319030D01*
X154402029Y-90310765D01*
X154425827Y-90304804D01*
X154450096Y-90301204D01*
X154474600Y-90300000D01*
X154974600Y-90300000D01*
X154999104Y-90301204D01*
G37*
G36*
X152999104Y-90301204D02*
G01*
X153023373Y-90304804D01*
X153047171Y-90310765D01*
X153070271Y-90319030D01*
X153092449Y-90329520D01*
X153113493Y-90342133D01*
X153133198Y-90356747D01*
X153151377Y-90373223D01*
X153167853Y-90391402D01*
X153182467Y-90411107D01*
X153195080Y-90432151D01*
X153205570Y-90454329D01*
X153213835Y-90477429D01*
X153219796Y-90501227D01*
X153223396Y-90525496D01*
X153224600Y-90550000D01*
X153224600Y-93550000D01*
X153223396Y-93574504D01*
X153219796Y-93598773D01*
X153213835Y-93622571D01*
X153205570Y-93645671D01*
X153195080Y-93667849D01*
X153182467Y-93688893D01*
X153167853Y-93708598D01*
X153151377Y-93726777D01*
X153133198Y-93743253D01*
X153113493Y-93757867D01*
X153092449Y-93770480D01*
X153070271Y-93780970D01*
X153047171Y-93789235D01*
X153023373Y-93795196D01*
X152999104Y-93798796D01*
X152974600Y-93800000D01*
X152474600Y-93800000D01*
X152450096Y-93798796D01*
X152425827Y-93795196D01*
X152402029Y-93789235D01*
X152378929Y-93780970D01*
X152356751Y-93770480D01*
X152335707Y-93757867D01*
X152316002Y-93743253D01*
X152297823Y-93726777D01*
X152281347Y-93708598D01*
X152266733Y-93688893D01*
X152254120Y-93667849D01*
X152243630Y-93645671D01*
X152235365Y-93622571D01*
X152229404Y-93598773D01*
X152225804Y-93574504D01*
X152224600Y-93550000D01*
X152224600Y-90550000D01*
X152225804Y-90525496D01*
X152229404Y-90501227D01*
X152235365Y-90477429D01*
X152243630Y-90454329D01*
X152254120Y-90432151D01*
X152266733Y-90411107D01*
X152281347Y-90391402D01*
X152297823Y-90373223D01*
X152316002Y-90356747D01*
X152335707Y-90342133D01*
X152356751Y-90329520D01*
X152378929Y-90319030D01*
X152402029Y-90310765D01*
X152425827Y-90304804D01*
X152450096Y-90301204D01*
X152474600Y-90300000D01*
X152974600Y-90300000D01*
X152999104Y-90301204D01*
G37*
G36*
X150999104Y-90301204D02*
G01*
X151023373Y-90304804D01*
X151047171Y-90310765D01*
X151070271Y-90319030D01*
X151092449Y-90329520D01*
X151113493Y-90342133D01*
X151133198Y-90356747D01*
X151151377Y-90373223D01*
X151167853Y-90391402D01*
X151182467Y-90411107D01*
X151195080Y-90432151D01*
X151205570Y-90454329D01*
X151213835Y-90477429D01*
X151219796Y-90501227D01*
X151223396Y-90525496D01*
X151224600Y-90550000D01*
X151224600Y-93550000D01*
X151223396Y-93574504D01*
X151219796Y-93598773D01*
X151213835Y-93622571D01*
X151205570Y-93645671D01*
X151195080Y-93667849D01*
X151182467Y-93688893D01*
X151167853Y-93708598D01*
X151151377Y-93726777D01*
X151133198Y-93743253D01*
X151113493Y-93757867D01*
X151092449Y-93770480D01*
X151070271Y-93780970D01*
X151047171Y-93789235D01*
X151023373Y-93795196D01*
X150999104Y-93798796D01*
X150974600Y-93800000D01*
X150474600Y-93800000D01*
X150450096Y-93798796D01*
X150425827Y-93795196D01*
X150402029Y-93789235D01*
X150378929Y-93780970D01*
X150356751Y-93770480D01*
X150335707Y-93757867D01*
X150316002Y-93743253D01*
X150297823Y-93726777D01*
X150281347Y-93708598D01*
X150266733Y-93688893D01*
X150254120Y-93667849D01*
X150243630Y-93645671D01*
X150235365Y-93622571D01*
X150229404Y-93598773D01*
X150225804Y-93574504D01*
X150224600Y-93550000D01*
X150224600Y-90550000D01*
X150225804Y-90525496D01*
X150229404Y-90501227D01*
X150235365Y-90477429D01*
X150243630Y-90454329D01*
X150254120Y-90432151D01*
X150266733Y-90411107D01*
X150281347Y-90391402D01*
X150297823Y-90373223D01*
X150316002Y-90356747D01*
X150335707Y-90342133D01*
X150356751Y-90329520D01*
X150378929Y-90319030D01*
X150402029Y-90310765D01*
X150425827Y-90304804D01*
X150450096Y-90301204D01*
X150474600Y-90300000D01*
X150974600Y-90300000D01*
X150999104Y-90301204D01*
G37*
G36*
X133475037Y-96101204D02*
G01*
X133499306Y-96104804D01*
X133523104Y-96110765D01*
X133546204Y-96119030D01*
X133568382Y-96129520D01*
X133589426Y-96142133D01*
X133609131Y-96156747D01*
X133627310Y-96173223D01*
X133643786Y-96191402D01*
X133658400Y-96211107D01*
X133671013Y-96232151D01*
X133681503Y-96254329D01*
X133689768Y-96277429D01*
X133695729Y-96301227D01*
X133699329Y-96325496D01*
X133700533Y-96350000D01*
X133700533Y-99250000D01*
X133699329Y-99274504D01*
X133695729Y-99298773D01*
X133689768Y-99322571D01*
X133681503Y-99345671D01*
X133671013Y-99367849D01*
X133658400Y-99388893D01*
X133643786Y-99408598D01*
X133627310Y-99426777D01*
X133609131Y-99443253D01*
X133589426Y-99457867D01*
X133568382Y-99470480D01*
X133546204Y-99480970D01*
X133523104Y-99489235D01*
X133499306Y-99495196D01*
X133475037Y-99498796D01*
X133450533Y-99500000D01*
X132450533Y-99500000D01*
X132426029Y-99498796D01*
X132401760Y-99495196D01*
X132377962Y-99489235D01*
X132354862Y-99480970D01*
X132332684Y-99470480D01*
X132311640Y-99457867D01*
X132291935Y-99443253D01*
X132273756Y-99426777D01*
X132257280Y-99408598D01*
X132242666Y-99388893D01*
X132230053Y-99367849D01*
X132219563Y-99345671D01*
X132211298Y-99322571D01*
X132205337Y-99298773D01*
X132201737Y-99274504D01*
X132200533Y-99250000D01*
X132200533Y-96350000D01*
X132201737Y-96325496D01*
X132205337Y-96301227D01*
X132211298Y-96277429D01*
X132219563Y-96254329D01*
X132230053Y-96232151D01*
X132242666Y-96211107D01*
X132257280Y-96191402D01*
X132273756Y-96173223D01*
X132291935Y-96156747D01*
X132311640Y-96142133D01*
X132332684Y-96129520D01*
X132354862Y-96119030D01*
X132377962Y-96110765D01*
X132401760Y-96104804D01*
X132426029Y-96101204D01*
X132450533Y-96100000D01*
X133450533Y-96100000D01*
X133475037Y-96101204D01*
G37*
G36*
X124775037Y-96101204D02*
G01*
X124799306Y-96104804D01*
X124823104Y-96110765D01*
X124846204Y-96119030D01*
X124868382Y-96129520D01*
X124889426Y-96142133D01*
X124909131Y-96156747D01*
X124927310Y-96173223D01*
X124943786Y-96191402D01*
X124958400Y-96211107D01*
X124971013Y-96232151D01*
X124981503Y-96254329D01*
X124989768Y-96277429D01*
X124995729Y-96301227D01*
X124999329Y-96325496D01*
X125000533Y-96350000D01*
X125000533Y-99250000D01*
X124999329Y-99274504D01*
X124995729Y-99298773D01*
X124989768Y-99322571D01*
X124981503Y-99345671D01*
X124971013Y-99367849D01*
X124958400Y-99388893D01*
X124943786Y-99408598D01*
X124927310Y-99426777D01*
X124909131Y-99443253D01*
X124889426Y-99457867D01*
X124868382Y-99470480D01*
X124846204Y-99480970D01*
X124823104Y-99489235D01*
X124799306Y-99495196D01*
X124775037Y-99498796D01*
X124750533Y-99500000D01*
X123750533Y-99500000D01*
X123726029Y-99498796D01*
X123701760Y-99495196D01*
X123677962Y-99489235D01*
X123654862Y-99480970D01*
X123632684Y-99470480D01*
X123611640Y-99457867D01*
X123591935Y-99443253D01*
X123573756Y-99426777D01*
X123557280Y-99408598D01*
X123542666Y-99388893D01*
X123530053Y-99367849D01*
X123519563Y-99345671D01*
X123511298Y-99322571D01*
X123505337Y-99298773D01*
X123501737Y-99274504D01*
X123500533Y-99250000D01*
X123500533Y-96350000D01*
X123501737Y-96325496D01*
X123505337Y-96301227D01*
X123511298Y-96277429D01*
X123519563Y-96254329D01*
X123530053Y-96232151D01*
X123542666Y-96211107D01*
X123557280Y-96191402D01*
X123573756Y-96173223D01*
X123591935Y-96156747D01*
X123611640Y-96142133D01*
X123632684Y-96129520D01*
X123654862Y-96119030D01*
X123677962Y-96110765D01*
X123701760Y-96104804D01*
X123726029Y-96101204D01*
X123750533Y-96100000D01*
X124750533Y-96100000D01*
X124775037Y-96101204D01*
G37*
G36*
X130875037Y-90301204D02*
G01*
X130899306Y-90304804D01*
X130923104Y-90310765D01*
X130946204Y-90319030D01*
X130968382Y-90329520D01*
X130989426Y-90342133D01*
X131009131Y-90356747D01*
X131027310Y-90373223D01*
X131043786Y-90391402D01*
X131058400Y-90411107D01*
X131071013Y-90432151D01*
X131081503Y-90454329D01*
X131089768Y-90477429D01*
X131095729Y-90501227D01*
X131099329Y-90525496D01*
X131100533Y-90550000D01*
X131100533Y-93550000D01*
X131099329Y-93574504D01*
X131095729Y-93598773D01*
X131089768Y-93622571D01*
X131081503Y-93645671D01*
X131071013Y-93667849D01*
X131058400Y-93688893D01*
X131043786Y-93708598D01*
X131027310Y-93726777D01*
X131009131Y-93743253D01*
X130989426Y-93757867D01*
X130968382Y-93770480D01*
X130946204Y-93780970D01*
X130923104Y-93789235D01*
X130899306Y-93795196D01*
X130875037Y-93798796D01*
X130850533Y-93800000D01*
X130350533Y-93800000D01*
X130326029Y-93798796D01*
X130301760Y-93795196D01*
X130277962Y-93789235D01*
X130254862Y-93780970D01*
X130232684Y-93770480D01*
X130211640Y-93757867D01*
X130191935Y-93743253D01*
X130173756Y-93726777D01*
X130157280Y-93708598D01*
X130142666Y-93688893D01*
X130130053Y-93667849D01*
X130119563Y-93645671D01*
X130111298Y-93622571D01*
X130105337Y-93598773D01*
X130101737Y-93574504D01*
X130100533Y-93550000D01*
X130100533Y-90550000D01*
X130101737Y-90525496D01*
X130105337Y-90501227D01*
X130111298Y-90477429D01*
X130119563Y-90454329D01*
X130130053Y-90432151D01*
X130142666Y-90411107D01*
X130157280Y-90391402D01*
X130173756Y-90373223D01*
X130191935Y-90356747D01*
X130211640Y-90342133D01*
X130232684Y-90329520D01*
X130254862Y-90319030D01*
X130277962Y-90310765D01*
X130301760Y-90304804D01*
X130326029Y-90301204D01*
X130350533Y-90300000D01*
X130850533Y-90300000D01*
X130875037Y-90301204D01*
G37*
G36*
X128875037Y-90301204D02*
G01*
X128899306Y-90304804D01*
X128923104Y-90310765D01*
X128946204Y-90319030D01*
X128968382Y-90329520D01*
X128989426Y-90342133D01*
X129009131Y-90356747D01*
X129027310Y-90373223D01*
X129043786Y-90391402D01*
X129058400Y-90411107D01*
X129071013Y-90432151D01*
X129081503Y-90454329D01*
X129089768Y-90477429D01*
X129095729Y-90501227D01*
X129099329Y-90525496D01*
X129100533Y-90550000D01*
X129100533Y-93550000D01*
X129099329Y-93574504D01*
X129095729Y-93598773D01*
X129089768Y-93622571D01*
X129081503Y-93645671D01*
X129071013Y-93667849D01*
X129058400Y-93688893D01*
X129043786Y-93708598D01*
X129027310Y-93726777D01*
X129009131Y-93743253D01*
X128989426Y-93757867D01*
X128968382Y-93770480D01*
X128946204Y-93780970D01*
X128923104Y-93789235D01*
X128899306Y-93795196D01*
X128875037Y-93798796D01*
X128850533Y-93800000D01*
X128350533Y-93800000D01*
X128326029Y-93798796D01*
X128301760Y-93795196D01*
X128277962Y-93789235D01*
X128254862Y-93780970D01*
X128232684Y-93770480D01*
X128211640Y-93757867D01*
X128191935Y-93743253D01*
X128173756Y-93726777D01*
X128157280Y-93708598D01*
X128142666Y-93688893D01*
X128130053Y-93667849D01*
X128119563Y-93645671D01*
X128111298Y-93622571D01*
X128105337Y-93598773D01*
X128101737Y-93574504D01*
X128100533Y-93550000D01*
X128100533Y-90550000D01*
X128101737Y-90525496D01*
X128105337Y-90501227D01*
X128111298Y-90477429D01*
X128119563Y-90454329D01*
X128130053Y-90432151D01*
X128142666Y-90411107D01*
X128157280Y-90391402D01*
X128173756Y-90373223D01*
X128191935Y-90356747D01*
X128211640Y-90342133D01*
X128232684Y-90329520D01*
X128254862Y-90319030D01*
X128277962Y-90310765D01*
X128301760Y-90304804D01*
X128326029Y-90301204D01*
X128350533Y-90300000D01*
X128850533Y-90300000D01*
X128875037Y-90301204D01*
G37*
G36*
X126875037Y-90301204D02*
G01*
X126899306Y-90304804D01*
X126923104Y-90310765D01*
X126946204Y-90319030D01*
X126968382Y-90329520D01*
X126989426Y-90342133D01*
X127009131Y-90356747D01*
X127027310Y-90373223D01*
X127043786Y-90391402D01*
X127058400Y-90411107D01*
X127071013Y-90432151D01*
X127081503Y-90454329D01*
X127089768Y-90477429D01*
X127095729Y-90501227D01*
X127099329Y-90525496D01*
X127100533Y-90550000D01*
X127100533Y-93550000D01*
X127099329Y-93574504D01*
X127095729Y-93598773D01*
X127089768Y-93622571D01*
X127081503Y-93645671D01*
X127071013Y-93667849D01*
X127058400Y-93688893D01*
X127043786Y-93708598D01*
X127027310Y-93726777D01*
X127009131Y-93743253D01*
X126989426Y-93757867D01*
X126968382Y-93770480D01*
X126946204Y-93780970D01*
X126923104Y-93789235D01*
X126899306Y-93795196D01*
X126875037Y-93798796D01*
X126850533Y-93800000D01*
X126350533Y-93800000D01*
X126326029Y-93798796D01*
X126301760Y-93795196D01*
X126277962Y-93789235D01*
X126254862Y-93780970D01*
X126232684Y-93770480D01*
X126211640Y-93757867D01*
X126191935Y-93743253D01*
X126173756Y-93726777D01*
X126157280Y-93708598D01*
X126142666Y-93688893D01*
X126130053Y-93667849D01*
X126119563Y-93645671D01*
X126111298Y-93622571D01*
X126105337Y-93598773D01*
X126101737Y-93574504D01*
X126100533Y-93550000D01*
X126100533Y-90550000D01*
X126101737Y-90525496D01*
X126105337Y-90501227D01*
X126111298Y-90477429D01*
X126119563Y-90454329D01*
X126130053Y-90432151D01*
X126142666Y-90411107D01*
X126157280Y-90391402D01*
X126173756Y-90373223D01*
X126191935Y-90356747D01*
X126211640Y-90342133D01*
X126232684Y-90329520D01*
X126254862Y-90319030D01*
X126277962Y-90310765D01*
X126301760Y-90304804D01*
X126326029Y-90301204D01*
X126350533Y-90300000D01*
X126850533Y-90300000D01*
X126875037Y-90301204D01*
G37*
G36*
X145537070Y-96101204D02*
G01*
X145561339Y-96104804D01*
X145585137Y-96110765D01*
X145608237Y-96119030D01*
X145630415Y-96129520D01*
X145651459Y-96142133D01*
X145671164Y-96156747D01*
X145689343Y-96173223D01*
X145705819Y-96191402D01*
X145720433Y-96211107D01*
X145733046Y-96232151D01*
X145743536Y-96254329D01*
X145751801Y-96277429D01*
X145757762Y-96301227D01*
X145761362Y-96325496D01*
X145762566Y-96350000D01*
X145762566Y-99250000D01*
X145761362Y-99274504D01*
X145757762Y-99298773D01*
X145751801Y-99322571D01*
X145743536Y-99345671D01*
X145733046Y-99367849D01*
X145720433Y-99388893D01*
X145705819Y-99408598D01*
X145689343Y-99426777D01*
X145671164Y-99443253D01*
X145651459Y-99457867D01*
X145630415Y-99470480D01*
X145608237Y-99480970D01*
X145585137Y-99489235D01*
X145561339Y-99495196D01*
X145537070Y-99498796D01*
X145512566Y-99500000D01*
X144512566Y-99500000D01*
X144488062Y-99498796D01*
X144463793Y-99495196D01*
X144439995Y-99489235D01*
X144416895Y-99480970D01*
X144394717Y-99470480D01*
X144373673Y-99457867D01*
X144353968Y-99443253D01*
X144335789Y-99426777D01*
X144319313Y-99408598D01*
X144304699Y-99388893D01*
X144292086Y-99367849D01*
X144281596Y-99345671D01*
X144273331Y-99322571D01*
X144267370Y-99298773D01*
X144263770Y-99274504D01*
X144262566Y-99250000D01*
X144262566Y-96350000D01*
X144263770Y-96325496D01*
X144267370Y-96301227D01*
X144273331Y-96277429D01*
X144281596Y-96254329D01*
X144292086Y-96232151D01*
X144304699Y-96211107D01*
X144319313Y-96191402D01*
X144335789Y-96173223D01*
X144353968Y-96156747D01*
X144373673Y-96142133D01*
X144394717Y-96129520D01*
X144416895Y-96119030D01*
X144439995Y-96110765D01*
X144463793Y-96104804D01*
X144488062Y-96101204D01*
X144512566Y-96100000D01*
X145512566Y-96100000D01*
X145537070Y-96101204D01*
G37*
G36*
X136837070Y-96101204D02*
G01*
X136861339Y-96104804D01*
X136885137Y-96110765D01*
X136908237Y-96119030D01*
X136930415Y-96129520D01*
X136951459Y-96142133D01*
X136971164Y-96156747D01*
X136989343Y-96173223D01*
X137005819Y-96191402D01*
X137020433Y-96211107D01*
X137033046Y-96232151D01*
X137043536Y-96254329D01*
X137051801Y-96277429D01*
X137057762Y-96301227D01*
X137061362Y-96325496D01*
X137062566Y-96350000D01*
X137062566Y-99250000D01*
X137061362Y-99274504D01*
X137057762Y-99298773D01*
X137051801Y-99322571D01*
X137043536Y-99345671D01*
X137033046Y-99367849D01*
X137020433Y-99388893D01*
X137005819Y-99408598D01*
X136989343Y-99426777D01*
X136971164Y-99443253D01*
X136951459Y-99457867D01*
X136930415Y-99470480D01*
X136908237Y-99480970D01*
X136885137Y-99489235D01*
X136861339Y-99495196D01*
X136837070Y-99498796D01*
X136812566Y-99500000D01*
X135812566Y-99500000D01*
X135788062Y-99498796D01*
X135763793Y-99495196D01*
X135739995Y-99489235D01*
X135716895Y-99480970D01*
X135694717Y-99470480D01*
X135673673Y-99457867D01*
X135653968Y-99443253D01*
X135635789Y-99426777D01*
X135619313Y-99408598D01*
X135604699Y-99388893D01*
X135592086Y-99367849D01*
X135581596Y-99345671D01*
X135573331Y-99322571D01*
X135567370Y-99298773D01*
X135563770Y-99274504D01*
X135562566Y-99250000D01*
X135562566Y-96350000D01*
X135563770Y-96325496D01*
X135567370Y-96301227D01*
X135573331Y-96277429D01*
X135581596Y-96254329D01*
X135592086Y-96232151D01*
X135604699Y-96211107D01*
X135619313Y-96191402D01*
X135635789Y-96173223D01*
X135653968Y-96156747D01*
X135673673Y-96142133D01*
X135694717Y-96129520D01*
X135716895Y-96119030D01*
X135739995Y-96110765D01*
X135763793Y-96104804D01*
X135788062Y-96101204D01*
X135812566Y-96100000D01*
X136812566Y-96100000D01*
X136837070Y-96101204D01*
G37*
G36*
X142937070Y-90301204D02*
G01*
X142961339Y-90304804D01*
X142985137Y-90310765D01*
X143008237Y-90319030D01*
X143030415Y-90329520D01*
X143051459Y-90342133D01*
X143071164Y-90356747D01*
X143089343Y-90373223D01*
X143105819Y-90391402D01*
X143120433Y-90411107D01*
X143133046Y-90432151D01*
X143143536Y-90454329D01*
X143151801Y-90477429D01*
X143157762Y-90501227D01*
X143161362Y-90525496D01*
X143162566Y-90550000D01*
X143162566Y-93550000D01*
X143161362Y-93574504D01*
X143157762Y-93598773D01*
X143151801Y-93622571D01*
X143143536Y-93645671D01*
X143133046Y-93667849D01*
X143120433Y-93688893D01*
X143105819Y-93708598D01*
X143089343Y-93726777D01*
X143071164Y-93743253D01*
X143051459Y-93757867D01*
X143030415Y-93770480D01*
X143008237Y-93780970D01*
X142985137Y-93789235D01*
X142961339Y-93795196D01*
X142937070Y-93798796D01*
X142912566Y-93800000D01*
X142412566Y-93800000D01*
X142388062Y-93798796D01*
X142363793Y-93795196D01*
X142339995Y-93789235D01*
X142316895Y-93780970D01*
X142294717Y-93770480D01*
X142273673Y-93757867D01*
X142253968Y-93743253D01*
X142235789Y-93726777D01*
X142219313Y-93708598D01*
X142204699Y-93688893D01*
X142192086Y-93667849D01*
X142181596Y-93645671D01*
X142173331Y-93622571D01*
X142167370Y-93598773D01*
X142163770Y-93574504D01*
X142162566Y-93550000D01*
X142162566Y-90550000D01*
X142163770Y-90525496D01*
X142167370Y-90501227D01*
X142173331Y-90477429D01*
X142181596Y-90454329D01*
X142192086Y-90432151D01*
X142204699Y-90411107D01*
X142219313Y-90391402D01*
X142235789Y-90373223D01*
X142253968Y-90356747D01*
X142273673Y-90342133D01*
X142294717Y-90329520D01*
X142316895Y-90319030D01*
X142339995Y-90310765D01*
X142363793Y-90304804D01*
X142388062Y-90301204D01*
X142412566Y-90300000D01*
X142912566Y-90300000D01*
X142937070Y-90301204D01*
G37*
G36*
X140937070Y-90301204D02*
G01*
X140961339Y-90304804D01*
X140985137Y-90310765D01*
X141008237Y-90319030D01*
X141030415Y-90329520D01*
X141051459Y-90342133D01*
X141071164Y-90356747D01*
X141089343Y-90373223D01*
X141105819Y-90391402D01*
X141120433Y-90411107D01*
X141133046Y-90432151D01*
X141143536Y-90454329D01*
X141151801Y-90477429D01*
X141157762Y-90501227D01*
X141161362Y-90525496D01*
X141162566Y-90550000D01*
X141162566Y-93550000D01*
X141161362Y-93574504D01*
X141157762Y-93598773D01*
X141151801Y-93622571D01*
X141143536Y-93645671D01*
X141133046Y-93667849D01*
X141120433Y-93688893D01*
X141105819Y-93708598D01*
X141089343Y-93726777D01*
X141071164Y-93743253D01*
X141051459Y-93757867D01*
X141030415Y-93770480D01*
X141008237Y-93780970D01*
X140985137Y-93789235D01*
X140961339Y-93795196D01*
X140937070Y-93798796D01*
X140912566Y-93800000D01*
X140412566Y-93800000D01*
X140388062Y-93798796D01*
X140363793Y-93795196D01*
X140339995Y-93789235D01*
X140316895Y-93780970D01*
X140294717Y-93770480D01*
X140273673Y-93757867D01*
X140253968Y-93743253D01*
X140235789Y-93726777D01*
X140219313Y-93708598D01*
X140204699Y-93688893D01*
X140192086Y-93667849D01*
X140181596Y-93645671D01*
X140173331Y-93622571D01*
X140167370Y-93598773D01*
X140163770Y-93574504D01*
X140162566Y-93550000D01*
X140162566Y-90550000D01*
X140163770Y-90525496D01*
X140167370Y-90501227D01*
X140173331Y-90477429D01*
X140181596Y-90454329D01*
X140192086Y-90432151D01*
X140204699Y-90411107D01*
X140219313Y-90391402D01*
X140235789Y-90373223D01*
X140253968Y-90356747D01*
X140273673Y-90342133D01*
X140294717Y-90329520D01*
X140316895Y-90319030D01*
X140339995Y-90310765D01*
X140363793Y-90304804D01*
X140388062Y-90301204D01*
X140412566Y-90300000D01*
X140912566Y-90300000D01*
X140937070Y-90301204D01*
G37*
G36*
X138937070Y-90301204D02*
G01*
X138961339Y-90304804D01*
X138985137Y-90310765D01*
X139008237Y-90319030D01*
X139030415Y-90329520D01*
X139051459Y-90342133D01*
X139071164Y-90356747D01*
X139089343Y-90373223D01*
X139105819Y-90391402D01*
X139120433Y-90411107D01*
X139133046Y-90432151D01*
X139143536Y-90454329D01*
X139151801Y-90477429D01*
X139157762Y-90501227D01*
X139161362Y-90525496D01*
X139162566Y-90550000D01*
X139162566Y-93550000D01*
X139161362Y-93574504D01*
X139157762Y-93598773D01*
X139151801Y-93622571D01*
X139143536Y-93645671D01*
X139133046Y-93667849D01*
X139120433Y-93688893D01*
X139105819Y-93708598D01*
X139089343Y-93726777D01*
X139071164Y-93743253D01*
X139051459Y-93757867D01*
X139030415Y-93770480D01*
X139008237Y-93780970D01*
X138985137Y-93789235D01*
X138961339Y-93795196D01*
X138937070Y-93798796D01*
X138912566Y-93800000D01*
X138412566Y-93800000D01*
X138388062Y-93798796D01*
X138363793Y-93795196D01*
X138339995Y-93789235D01*
X138316895Y-93780970D01*
X138294717Y-93770480D01*
X138273673Y-93757867D01*
X138253968Y-93743253D01*
X138235789Y-93726777D01*
X138219313Y-93708598D01*
X138204699Y-93688893D01*
X138192086Y-93667849D01*
X138181596Y-93645671D01*
X138173331Y-93622571D01*
X138167370Y-93598773D01*
X138163770Y-93574504D01*
X138162566Y-93550000D01*
X138162566Y-90550000D01*
X138163770Y-90525496D01*
X138167370Y-90501227D01*
X138173331Y-90477429D01*
X138181596Y-90454329D01*
X138192086Y-90432151D01*
X138204699Y-90411107D01*
X138219313Y-90391402D01*
X138235789Y-90373223D01*
X138253968Y-90356747D01*
X138273673Y-90342133D01*
X138294717Y-90329520D01*
X138316895Y-90319030D01*
X138339995Y-90310765D01*
X138363793Y-90304804D01*
X138388062Y-90301204D01*
X138412566Y-90300000D01*
X138912566Y-90300000D01*
X138937070Y-90301204D01*
G37*
G36*
X111472505Y-87482704D02*
G01*
X111496773Y-87486304D01*
X111520572Y-87492265D01*
X111543671Y-87500530D01*
X111565850Y-87511020D01*
X111586893Y-87523632D01*
X111606599Y-87538247D01*
X111624777Y-87554723D01*
X111641253Y-87572901D01*
X111655868Y-87592607D01*
X111668480Y-87613650D01*
X111678970Y-87635829D01*
X111687235Y-87658928D01*
X111693196Y-87682727D01*
X111696796Y-87706995D01*
X111698000Y-87731499D01*
X111698000Y-88381501D01*
X111696796Y-88406005D01*
X111693196Y-88430273D01*
X111687235Y-88454072D01*
X111678970Y-88477171D01*
X111668480Y-88499350D01*
X111655868Y-88520393D01*
X111641253Y-88540099D01*
X111624777Y-88558277D01*
X111606599Y-88574753D01*
X111586893Y-88589368D01*
X111565850Y-88601980D01*
X111543671Y-88612470D01*
X111520572Y-88620735D01*
X111496773Y-88626696D01*
X111472505Y-88630296D01*
X111448001Y-88631500D01*
X110547999Y-88631500D01*
X110523495Y-88630296D01*
X110499227Y-88626696D01*
X110475428Y-88620735D01*
X110452329Y-88612470D01*
X110430150Y-88601980D01*
X110409107Y-88589368D01*
X110389401Y-88574753D01*
X110371223Y-88558277D01*
X110354747Y-88540099D01*
X110340132Y-88520393D01*
X110327520Y-88499350D01*
X110317030Y-88477171D01*
X110308765Y-88454072D01*
X110302804Y-88430273D01*
X110299204Y-88406005D01*
X110298000Y-88381501D01*
X110298000Y-87731499D01*
X110299204Y-87706995D01*
X110302804Y-87682727D01*
X110308765Y-87658928D01*
X110317030Y-87635829D01*
X110327520Y-87613650D01*
X110340132Y-87592607D01*
X110354747Y-87572901D01*
X110371223Y-87554723D01*
X110389401Y-87538247D01*
X110409107Y-87523632D01*
X110430150Y-87511020D01*
X110452329Y-87500530D01*
X110475428Y-87492265D01*
X110499227Y-87486304D01*
X110523495Y-87482704D01*
X110547999Y-87481500D01*
X111448001Y-87481500D01*
X111472505Y-87482704D01*
G37*
G36*
X111472505Y-89532704D02*
G01*
X111496773Y-89536304D01*
X111520572Y-89542265D01*
X111543671Y-89550530D01*
X111565850Y-89561020D01*
X111586893Y-89573632D01*
X111606599Y-89588247D01*
X111624777Y-89604723D01*
X111641253Y-89622901D01*
X111655868Y-89642607D01*
X111668480Y-89663650D01*
X111678970Y-89685829D01*
X111687235Y-89708928D01*
X111693196Y-89732727D01*
X111696796Y-89756995D01*
X111698000Y-89781499D01*
X111698000Y-90431501D01*
X111696796Y-90456005D01*
X111693196Y-90480273D01*
X111687235Y-90504072D01*
X111678970Y-90527171D01*
X111668480Y-90549350D01*
X111655868Y-90570393D01*
X111641253Y-90590099D01*
X111624777Y-90608277D01*
X111606599Y-90624753D01*
X111586893Y-90639368D01*
X111565850Y-90651980D01*
X111543671Y-90662470D01*
X111520572Y-90670735D01*
X111496773Y-90676696D01*
X111472505Y-90680296D01*
X111448001Y-90681500D01*
X110547999Y-90681500D01*
X110523495Y-90680296D01*
X110499227Y-90676696D01*
X110475428Y-90670735D01*
X110452329Y-90662470D01*
X110430150Y-90651980D01*
X110409107Y-90639368D01*
X110389401Y-90624753D01*
X110371223Y-90608277D01*
X110354747Y-90590099D01*
X110340132Y-90570393D01*
X110327520Y-90549350D01*
X110317030Y-90527171D01*
X110308765Y-90504072D01*
X110302804Y-90480273D01*
X110299204Y-90456005D01*
X110298000Y-90431501D01*
X110298000Y-89781499D01*
X110299204Y-89756995D01*
X110302804Y-89732727D01*
X110308765Y-89708928D01*
X110317030Y-89685829D01*
X110327520Y-89663650D01*
X110340132Y-89642607D01*
X110354747Y-89622901D01*
X110371223Y-89604723D01*
X110389401Y-89588247D01*
X110409107Y-89573632D01*
X110430150Y-89561020D01*
X110452329Y-89550530D01*
X110475428Y-89542265D01*
X110499227Y-89536304D01*
X110523495Y-89532704D01*
X110547999Y-89531500D01*
X111448001Y-89531500D01*
X111472505Y-89532704D01*
G37*
D18*
X182742000Y-77421500D03*
D19*
X181742000Y-80121500D03*
X181092000Y-80121500D03*
X180442000Y-80121500D03*
X183042000Y-80121500D03*
X182392000Y-80121500D03*
D18*
X180742000Y-77421500D03*
M02*
