G04 #@! TF.GenerationSoftware,KiCad,Pcbnew,(5.1.5)-3*
G04 #@! TF.CreationDate,2021-06-03T09:39:37-05:00*
G04 #@! TF.ProjectId,NevermoreController,4e657665-726d-46f7-9265-436f6e74726f,rev?*
G04 #@! TF.SameCoordinates,Original*
G04 #@! TF.FileFunction,Soldermask,Bot*
G04 #@! TF.FilePolarity,Negative*
%FSLAX46Y46*%
G04 Gerber Fmt 4.6, Leading zero omitted, Abs format (unit mm)*
G04 Created by KiCad (PCBNEW (5.1.5)-3) date 2021-06-03 09:39:37*
%MOMM*%
%LPD*%
G04 APERTURE LIST*
%ADD10C,0.100000*%
G04 APERTURE END LIST*
D10*
G36*
X113420626Y-83442037D02*
G01*
X113590465Y-83493557D01*
X113590467Y-83493558D01*
X113746989Y-83577221D01*
X113884186Y-83689814D01*
X113967448Y-83791271D01*
X113996778Y-83827009D01*
X114080443Y-83983534D01*
X114131963Y-84153373D01*
X114145000Y-84285742D01*
X114145000Y-84874258D01*
X114131963Y-85006627D01*
X114080443Y-85176466D01*
X113996778Y-85332991D01*
X113967448Y-85368729D01*
X113884186Y-85470186D01*
X113789250Y-85548097D01*
X113746991Y-85582778D01*
X113590466Y-85666443D01*
X113420627Y-85717963D01*
X113244000Y-85735359D01*
X113067374Y-85717963D01*
X112897535Y-85666443D01*
X112741010Y-85582778D01*
X112698751Y-85548097D01*
X112603815Y-85470186D01*
X112491223Y-85332991D01*
X112407557Y-85176466D01*
X112356037Y-85006627D01*
X112343000Y-84874258D01*
X112343000Y-84285743D01*
X112356037Y-84153374D01*
X112407557Y-83983535D01*
X112407559Y-83983532D01*
X112491221Y-83827011D01*
X112603814Y-83689814D01*
X112705271Y-83606552D01*
X112741009Y-83577222D01*
X112897534Y-83493557D01*
X113067373Y-83442037D01*
X113244000Y-83424641D01*
X113420626Y-83442037D01*
G37*
G36*
X111502600Y-83432989D02*
G01*
X111535652Y-83443015D01*
X111566103Y-83459292D01*
X111592799Y-83481201D01*
X111614708Y-83507897D01*
X111630985Y-83538348D01*
X111641011Y-83571400D01*
X111645000Y-83611903D01*
X111645000Y-85548097D01*
X111641011Y-85588600D01*
X111630985Y-85621652D01*
X111614708Y-85652103D01*
X111592799Y-85678799D01*
X111566103Y-85700708D01*
X111535652Y-85716985D01*
X111502600Y-85727011D01*
X111462097Y-85731000D01*
X110025903Y-85731000D01*
X109985400Y-85727011D01*
X109952348Y-85716985D01*
X109921897Y-85700708D01*
X109895201Y-85678799D01*
X109873292Y-85652103D01*
X109857015Y-85621652D01*
X109846989Y-85588600D01*
X109843000Y-85548097D01*
X109843000Y-83611903D01*
X109846989Y-83571400D01*
X109857015Y-83538348D01*
X109873292Y-83507897D01*
X109895201Y-83481201D01*
X109921897Y-83459292D01*
X109952348Y-83443015D01*
X109985400Y-83432989D01*
X110025903Y-83429000D01*
X111462097Y-83429000D01*
X111502600Y-83432989D01*
G37*
G36*
X170039512Y-82669927D02*
G01*
X170188812Y-82699624D01*
X170352784Y-82767544D01*
X170500354Y-82866147D01*
X170625853Y-82991646D01*
X170724456Y-83139216D01*
X170792376Y-83303188D01*
X170816534Y-83424641D01*
X170826285Y-83473661D01*
X170827000Y-83477259D01*
X170827000Y-83654741D01*
X170792376Y-83828812D01*
X170724456Y-83992784D01*
X170625853Y-84140354D01*
X170500354Y-84265853D01*
X170352784Y-84364456D01*
X170188812Y-84432376D01*
X170039512Y-84462073D01*
X170014742Y-84467000D01*
X169837258Y-84467000D01*
X169812488Y-84462073D01*
X169663188Y-84432376D01*
X169499216Y-84364456D01*
X169351646Y-84265853D01*
X169226147Y-84140354D01*
X169127544Y-83992784D01*
X169059624Y-83828812D01*
X169025000Y-83654741D01*
X169025000Y-83477259D01*
X169025716Y-83473661D01*
X169035466Y-83424641D01*
X169059624Y-83303188D01*
X169127544Y-83139216D01*
X169226147Y-82991646D01*
X169351646Y-82866147D01*
X169499216Y-82767544D01*
X169663188Y-82699624D01*
X169812488Y-82669927D01*
X169837258Y-82665000D01*
X170014742Y-82665000D01*
X170039512Y-82669927D01*
G37*
G36*
X175907000Y-84467000D02*
G01*
X174105000Y-84467000D01*
X174105000Y-82665000D01*
X175907000Y-82665000D01*
X175907000Y-84467000D01*
G37*
G36*
X172579512Y-82669927D02*
G01*
X172728812Y-82699624D01*
X172892784Y-82767544D01*
X173040354Y-82866147D01*
X173165853Y-82991646D01*
X173264456Y-83139216D01*
X173332376Y-83303188D01*
X173356534Y-83424641D01*
X173366285Y-83473661D01*
X173367000Y-83477259D01*
X173367000Y-83654741D01*
X173332376Y-83828812D01*
X173264456Y-83992784D01*
X173165853Y-84140354D01*
X173040354Y-84265853D01*
X172892784Y-84364456D01*
X172728812Y-84432376D01*
X172579512Y-84462073D01*
X172554742Y-84467000D01*
X172377258Y-84467000D01*
X172352488Y-84462073D01*
X172203188Y-84432376D01*
X172039216Y-84364456D01*
X171891646Y-84265853D01*
X171766147Y-84140354D01*
X171667544Y-83992784D01*
X171599624Y-83828812D01*
X171565000Y-83654741D01*
X171565000Y-83477259D01*
X171565716Y-83473661D01*
X171575466Y-83424641D01*
X171599624Y-83303188D01*
X171667544Y-83139216D01*
X171766147Y-82991646D01*
X171891646Y-82866147D01*
X172039216Y-82767544D01*
X172203188Y-82699624D01*
X172352488Y-82669927D01*
X172377258Y-82665000D01*
X172554742Y-82665000D01*
X172579512Y-82669927D01*
G37*
G36*
X167499512Y-82669927D02*
G01*
X167648812Y-82699624D01*
X167812784Y-82767544D01*
X167960354Y-82866147D01*
X168085853Y-82991646D01*
X168184456Y-83139216D01*
X168252376Y-83303188D01*
X168276534Y-83424641D01*
X168286285Y-83473661D01*
X168287000Y-83477259D01*
X168287000Y-83654741D01*
X168252376Y-83828812D01*
X168184456Y-83992784D01*
X168085853Y-84140354D01*
X167960354Y-84265853D01*
X167812784Y-84364456D01*
X167648812Y-84432376D01*
X167499512Y-84462073D01*
X167474742Y-84467000D01*
X167297258Y-84467000D01*
X167272488Y-84462073D01*
X167123188Y-84432376D01*
X166959216Y-84364456D01*
X166811646Y-84265853D01*
X166686147Y-84140354D01*
X166587544Y-83992784D01*
X166519624Y-83828812D01*
X166485000Y-83654741D01*
X166485000Y-83477259D01*
X166485716Y-83473661D01*
X166495466Y-83424641D01*
X166519624Y-83303188D01*
X166587544Y-83139216D01*
X166686147Y-82991646D01*
X166811646Y-82866147D01*
X166959216Y-82767544D01*
X167123188Y-82699624D01*
X167272488Y-82669927D01*
X167297258Y-82665000D01*
X167474742Y-82665000D01*
X167499512Y-82669927D01*
G37*
G36*
X164959512Y-82669927D02*
G01*
X165108812Y-82699624D01*
X165272784Y-82767544D01*
X165420354Y-82866147D01*
X165545853Y-82991646D01*
X165644456Y-83139216D01*
X165712376Y-83303188D01*
X165736534Y-83424641D01*
X165746285Y-83473661D01*
X165747000Y-83477259D01*
X165747000Y-83654741D01*
X165712376Y-83828812D01*
X165644456Y-83992784D01*
X165545853Y-84140354D01*
X165420354Y-84265853D01*
X165272784Y-84364456D01*
X165108812Y-84432376D01*
X164959512Y-84462073D01*
X164934742Y-84467000D01*
X164757258Y-84467000D01*
X164732488Y-84462073D01*
X164583188Y-84432376D01*
X164419216Y-84364456D01*
X164271646Y-84265853D01*
X164146147Y-84140354D01*
X164047544Y-83992784D01*
X163979624Y-83828812D01*
X163945000Y-83654741D01*
X163945000Y-83477259D01*
X163945716Y-83473661D01*
X163955466Y-83424641D01*
X163979624Y-83303188D01*
X164047544Y-83139216D01*
X164146147Y-82991646D01*
X164271646Y-82866147D01*
X164419216Y-82767544D01*
X164583188Y-82699624D01*
X164732488Y-82669927D01*
X164757258Y-82665000D01*
X164934742Y-82665000D01*
X164959512Y-82669927D01*
G37*
G36*
X104375256Y-78391298D02*
G01*
X104481579Y-78412447D01*
X104782042Y-78536903D01*
X105052451Y-78717585D01*
X105282415Y-78947549D01*
X105282416Y-78947551D01*
X105463098Y-79217960D01*
X105487182Y-79276104D01*
X105587553Y-79518421D01*
X105596827Y-79565043D01*
X105651000Y-79837389D01*
X105651000Y-80162611D01*
X105643974Y-80197931D01*
X105587553Y-80481579D01*
X105463097Y-80782042D01*
X105282415Y-81052451D01*
X105052451Y-81282415D01*
X104782042Y-81463097D01*
X104481579Y-81587553D01*
X104375256Y-81608702D01*
X104162611Y-81651000D01*
X103837389Y-81651000D01*
X103624744Y-81608702D01*
X103518421Y-81587553D01*
X103217958Y-81463097D01*
X102947549Y-81282415D01*
X102717585Y-81052451D01*
X102536903Y-80782042D01*
X102412447Y-80481579D01*
X102356026Y-80197931D01*
X102349000Y-80162611D01*
X102349000Y-79837389D01*
X102403173Y-79565043D01*
X102412447Y-79518421D01*
X102512818Y-79276104D01*
X102536902Y-79217960D01*
X102717584Y-78947551D01*
X102717585Y-78947549D01*
X102947549Y-78717585D01*
X103217958Y-78536903D01*
X103518421Y-78412447D01*
X103624744Y-78391298D01*
X103837389Y-78349000D01*
X104162611Y-78349000D01*
X104375256Y-78391298D01*
G37*
G36*
X196375256Y-78391298D02*
G01*
X196481579Y-78412447D01*
X196782042Y-78536903D01*
X197052451Y-78717585D01*
X197282415Y-78947549D01*
X197282416Y-78947551D01*
X197463098Y-79217960D01*
X197487182Y-79276104D01*
X197587553Y-79518421D01*
X197596827Y-79565043D01*
X197651000Y-79837389D01*
X197651000Y-80162611D01*
X197643974Y-80197931D01*
X197587553Y-80481579D01*
X197463097Y-80782042D01*
X197282415Y-81052451D01*
X197052451Y-81282415D01*
X196782042Y-81463097D01*
X196481579Y-81587553D01*
X196375256Y-81608702D01*
X196162611Y-81651000D01*
X195837389Y-81651000D01*
X195624744Y-81608702D01*
X195518421Y-81587553D01*
X195217958Y-81463097D01*
X194947549Y-81282415D01*
X194717585Y-81052451D01*
X194536903Y-80782042D01*
X194412447Y-80481579D01*
X194356026Y-80197931D01*
X194349000Y-80162611D01*
X194349000Y-79837389D01*
X194403173Y-79565043D01*
X194412447Y-79518421D01*
X194512818Y-79276104D01*
X194536902Y-79217960D01*
X194717584Y-78947551D01*
X194717585Y-78947549D01*
X194947549Y-78717585D01*
X195217958Y-78536903D01*
X195518421Y-78412447D01*
X195624744Y-78391298D01*
X195837389Y-78349000D01*
X196162611Y-78349000D01*
X196375256Y-78391298D01*
G37*
G36*
X179468348Y-79375320D02*
G01*
X179468350Y-79375321D01*
X179468351Y-79375321D01*
X179609574Y-79433817D01*
X179609577Y-79433819D01*
X179736669Y-79518739D01*
X179844761Y-79626831D01*
X179859545Y-79648957D01*
X179929683Y-79753926D01*
X179964254Y-79837389D01*
X179988180Y-79895152D01*
X180012343Y-80016629D01*
X180018000Y-80045071D01*
X180018000Y-80197929D01*
X179988179Y-80347851D01*
X179929683Y-80489074D01*
X179929681Y-80489077D01*
X179844761Y-80616169D01*
X179736669Y-80724261D01*
X179650196Y-80782040D01*
X179609574Y-80809183D01*
X179468351Y-80867679D01*
X179468350Y-80867679D01*
X179468348Y-80867680D01*
X179318431Y-80897500D01*
X179165569Y-80897500D01*
X179015652Y-80867680D01*
X179015650Y-80867679D01*
X179015649Y-80867679D01*
X178874426Y-80809183D01*
X178833804Y-80782040D01*
X178747331Y-80724261D01*
X178639239Y-80616169D01*
X178554319Y-80489077D01*
X178554317Y-80489074D01*
X178495821Y-80347851D01*
X178466000Y-80197929D01*
X178466000Y-80045071D01*
X178471657Y-80016629D01*
X178495820Y-79895152D01*
X178519746Y-79837389D01*
X178554317Y-79753926D01*
X178624455Y-79648957D01*
X178639239Y-79626831D01*
X178747331Y-79518739D01*
X178874423Y-79433819D01*
X178874426Y-79433817D01*
X179015649Y-79375321D01*
X179015650Y-79375321D01*
X179015652Y-79375320D01*
X179165569Y-79345500D01*
X179318431Y-79345500D01*
X179468348Y-79375320D01*
G37*
G36*
X184468348Y-79375320D02*
G01*
X184468350Y-79375321D01*
X184468351Y-79375321D01*
X184609574Y-79433817D01*
X184609577Y-79433819D01*
X184736669Y-79518739D01*
X184844761Y-79626831D01*
X184859545Y-79648957D01*
X184929683Y-79753926D01*
X184964254Y-79837389D01*
X184988180Y-79895152D01*
X185012343Y-80016629D01*
X185018000Y-80045071D01*
X185018000Y-80197929D01*
X184988179Y-80347851D01*
X184929683Y-80489074D01*
X184929681Y-80489077D01*
X184844761Y-80616169D01*
X184736669Y-80724261D01*
X184650196Y-80782040D01*
X184609574Y-80809183D01*
X184468351Y-80867679D01*
X184468350Y-80867679D01*
X184468348Y-80867680D01*
X184318431Y-80897500D01*
X184165569Y-80897500D01*
X184015652Y-80867680D01*
X184015650Y-80867679D01*
X184015649Y-80867679D01*
X183874426Y-80809183D01*
X183833804Y-80782040D01*
X183747331Y-80724261D01*
X183639239Y-80616169D01*
X183554319Y-80489077D01*
X183554317Y-80489074D01*
X183495821Y-80347851D01*
X183466000Y-80197929D01*
X183466000Y-80045071D01*
X183471657Y-80016629D01*
X183495820Y-79895152D01*
X183519746Y-79837389D01*
X183554317Y-79753926D01*
X183624455Y-79648957D01*
X183639239Y-79626831D01*
X183747331Y-79518739D01*
X183874423Y-79433819D01*
X183874426Y-79433817D01*
X184015649Y-79375321D01*
X184015650Y-79375321D01*
X184015652Y-79375320D01*
X184165569Y-79345500D01*
X184318431Y-79345500D01*
X184468348Y-79375320D01*
G37*
G36*
X149724260Y-79197371D02*
G01*
X149758071Y-79211376D01*
X149801784Y-79229482D01*
X149801787Y-79229484D01*
X149871559Y-79276104D01*
X149930896Y-79335441D01*
X149930897Y-79335443D01*
X149977518Y-79405216D01*
X149989365Y-79433819D01*
X150009629Y-79482740D01*
X150026000Y-79565043D01*
X150026000Y-79648957D01*
X150009629Y-79731260D01*
X150000240Y-79753926D01*
X149977518Y-79808784D01*
X149977516Y-79808787D01*
X149930896Y-79878559D01*
X149871559Y-79937896D01*
X149801787Y-79984516D01*
X149801784Y-79984518D01*
X149758071Y-80002624D01*
X149724260Y-80016629D01*
X149641957Y-80033000D01*
X149558043Y-80033000D01*
X149475740Y-80016629D01*
X149441929Y-80002624D01*
X149398216Y-79984518D01*
X149398213Y-79984516D01*
X149328441Y-79937896D01*
X149269104Y-79878559D01*
X149222484Y-79808787D01*
X149222482Y-79808784D01*
X149199760Y-79753926D01*
X149190371Y-79731260D01*
X149174000Y-79648957D01*
X149174000Y-79565043D01*
X149190371Y-79482740D01*
X149210635Y-79433819D01*
X149222482Y-79405216D01*
X149269103Y-79335443D01*
X149269104Y-79335441D01*
X149328441Y-79276104D01*
X149398213Y-79229484D01*
X149398216Y-79229482D01*
X149441929Y-79211376D01*
X149475740Y-79197371D01*
X149558043Y-79181000D01*
X149641957Y-79181000D01*
X149724260Y-79197371D01*
G37*
G36*
X185369617Y-76429920D02*
G01*
X185427148Y-76447372D01*
X185492335Y-76467146D01*
X185605424Y-76527594D01*
X185704554Y-76608947D01*
X185785906Y-76708075D01*
X185846354Y-76821164D01*
X185847714Y-76825647D01*
X185883580Y-76943882D01*
X185893000Y-77039527D01*
X185893000Y-77803473D01*
X185883580Y-77899118D01*
X185860758Y-77974353D01*
X185846354Y-78021836D01*
X185785906Y-78134925D01*
X185704554Y-78234054D01*
X185605425Y-78315406D01*
X185492336Y-78375854D01*
X185460404Y-78385540D01*
X185369618Y-78413080D01*
X185242000Y-78425649D01*
X185114383Y-78413080D01*
X185023597Y-78385540D01*
X184991665Y-78375854D01*
X184878576Y-78315406D01*
X184779447Y-78234054D01*
X184698095Y-78134925D01*
X184637648Y-78021837D01*
X184637645Y-78021832D01*
X184600420Y-77899118D01*
X184591000Y-77803473D01*
X184591000Y-77039528D01*
X184600420Y-76943883D01*
X184627960Y-76853097D01*
X184637646Y-76821165D01*
X184698094Y-76708076D01*
X184779447Y-76608946D01*
X184878575Y-76527594D01*
X184991664Y-76467146D01*
X185056851Y-76447372D01*
X185114382Y-76429920D01*
X185242000Y-76417351D01*
X185369617Y-76429920D01*
G37*
G36*
X178369618Y-76429920D02*
G01*
X178427149Y-76447372D01*
X178492336Y-76467146D01*
X178605425Y-76527594D01*
X178704554Y-76608946D01*
X178785906Y-76708075D01*
X178846354Y-76821164D01*
X178847714Y-76825647D01*
X178883580Y-76943882D01*
X178893000Y-77039527D01*
X178893000Y-77803473D01*
X178883580Y-77899118D01*
X178860758Y-77974353D01*
X178846354Y-78021836D01*
X178785906Y-78134925D01*
X178704554Y-78234053D01*
X178605424Y-78315406D01*
X178492335Y-78375854D01*
X178460403Y-78385540D01*
X178369617Y-78413080D01*
X178242000Y-78425649D01*
X178114382Y-78413080D01*
X178023596Y-78385540D01*
X177991664Y-78375854D01*
X177878575Y-78315406D01*
X177779447Y-78234054D01*
X177698094Y-78134924D01*
X177637646Y-78021835D01*
X177623243Y-77974353D01*
X177600420Y-77899117D01*
X177591000Y-77803472D01*
X177591000Y-77039527D01*
X177600420Y-76943882D01*
X177637645Y-76821168D01*
X177662608Y-76774466D01*
X177698095Y-76708075D01*
X177779447Y-76608946D01*
X177878576Y-76527594D01*
X177991665Y-76467146D01*
X178056852Y-76447372D01*
X178114383Y-76429920D01*
X178242000Y-76417351D01*
X178369618Y-76429920D01*
G37*
G36*
X110857512Y-76503927D02*
G01*
X111006812Y-76533624D01*
X111170784Y-76601544D01*
X111318354Y-76700147D01*
X111443853Y-76825646D01*
X111542456Y-76973216D01*
X111610376Y-77137188D01*
X111645000Y-77311259D01*
X111645000Y-77488741D01*
X111610376Y-77662812D01*
X111542456Y-77826784D01*
X111443853Y-77974354D01*
X111318354Y-78099853D01*
X111170784Y-78198456D01*
X111006812Y-78266376D01*
X110857512Y-78296073D01*
X110832742Y-78301000D01*
X110655258Y-78301000D01*
X110630488Y-78296073D01*
X110481188Y-78266376D01*
X110317216Y-78198456D01*
X110169646Y-78099853D01*
X110044147Y-77974354D01*
X109945544Y-77826784D01*
X109877624Y-77662812D01*
X109843000Y-77488741D01*
X109843000Y-77311259D01*
X109877624Y-77137188D01*
X109945544Y-76973216D01*
X110044147Y-76825646D01*
X110169646Y-76700147D01*
X110317216Y-76601544D01*
X110481188Y-76533624D01*
X110630488Y-76503927D01*
X110655258Y-76499000D01*
X110832742Y-76499000D01*
X110857512Y-76503927D01*
G37*
G36*
X113357512Y-76503927D02*
G01*
X113506812Y-76533624D01*
X113670784Y-76601544D01*
X113818354Y-76700147D01*
X113943853Y-76825646D01*
X114042456Y-76973216D01*
X114110376Y-77137188D01*
X114145000Y-77311259D01*
X114145000Y-77488741D01*
X114110376Y-77662812D01*
X114042456Y-77826784D01*
X113943853Y-77974354D01*
X113818354Y-78099853D01*
X113670784Y-78198456D01*
X113506812Y-78266376D01*
X113357512Y-78296073D01*
X113332742Y-78301000D01*
X113155258Y-78301000D01*
X113130488Y-78296073D01*
X112981188Y-78266376D01*
X112817216Y-78198456D01*
X112669646Y-78099853D01*
X112544147Y-77974354D01*
X112445544Y-77826784D01*
X112377624Y-77662812D01*
X112343000Y-77488741D01*
X112343000Y-77311259D01*
X112377624Y-77137188D01*
X112445544Y-76973216D01*
X112544147Y-76825646D01*
X112669646Y-76700147D01*
X112817216Y-76601544D01*
X112981188Y-76533624D01*
X113130488Y-76503927D01*
X113155258Y-76499000D01*
X113332742Y-76499000D01*
X113357512Y-76503927D01*
G37*
G36*
X149724260Y-76447371D02*
G01*
X149758071Y-76461376D01*
X149801784Y-76479482D01*
X149801787Y-76479484D01*
X149871559Y-76526104D01*
X149930896Y-76585441D01*
X149946601Y-76608946D01*
X149977518Y-76655216D01*
X149995624Y-76698929D01*
X150009629Y-76732740D01*
X150026000Y-76815043D01*
X150026000Y-76898957D01*
X150009629Y-76981260D01*
X149995624Y-77015071D01*
X149977518Y-77058784D01*
X149977516Y-77058787D01*
X149930896Y-77128559D01*
X149871559Y-77187896D01*
X149801787Y-77234516D01*
X149801784Y-77234518D01*
X149758071Y-77252624D01*
X149724260Y-77266629D01*
X149641957Y-77283000D01*
X149558043Y-77283000D01*
X149475740Y-77266629D01*
X149441929Y-77252624D01*
X149398216Y-77234518D01*
X149398213Y-77234516D01*
X149328441Y-77187896D01*
X149269104Y-77128559D01*
X149222484Y-77058787D01*
X149222482Y-77058784D01*
X149204376Y-77015071D01*
X149190371Y-76981260D01*
X149174000Y-76898957D01*
X149174000Y-76815043D01*
X149190371Y-76732740D01*
X149204376Y-76698929D01*
X149222482Y-76655216D01*
X149253399Y-76608946D01*
X149269104Y-76585441D01*
X149328441Y-76526104D01*
X149398213Y-76479484D01*
X149398216Y-76479482D01*
X149441929Y-76461376D01*
X149475740Y-76447371D01*
X149558043Y-76431000D01*
X149641957Y-76431000D01*
X149724260Y-76447371D01*
G37*
M02*
