M48
; DRILL file {KiCad (5.1.5)-3} date 6/3/2021 9:39:40 AM
; FORMAT={-:-/ absolute / inch / decimal}
; #@! TF.CreationDate,2021-06-03T09:39:40-05:00
; #@! TF.GenerationSoftware,Kicad,Pcbnew,(5.1.5)-3
; #@! TF.FileFunction,Plated,1,2,PTH
FMAT,2
INCH
T1C0.0157
T2C0.0236
T3C0.0335
T4C0.0394
T5C0.0472
%
G90
G05
T1
X4.1869Y-3.44
X4.6Y-3.37
X4.6Y-3.45
X4.66Y-3.37
X4.66Y-3.45
X4.72Y-3.3
X4.7301Y-3.4499
X4.94Y-3.37
X4.94Y-3.45
X5.0Y-3.37
X5.0Y-3.45
X5.06Y-3.37
X5.06Y-3.45
X5.12Y-3.3
X5.1292Y-3.4499
X5.41Y-3.37
X5.41Y-3.45
X5.47Y-3.37
X5.47Y-3.45
X5.53Y-3.37
X5.53Y-3.45
X5.59Y-3.3
X5.6038Y-3.4495
X5.7874Y-3.1142
X5.934Y-3.58
X5.934Y-3.625
X5.934Y-3.67
X5.9867Y-3.1135
X6.29Y-3.46
X6.3228Y-3.0866
X6.43Y-3.73
X6.4706Y-3.5426
X6.4706Y-3.6926
X6.5494Y-3.73
X6.56Y-3.61
X6.5629Y-3.5371
X6.625Y-3.8115
X6.6566Y-3.84
X6.67Y-3.66
X6.71Y-3.54
X6.71Y-3.69
X7.09Y-3.2531
X7.11Y-3.84
X7.17Y-3.2531
X7.18Y-3.37
X7.2722Y-3.3591
X7.2754Y-3.2646
X7.3046Y-3.2354
X7.3191Y-3.4016
X7.3484Y-3.4309
X7.43Y-3.27
X7.4975Y-3.0512
X7.5678Y-3.4519
T3
X7.0568Y-3.1544
X7.2536Y-3.1544
T4
X6.49Y-3.29
X6.59Y-3.29
X6.69Y-3.29
X6.79Y-3.29
X6.89Y-3.29
T5
X4.36Y-3.3299
X4.4584Y-3.3299
T2
G00X7.0174Y-3.0619
M15
G01X7.0174Y-3.0343
M16
G05
G00X7.293Y-3.0343
M15
G01X7.293Y-3.0619
M16
G05
T0
M30
