G04 #@! TF.GenerationSoftware,KiCad,Pcbnew,(5.1.5)-3*
G04 #@! TF.CreationDate,2021-06-03T09:39:37-05:00*
G04 #@! TF.ProjectId,NevermoreController,4e657665-726d-46f7-9265-436f6e74726f,rev?*
G04 #@! TF.SameCoordinates,Original*
G04 #@! TF.FileFunction,Legend,Bot*
G04 #@! TF.FilePolarity,Positive*
%FSLAX46Y46*%
G04 Gerber Fmt 4.6, Leading zero omitted, Abs format (unit mm)*
G04 Created by KiCad (PCBNEW (5.1.5)-3) date 2021-06-03 09:39:37*
%MOMM*%
%LPD*%
G04 APERTURE LIST*
%ADD10C,0.300000*%
G04 APERTURE END LIST*
D10*
X131068000Y-94912571D02*
X131068000Y-93412571D01*
X130210857Y-94912571D01*
X130210857Y-93412571D01*
X128925143Y-94841142D02*
X129068000Y-94912571D01*
X129353714Y-94912571D01*
X129496571Y-94841142D01*
X129568000Y-94698285D01*
X129568000Y-94126857D01*
X129496571Y-93984000D01*
X129353714Y-93912571D01*
X129068000Y-93912571D01*
X128925143Y-93984000D01*
X128853714Y-94126857D01*
X128853714Y-94269714D01*
X129568000Y-94412571D01*
X128353714Y-93912571D02*
X127996571Y-94912571D01*
X127639428Y-93912571D01*
X126496571Y-94841142D02*
X126639428Y-94912571D01*
X126925143Y-94912571D01*
X127068000Y-94841142D01*
X127139428Y-94698285D01*
X127139428Y-94126857D01*
X127068000Y-93984000D01*
X126925143Y-93912571D01*
X126639428Y-93912571D01*
X126496571Y-93984000D01*
X126425143Y-94126857D01*
X126425143Y-94269714D01*
X127139428Y-94412571D01*
X125782285Y-94912571D02*
X125782285Y-93912571D01*
X125782285Y-94198285D02*
X125710857Y-94055428D01*
X125639428Y-93984000D01*
X125496571Y-93912571D01*
X125353714Y-93912571D01*
X124853714Y-94912571D02*
X124853714Y-93912571D01*
X124853714Y-94055428D02*
X124782285Y-93984000D01*
X124639428Y-93912571D01*
X124425143Y-93912571D01*
X124282285Y-93984000D01*
X124210857Y-94126857D01*
X124210857Y-94912571D01*
X124210857Y-94126857D02*
X124139428Y-93984000D01*
X123996571Y-93912571D01*
X123782285Y-93912571D01*
X123639428Y-93984000D01*
X123568000Y-94126857D01*
X123568000Y-94912571D01*
X122639428Y-94912571D02*
X122782285Y-94841142D01*
X122853714Y-94769714D01*
X122925143Y-94626857D01*
X122925143Y-94198285D01*
X122853714Y-94055428D01*
X122782285Y-93984000D01*
X122639428Y-93912571D01*
X122425143Y-93912571D01*
X122282285Y-93984000D01*
X122210857Y-94055428D01*
X122139428Y-94198285D01*
X122139428Y-94626857D01*
X122210857Y-94769714D01*
X122282285Y-94841142D01*
X122425143Y-94912571D01*
X122639428Y-94912571D01*
X121496571Y-94912571D02*
X121496571Y-93912571D01*
X121496571Y-94198285D02*
X121425143Y-94055428D01*
X121353714Y-93984000D01*
X121210857Y-93912571D01*
X121068000Y-93912571D01*
X119996571Y-94841142D02*
X120139428Y-94912571D01*
X120425143Y-94912571D01*
X120568000Y-94841142D01*
X120639428Y-94698285D01*
X120639428Y-94126857D01*
X120568000Y-93984000D01*
X120425143Y-93912571D01*
X120139428Y-93912571D01*
X119996571Y-93984000D01*
X119925143Y-94126857D01*
X119925143Y-94269714D01*
X120639428Y-94412571D01*
X118139428Y-94912571D02*
X118139428Y-93412571D01*
X117639428Y-94484000D01*
X117139428Y-93412571D01*
X117139428Y-94912571D01*
X115782285Y-94912571D02*
X115782285Y-94126857D01*
X115853714Y-93984000D01*
X115996571Y-93912571D01*
X116282285Y-93912571D01*
X116425143Y-93984000D01*
X115782285Y-94841142D02*
X115925143Y-94912571D01*
X116282285Y-94912571D01*
X116425143Y-94841142D01*
X116496571Y-94698285D01*
X116496571Y-94555428D01*
X116425143Y-94412571D01*
X116282285Y-94341142D01*
X115925143Y-94341142D01*
X115782285Y-94269714D01*
X115210857Y-94912571D02*
X114425143Y-93912571D01*
X115210857Y-93912571D02*
X114425143Y-94912571D01*
X111853714Y-94769714D02*
X111925143Y-94841142D01*
X112139428Y-94912571D01*
X112282285Y-94912571D01*
X112496571Y-94841142D01*
X112639428Y-94698285D01*
X112710857Y-94555428D01*
X112782285Y-94269714D01*
X112782285Y-94055428D01*
X112710857Y-93769714D01*
X112639428Y-93626857D01*
X112496571Y-93484000D01*
X112282285Y-93412571D01*
X112139428Y-93412571D01*
X111925143Y-93484000D01*
X111853714Y-93555428D01*
X110996571Y-94912571D02*
X111139428Y-94841142D01*
X111210857Y-94769714D01*
X111282285Y-94626857D01*
X111282285Y-94198285D01*
X111210857Y-94055428D01*
X111139428Y-93984000D01*
X110996571Y-93912571D01*
X110782285Y-93912571D01*
X110639428Y-93984000D01*
X110568000Y-94055428D01*
X110496571Y-94198285D01*
X110496571Y-94626857D01*
X110568000Y-94769714D01*
X110639428Y-94841142D01*
X110782285Y-94912571D01*
X110996571Y-94912571D01*
X109853714Y-93912571D02*
X109853714Y-94912571D01*
X109853714Y-94055428D02*
X109782285Y-93984000D01*
X109639428Y-93912571D01*
X109425143Y-93912571D01*
X109282285Y-93984000D01*
X109210857Y-94126857D01*
X109210857Y-94912571D01*
X108710857Y-93912571D02*
X108139428Y-93912571D01*
X108496571Y-93412571D02*
X108496571Y-94698285D01*
X108425143Y-94841142D01*
X108282285Y-94912571D01*
X108139428Y-94912571D01*
X107639428Y-94912571D02*
X107639428Y-93912571D01*
X107639428Y-94198285D02*
X107568000Y-94055428D01*
X107496571Y-93984000D01*
X107353714Y-93912571D01*
X107210857Y-93912571D01*
X106496571Y-94912571D02*
X106639428Y-94841142D01*
X106710857Y-94769714D01*
X106782285Y-94626857D01*
X106782285Y-94198285D01*
X106710857Y-94055428D01*
X106639428Y-93984000D01*
X106496571Y-93912571D01*
X106282285Y-93912571D01*
X106139428Y-93984000D01*
X106068000Y-94055428D01*
X105996571Y-94198285D01*
X105996571Y-94626857D01*
X106068000Y-94769714D01*
X106139428Y-94841142D01*
X106282285Y-94912571D01*
X106496571Y-94912571D01*
X105139428Y-94912571D02*
X105282285Y-94841142D01*
X105353714Y-94698285D01*
X105353714Y-93412571D01*
X104353714Y-94912571D02*
X104496571Y-94841142D01*
X104568000Y-94698285D01*
X104568000Y-93412571D01*
X103210857Y-94841142D02*
X103353714Y-94912571D01*
X103639428Y-94912571D01*
X103782285Y-94841142D01*
X103853714Y-94698285D01*
X103853714Y-94126857D01*
X103782285Y-93984000D01*
X103639428Y-93912571D01*
X103353714Y-93912571D01*
X103210857Y-93984000D01*
X103139428Y-94126857D01*
X103139428Y-94269714D01*
X103853714Y-94412571D01*
X102496571Y-94912571D02*
X102496571Y-93912571D01*
X102496571Y-94198285D02*
X102425143Y-94055428D01*
X102353714Y-93984000D01*
X102210857Y-93912571D01*
X102068000Y-93912571D01*
X160353714Y-97960571D02*
X160353714Y-96460571D01*
X159710857Y-97960571D02*
X159710857Y-97174857D01*
X159782285Y-97032000D01*
X159925142Y-96960571D01*
X160139428Y-96960571D01*
X160282285Y-97032000D01*
X160353714Y-97103428D01*
X159210857Y-96960571D02*
X158639428Y-96960571D01*
X158996571Y-96460571D02*
X158996571Y-97746285D01*
X158925142Y-97889142D01*
X158782285Y-97960571D01*
X158639428Y-97960571D01*
X158353714Y-96960571D02*
X157782285Y-96960571D01*
X158139428Y-96460571D02*
X158139428Y-97746285D01*
X158068000Y-97889142D01*
X157925142Y-97960571D01*
X157782285Y-97960571D01*
X157282285Y-96960571D02*
X157282285Y-98460571D01*
X157282285Y-97032000D02*
X157139428Y-96960571D01*
X156853714Y-96960571D01*
X156710857Y-97032000D01*
X156639428Y-97103428D01*
X156568000Y-97246285D01*
X156568000Y-97674857D01*
X156639428Y-97817714D01*
X156710857Y-97889142D01*
X156853714Y-97960571D01*
X157139428Y-97960571D01*
X157282285Y-97889142D01*
X155996571Y-97889142D02*
X155853714Y-97960571D01*
X155568000Y-97960571D01*
X155425142Y-97889142D01*
X155353714Y-97746285D01*
X155353714Y-97674857D01*
X155425142Y-97532000D01*
X155568000Y-97460571D01*
X155782285Y-97460571D01*
X155925142Y-97389142D01*
X155996571Y-97246285D01*
X155996571Y-97174857D01*
X155925142Y-97032000D01*
X155782285Y-96960571D01*
X155568000Y-96960571D01*
X155425142Y-97032000D01*
X154710857Y-97817714D02*
X154639428Y-97889142D01*
X154710857Y-97960571D01*
X154782285Y-97889142D01*
X154710857Y-97817714D01*
X154710857Y-97960571D01*
X154710857Y-97032000D02*
X154639428Y-97103428D01*
X154710857Y-97174857D01*
X154782285Y-97103428D01*
X154710857Y-97032000D01*
X154710857Y-97174857D01*
X152925142Y-96389142D02*
X154210857Y-98317714D01*
X151353714Y-96389142D02*
X152639428Y-98317714D01*
X150210857Y-96960571D02*
X150210857Y-98174857D01*
X150282285Y-98317714D01*
X150353714Y-98389142D01*
X150496571Y-98460571D01*
X150710857Y-98460571D01*
X150853714Y-98389142D01*
X150210857Y-97889142D02*
X150353714Y-97960571D01*
X150639428Y-97960571D01*
X150782285Y-97889142D01*
X150853714Y-97817714D01*
X150925142Y-97674857D01*
X150925142Y-97246285D01*
X150853714Y-97103428D01*
X150782285Y-97032000D01*
X150639428Y-96960571D01*
X150353714Y-96960571D01*
X150210857Y-97032000D01*
X149496571Y-97960571D02*
X149496571Y-96960571D01*
X149496571Y-96460571D02*
X149568000Y-96532000D01*
X149496571Y-96603428D01*
X149425142Y-96532000D01*
X149496571Y-96460571D01*
X149496571Y-96603428D01*
X148996571Y-96960571D02*
X148425142Y-96960571D01*
X148782285Y-96460571D02*
X148782285Y-97746285D01*
X148710857Y-97889142D01*
X148568000Y-97960571D01*
X148425142Y-97960571D01*
X147925142Y-97960571D02*
X147925142Y-96460571D01*
X147282285Y-97960571D02*
X147282285Y-97174857D01*
X147353714Y-97032000D01*
X147496571Y-96960571D01*
X147710857Y-96960571D01*
X147853714Y-97032000D01*
X147925142Y-97103428D01*
X145925142Y-96960571D02*
X145925142Y-97960571D01*
X146568000Y-96960571D02*
X146568000Y-97746285D01*
X146496571Y-97889142D01*
X146353714Y-97960571D01*
X146139428Y-97960571D01*
X145996571Y-97889142D01*
X145925142Y-97817714D01*
X145210857Y-97960571D02*
X145210857Y-96460571D01*
X145210857Y-97032000D02*
X145068000Y-96960571D01*
X144782285Y-96960571D01*
X144639428Y-97032000D01*
X144568000Y-97103428D01*
X144496571Y-97246285D01*
X144496571Y-97674857D01*
X144568000Y-97817714D01*
X144639428Y-97889142D01*
X144782285Y-97960571D01*
X145068000Y-97960571D01*
X145210857Y-97889142D01*
X143853714Y-97817714D02*
X143782285Y-97889142D01*
X143853714Y-97960571D01*
X143925142Y-97889142D01*
X143853714Y-97817714D01*
X143853714Y-97960571D01*
X142496571Y-97889142D02*
X142639428Y-97960571D01*
X142925142Y-97960571D01*
X143068000Y-97889142D01*
X143139428Y-97817714D01*
X143210857Y-97674857D01*
X143210857Y-97246285D01*
X143139428Y-97103428D01*
X143068000Y-97032000D01*
X142925142Y-96960571D01*
X142639428Y-96960571D01*
X142496571Y-97032000D01*
X141639428Y-97960571D02*
X141782285Y-97889142D01*
X141853714Y-97817714D01*
X141925142Y-97674857D01*
X141925142Y-97246285D01*
X141853714Y-97103428D01*
X141782285Y-97032000D01*
X141639428Y-96960571D01*
X141425142Y-96960571D01*
X141282285Y-97032000D01*
X141210857Y-97103428D01*
X141139428Y-97246285D01*
X141139428Y-97674857D01*
X141210857Y-97817714D01*
X141282285Y-97889142D01*
X141425142Y-97960571D01*
X141639428Y-97960571D01*
X140496571Y-97960571D02*
X140496571Y-96960571D01*
X140496571Y-97103428D02*
X140425142Y-97032000D01*
X140282285Y-96960571D01*
X140068000Y-96960571D01*
X139925142Y-97032000D01*
X139853714Y-97174857D01*
X139853714Y-97960571D01*
X139853714Y-97174857D02*
X139782285Y-97032000D01*
X139639428Y-96960571D01*
X139425142Y-96960571D01*
X139282285Y-97032000D01*
X139210857Y-97174857D01*
X139210857Y-97960571D01*
X137425142Y-96389142D02*
X138710857Y-98317714D01*
X137139428Y-96460571D02*
X136639428Y-97960571D01*
X136139428Y-96460571D01*
X135425142Y-97960571D02*
X135568000Y-97889142D01*
X135639428Y-97817714D01*
X135710857Y-97674857D01*
X135710857Y-97246285D01*
X135639428Y-97103428D01*
X135568000Y-97032000D01*
X135425142Y-96960571D01*
X135210857Y-96960571D01*
X135068000Y-97032000D01*
X134996571Y-97103428D01*
X134925142Y-97246285D01*
X134925142Y-97674857D01*
X134996571Y-97817714D01*
X135068000Y-97889142D01*
X135210857Y-97960571D01*
X135425142Y-97960571D01*
X134282285Y-97960571D02*
X134282285Y-96960571D01*
X134282285Y-97246285D02*
X134210857Y-97103428D01*
X134139428Y-97032000D01*
X133996571Y-96960571D01*
X133853714Y-96960571D01*
X133139428Y-97960571D02*
X133282285Y-97889142D01*
X133353714Y-97817714D01*
X133425142Y-97674857D01*
X133425142Y-97246285D01*
X133353714Y-97103428D01*
X133282285Y-97032000D01*
X133139428Y-96960571D01*
X132925142Y-96960571D01*
X132782285Y-97032000D01*
X132710857Y-97103428D01*
X132639428Y-97246285D01*
X132639428Y-97674857D01*
X132710857Y-97817714D01*
X132782285Y-97889142D01*
X132925142Y-97960571D01*
X133139428Y-97960571D01*
X131996571Y-96960571D02*
X131996571Y-97960571D01*
X131996571Y-97103428D02*
X131925142Y-97032000D01*
X131782285Y-96960571D01*
X131567999Y-96960571D01*
X131425142Y-97032000D01*
X131353714Y-97174857D01*
X131353714Y-97960571D01*
X130639428Y-97960571D02*
X130639428Y-96460571D01*
X130282285Y-96460571D01*
X130067999Y-96532000D01*
X129925142Y-96674857D01*
X129853714Y-96817714D01*
X129782285Y-97103428D01*
X129782285Y-97317714D01*
X129853714Y-97603428D01*
X129925142Y-97746285D01*
X130067999Y-97889142D01*
X130282285Y-97960571D01*
X130639428Y-97960571D01*
X128567999Y-97889142D02*
X128710857Y-97960571D01*
X128996571Y-97960571D01*
X129139428Y-97889142D01*
X129210857Y-97746285D01*
X129210857Y-97174857D01*
X129139428Y-97032000D01*
X128996571Y-96960571D01*
X128710857Y-96960571D01*
X128567999Y-97032000D01*
X128496571Y-97174857D01*
X128496571Y-97317714D01*
X129210857Y-97460571D01*
X127925142Y-97889142D02*
X127782285Y-97960571D01*
X127496571Y-97960571D01*
X127353714Y-97889142D01*
X127282285Y-97746285D01*
X127282285Y-97674857D01*
X127353714Y-97532000D01*
X127496571Y-97460571D01*
X127710857Y-97460571D01*
X127853714Y-97389142D01*
X127925142Y-97246285D01*
X127925142Y-97174857D01*
X127853714Y-97032000D01*
X127710857Y-96960571D01*
X127496571Y-96960571D01*
X127353714Y-97032000D01*
X126639428Y-97960571D02*
X126639428Y-96960571D01*
X126639428Y-96460571D02*
X126710857Y-96532000D01*
X126639428Y-96603428D01*
X126567999Y-96532000D01*
X126639428Y-96460571D01*
X126639428Y-96603428D01*
X125282285Y-96960571D02*
X125282285Y-98174857D01*
X125353714Y-98317714D01*
X125425142Y-98389142D01*
X125567999Y-98460571D01*
X125782285Y-98460571D01*
X125925142Y-98389142D01*
X125282285Y-97889142D02*
X125425142Y-97960571D01*
X125710857Y-97960571D01*
X125853714Y-97889142D01*
X125925142Y-97817714D01*
X125996571Y-97674857D01*
X125996571Y-97246285D01*
X125925142Y-97103428D01*
X125853714Y-97032000D01*
X125710857Y-96960571D01*
X125425142Y-96960571D01*
X125282285Y-97032000D01*
X124567999Y-96960571D02*
X124567999Y-97960571D01*
X124567999Y-97103428D02*
X124496571Y-97032000D01*
X124353714Y-96960571D01*
X124139428Y-96960571D01*
X123996571Y-97032000D01*
X123925142Y-97174857D01*
X123925142Y-97960571D01*
X122139428Y-96389142D02*
X123425142Y-98317714D01*
X121853714Y-96460571D02*
X121353714Y-97960571D01*
X120853714Y-96460571D01*
X120139428Y-97960571D02*
X120282285Y-97889142D01*
X120353714Y-97817714D01*
X120425142Y-97674857D01*
X120425142Y-97246285D01*
X120353714Y-97103428D01*
X120282285Y-97032000D01*
X120139428Y-96960571D01*
X119925142Y-96960571D01*
X119782285Y-97032000D01*
X119710857Y-97103428D01*
X119639428Y-97246285D01*
X119639428Y-97674857D01*
X119710857Y-97817714D01*
X119782285Y-97889142D01*
X119925142Y-97960571D01*
X120139428Y-97960571D01*
X118996571Y-97960571D02*
X118996571Y-96960571D01*
X118996571Y-97246285D02*
X118925142Y-97103428D01*
X118853714Y-97032000D01*
X118710857Y-96960571D01*
X118567999Y-96960571D01*
X117853714Y-97960571D02*
X117996571Y-97889142D01*
X118067999Y-97817714D01*
X118139428Y-97674857D01*
X118139428Y-97246285D01*
X118067999Y-97103428D01*
X117996571Y-97032000D01*
X117853714Y-96960571D01*
X117639428Y-96960571D01*
X117496571Y-97032000D01*
X117425142Y-97103428D01*
X117353714Y-97246285D01*
X117353714Y-97674857D01*
X117425142Y-97817714D01*
X117496571Y-97889142D01*
X117639428Y-97960571D01*
X117853714Y-97960571D01*
X116710857Y-96960571D02*
X116710857Y-97960571D01*
X116710857Y-97103428D02*
X116639428Y-97032000D01*
X116496571Y-96960571D01*
X116282285Y-96960571D01*
X116139428Y-97032000D01*
X116067999Y-97174857D01*
X116067999Y-97960571D01*
X115353714Y-97389142D02*
X114210857Y-97389142D01*
X113496571Y-97960571D02*
X113496571Y-96460571D01*
X113496571Y-97174857D02*
X112639428Y-97174857D01*
X112639428Y-97960571D02*
X112639428Y-96460571D01*
X111282285Y-97960571D02*
X111282285Y-97174857D01*
X111353714Y-97032000D01*
X111496571Y-96960571D01*
X111782285Y-96960571D01*
X111925142Y-97032000D01*
X111282285Y-97889142D02*
X111425142Y-97960571D01*
X111782285Y-97960571D01*
X111925142Y-97889142D01*
X111996571Y-97746285D01*
X111996571Y-97603428D01*
X111925142Y-97460571D01*
X111782285Y-97389142D01*
X111425142Y-97389142D01*
X111282285Y-97317714D01*
X110567999Y-97960571D02*
X110567999Y-96960571D01*
X110567999Y-97246285D02*
X110496571Y-97103428D01*
X110425142Y-97032000D01*
X110282285Y-96960571D01*
X110139428Y-96960571D01*
X108996571Y-97960571D02*
X108996571Y-96460571D01*
X108996571Y-97889142D02*
X109139428Y-97960571D01*
X109425142Y-97960571D01*
X109567999Y-97889142D01*
X109639428Y-97817714D01*
X109710857Y-97674857D01*
X109710857Y-97246285D01*
X109639428Y-97103428D01*
X109567999Y-97032000D01*
X109425142Y-96960571D01*
X109139428Y-96960571D01*
X108996571Y-97032000D01*
X108425142Y-96960571D02*
X108139428Y-97960571D01*
X107853714Y-97246285D01*
X107567999Y-97960571D01*
X107282285Y-96960571D01*
X106067999Y-97960571D02*
X106067999Y-97174857D01*
X106139428Y-97032000D01*
X106282285Y-96960571D01*
X106567999Y-96960571D01*
X106710857Y-97032000D01*
X106067999Y-97889142D02*
X106210857Y-97960571D01*
X106567999Y-97960571D01*
X106710857Y-97889142D01*
X106782285Y-97746285D01*
X106782285Y-97603428D01*
X106710857Y-97460571D01*
X106567999Y-97389142D01*
X106210857Y-97389142D01*
X106067999Y-97317714D01*
X105353714Y-97960571D02*
X105353714Y-96960571D01*
X105353714Y-97246285D02*
X105282285Y-97103428D01*
X105210857Y-97032000D01*
X105067999Y-96960571D01*
X104925142Y-96960571D01*
X103853714Y-97889142D02*
X103996571Y-97960571D01*
X104282285Y-97960571D01*
X104425142Y-97889142D01*
X104496571Y-97746285D01*
X104496571Y-97174857D01*
X104425142Y-97032000D01*
X104282285Y-96960571D01*
X103996571Y-96960571D01*
X103853714Y-97032000D01*
X103782285Y-97174857D01*
X103782285Y-97317714D01*
X104496571Y-97460571D01*
X102067999Y-96389142D02*
X103353714Y-98317714D01*
M02*
